<svg width="16" height="16" viewBox="0 0 16 16" fill="none" xmlns="http://www.w3.org/2000/svg">
<path fill-rule="evenodd" clip-rule="evenodd" d="M8 14C11.2824 14 14 11.2824 14 8C14 4.72353 11.2765 2 7.99412 2C4.71765 2 2 4.72353 2 8C2 11.2824 4.72353 14 8 14ZM8 13C5.22353 13 3.00588 10.7765 3.00588 8C3.00588 5.22941 5.21765 3 7.99412 3C10.7706 3 12.9941 5.22941 13 8C13.0059 10.7765 10.7765 13 8 13ZM10.3647 8.5C10.6941 8.5 10.9176 8.32941 10.9176 8.01765C10.9176 7.7 10.7059 7.51765 10.3647 7.51765H5.62941C5.28824 7.51765 5.07059 7.7 5.07059 8.01765C5.07059 8.32941 5.3 8.5 5.62941 8.5H10.3647Z" fill="#393939"/>
</svg>
