<svg width="16" height="16" viewBox="0 0 16 16" fill="none" xmlns="http://www.w3.org/2000/svg">
<path fill-rule="evenodd" clip-rule="evenodd" d="M8 14C11.2824 14 14 11.2824 14 8C14 4.72353 11.2765 2 7.99412 2C4.71765 2 2 4.72353 2 8C2 11.2824 4.72353 14 8 14ZM7.88824 9.27647C7.57059 9.27647 7.39412 9.11176 7.39412 8.79412V8.71176C7.39412 8.10588 7.72353 7.77647 8.16471 7.47059C8.71176 7.1 8.97059 6.88824 8.97059 6.46471C8.97059 6 8.60588 5.68235 8.04118 5.68235C7.62941 5.68235 7.31765 5.88824 7.12941 6.22353C6.92941 6.45882 6.87647 6.64118 6.52353 6.64118C6.31765 6.64118 6.1 6.49412 6.1 6.21765C6.1 6.11176 6.11765 6.01176 6.14706 5.91176C6.30588 5.34118 7.01765 4.84706 8.07647 4.84706C9.12941 4.84706 10.0412 5.39412 10.0412 6.41765C10.0412 7.15882 9.61176 7.51176 9.01765 7.91765C8.58824 8.20588 8.38235 8.41765 8.38235 8.76471V8.84118C8.38235 9.08235 8.2 9.27647 7.88824 9.27647ZM7.90588 11.0471C7.57059 11.0471 7.24706 10.7765 7.24706 10.4118C7.24706 10.0471 7.56471 9.77647 7.90588 9.77647C8.25294 9.77647 8.57059 10.0412 8.57059 10.4118C8.57059 10.7824 8.24706 11.0471 7.90588 11.0471Z" fill="#393939"/>
</svg>
