<svg width="16" height="16" viewBox="0 0 16 16" fill="none" xmlns="http://www.w3.org/2000/svg">
<path fill-rule="evenodd" clip-rule="evenodd" d="M8 14C11.2824 14 14 11.2824 14 8C14 4.72353 11.2765 2 7.99412 2C4.71765 2 2 4.72353 2 8C2 11.2824 4.72353 14 8 14ZM8 13C5.22353 13 3.00588 10.7765 3.00588 8C3.00588 5.22941 5.21765 3 7.99412 3C10.7706 3 12.9941 5.22941 13 8C13.0059 10.7765 10.7765 13 8 13ZM7.87647 9.21765C8.17647 9.21765 8.35294 9.03529 8.35294 8.8V8.72941C8.35294 8.4 8.54706 8.19412 8.95294 7.92353C9.52353 7.54706 9.92941 7.2 9.92941 6.5C9.92941 5.51765 9.05882 4.99412 8.06471 4.99412C7.05294 4.99412 6.38824 5.47059 6.22353 6.01176C6.19412 6.11176 6.17647 6.20588 6.17647 6.30588C6.17647 6.56471 6.38235 6.71176 6.57647 6.71176C6.91177 6.71176 6.96471 6.52941 7.15294 6.31176C7.34706 5.98824 7.62941 5.79412 8.02353 5.79412C8.55882 5.79412 8.91177 6.09412 8.91177 6.54706C8.91177 6.94706 8.65882 7.14118 8.14706 7.49412C7.72353 7.78824 7.41177 8.1 7.41177 8.67647V8.75294C7.41177 9.06471 7.57647 9.21765 7.87647 9.21765ZM7.86471 10.9765C8.20588 10.9765 8.5 10.7059 8.5 10.3647C8.5 10.0176 8.21176 9.75294 7.86471 9.75294C7.51765 9.75294 7.22941 10.0235 7.22941 10.3647C7.22941 10.7 7.52353 10.9765 7.86471 10.9765Z" fill="#393939"/>
</svg>
