<svg width="16" height="16" viewBox="0 0 16 16" fill="none" xmlns="http://www.w3.org/2000/svg">
<path fill-rule="evenodd" clip-rule="evenodd" d="M8 14C11.2824 14 14 11.2824 14 8C14 4.72353 11.2765 2 7.99412 2C4.71765 2 2 4.72353 2 8C2 11.2824 4.72353 14 8 14ZM7.94706 5.90588C7.52353 5.90588 7.18235 5.56471 7.18235 5.14118C7.18235 4.71176 7.52353 4.37059 7.94706 4.37059C8.37647 4.37059 8.71176 4.71176 8.71176 5.14118C8.71176 5.56471 8.37647 5.90588 7.94706 5.90588ZM9.36471 11.2353H6.97059C6.72941 11.2353 6.54118 11.0647 6.54118 10.8235C6.54118 10.5941 6.72941 10.4118 6.97059 10.4118H7.7V7.71176H7.07059C6.82941 7.71176 6.64118 7.54118 6.64118 7.3C6.64118 7.07059 6.82941 6.88824 7.07059 6.88824H8.17647C8.47647 6.88824 8.63529 7.1 8.63529 7.41765V10.4118H9.36471C9.60588 10.4118 9.79412 10.5941 9.79412 10.8235C9.79412 11.0647 9.60588 11.2353 9.36471 11.2353Z" fill="#393939"/>
</svg>
