<svg width="16" height="16" viewBox="0 0 16 16" fill="none" xmlns="http://www.w3.org/2000/svg">
<path fill-rule="evenodd" clip-rule="evenodd" d="M8 14C11.2824 14 14 11.2765 14 8C14 4.71765 11.2765 2 7.99412 2C4.71765 2 2 4.71765 2 8C2 11.2765 4.72353 14 8 14ZM10.6412 10.0294H5.35882C5.05882 10.0294 4.87647 9.87647 4.87647 9.64118C4.87647 9.30588 5.21765 9.01765 5.5 8.71765C5.72353 8.47647 5.77059 8 5.8 7.61176C5.82353 6.34706 6.16471 5.47647 7.04118 5.15882C7.17059 4.72941 7.51765 4.38824 8 4.38824C8.48235 4.38824 8.82941 4.72941 8.95882 5.15882C9.83529 5.47647 10.1765 6.34706 10.2 7.61176C10.2294 8 10.2706 8.47647 10.5 8.71765L10.6778 8.89445C10.9127 9.13106 11.1235 9.37294 11.1235 9.64118C11.1235 9.87647 10.9412 10.0294 10.6412 10.0294ZM8 11.3882C7.44118 11.3882 7.02941 10.9882 6.98824 10.5059H9.01177C8.97059 10.9882 8.55882 11.3882 8 11.3882Z" fill="#393939"/>
</svg>
