<svg width="16" height="16" viewBox="0 0 16 16" fill="none" xmlns="http://www.w3.org/2000/svg">
<path fill-rule="evenodd" clip-rule="evenodd" d="M8 14C11.2824 14 14 11.2824 14 8C14 4.72353 11.2765 2 7.99412 2C4.71765 2 2 4.72353 2 8C2 11.2824 4.72353 14 8 14ZM8 13C5.22353 13 3.00588 10.7765 3.00588 8C3.00588 5.22941 5.21765 3 7.99412 3C10.7706 3 12.9941 5.22941 13 8C13.0059 10.7765 10.7765 13 8 13ZM10.6412 10.0412C10.9412 10.0412 11.1235 9.88824 11.1235 9.65294C11.1235 9.31765 10.7941 9.02353 10.5 8.72941C10.2706 8.48824 10.2294 8.01176 10.2 7.62353C10.1765 6.35882 9.83529 5.48824 8.95882 5.17059C8.82941 4.74118 8.48235 4.4 8 4.4C7.51765 4.4 7.17059 4.74118 7.04118 5.17059C6.16471 5.48824 5.82353 6.35882 5.8 7.62353C5.77059 8.01176 5.72353 8.48824 5.5 8.72941C5.21765 9.02941 4.87647 9.31765 4.87647 9.65294C4.87647 9.88824 5.05882 10.0412 5.35882 10.0412H10.6412ZM8 11.4C8.55882 11.4 8.97059 11 9.01177 10.5176H6.98824C7.02941 11 7.44118 11.4 8 11.4Z" fill="#393939"/>
</svg>
