<svg width="16" height="16" viewBox="0 0 16 16" fill="none" xmlns="http://www.w3.org/2000/svg">
<path fill-rule="evenodd" clip-rule="evenodd" d="M8 14C11.2824 14 14 11.2824 14 8C14 4.72353 11.2765 2 7.99412 2C4.71765 2 2 4.72353 2 8C2 11.2824 4.72353 14 8 14ZM8 13C5.22353 13 3.00588 10.7765 3.00588 8C3.00588 5.22941 5.21765 3 7.99412 3C10.7706 3 12.9941 5.22941 13 8C13.0059 10.7765 10.7765 13 8 13ZM7.25882 10.9412C7.45294 10.9412 7.61176 10.8471 7.73529 10.6647L10.6412 6.09412C10.7176 5.97647 10.7824 5.84118 10.7824 5.71176C10.7824 5.44118 10.5471 5.27647 10.3 5.27647C10.1471 5.27647 9.99412 5.36471 9.88824 5.54118L7.23529 9.79412L5.87059 8.02941C5.73529 7.85294 5.59412 7.78824 5.43529 7.78824C5.17647 7.78824 4.97059 8 4.97059 8.26471C4.97059 8.39412 5.02353 8.51765 5.11176 8.62941L6.75294 10.6647C6.91176 10.8588 7.06471 10.9412 7.25882 10.9412Z" fill="#393939"/>
</svg>
