<svg width="16" height="16" viewBox="0 0 16 16" fill="none" xmlns="http://www.w3.org/2000/svg">
<path fill-rule="evenodd" clip-rule="evenodd" d="M8 14C11.2824 14 14 11.2824 14 8C14 4.72353 11.2765 2 7.99412 2C4.71765 2 2 4.72353 2 8C2 11.2824 4.72353 14 8 14ZM7.19412 11.0176C6.99412 11.0176 6.83529 10.9294 6.67059 10.7294L4.97059 8.63529C4.88235 8.52353 4.82941 8.38235 4.82941 8.25294C4.82941 7.97647 5.04706 7.76471 5.31176 7.76471C5.47647 7.76471 5.62353 7.82941 5.75882 8.01176L7.16471 9.82941L9.9 5.44706C10.0118 5.26471 10.1647 5.17647 10.3235 5.17647C10.5824 5.17647 10.8294 5.34706 10.8294 5.62941C10.8294 5.75882 10.7529 5.9 10.6824 6.01765L7.68824 10.7294C7.55882 10.9235 7.39412 11.0176 7.19412 11.0176Z" fill="#393939"/>
</svg>
