<svg width="16" height="16" viewBox="0 0 16 16" fill="none" xmlns="http://www.w3.org/2000/svg">
<path fill-rule="evenodd" clip-rule="evenodd" d="M12.8728 14C13.9493 14 14.6206 13.2274 14.6206 12.2522C14.6206 11.9609 14.5446 11.6633 14.3863 11.391L9.50393 2.88654C9.17465 2.31029 8.59206 2 8.00314 2C7.40789 2 6.8253 2.31029 6.49602 2.88654L1.6137 11.3974C1.45538 11.6697 1.37939 11.9609 1.37939 12.2522C1.37939 13.2274 2.05063 14 3.12715 14H12.8728ZM12.8601 13.0058H3.13348C2.69655 13.0058 2.40525 12.6449 2.40525 12.2522C2.40525 12.1383 2.42425 12.0053 2.48757 11.8723L7.36356 3.36781C7.50288 3.12718 7.75618 3.01319 8.00314 3.01319C8.25011 3.01319 8.49074 3.12084 8.63005 3.36781L13.4997 11.8786C13.5694 12.0053 13.601 12.1383 13.601 12.2522C13.601 12.6449 13.2971 13.0058 12.8601 13.0058ZM8.00314 9.73193C8.3071 9.73193 8.47808 9.55462 8.48441 9.22533L8.57939 5.88813C8.58573 5.56517 8.33243 5.32454 7.99681 5.32454C7.65486 5.32454 7.41422 5.55884 7.42056 5.88179L7.50288 9.22533C7.50921 9.54829 7.68652 9.73193 8.00314 9.73193ZM8.00314 11.79C8.36409 11.79 8.68705 11.4987 8.68705 11.1314C8.68705 10.7578 8.37042 10.4728 8.00314 10.4728C7.62953 10.4728 7.31924 10.7641 7.31924 11.1314C7.31924 11.4923 7.63586 11.79 8.00314 11.79Z" fill="#393939"/>
</svg>
