<svg width="16" height="16" viewBox="0 0 16 16" fill="none" xmlns="http://www.w3.org/2000/svg">
<path fill-rule="evenodd" clip-rule="evenodd" d="M12.9741 14C13.924 14 14.5192 13.3161 14.5192 12.4549C14.5192 12.1953 14.4559 11.9356 14.3166 11.695L9.33296 2.77889C9.048 2.26596 8.5224 2 8.00314 2C7.47755 2 6.95195 2.26596 6.66699 2.77889L1.68968 11.7013C1.55037 11.942 1.48071 12.1953 1.48071 12.4549C1.48071 13.3161 2.07596 14 3.02583 14H12.9741ZM8.00314 9.66227C7.66752 9.66227 7.48388 9.4723 7.47121 9.13034L7.38256 6.00211C7.36989 5.66016 7.63586 5.40686 7.99681 5.40686C8.35143 5.40686 8.62372 5.66649 8.61106 6.00844L8.5224 9.13034C8.50974 9.47863 8.31976 9.66227 8.00314 9.66227ZM8.00314 11.9989C7.63586 11.9989 7.29391 11.7077 7.29391 11.315C7.29391 10.9224 7.62953 10.6311 8.00314 10.6311C8.37042 10.6311 8.71238 10.9161 8.71238 11.315C8.71238 11.714 8.36409 11.9989 8.00314 11.9989Z" fill="#393939"/>
</svg>
