<svg width="16" height="16" viewBox="0 0 16 16" fill="none" xmlns="http://www.w3.org/2000/svg">
<path fill-rule="evenodd" clip-rule="evenodd" d="M4.72996 9.76793C5.26582 9.76793 5.53587 9.49789 5.53587 8.94093V7.05485C5.53587 6.49789 5.26582 6.23207 4.72996 6.23207H2.80591C2.27004 6.23207 2 6.49789 2 7.05485V8.94093C2 9.49789 2.27004 9.76793 2.80591 9.76793H4.72996ZM8.96203 9.76793C9.49789 9.76793 9.76793 9.49789 9.76793 8.94093V7.05485C9.76793 6.49789 9.49789 6.23207 8.96203 6.23207H7.04219C6.50211 6.23207 6.23207 6.49789 6.23207 7.05485V8.94093C6.23207 9.49789 6.50211 9.76793 7.04219 9.76793H8.96203ZM4.7173 9.173H2.81435C2.66667 9.173 2.59494 9.09705 2.59494 8.94093V7.05485C2.59494 6.90295 2.66667 6.827 2.81435 6.827H4.7173C4.86498 6.827 4.94093 6.90295 4.94093 7.05485V8.94093C4.94093 9.09705 4.86498 9.173 4.7173 9.173ZM8.95359 9.173H7.05063C6.89873 9.173 6.827 9.09705 6.827 8.94093V7.05485C6.827 6.90295 6.89873 6.827 7.05063 6.827H8.95359C9.10127 6.827 9.173 6.90295 9.173 7.05485V8.94093C9.173 9.09705 9.10127 9.173 8.95359 9.173ZM13.1941 9.76793C13.73 9.76793 14 9.49789 14 8.94093V7.05485C14 6.49789 13.73 6.23207 13.1941 6.23207H11.2743C10.7342 6.23207 10.4641 6.49789 10.4641 7.05485V8.94093C10.4641 9.49789 10.7342 9.76793 11.2743 9.76793H13.1941ZM13.1857 9.173H11.2827C11.1308 9.173 11.0591 9.09705 11.0591 8.94093V7.05485C11.0591 6.90295 11.1308 6.827 11.2827 6.827H13.1857C13.3333 6.827 13.4051 6.90295 13.4051 7.05485V8.94093C13.4051 9.09705 13.3333 9.173 13.1857 9.173ZM4.72996 5.53587C5.26582 5.53587 5.53587 5.26582 5.53587 4.70886V2.82278C5.53587 2.26582 5.26582 2 4.72996 2H2.80591C2.27004 2 2 2.26582 2 2.82278V4.70886C2 5.26582 2.27004 5.53587 2.80591 5.53587H4.72996ZM8.96203 5.53587C9.49789 5.53587 9.76793 5.26582 9.76793 4.70886V2.82278C9.76793 2.26582 9.49789 2 8.96203 2H7.04219C6.50211 2 6.23207 2.26582 6.23207 2.82278V4.70886C6.23207 5.26582 6.50211 5.53587 7.04219 5.53587H8.96203ZM4.7173 4.94093H2.81435C2.66667 4.94093 2.59494 4.86498 2.59494 4.70886V2.82278C2.59494 2.67089 2.66667 2.59494 2.81435 2.59494H4.7173C4.86498 2.59494 4.94093 2.67089 4.94093 2.82278V4.70886C4.94093 4.86498 4.86498 4.94093 4.7173 4.94093ZM8.95359 4.94093H7.05063C6.89873 4.94093 6.827 4.86498 6.827 4.70886V2.82278C6.827 2.67089 6.89873 2.59494 7.05063 2.59494H8.95359C9.10127 2.59494 9.173 2.67089 9.173 2.82278V4.70886C9.173 4.86498 9.10127 4.94093 8.95359 4.94093ZM13.1941 5.53587C13.73 5.53587 14 5.26582 14 4.70886V2.82278C14 2.26582 13.73 2 13.1941 2H11.2743C10.7342 2 10.4641 2.26582 10.4641 2.82278V4.70886C10.4641 5.26582 10.7342 5.53587 11.2743 5.53587H13.1941ZM13.1857 4.94093H11.2827C11.1308 4.94093 11.0591 4.86498 11.0591 4.70886V2.82278C11.0591 2.67089 11.1308 2.59494 11.2827 2.59494H13.1857C13.3333 2.59494 13.4051 2.67089 13.4051 2.82278V4.70886C13.4051 4.86498 13.3333 4.94093 13.1857 4.94093ZM13.1941 14C13.73 14 14 13.73 14 13.173V11.2869C14 10.73 13.73 10.4641 13.1941 10.4641H11.2743C10.7342 10.4641 10.4641 10.73 10.4641 11.2869V13.173C10.4641 13.73 10.7342 14 11.2743 14H13.1941ZM13.1857 13.4051H11.2827C11.1308 13.4051 11.0591 13.3291 11.0591 13.173V11.2869C11.0591 11.135 11.1308 11.0591 11.2827 11.0591H13.1857C13.3333 11.0591 13.4051 11.135 13.4051 11.2869V13.173C13.4051 13.3291 13.3333 13.4051 13.1857 13.4051ZM4.72996 14C5.26582 14 5.53587 13.7342 5.53587 13.1772V11.2869C5.53587 10.7342 5.26582 10.4641 4.72996 10.4641H2.80591C2.27004 10.4641 2 10.7342 2 11.2869V13.1772C2 13.7342 2.27004 14 2.80591 14H4.72996ZM8.96203 14C9.49789 14 9.76793 13.7342 9.76793 13.1772V11.2869C9.76793 10.7342 9.49789 10.4641 8.96203 10.4641H7.04219C6.50211 10.4641 6.23207 10.7342 6.23207 11.2869V13.1772C6.23207 13.7342 6.50211 14 7.04219 14H8.96203ZM4.7173 13.4051H2.81435C2.66667 13.4051 2.59494 13.3291 2.59494 13.1772V11.2911C2.59494 11.135 2.66667 11.0591 2.81435 11.0591H4.7173C4.86498 11.0591 4.94093 11.135 4.94093 11.2911V13.1772C4.94093 13.3291 4.86498 13.4051 4.7173 13.4051ZM8.95359 13.4051H7.05063C6.89873 13.4051 6.827 13.3291 6.827 13.1772V11.2911C6.827 11.135 6.89873 11.0591 7.05063 11.0591H8.95359C9.10127 11.0591 9.173 11.135 9.173 11.2911V13.1772C9.173 13.3291 9.10127 13.4051 8.95359 13.4051Z" fill="#393939"/>
</svg>
