<svg width="16" height="16" viewBox="0 0 16 16" fill="none" xmlns="http://www.w3.org/2000/svg">
<path fill-rule="evenodd" clip-rule="evenodd" d="M4.72996 9.76793C5.26582 9.76793 5.53587 9.49789 5.53587 8.94093V7.05485C5.53587 6.49789 5.26582 6.23207 4.72996 6.23207H2.80591C2.27004 6.23207 2 6.49789 2 7.05485V8.94093C2 9.49789 2.27004 9.76793 2.80591 9.76793H4.72996ZM8.96203 9.76793C9.49789 9.76793 9.76793 9.49789 9.76793 8.94093V7.05485C9.76793 6.49789 9.49789 6.23207 8.96203 6.23207H7.04219C6.50211 6.23207 6.23207 6.49789 6.23207 7.05485V8.94093C6.23207 9.49789 6.50211 9.76793 7.04219 9.76793H8.96203ZM13.1941 9.76793C13.73 9.76793 14 9.49789 14 8.94093V7.05485C14 6.49789 13.73 6.23207 13.1941 6.23207H11.2743C10.7342 6.23207 10.4641 6.49789 10.4641 7.05485V8.94093C10.4641 9.49789 10.7342 9.76793 11.2743 9.76793H13.1941ZM4.72996 5.53587C5.26582 5.53587 5.53587 5.26582 5.53587 4.70886V2.82278C5.53587 2.26582 5.26582 2 4.72996 2H2.80591C2.27004 2 2 2.26582 2 2.82278V4.70886C2 5.26582 2.27004 5.53587 2.80591 5.53587H4.72996ZM8.96203 5.53587C9.49789 5.53587 9.76793 5.26582 9.76793 4.70886V2.82278C9.76793 2.26582 9.49789 2 8.96203 2H7.04219C6.50211 2 6.23207 2.26582 6.23207 2.82278V4.70886C6.23207 5.26582 6.50211 5.53587 7.04219 5.53587H8.96203ZM13.1941 5.53587C13.73 5.53587 14 5.26582 14 4.70886V2.82278C14 2.26582 13.73 2 13.1941 2H11.2743C10.7342 2 10.4641 2.26582 10.4641 2.82278V4.70886C10.4641 5.26582 10.7342 5.53587 11.2743 5.53587H13.1941ZM13.1941 14C13.73 14 14 13.73 14 13.173V11.2869C14 10.73 13.73 10.4641 13.1941 10.4641H11.2743C10.7342 10.4641 10.4641 10.73 10.4641 11.2869V13.173C10.4641 13.73 10.7342 14 11.2743 14H13.1941ZM4.72996 14C5.26582 14 5.53587 13.7342 5.53587 13.1772V11.2869C5.53587 10.7342 5.26582 10.4641 4.72996 10.4641H2.80591C2.27004 10.4641 2 10.7342 2 11.2869V13.1772C2 13.7342 2.27004 14 2.80591 14H4.72996ZM8.96203 14C9.49789 14 9.76793 13.7342 9.76793 13.1772V11.2869C9.76793 10.7342 9.49789 10.4641 8.96203 10.4641H7.04219C6.50211 10.4641 6.23207 10.7342 6.23207 11.2869V13.1772C6.23207 13.7342 6.50211 14 7.04219 14H8.96203Z" fill="#393939"/>
</svg>
