<svg width="16" height="16" viewBox="0 0 16 16" fill="none" xmlns="http://www.w3.org/2000/svg">
<path fill-rule="evenodd" clip-rule="evenodd" d="M10.0443 4.5655C10.2178 4.5655 10.3583 4.36975 10.3583 4.12061C10.3583 3.87148 10.2178 3.6698 10.0443 3.6698H2.30987C2.13634 3.6698 2 3.87148 2 4.12061C2 4.36975 2.13634 4.5655 2.30987 4.5655H10.0443ZM13.5492 7.15175C13.7983 7.15175 14 6.956 14 6.70687C14 6.4518 13.7983 6.25012 13.5492 6.25012H2.44488C2.19575 6.25012 2 6.4518 2 6.70687C2 6.956 2.19575 7.15175 2.44488 7.15175H13.5492ZM10.0443 9.74395C10.2178 9.74395 10.3583 9.54226 10.3583 9.2872C10.3583 9.03806 10.2178 8.84231 10.0443 8.84231H2.30987C2.13634 8.84231 2 9.03806 2 9.2872C2 9.54226 2.13634 9.74395 2.30987 9.74395H10.0443ZM13.5492 12.3302C13.7983 12.3302 14 12.1285 14 11.8735C14 11.6243 13.7983 11.4286 13.5492 11.4286H2.44488C2.19575 11.4286 2 11.6243 2 11.8735C2 12.1285 2.19575 12.3302 2.44488 12.3302H13.5492Z" fill="#393939"/>
</svg>
