<svg width="16" height="16" viewBox="0 0 16 16" fill="none" xmlns="http://www.w3.org/2000/svg">
<path fill-rule="evenodd" clip-rule="evenodd" d="M9.27261 12.7275C9.27261 12.0085 8.70633 11.4358 8.00007 11.4358C7.29382 11.4358 6.72754 12.0085 6.72754 12.7275C6.72754 13.4274 7.29382 14 8.00007 14C8.70633 14 9.27261 13.4274 9.27261 12.7275ZM9.27261 7.99998C9.27261 7.29372 8.70633 6.72744 8.00007 6.72744C7.29382 6.72744 6.72754 7.29372 6.72754 7.99998C6.72754 8.69987 7.29382 9.26615 8.00007 9.26615C8.70633 9.26615 9.27261 8.69987 9.27261 7.99998ZM9.27261 3.27257C9.27261 2.56631 8.70633 2.00003 8.00007 2.00003C7.29382 2.00003 6.72754 2.56631 6.72754 3.27257C6.72754 3.99155 7.29382 4.55783 8.00007 4.55783C8.70633 4.55783 9.27261 3.99155 9.27261 3.27257Z" fill="#393939"/>
</svg>
