<svg width="16" height="16" viewBox="0 0 16 16" fill="none" xmlns="http://www.w3.org/2000/svg">
<path fill-rule="evenodd" clip-rule="evenodd" d="M3.27253 9.27253C3.99152 9.27253 4.56416 8.70626 4.56416 8C4.56416 7.29374 3.99152 6.72747 3.27253 6.72747C2.57264 6.72747 2 7.29374 2 8C2 8.70626 2.57264 9.27253 3.27253 9.27253ZM8.00002 9.27253C8.70628 9.27253 9.27256 8.70626 9.27256 8C9.27256 7.29374 8.70628 6.72747 8.00002 6.72747C7.30013 6.72747 6.73385 7.29374 6.73385 8C6.73385 8.70626 7.30013 9.27253 8.00002 9.27253ZM12.7274 9.27253C13.4337 9.27253 14 8.70626 14 8C14 7.29374 13.4337 6.72747 12.7274 6.72747C12.0085 6.72747 11.4422 7.29374 11.4422 8C11.4422 8.70626 12.0085 9.27253 12.7274 9.27253Z" fill="#393939"/>
</svg>
