<svg width="16" height="16" viewBox="0 0 16 16" fill="none" xmlns="http://www.w3.org/2000/svg">
<path fill-rule="evenodd" clip-rule="evenodd" d="M13.5492 5.85862C13.7983 5.85862 14 5.66288 14 5.41374C14 5.16461 13.7983 4.96292 13.5492 4.96292H2.44488C2.19575 4.96292 2 5.16461 2 5.41374C2 5.66288 2.19575 5.85862 2.44488 5.85862H13.5492ZM10.4124 8.44488C10.5938 8.44488 10.7407 8.24913 10.7407 8C10.7407 7.74493 10.5938 7.54325 10.4124 7.54325H2.32405C2.14258 7.54325 2 7.74493 2 8C2 8.24913 2.14258 8.44488 2.32405 8.44488H10.4124ZM7.77459 11.0371C7.89916 11.0371 8 10.8354 8 10.5803C8 10.3312 7.89916 10.1354 7.77459 10.1354H2.22244C2.09787 10.1354 2 10.3312 2 10.5803C2 10.8354 2.09787 11.0371 2.22244 11.0371H7.77459Z" fill="#393939"/>
</svg>
