<svg width="16" height="16" viewBox="0 0 16 16" fill="none" xmlns="http://www.w3.org/2000/svg">
<path fill-rule="evenodd" clip-rule="evenodd" d="M12.755 7.46225C13.5828 7.46225 14 7.04508 14 6.18468V3.27105C14 2.41065 13.5828 2 12.755 2H9.78925C8.95492 2 8.53775 2.41065 8.53775 3.27105V6.18468C8.53775 7.04508 8.95492 7.46225 9.78925 7.46225H12.755ZM6.21727 7.46225C7.04508 7.46225 7.46225 7.04508 7.46225 6.18468V3.27105C7.46225 2.41065 7.04508 2 6.21727 2H3.24498C2.41716 2 2 2.41065 2 3.27105V6.18468C2 7.04508 2.41716 7.46225 3.24498 7.46225H6.21727ZM6.21727 14C7.04508 14 7.46225 13.5894 7.46225 12.729V9.8088C7.46225 8.95492 7.04508 8.53775 6.21727 8.53775H3.24498C2.41716 8.53775 2 8.95492 2 9.8088V12.729C2 13.5894 2.41716 14 3.24498 14H6.21727ZM12.755 14C13.5828 14 14 13.5894 14 12.729V9.8088C14 8.95492 13.5828 8.53775 12.755 8.53775H9.78925C8.95492 8.53775 8.53775 8.95492 8.53775 9.8088V12.729C8.53775 13.5894 8.95492 14 9.78925 14H12.755Z" fill="#393939"/>
</svg>
