<svg width="16" height="16" viewBox="0 0 16 16" fill="none" xmlns="http://www.w3.org/2000/svg">
<path fill-rule="evenodd" clip-rule="evenodd" d="M6.21727 7.46225C7.04508 7.46225 7.46225 7.04508 7.46225 6.18468V3.27105C7.46225 2.41065 7.04508 2 6.21727 2H3.24498C2.41716 2 2 2.41065 2 3.27105V6.18468C2 7.04508 2.41716 7.46225 3.24498 7.46225H6.21727ZM12.755 7.46225C13.5828 7.46225 14 7.04508 14 6.18468V3.27105C14 2.41065 13.5828 2 12.755 2H9.78925C8.95492 2 8.53775 2.41065 8.53775 3.27105V6.18468C8.53775 7.04508 8.95492 7.46225 9.78925 7.46225H12.755ZM6.19772 6.54318H3.25801C3.02988 6.54318 2.91907 6.42586 2.91907 6.18468V3.27105C2.91907 3.03639 3.02988 2.91907 3.25801 2.91907H6.19772C6.42586 2.91907 6.54318 3.03639 6.54318 3.27105V6.18468C6.54318 6.42586 6.42586 6.54318 6.19772 6.54318ZM12.742 6.54318H9.80228C9.56763 6.54318 9.45682 6.42586 9.45682 6.18468V3.27105C9.45682 3.03639 9.56763 2.91907 9.80228 2.91907H12.742C12.9701 2.91907 13.0809 3.03639 13.0809 3.27105V6.18468C13.0809 6.42586 12.9701 6.54318 12.742 6.54318ZM6.21727 14C7.04508 14 7.46225 13.5894 7.46225 12.729V9.8088C7.46225 8.95492 7.04508 8.53775 6.21727 8.53775H3.24498C2.41716 8.53775 2 8.95492 2 9.8088V12.729C2 13.5894 2.41716 14 3.24498 14H6.21727ZM12.755 14C13.5828 14 14 13.5894 14 12.729V9.8088C14 8.95492 13.5828 8.53775 12.755 8.53775H9.78925C8.95492 8.53775 8.53775 8.95492 8.53775 9.8088V12.729C8.53775 13.5894 8.95492 14 9.78925 14H12.755ZM6.19772 13.0809H3.25801C3.02988 13.0809 2.91907 12.9636 2.91907 12.729V9.81532C2.91907 9.57414 3.02988 9.45682 3.25801 9.45682H6.19772C6.42586 9.45682 6.54318 9.57414 6.54318 9.81532V12.729C6.54318 12.9636 6.42586 13.0809 6.19772 13.0809ZM12.742 13.0809H9.80228C9.56763 13.0809 9.45682 12.9636 9.45682 12.729V9.81532C9.45682 9.57414 9.56763 9.45682 9.80228 9.45682H12.742C12.9701 9.45682 13.0809 9.57414 13.0809 9.81532V12.729C13.0809 12.9636 12.9701 13.0809 12.742 13.0809Z" fill="#393939"/>
</svg>
