<svg width="16" height="16" viewBox="0 0 16 16" fill="none" xmlns="http://www.w3.org/2000/svg">
<path fill-rule="evenodd" clip-rule="evenodd" d="M3.60794 3.19404C3.93548 3.19404 4.20347 2.92605 4.20347 2.60447C4.20347 2.27097 3.93548 2.00893 3.60794 2.00893H2.58958C2.26203 2.00893 2 2.27097 2 2.60447C2 2.92605 2.26203 3.19404 2.58958 3.19404H3.60794ZM13.5176 3.08089C13.7856 3.08089 14 2.87246 14 2.60447C14 2.33052 13.7856 2.12208 13.5176 2.12208H5.97815C5.7042 2.12208 5.49576 2.33052 5.49576 2.60447C5.49576 2.87246 5.7042 3.08089 5.97815 3.08089H13.5176ZM3.60794 6.79702C3.93548 6.79702 4.20347 6.52903 4.20347 6.20149C4.20347 5.87394 3.93548 5.61191 3.60794 5.61191H2.58958C2.26203 5.61191 2 5.87394 2 6.20149C2 6.52903 2.26203 6.79702 2.58958 6.79702H3.60794ZM13.5176 6.68387C13.7856 6.68387 14 6.46948 14 6.20149C14 5.9335 13.7856 5.72506 13.5176 5.72506H5.97815C5.7042 5.72506 5.49576 5.9335 5.49576 6.20149C5.49576 6.46948 5.7042 6.68387 5.97815 6.68387H13.5176ZM3.60794 10.394C3.93548 10.394 4.20347 10.1261 4.20347 9.80447C4.20347 9.47097 3.93548 9.20893 3.60794 9.20893H2.58958C2.26203 9.20893 2 9.47097 2 9.80447C2 10.1261 2.26203 10.394 2.58958 10.394H3.60794ZM13.5176 10.2809C13.7856 10.2809 14 10.0725 14 9.80447C14 9.53052 13.7856 9.32208 13.5176 9.32208H5.97815C5.7042 9.32208 5.49576 9.53052 5.49576 9.80447C5.49576 10.0725 5.7042 10.2809 5.97815 10.2809H13.5176ZM3.60794 13.9911C3.93548 13.9911 4.20347 13.7231 4.20347 13.4015C4.20347 13.068 3.93548 12.806 3.60794 12.806H2.58958C2.26203 12.806 2 13.068 2 13.4015C2 13.7231 2.26203 13.9911 2.58958 13.9911H3.60794ZM10.3506 13.8779C10.5128 13.8779 10.6425 13.6695 10.6425 13.4015C10.6425 13.1275 10.5128 12.9191 10.3506 12.9191H5.7877C5.62191 12.9191 5.49576 13.1275 5.49576 13.4015C5.49576 13.6695 5.62191 13.8779 5.7877 13.8779H10.3506Z" fill="#393939"/>
</svg>
