<svg width="16" height="16" viewBox="0 0 16 16" fill="none" xmlns="http://www.w3.org/2000/svg">
<path fill-rule="evenodd" clip-rule="evenodd" d="M13.5492 5.85862C13.7983 5.85862 14 5.66288 14 5.41374C14 5.16461 13.7983 4.96292 13.5492 4.96292H2.44488C2.19575 4.96292 2 5.16461 2 5.41374C2 5.66288 2.19575 5.85862 2.44488 5.85862H13.5492ZM13.5492 8.44488C13.7983 8.44488 14 8.24913 14 8C14 7.74493 13.7983 7.54325 13.5492 7.54325H2.44488C2.19575 7.54325 2 7.74493 2 8C2 8.24913 2.19575 8.44488 2.44488 8.44488H13.5492ZM13.5492 11.0371C13.7983 11.0371 14 10.8354 14 10.5803C14 10.3312 13.7983 10.1354 13.5492 10.1354H2.44488C2.19575 10.1354 2 10.3312 2 10.5803C2 10.8354 2.19575 11.0371 2.44488 11.0371H13.5492Z" fill="#393939"/>
</svg>
