<svg width="16" height="16" viewBox="0 0 16 16" fill="none" xmlns="http://www.w3.org/2000/svg">
<path fill-rule="evenodd" clip-rule="evenodd" d="M10.7317 2.01552C11.1603 2.01552 11.5124 2.34556 11.5483 2.76504L11.5513 2.83574V3.58313C11.5513 4.01124 11.2218 4.36434 10.8024 4.40032L10.7317 4.40334H9.76042V10.0744H10.7305V9.93055C10.7305 9.55447 11.1245 9.25898 11.6259 9.25898C12.1006 9.25898 12.4774 9.52255 12.5178 9.86866L12.5213 9.93055V10.0744H14V12.1691H12.4987C12.4109 12.4718 12.0599 12.6915 11.6259 12.6915C11.2225 12.6915 10.8893 12.5001 10.7749 12.2285L10.7538 12.1691H9.76042V13.9845H6.17869V7.39349H5.33519C5.24744 7.69615 4.89643 7.91583 4.46244 7.91583C4.05906 7.91583 3.72588 7.72446 3.61142 7.45288L3.59029 7.39349H2V5.29878H3.56701V5.15491C3.56701 4.77883 3.961 4.48334 4.46244 4.48334C4.93715 4.48334 5.31389 4.74691 5.35429 5.09301L5.35787 5.15491V5.29878H6.17869V4.40334H5.20864C4.77996 4.40334 4.42683 4.07277 4.39084 3.65374L4.38782 3.58313V2.83574C4.38782 2.40706 4.71839 2.05446 5.13793 2.01854L5.20864 2.01552H10.7317ZM9.16347 4.40872H6.77564V13.3875H9.16347V4.40872ZM11.6259 9.7067C11.3791 9.7067 11.2086 9.82006 11.1819 9.90746L11.1782 9.93055V12.0199C11.1782 12.1094 11.3567 12.2438 11.6259 12.2438C11.8727 12.2438 12.0432 12.1309 12.07 12.0431L12.0736 12.0199V9.93055C12.0736 9.84161 11.8951 9.7067 11.6259 9.7067ZM13.403 10.6714H12.5213V11.5728H13.403V10.6714ZM10.7305 10.6714H9.76042V11.5728H10.7305V10.6714ZM7.89255 9.55122L7.97015 9.47746L8.04776 9.55122L8.18039 9.68567L8.28747 9.80216C8.49062 10.031 8.71635 10.3343 8.71635 10.552C8.71635 10.9472 8.38265 11.2683 7.97015 11.2683C7.55825 11.2683 7.22396 10.9472 7.22396 10.552C7.22396 10.3343 7.44968 10.031 7.65283 9.80216L7.75991 9.68567L7.89255 9.55122ZM4.46244 4.93105C4.21565 4.93105 4.0451 5.04442 4.01839 5.13182L4.01472 5.15491V7.24425C4.01472 7.3338 4.19321 7.46811 4.46244 7.46811C4.70923 7.46811 4.87978 7.35525 4.90649 7.26747L4.91016 7.24425V5.15491C4.91016 5.06596 4.73167 4.93105 4.46244 4.93105ZM7.89255 5.37253L7.97015 5.29878L8.04776 5.37253L8.18039 5.50698C8.40108 5.73923 8.71635 6.11604 8.71635 6.3733C8.71635 6.76848 8.38265 7.08964 7.97015 7.08964C7.55825 7.08964 7.22396 6.76848 7.22396 6.3733C7.22396 6.13583 7.49259 5.79649 7.70749 5.56302L7.80897 5.45607L7.89255 5.37253ZM6.17869 5.89573H5.35787V6.79713H6.17869V5.89573ZM3.56701 5.89573H2.59696V6.79713H3.56701V5.89573ZM10.7317 2.61248H5.20864C5.0988 2.61248 5.00735 2.69172 4.98839 2.79569L4.98478 2.83574V3.58313C4.98478 3.69244 5.06402 3.78382 5.16841 3.80278L5.20864 3.80639H10.7317C10.8404 3.80639 10.9318 3.72715 10.9507 3.62317L10.9543 3.58313V2.83574C10.9543 2.72643 10.8751 2.63504 10.7715 2.61608L10.7317 2.61248ZM7.3726 2.91095V3.50791H5.58173V2.91095H7.3726ZM10.0589 2.91095V3.50791H8.86499V2.91095H10.0589Z" fill="#393939"/>
</svg>
