<svg width="16" height="16" viewBox="0 0 16 16" fill="none" xmlns="http://www.w3.org/2000/svg">
<path fill-rule="evenodd" clip-rule="evenodd" d="M6.62342 2.48005L6.65998 2.52357C6.92716 2.27159 7.39673 2 8.05103 2C8.19193 2 8.30615 2.11422 8.30615 2.25512C8.30615 2.39601 8.19193 2.51024 8.05104 2.51024C7.51483 2.51024 7.15936 2.74517 6.98883 2.915L8.45908 4.66501C8.72196 4.4072 9.19956 4.1198 9.87264 4.1198C10.0135 4.1198 10.1278 4.23402 10.1278 4.37491C10.1278 4.51581 10.0135 4.63003 9.87265 4.63003C9.31237 4.63003 8.94943 4.88653 8.7886 5.05724L10.2626 6.81173C10.526 6.55453 11.0027 6.26888 11.6738 6.26888C11.8147 6.26888 11.9289 6.3831 11.9289 6.524C11.9289 6.6649 11.8147 6.77912 11.6738 6.77912C11.1162 6.77912 10.754 7.03315 10.5921 7.20385L12.3615 9.31004C12.63 9.06011 13.0968 8.79369 13.7449 8.79368C13.8858 8.79368 14 8.9079 14 9.0488C14 9.1897 13.8858 9.30392 13.7449 9.30392C13.2164 9.30392 12.8635 9.5321 12.6902 9.70126L12.822 9.85814C13.2752 10.3975 13.2053 11.2022 12.6659 11.6553L10.2947 13.6474C9.75535 14.1006 8.95072 14.0307 8.49756 13.4913L7.51766 12.3249C7.41452 12.3645 7.30773 12.3984 7.19697 12.4259C6.99882 12.4751 6.81022 12.5652 6.7173 12.6742L6.6662 12.7341C6.20554 13.2747 5.3939 13.3394 4.85336 12.8788L3.49926 11.7248C3.04122 11.3344 2.98635 10.6466 3.37672 10.1886C3.40384 10.1567 3.41762 10.1157 3.41518 10.0739L3.24999 7.24517L2.29896 6.11318C1.84579 5.57379 1.9157 4.76916 2.45509 4.31599L4.82623 2.32392C5.36562 1.87075 6.17025 1.94065 6.62342 2.48005ZM3.35361 6.57531C3.41114 6.46721 3.49371 6.36201 3.60988 6.27042C3.66197 6.22935 3.71627 6.18601 3.77048 6.14273C3.86253 6.06925 3.9545 5.99583 4.03484 5.93422C4.09651 5.88693 4.15637 5.84264 4.20978 5.80676C4.14972 5.38518 4.30204 4.94307 4.65209 4.64898L4.77535 4.54543C5.31474 4.09227 6.11937 4.16217 6.57253 4.70156L6.67061 4.81831C6.78435 4.74726 6.93787 4.69301 7.10436 4.68032C7.3212 4.66378 7.57371 4.71694 7.79835 4.90839C8.08357 5.15147 8.13847 5.4503 8.12027 5.68974C8.1675 5.69591 8.21482 5.70461 8.26111 5.71554C8.422 5.75353 8.60164 5.82575 8.74431 5.94734C8.92207 6.09883 8.99421 6.3276 9.02588 6.51187C9.04082 6.59884 9.04855 6.68671 9.05149 6.77019C9.26286 6.78371 9.52349 6.85081 9.74649 7.04086C9.95726 7.22049 10.0219 7.48059 10.0351 7.6896C10.0406 7.77689 10.0377 7.86322 10.0297 7.94408C10.1905 7.97677 10.3735 8.05407 10.5503 8.20473C10.8004 8.41785 10.7877 8.74012 10.7454 8.94048C10.7222 9.05008 10.685 9.15226 10.6458 9.2349C10.6184 9.29286 10.5804 9.36174 10.5335 9.41625L10.625 9.52515C11.0782 10.0645 11.0083 10.8692 10.4689 11.3223L10.3051 11.4599C9.85225 11.8404 9.2043 11.8362 8.75856 11.4818C8.52544 11.7112 8.27212 11.9226 7.98936 12.0932L8.88822 13.1631C9.16012 13.4867 9.6429 13.5286 9.96653 13.2567L12.3377 11.2647C12.6613 10.9928 12.7032 10.51 12.4313 10.1864L6.23275 2.80826C5.96085 2.48462 5.47808 2.44268 5.15444 2.71458L2.7833 4.70666C2.45967 4.97856 2.41772 5.46133 2.68962 5.78497L3.35361 6.57531ZM9.11093 11.1083C9.3687 11.2883 9.72472 11.2811 9.97692 11.0692L10.1407 10.9317C10.4643 10.6598 10.5062 10.177 10.2343 9.85337L10.2003 9.81287L9.3729 10.8027C9.28782 10.9045 9.20072 11.0069 9.11093 11.1083ZM6.31815 5.19199L6.18187 5.02978C5.90997 4.70614 5.42719 4.6642 5.10356 4.9361L4.9803 5.03965C4.70031 5.27488 4.63116 5.66796 4.79367 5.97926L4.87154 6.09944C4.87645 6.10567 4.88148 6.11184 4.88662 6.11796L5.20552 6.49753L6.31815 5.19199ZM4.39199 6.30371C4.41143 6.3346 4.43234 6.36489 4.45473 6.39448L4.58052 6.58861C4.52958 6.72146 4.51789 6.86652 4.54863 6.99104C4.57095 7.08143 4.62647 7.19925 4.75037 7.26559C4.884 7.33714 5.02503 7.31138 5.13321 7.25567C5.25074 7.19515 5.36389 7.09833 5.47499 6.96797L6.93497 5.25485C6.96987 5.23153 7.04589 5.19649 7.14316 5.18908C7.24506 5.18131 7.35917 5.2045 7.46739 5.29673C7.65198 5.45405 7.63052 5.66757 7.57356 5.82906C7.49685 6.04655 7.69524 6.2329 7.89049 6.19453C7.93687 6.18542 8.03177 6.18566 8.14386 6.21212C8.25443 6.23823 8.3513 6.28279 8.41336 6.33568C8.45364 6.37001 8.49794 6.45237 8.52301 6.59829C8.54661 6.73561 8.546 6.88754 8.53665 7.00574C8.52223 7.18817 8.68726 7.31967 8.85278 7.28705C8.96536 7.26486 9.22719 7.26869 9.41553 7.4292C9.47487 7.47976 9.51665 7.57528 9.52585 7.72159C9.53477 7.86367 9.50943 8.01127 9.48246 8.10418C9.4237 8.30664 9.60658 8.47808 9.79342 8.43828C9.8362 8.42917 10.0196 8.42288 10.2193 8.59307C10.2466 8.61635 10.2782 8.6835 10.2462 8.83496C10.2322 8.90128 10.2088 8.96561 10.1848 9.01627C10.1688 9.05009 10.1569 9.06848 10.1523 9.07572C10.1507 9.07812 10.1501 9.07941 10.1501 9.07941L10.1428 9.08609L8.98142 10.4755C8.41149 11.1573 7.84664 11.7389 7.07403 11.9307C6.83941 11.9889 6.52528 12.1129 6.32896 12.3432L6.27787 12.4032C5.99998 12.7293 5.51038 12.7683 5.18432 12.4904L3.83022 11.3364C3.58665 11.1288 3.55747 10.7631 3.76506 10.5195C3.87752 10.3876 3.93466 10.2173 3.92455 10.0442L3.75654 7.16714L3.75195 7.14679C3.73104 7.0539 3.73908 6.81829 3.92577 6.67111C3.98377 6.62539 4.04055 6.58004 4.09559 6.53609C4.18405 6.46546 4.26812 6.39833 4.34534 6.33911C4.36157 6.32666 4.37713 6.31485 4.39199 6.30371Z" fill="#393939"/>
</svg>
