<svg width="16" height="16" viewBox="0 0 16 16" fill="none" xmlns="http://www.w3.org/2000/svg">
<path fill-rule="evenodd" clip-rule="evenodd" d="M8.46597 13.003L12.6101 8.85883C12.7725 8.69642 12.7725 8.39961 12.6045 8.24841C12.4421 8.0748 12.1789 8.09721 12.0109 8.25961L7.89476 12.3757C6.82512 13.451 5.38588 13.3446 4.46745 12.4149C3.54343 11.4965 3.43702 10.0685 4.50666 8.99323L10.1236 3.38187C10.7676 2.73785 11.7141 2.64824 12.3301 3.25866C12.9405 3.88028 12.8509 4.82111 12.2125 5.46513L6.72432 10.9533C6.44991 11.2389 6.1139 11.1549 5.9235 10.9645C5.73309 10.7685 5.65469 10.4437 5.9291 10.1581L9.76521 6.33315C9.93322 6.15955 9.94442 5.91314 9.78201 5.75074C9.61961 5.59393 9.3732 5.60513 9.2052 5.77314L5.35788 9.62045C4.78666 10.1917 4.80906 11.0653 5.31308 11.5693C5.8619 12.1181 6.69072 12.1069 7.26754 11.5301L12.7781 6.01954C13.8253 4.97231 13.7805 3.59467 12.8677 2.68184C11.9773 1.79142 10.5772 1.72422 9.53 2.77145L3.88504 8.42201C2.5018 9.80526 2.6082 11.7821 3.85704 13.031C5.10587 14.2742 7.08273 14.3806 8.46597 13.003Z" fill="#393939"/>
</svg>
