<svg width="16" height="16" viewBox="0 0 16 16" fill="none" xmlns="http://www.w3.org/2000/svg">
<path fill-rule="evenodd" clip-rule="evenodd" d="M10.8169 14C11.0908 14 11.3231 13.7677 11.3231 13.4878C11.3231 13.2079 11.0908 12.9816 10.8169 12.9816H10.001L9.8402 11.8859H13.5682C14.5866 11.8859 15.0988 11.3975 15.0988 10.3553V3.53052C15.0988 2.48834 14.5866 2 13.5682 2H2.43177C1.4134 2 0.901245 2.48834 0.901245 3.53052V10.3553C0.901245 11.3975 1.4134 11.8859 2.43177 11.8859H6.15981L5.99901 12.9816H5.18313C4.90919 12.9816 4.67693 13.2079 4.67693 13.4878C4.67693 13.7677 4.90919 14 5.18313 14H10.8169ZM13.8779 10.4588H2.11613C1.93747 10.4588 1.86005 10.3738 1.86005 10.1543V3.65994C1.86005 3.15711 2.03871 2.95881 2.44963 2.95881H13.5504C13.9553 2.95881 14.14 3.15711 14.14 3.65994V10.1543C14.14 10.3738 14.0566 10.4588 13.8779 10.4588Z" fill="#393939"/>
</svg>
