<svg width="16" height="16" viewBox="0 0 16 16" fill="none" xmlns="http://www.w3.org/2000/svg">
<path fill-rule="evenodd" clip-rule="evenodd" d="M11.488 2.688C11.456 2.24 11.2 2 10.7094 2H5.40271C4.91205 2 4.65605 2.24 4.62405 2.688H11.488ZM12.5334 4.16533C12.4534 3.68 12.224 3.41333 11.6907 3.41333H4.31471C3.78138 3.41333 3.55205 3.68 3.47205 4.16533H12.5334ZM12.0427 14C13.1574 14 13.7174 13.4453 13.7174 12.3467V6.68267C13.7174 5.584 13.1574 5.02933 12.0427 5.02933H3.95738C2.83738 5.02933 2.28271 5.57867 2.28271 6.68267V12.3467C2.28271 13.4453 2.83738 14 3.95738 14H12.0427ZM8.00538 10.4533C7.10405 10.4427 6.37338 9.68533 6.37338 8.66667C6.37338 7.712 7.10405 6.93333 8.00538 6.93333C8.90671 6.93333 9.63205 7.712 9.63205 8.66667C9.63205 9.68533 8.90671 10.4587 8.00538 10.4533ZM11.312 13.1413H4.69338C5.12538 12.2667 6.19205 11.1947 7.99471 11.1947C9.79738 11.1947 10.88 12.2667 11.312 13.1413Z" fill="#393939"/>
</svg>
