<svg width="16" height="16" viewBox="0 0 16 16" fill="none" xmlns="http://www.w3.org/2000/svg">
<path fill-rule="evenodd" clip-rule="evenodd" d="M11.488 2.688C11.456 2.24 11.2 2 10.7094 2H5.29605C4.80538 2 4.54938 2.24 4.51738 2.688H11.488ZM12.5334 4.16533C12.4534 3.68 12.224 3.41333 11.6907 3.41333H4.31471C3.78138 3.41333 3.55205 3.68 3.47205 4.16533H12.5334ZM12.0427 14C13.1574 14 13.7174 13.4453 13.7174 12.3467V6.68267C13.7174 5.584 13.1574 5.02933 12.0427 5.02933H3.95738C2.83738 5.02933 2.28271 5.57867 2.28271 6.68267V12.3467C2.28271 13.4453 2.83738 14 3.95738 14H12.0427ZM4.62405 13.1413H3.96805C3.43471 13.1413 3.14138 12.8533 3.14138 12.2987V6.72533C3.14138 6.17067 3.43471 5.888 3.96805 5.888H12.032C12.5547 5.888 12.8587 6.17067 12.8587 6.72533V12.2987C12.8587 12.8533 12.5547 13.1413 12.032 13.1413H11.3654C10.9334 12.16 9.79738 11.088 7.99471 11.088C6.19205 11.088 5.05605 12.16 4.62405 13.1413ZM7.99471 10.3467C8.89605 10.352 9.62138 9.53067 9.62138 8.56C9.62138 7.60533 8.89605 6.82667 7.99471 6.82667C7.09338 6.82667 6.36805 7.60533 6.36805 8.56C6.36805 9.53067 7.09338 10.336 7.99471 10.3467Z" fill="#393939"/>
</svg>
