<svg width="16" height="16" viewBox="0 0 16 16" fill="none" xmlns="http://www.w3.org/2000/svg">
<path fill-rule="evenodd" clip-rule="evenodd" d="M8.01268 8.73234C8.27264 8.73234 8.51359 8.61187 8.79257 8.33288L14.3089 2.87364C14.0743 2.64538 13.6368 2.53759 13.0091 2.53759H2.80072C2.26812 2.53759 1.89402 2.63904 1.68478 2.84828L7.23279 8.33288C7.50543 8.60553 7.74638 8.73234 8.01268 8.73234ZM1.15851 12.4416L5.6413 8.00951L1.14583 3.57745C1.05072 3.75498 1 4.05933 1 4.49683V11.4968C1 11.947 1.05072 12.264 1.15851 12.4416ZM14.8478 12.4352C14.9493 12.2514 15 11.9407 15 11.4968V4.49683C15 4.07201 14.9493 3.76766 14.8605 3.59647L10.3777 8.00951L14.8478 12.4352ZM13.1993 13.4624C13.7319 13.4624 14.0996 13.361 14.3089 13.1581L9.73732 8.63089L9.31884 9.05571C8.88134 9.47418 8.4692 9.6644 8.01268 9.6644C7.54982 9.6644 7.13768 9.47418 6.70652 9.05571L6.2817 8.63089L1.72283 13.1517C1.96377 13.361 2.38225 13.4624 2.99094 13.4624H13.1993Z" fill="#393939"/>
</svg>
