<svg width="16" height="16" viewBox="0 0 16 16" fill="none" xmlns="http://www.w3.org/2000/svg">
<path fill-rule="evenodd" clip-rule="evenodd" d="M13.1993 13.4624C14.3406 13.4624 15 12.803 15 11.4968V4.49683C15 3.19701 14.3342 2.53759 13.0091 2.53759H2.80072C1.65942 2.53759 1 3.19067 1 4.49683V11.4968C1 12.8093 1.66576 13.4624 2.99094 13.4624H13.1993ZM8.01268 8.71332C7.75906 8.71332 7.51178 8.59284 7.24547 8.3202L2.45833 3.59647C2.59783 3.5394 2.76268 3.5077 2.9529 3.5077H13.0471C13.2437 3.5077 13.4149 3.5394 13.5543 3.60915L8.77989 8.3202C8.50725 8.59284 8.25996 8.71332 8.01268 8.71332ZM1.97645 11.6046C1.97011 11.5729 1.97011 11.5349 1.97011 11.4968V4.43342L5.61594 8.00951L1.97645 11.6046ZM14.0299 11.5856L10.4094 8.00951L14.0299 4.45245V11.5856ZM13.0471 12.4923H2.9529C2.77536 12.4923 2.61685 12.4669 2.49004 12.4099L6.2817 8.66259L6.69384 9.06839C7.13768 9.50589 7.5625 9.68976 8.01268 9.68976C8.45652 9.68976 8.88768 9.50589 9.33152 9.06839L9.74366 8.66259L13.529 12.4035C13.3895 12.4669 13.231 12.4923 13.0471 12.4923Z" fill="#393939"/>
</svg>
