<svg width="16" height="16" viewBox="0 0 16 16" fill="none" xmlns="http://www.w3.org/2000/svg">
<path fill-rule="evenodd" clip-rule="evenodd" d="M10.1819 2H5.81823C5.0655 2 4.45459 2.61091 4.45459 3.36364V12.6364C4.45459 13.3891 5.0655 14 5.81823 14H10.1819C10.9346 14 11.5455 13.3891 11.5455 12.6364V3.36364C11.5455 2.61091 10.9346 2 10.1819 2ZM8.00004 13.4545C7.54732 13.4545 7.18186 13.0891 7.18186 12.6364C7.18186 12.1836 7.54732 11.8182 8.00004 11.8182C8.45277 11.8182 8.81823 12.1836 8.81823 12.6364C8.81823 13.0891 8.45277 13.4545 8.00004 13.4545ZM10.4546 11.2727H5.5455V3.63636H10.4546V11.2727Z" fill="#393939"/>
</svg>
