<svg width="16" height="16" viewBox="0 0 16 16" fill="none" xmlns="http://www.w3.org/2000/svg">
<path fill-rule="evenodd" clip-rule="evenodd" d="M11.288 14C12.123 14 12.8544 13.7092 13.4434 13.063C13.7864 12.6817 14 12.2359 14 11.7964C14 11.4733 13.877 11.1632 13.5728 10.9435L11.5858 9.53473C11.2816 9.32795 11.0291 9.22456 10.7961 9.22456C10.5049 9.22456 10.2395 9.39257 9.94175 9.68336L9.4822 10.1357C9.411 10.2068 9.32039 10.2391 9.23625 10.2391C9.13916 10.2391 9.04207 10.2003 8.97735 10.168C8.57605 9.95477 7.88997 9.36672 7.24919 8.73344C6.61489 8.10016 6.02589 7.41519 5.81877 7.01454C5.78641 6.94346 5.74757 6.85299 5.74757 6.75606C5.74757 6.67205 5.77346 6.58805 5.84466 6.51696L6.30421 6.04523C6.589 5.74798 6.76375 5.4895 6.76375 5.19225C6.76375 4.95961 6.65372 4.70759 6.44013 4.40388L5.04854 2.44588C4.82201 2.1357 4.50485 2 4.15534 2C3.72816 2 3.28803 2.19386 2.90615 2.5622C2.27832 3.16317 2 3.9063 2 4.72698C2 6.58158 3.41748 8.83037 5.28803 10.6914C7.15858 12.559 9.43042 14 11.288 14Z" fill="#393939"/>
</svg>
