<svg width="16" height="16" viewBox="0 0 16 16" fill="none" xmlns="http://www.w3.org/2000/svg">
<path fill-rule="evenodd" clip-rule="evenodd" d="M10.9202 14.0001C11.9939 14.0001 12.6994 13.7117 13.319 13.0123C13.3681 12.9633 13.4172 12.9081 13.4601 12.859C13.8282 12.4479 14 12.043 14 11.6565C14 11.2148 13.7423 10.8038 13.1963 10.4234L11.411 9.18413C10.8589 8.80376 10.2147 8.76081 9.69939 9.27002L9.22699 9.74241C9.08589 9.88351 8.96319 9.88965 8.82822 9.80376C8.49693 9.59517 7.82822 9.01235 7.37423 8.55836C6.89571 8.08597 6.43558 7.55836 6.19018 7.17186C6.11043 7.03075 6.11656 6.91419 6.25767 6.77308L6.72393 6.30069C7.23926 5.78535 7.19632 5.13505 6.81595 4.58903L5.57669 2.80376C5.19632 2.25775 4.78528 2.00621 4.34356 2.00008C3.95706 1.99394 3.55215 2.17186 3.1411 2.53995C3.08589 2.58903 3.03681 2.63198 2.98773 2.67492C2.28834 3.30069 2 4.00621 2 5.06756C2 6.82216 3.07975 8.95713 5.06135 10.9387C7.03067 12.9081 9.17178 14.0001 10.9202 14.0001ZM10.9264 13.0553C9.36196 13.086 7.35583 11.8835 5.76687 10.3007C4.16564 8.7056 2.90798 6.63198 2.93865 5.06756C2.95092 4.39271 3.19018 3.80989 3.66871 3.39271C3.71166 3.3559 3.74233 3.32523 3.78528 3.29456C3.96933 3.13505 4.16564 3.04916 4.34356 3.04916C4.52147 3.04916 4.68098 3.11664 4.79755 3.30069L5.98773 5.08597C6.11656 5.27615 6.12883 5.49087 5.93865 5.68106L5.39877 6.22094C4.97546 6.64425 5.00613 7.15959 5.31288 7.57063C5.66258 8.04302 6.26994 8.73014 6.74233 9.1964C7.20859 9.66879 7.95092 10.3314 8.42945 10.6872C8.84049 10.9939 9.35583 11.0246 9.77914 10.6013L10.319 10.0614C10.5092 9.87124 10.7178 9.88351 10.9141 10.0062L12.6994 11.1964C12.8834 11.3191 12.9509 11.4725 12.9509 11.6565C12.9509 11.8344 12.865 12.0308 12.7055 12.2148C12.6687 12.2577 12.6442 12.2884 12.6074 12.3314C12.1902 12.8099 11.6074 13.043 10.9264 13.0553Z" fill="#393939"/>
</svg>
