<svg width="16" height="16" viewBox="0 0 16 16" fill="none" xmlns="http://www.w3.org/2000/svg">
<path fill-rule="evenodd" clip-rule="evenodd" d="M7.92943 10.3258L8.68036 9.56361C7.93508 9.50715 7.44951 9.2813 7.08252 8.91431C6.09446 7.92625 6.10011 6.52603 7.07687 5.54926L8.91749 3.70864C9.90555 2.72623 11.2945 2.72058 12.2825 3.70864C13.2706 4.6967 13.2593 6.09128 12.2825 7.06805L11.1759 8.17468C11.334 8.53602 11.3679 8.95383 11.3114 9.32083L12.9714 7.66653C14.3208 6.31148 14.3321 4.39746 12.9657 3.02547C11.5937 1.65347 9.67406 1.66477 8.31901 3.01982L6.3937 4.95077C5.03865 6.30583 5.02735 8.22549 6.39935 9.59184C6.75505 9.94754 7.20673 10.2016 7.92943 10.3258ZM7.67536 12.9851L9.60631 11.0485C10.9614 9.69347 10.9727 7.77381 9.60066 6.40746C9.24496 6.05176 8.79328 5.79768 8.07058 5.67347L7.31965 6.43569C8.06494 6.4978 8.5505 6.71799 8.91749 7.08499C9.90555 8.07305 9.89991 9.47327 8.92314 10.45L7.07687 12.2907C6.09446 13.2731 4.70553 13.2787 3.71747 12.2963C2.72941 11.3026 2.73505 9.91366 3.71747 8.93125L4.8241 7.82462C4.66601 7.46892 4.62648 7.04546 4.68859 6.67847L3.02865 8.33277C1.67924 9.68782 1.66795 11.6075 3.03429 12.9738C4.40629 14.3458 6.32595 14.3345 7.67536 12.9851Z" fill="#393939"/>
</svg>
