<svg width="16" height="16" viewBox="0 0 16 16" fill="none" xmlns="http://www.w3.org/2000/svg">
<path fill-rule="evenodd" clip-rule="evenodd" d="M6.91115 12.8982C7.22779 12.8982 7.47981 12.6656 7.47981 12.3425C7.47981 12.1874 7.42165 12.0323 7.31826 11.9354L5.87076 10.462L3.69305 8.47819L5.25687 8.57512H13.4313C13.7674 8.57512 14 8.33603 14 8C14 7.66397 13.7674 7.42488 13.4313 7.42488H5.25687L3.69952 7.52181L5.87076 5.53796L7.31826 4.06462C7.42165 3.96123 7.47981 3.8126 7.47981 3.65751C7.47981 3.33441 7.22779 3.10178 6.91115 3.10178C6.75606 3.10178 6.62036 3.15347 6.47819 3.29564L2.20032 7.56704C2.07108 7.68982 2 7.83845 2 8C2 8.16155 2.07108 8.31018 2.20032 8.43296L6.49111 12.7173C6.62036 12.8401 6.75606 12.8982 6.91115 12.8982Z" fill="#393939"/>
</svg>
