<svg width="16" height="16" viewBox="0 0 16 16" fill="none" xmlns="http://www.w3.org/2000/svg">
<path fill-rule="evenodd" clip-rule="evenodd" d="M8.00006 14C8.15887 14 8.30498 13.9365 8.42568 13.8094L12.6438 9.58497C12.7645 9.45791 12.8153 9.32451 12.8153 9.17205C12.8153 8.86077 12.5866 8.61938 12.269 8.61938C12.1165 8.61938 11.9704 8.6702 11.8688 8.77184L10.4204 10.1948L8.52097 12.2785L8.56544 10.9254V2.55903C8.56544 2.22869 8.33039 2 8.00006 2C7.66973 2 7.43468 2.22869 7.43468 2.55903V10.9254L7.4855 12.2848L5.57973 10.1948L4.13135 8.77184C4.03606 8.6702 3.8836 8.61938 3.73114 8.61938C3.41351 8.61938 3.18481 8.86077 3.18481 9.17205C3.18481 9.32451 3.24199 9.45791 3.36269 9.58497L7.57444 13.8094C7.69514 13.9365 7.84125 14 8.00006 14Z" fill="#393939"/>
</svg>
