<svg width="16" height="16" viewBox="0 0 16 16" fill="none" xmlns="http://www.w3.org/2000/svg">
<path fill-rule="evenodd" clip-rule="evenodd" d="M9.08885 12.8982C9.24394 12.8982 9.37964 12.8401 9.50889 12.7173L13.8061 8.43296C13.9354 8.31018 14 8.16155 14 8C14 7.83845 13.9354 7.68982 13.8061 7.56704L9.52181 3.29564C9.37964 3.15347 9.24394 3.10178 9.08885 3.10178C8.77221 3.10178 8.52666 3.33441 8.52666 3.65751C8.52666 3.8126 8.57835 3.96123 8.68174 4.06462L10.1292 5.53796L12.3005 7.52181L10.7431 7.42488H2.56866C2.23263 7.42488 2 7.66397 2 8C2 8.33603 2.23263 8.57512 2.56866 8.57512H10.7431L12.3069 8.47819L10.1292 10.462L8.68174 11.9354C8.57835 12.0323 8.52666 12.1874 8.52666 12.3425C8.52666 12.6656 8.77221 12.8982 9.08885 12.8982Z" fill="#393939"/>
</svg>
