<svg width="16" height="16" viewBox="0 0 16 16" fill="none" xmlns="http://www.w3.org/2000/svg">
<path fill-rule="evenodd" clip-rule="evenodd" d="M8.00006 14C8.33039 14 8.56544 13.7713 8.56544 13.441V5.07464L8.52097 3.72155L10.4204 5.80519L11.8688 7.22816C11.9704 7.3298 12.1165 7.38062 12.269 7.38062C12.5866 7.38062 12.8153 7.13923 12.8153 6.82795C12.8153 6.67549 12.7645 6.54209 12.6438 6.41503L8.42568 2.19058C8.30498 2.06353 8.15887 2 8.00006 2C7.84125 2 7.69514 2.06353 7.57444 2.19058L3.36269 6.41503C3.24199 6.54209 3.18481 6.67549 3.18481 6.82795C3.18481 7.13923 3.41351 7.38062 3.73114 7.38062C3.8836 7.38062 4.03606 7.3298 4.13135 7.22816L5.57973 5.80519L7.4855 3.71519L7.43468 5.07464V13.441C7.43468 13.7713 7.66973 14 8.00006 14Z" fill="#393939"/>
</svg>
