<svg width="16" height="16" viewBox="0 0 16 16" fill="none" xmlns="http://www.w3.org/2000/svg">
<path d="M9.57686 12.9223C9.68739 13.0397 9.75648 13.1986 9.75648 13.3713C9.75648 13.7306 9.48705 14 9.12781 14C8.94819 14 8.7962 13.9309 8.67876 13.8135L3.20035 8.46632C3.06908 8.33506 3 8.17617 3 8.00345C3 7.82383 3.07599 7.65112 3.20725 7.54059L8.67876 2.18653C8.7962 2.06908 8.94819 2 9.12781 2C9.48705 2 9.75648 2.27634 9.75648 2.63558C9.75648 2.80138 9.68739 2.96718 9.57686 3.08463L4.5475 8.00345L9.57686 12.9223Z" fill="#393939"/>
<path d="M13.7565 13.3713C13.7565 13.7306 13.487 14 13.1278 14C12.9482 14 12.7962 13.9309 12.6788 13.8135L7.20035 8.46632C7.06908 8.33506 7 8.17617 7 8.00345C7 7.82383 7.07599 7.65112 7.20725 7.54059L12.6788 2.18653C12.7962 2.06908 12.9482 2 13.1278 2C13.487 2 13.7565 2.27634 13.7565 2.63558C13.7565 2.80138 13.6874 2.96718 13.5769 3.08463L8.5475 8.00345L13.5769 12.9223C13.6874 13.0397 13.7565 13.1986 13.7565 13.3713Z" fill="#393939"/>
</svg>
