<svg width="16" height="16" viewBox="0 0 16 16" fill="none" xmlns="http://www.w3.org/2000/svg">
<path fill-rule="evenodd" clip-rule="evenodd" d="M5.25209 14C5.4316 14 5.5835 13.931 5.70088 13.8136L11.1761 8.4626C11.3073 8.33142 11.3764 8.17261 11.3764 8C11.3764 7.82048 11.3073 7.65478 11.1761 7.5374L5.70778 2.19333C5.5835 2.06904 5.4316 2 5.25209 2C4.89305 2 4.62378 2.27618 4.62378 2.63521C4.62378 2.80092 4.69282 2.96663 4.8033 3.084L9.82976 8L4.8033 12.916C4.69282 13.0334 4.62378 13.1922 4.62378 13.3648C4.62378 13.7238 4.89305 14 5.25209 14Z" fill="#393939"/>
</svg>
