<svg width="16" height="16" viewBox="0 0 16 16" fill="none" xmlns="http://www.w3.org/2000/svg">
<path fill-rule="evenodd" clip-rule="evenodd" d="M8.00345 11.3782C8.17617 11.3782 8.34888 11.3092 8.46632 11.1779L13.8135 5.69948C13.9309 5.58204 14 5.43005 14 5.25734C14 4.8981 13.7306 4.62176 13.3713 4.62176C13.1986 4.62176 13.0397 4.69085 12.9223 4.80138L8.00345 9.83074L3.07772 4.80138C2.96718 4.69085 2.80829 4.62176 2.62867 4.62176C2.26943 4.62176 2 4.8981 2 5.25734C2 5.43005 2.06908 5.58204 2.18653 5.70639L7.53368 11.1779C7.66494 11.3092 7.82383 11.3782 8.00345 11.3782Z" fill="#393939"/>
</svg>
