<svg width="16" height="16" viewBox="0 0 16 16" fill="none" xmlns="http://www.w3.org/2000/svg">
<path d="M4.0771 13.8136C3.95972 13.931 3.80783 14 3.62831 14C3.26928 14 3 13.7238 3 13.3648C3 13.1922 3.06904 13.0334 3.17952 12.916L8.20598 8L3.17952 3.084C3.06904 2.96663 3 2.80092 3 2.63521C3 2.27618 3.26928 2 3.62831 2C3.80783 2 3.95972 2.06904 4.084 2.19333L9.55236 7.5374C9.68354 7.65478 9.75259 7.82048 9.75259 8C9.75259 8.17261 9.68354 8.33142 9.55236 8.4626L4.0771 13.8136Z" fill="#393939"/>
<path d="M7.82979 13.8136C7.71241 13.931 7.56051 14 7.38099 14C7.02196 14 6.75269 13.7238 6.75269 13.3648C6.75269 13.1922 6.82173 13.0334 6.9322 12.916L11.9587 8L6.9322 3.084C6.82173 2.96663 6.75269 2.80092 6.75269 2.63521C6.75269 2.27618 7.02196 2 7.38099 2C7.56051 2 7.71241 2.06904 7.83669 2.19333L13.305 7.5374C13.4362 7.65478 13.5053 7.82048 13.5053 8C13.5053 8.17261 13.4362 8.33142 13.305 8.4626L7.82979 13.8136Z" fill="#393939"/>
</svg>
