<svg width="16" height="16" viewBox="0 0 16 16" fill="none" xmlns="http://www.w3.org/2000/svg">
<path fill-rule="evenodd" clip-rule="evenodd" d="M10.7496 14C11.1089 14 11.3783 13.7306 11.3783 13.3713C11.3783 13.1986 11.3092 13.0397 11.1987 12.9223L6.16932 8.00345L11.1987 3.08463C11.3092 2.96718 11.3783 2.80138 11.3783 2.63558C11.3783 2.27634 11.1089 2 10.7496 2C10.57 2 10.418 2.06908 10.3006 2.18653L4.82908 7.54059C4.69782 7.65112 4.62183 7.82383 4.62183 8.00345C4.62183 8.17617 4.69091 8.33506 4.82217 8.46632L10.3006 13.8135C10.418 13.9309 10.57 14 10.7496 14Z" fill="#393939"/>
</svg>
