<svg width="16" height="16" viewBox="0 0 16 16" fill="none" xmlns="http://www.w3.org/2000/svg">
<path fill-rule="evenodd" clip-rule="evenodd" d="M13.3713 11.3782C13.7306 11.3782 14 11.1088 14 10.7496C14 10.5699 13.9309 10.4111 13.8135 10.3005L8.46632 4.82902C8.34888 4.69775 8.17617 4.62176 8.00345 4.62176C7.82383 4.62176 7.65803 4.69775 7.53368 4.82902L2.18653 10.3005C2.06908 10.4111 2 10.5699 2 10.7496C2 11.1088 2.26943 11.3782 2.62867 11.3782C2.80829 11.3782 2.97409 11.3161 3.07772 11.1986L8.00345 6.16926L12.9223 11.1986C13.0328 11.3161 13.1986 11.3782 13.3713 11.3782Z" fill="#393939"/>
</svg>
