<svg width="16" height="16" viewBox="0 0 16 16" fill="none" xmlns="http://www.w3.org/2000/svg">
<path fill-rule="evenodd" clip-rule="evenodd" d="M8 14C11.2824 14 14 11.2824 14 8C14 4.72353 11.2765 2 7.99412 2C4.71765 2 2 4.72353 2 8C2 11.2824 4.72353 14 8 14ZM8 13C5.22353 13 3.00588 10.7765 3.00588 8C3.00588 5.22941 5.21765 3 7.99412 3C10.7706 3 12.9941 5.22941 13 8C13.0059 10.7765 10.7765 13 8 13ZM10.2691 6.5825C10.5811 6.5825 10.7267 6.82865 10.5464 7.04526L8.3486 9.67902C8.19607 9.88086 7.80781 9.87102 7.64834 9.67902L5.45051 7.04526C5.27718 6.84342 5.41584 6.5825 5.72784 6.5825H10.2691Z" fill="#393939"/>
</svg>
