<svg width="16" height="16" viewBox="0 0 16 16" fill="none" xmlns="http://www.w3.org/2000/svg">
<path fill-rule="evenodd" clip-rule="evenodd" d="M8 14C11.2824 14 14 11.2824 14 8C14 4.72353 11.2765 2 7.99412 2C4.71765 2 2 4.72353 2 8C2 11.2824 4.72353 14 8 14ZM8 13C5.22353 13 3.00588 10.7765 3.00588 8C3.00588 5.22941 5.21765 3 7.99412 3C10.7706 3 12.9941 5.22941 13 8C13.0059 10.7765 10.7765 13 8 13ZM6.8 5.73089C6.8 5.4189 7.04615 5.2733 7.26276 5.45356L9.89652 7.6514C10.0984 7.80393 10.0885 8.19219 9.89652 8.35166L7.26276 10.5495C7.06092 10.7228 6.8 10.5842 6.8 10.2722V5.73089Z" fill="#393939"/>
</svg>
