<svg width="16" height="16" viewBox="0 0 16 16" fill="none" xmlns="http://www.w3.org/2000/svg">
<path fill-rule="evenodd" clip-rule="evenodd" d="M8 14C11.2824 14 14 11.2824 14 8C14 4.72353 11.2765 2 7.99412 2C4.71765 2 2 4.72353 2 8C2 11.2824 4.72353 14 8 14ZM8 13C5.22353 13 3.00588 10.7765 3.00588 8C3.00588 5.22941 5.21765 3 7.99412 3C10.7706 3 12.9941 5.22941 13 8C13.0059 10.7765 10.7765 13 8 13ZM10.2721 9.41408C10.5841 9.41408 10.7296 9.16793 10.5494 8.95132L8.35155 6.31755C8.19902 6.11572 7.81076 6.12556 7.65129 6.31755L5.45346 8.95132C5.28012 9.15316 5.41879 9.41408 5.73078 9.41408H10.2721Z" fill="#393939"/>
</svg>
