<svg width="16" height="16" viewBox="0 0 16 16" fill="none" xmlns="http://www.w3.org/2000/svg">
<path fill-rule="evenodd" clip-rule="evenodd" d="M6.64963 8.89602C6.92691 8.89602 7.10663 8.71117 7.10663 8.44416C7.10663 8.31065 7.06041 8.21309 6.98339 8.13094L5.49944 6.68806L4.52896 5.85623L5.7305 5.90757H12.3955C12.6573 5.90757 12.8525 5.71759 12.8525 5.45058C12.8525 5.18357 12.6573 4.98845 12.3955 4.98845H5.7305L4.52896 5.04493L5.49944 4.21309L6.98339 2.76508C7.06041 2.68806 7.10663 2.58537 7.10663 2.45186C7.10663 2.18999 6.92691 2 6.64963 2C6.5418 2 6.4083 2.05648 6.321 2.14377L3.30175 5.10655C3.19905 5.20411 3.14771 5.32221 3.14771 5.45058C3.14771 5.57381 3.19905 5.69191 3.30175 5.78947L6.321 8.75738C6.4083 8.84467 6.5418 8.89602 6.64963 8.89602ZM9.34539 14C9.45836 14 9.59186 13.9435 9.67916 13.8562L12.6984 10.8935C12.8011 10.7959 12.8525 10.6778 12.8525 10.5494C12.8525 10.4211 12.8011 10.303 12.6984 10.2054L9.67916 7.24262C9.59186 7.15533 9.45836 7.09884 9.34539 7.09884C9.07325 7.09884 8.89353 7.28883 8.89353 7.55584C8.89353 7.68421 8.93461 7.78691 9.01677 7.86906L10.4956 9.31194L11.4712 10.1438L10.2645 10.0924H3.6047C3.33769 10.0924 3.14771 10.2824 3.14771 10.5494C3.14771 10.8164 3.33769 11.0064 3.6047 11.0064H10.2645L11.4712 10.9551L10.4956 11.7869L9.01677 13.2298C8.93461 13.3119 8.89353 13.4146 8.89353 13.543C8.89353 13.81 9.07325 14 9.34539 14Z" fill="#393939"/>
</svg>
