<svg width="16" height="16" viewBox="0 0 16 16" fill="none" xmlns="http://www.w3.org/2000/svg">
<path fill-rule="evenodd" clip-rule="evenodd" d="M11.7827 14C12.1621 14 12.415 13.7396 12.415 13.3751C12.415 13.152 12.296 12.9288 12.0951 12.8023L11.5075 12.4229C10.4734 11.7386 8.6509 10.0127 8.6509 8.19016V5.40055H9.70724C10.228 5.40055 10.3693 5.03604 10.0792 4.62689L8.42029 2.25386C8.18225 1.91911 7.82518 1.91167 7.57969 2.25386L5.91336 4.61946C5.62324 5.03604 5.75714 5.40055 6.29275 5.40055H7.34908V8.19016C7.34908 10.0127 5.51909 11.7311 4.49252 12.4229L3.90484 12.8023C3.69655 12.9288 3.58496 13.1594 3.58496 13.3826C3.58496 13.7173 3.83045 14 4.20983 14C4.40325 14 4.6041 13.933 4.78264 13.814L5.16946 13.5537C6.20348 12.8544 7.72847 11.2773 7.98883 10.4888H8.01115C8.26407 11.2699 9.78906 12.8544 10.8305 13.5537L11.2173 13.814C11.3959 13.933 11.5967 14 11.7827 14Z" fill="#393939"/>
</svg>
