<svg width="16" height="16" viewBox="0 0 16 16" fill="none" xmlns="http://www.w3.org/2000/svg">
<path fill-rule="evenodd" clip-rule="evenodd" d="M10.5939 12.7944C10.7157 12.7944 10.8325 12.7487 10.934 12.6472L13.8629 9.66244C13.9492 9.57614 14 9.44416 14 9.33249C14 9.06345 13.8173 8.88071 13.5533 8.88071C13.4213 8.88071 13.3249 8.9264 13.2437 9.00761L11.8173 10.4695L10.9949 11.4289L11.0457 10.2411V3.65736C11.0457 3.3934 10.8579 3.20558 10.5939 3.20558C10.3299 3.20558 10.1371 3.3934 10.1371 3.65736V10.2411L10.1929 11.4289L9.37056 10.4695L7.93909 9.00761C7.86294 8.9264 7.76142 8.88071 7.62944 8.88071C7.37056 8.88071 7.18274 9.06345 7.18274 9.33249C7.18274 9.44416 7.23858 9.57614 7.32487 9.66244L10.2538 12.6472C10.3503 12.7487 10.467 12.7944 10.5939 12.7944ZM5.41117 12.7944C5.67513 12.7944 5.86294 12.6066 5.86294 12.3426V5.75888L5.81218 4.57107L6.63452 5.53046L8.06091 6.99239C8.14213 7.0736 8.23858 7.11929 8.37056 7.11929C8.63452 7.11929 8.81726 6.93655 8.81726 6.66751C8.81726 6.55584 8.7665 6.42386 8.67513 6.33756L5.74619 3.35279C5.64975 3.25127 5.53299 3.20558 5.41117 3.20558C5.28426 3.20558 5.16751 3.25127 5.07107 3.35279L2.14213 6.33756C2.05584 6.42386 2 6.55584 2 6.66751C2 6.93655 2.18274 7.11929 2.4467 7.11929C2.57868 7.11929 2.6802 7.0736 2.75635 6.99239L4.18782 5.53046L5.01015 4.57107L4.95431 5.75888V12.3426C4.95431 12.6066 5.14721 12.7944 5.41117 12.7944Z" fill="#393939"/>
</svg>
