<svg width="16" height="16" viewBox="0 0 16 16" fill="none" xmlns="http://www.w3.org/2000/svg">
<path fill-rule="evenodd" clip-rule="evenodd" d="M8.00133 14C8.37734 14 8.58549 13.7516 8.58549 13.2883V9.43412C8.58549 7.84278 10.338 5.53298 11.9696 4.46537L12.5404 5.24426C12.8224 5.6337 13.1648 5.54641 13.3058 5.10997L14.1518 2.63902C14.2727 2.27644 14.078 2.02128 13.7087 2.028L11.09 2.06829C10.6401 2.075 10.4521 2.37044 10.7274 2.75317L11.2713 3.49848C9.69339 4.60638 8.20948 6.58045 8.00805 7.59434H7.9879C7.78647 6.57373 6.30927 4.60638 4.73136 3.49848L5.2618 2.8136C5.55053 2.43759 5.36924 2.13543 4.91936 2.11529L2.30741 2.00114C1.9314 1.981 1.72996 2.22943 1.84411 2.59873L2.61628 5.08982C2.75057 5.53298 3.0863 5.6337 3.38174 5.25097L3.99947 4.44523C5.62439 5.48598 7.41717 7.82264 7.41717 9.43412V13.2883C7.41717 13.7516 7.62532 14 8.00133 14Z" fill="#393939"/>
</svg>
