<svg width="16" height="16" viewBox="0 0 16 16" fill="none" xmlns="http://www.w3.org/2000/svg">
<path fill-rule="evenodd" clip-rule="evenodd" d="M7.01893 7.63522C7.37742 7.63522 7.64157 7.40252 7.64157 7.05031C7.64157 6.8805 7.58496 6.72956 7.47176 6.61635L5.52836 4.67925L3.78622 3.02516L5.98748 3.15094H6.50949C6.84283 3.15094 7.10069 2.91824 7.10069 2.57862C7.10069 2.23899 6.84911 2 6.50949 2H3.01893C2.37742 2 2.00635 2.37107 2.00635 3.01258V6.50314C2.00635 6.83019 2.25163 7.08805 2.58496 7.08805C2.9183 7.08805 3.15729 6.83648 3.15729 6.50314V5.97484L3.0315 3.77987L4.68559 5.52201L6.6227 7.4717C6.72962 7.58491 6.86798 7.63522 7.01893 7.63522ZM12.9749 14C13.6164 14 13.9938 13.6289 13.9938 12.9874V9.49686C13.9938 9.16981 13.7485 8.91195 13.4089 8.91195C13.0818 8.91195 12.8365 9.16352 12.8365 9.49686V10.0252L12.9686 12.2201L11.3082 10.478L9.37742 8.5283C9.2705 8.41509 9.12584 8.36478 8.9749 8.36478C8.6227 8.36478 8.35226 8.59748 8.35226 8.94969C8.35226 9.1195 8.41515 9.27044 8.52836 9.38365L10.4655 11.3208L12.2139 12.9748L10.0126 12.8491H9.48433C9.151 12.8491 8.89314 13.0818 8.89314 13.4214C8.89314 13.761 9.151 14 9.48433 14H12.9749Z" fill="#393939"/>
</svg>
