<svg width="16" height="16" viewBox="0 0 16 16" fill="none" xmlns="http://www.w3.org/2000/svg">
<path fill-rule="evenodd" clip-rule="evenodd" d="M8.37426 14C8.82574 14 9.06931 13.578 9.28317 13.1085L13.8337 3.30163C13.9465 3.06984 14 2.86181 14 2.68945C14 2.29718 13.7089 2 13.3109 2C13.1327 2 12.9248 2.04755 12.6931 2.16048L2.89109 6.70728C2.4396 6.9153 2 7.16493 2 7.62259C2 8.08024 2.4396 8.34175 3.02178 8.34175L7.51881 8.35958C7.60198 8.35958 7.64356 8.39525 7.64356 8.4844L7.65545 12.9718C7.65545 13.5364 7.90495 14 8.37426 14ZM8.52871 12.5498L8.56436 7.84844C8.56436 7.60475 8.39802 7.43239 8.14257 7.43239L3.44356 7.46805C3.39604 7.46805 3.3901 7.40862 3.44356 7.38484L12.8535 3.06389C12.9248 3.02823 12.9723 3.06389 12.9307 3.1471L8.61188 12.5617C8.58812 12.6152 8.52871 12.5973 8.52871 12.5498Z" fill="#393939"/>
</svg>
