<svg width="16" height="16" viewBox="0 0 16 16" fill="none" xmlns="http://www.w3.org/2000/svg">
<path fill-rule="evenodd" clip-rule="evenodd" d="M8 2C5.61479 2 3.68567 3.92912 3.68567 6.31433C3.68567 8.88444 6.40986 12.4284 7.53159 13.7781C7.77812 14.074 8.22804 14.074 8.47458 13.7781C9.59014 12.4284 12.3143 8.88444 12.3143 6.31433C12.3143 3.92912 10.3852 2 8 2ZM8 7.85516C7.14946 7.85516 6.45917 7.16487 6.45917 6.31433C6.45917 5.46379 7.14946 4.7735 8 4.7735C8.85054 4.7735 9.54083 5.46379 9.54083 6.31433C9.54083 7.16487 8.85054 7.85516 8 7.85516Z" fill="#393939"/>
</svg>
