<svg width="16" height="16" viewBox="0 0 16 16" fill="none" xmlns="http://www.w3.org/2000/svg">
<path fill-rule="evenodd" clip-rule="evenodd" d="M3.68567 6.31433C3.68567 3.92912 5.61479 2 8 2C10.3852 2 12.3143 3.92912 12.3143 6.31433C12.3143 8.88444 9.59014 12.4284 8.47458 13.7781C8.22804 14.074 7.77812 14.074 7.53159 13.7781C6.40986 12.4284 3.68567 8.88444 3.68567 6.31433ZM4.45294 6.44341C4.45294 4.4458 6.03898 2.83016 8 2.83016C9.96102 2.83016 11.5471 4.4458 11.5471 6.44341C11.5471 8.59588 9.30734 11.5639 8.39018 12.6943C8.18749 12.9421 7.81758 12.9421 7.61489 12.6943C6.69265 11.5639 4.45294 8.59588 4.45294 6.44341ZM8 7.85516C7.14946 7.85516 6.45917 7.16487 6.45917 6.31433C6.45917 5.46379 7.14946 4.7735 8 4.7735C8.85054 4.7735 9.54083 5.46379 9.54083 6.31433C9.54083 7.16487 8.85054 7.85516 8 7.85516Z" fill="#393939"/>
</svg>
