<svg width="16" height="16" viewBox="0 0 16 16" fill="none" xmlns="http://www.w3.org/2000/svg">
<path fill-rule="evenodd" clip-rule="evenodd" d="M9.96721 14C10.1759 14 10.3845 13.9463 10.5633 13.845L13.6811 12.0745C14.0387 11.8778 14.1997 11.5917 14.1997 11.1923V2.92399C14.1997 2.48286 13.9553 2.23845 13.5261 2.23845C13.377 2.23845 13.2221 2.28614 13.0253 2.39344L9.86587 4.15201L6.62891 2.16692C6.44411 2.05961 6.23546 2 6.02682 2C5.81222 2 5.59761 2.05961 5.41281 2.16692L2.31296 3.93145C1.96125 4.13413 1.80029 4.42027 1.80029 4.81967V13.076C1.80029 13.5171 2.0447 13.7675 2.47391 13.7675C2.62295 13.7675 2.77794 13.7139 2.9687 13.6066L6.00298 11.9732L9.29955 13.8212C9.51415 13.9404 9.74664 14 9.96721 14ZM2.83755 12.5335C2.78986 12.5335 2.76005 12.4978 2.76005 12.4382V5.05216C2.76005 4.90909 2.81371 4.80775 2.95678 4.72429L5.40089 3.29359C5.47839 3.25186 5.54396 3.2161 5.61549 3.17437V11.0253L2.92697 12.5037C2.89716 12.5156 2.86736 12.5335 2.83755 12.5335ZM9.42473 12.7183C9.34128 12.6706 9.25186 12.6289 9.16244 12.5812L6.57526 11.1207V3.29955L6.76602 3.40686L9.42473 5.02832V12.7183ZM10.3845 12.8256V4.9687L13.073 3.50224C13.1028 3.48435 13.1326 3.47243 13.1565 3.47243C13.2101 3.47243 13.2399 3.5082 13.2399 3.56781V10.9538C13.2399 11.1028 13.1803 11.2042 13.0432 11.2876L10.6528 12.6766C10.5633 12.7303 10.4739 12.7839 10.3845 12.8256Z" fill="#393939"/>
</svg>
