<svg width="16" height="16" viewBox="0 0 16 16" fill="none" xmlns="http://www.w3.org/2000/svg">
<path fill-rule="evenodd" clip-rule="evenodd" d="M9.59162 14V3.95195L6.62465 2.13213C6.52255 2.07207 6.40243 2.02402 6.28832 2V12.1862L9.31535 13.8799C9.40544 13.9339 9.50153 13.97 9.59162 14ZM2.43847 13.8198C2.58862 13.8198 2.74478 13.7718 2.94297 13.6637L5.4655 12.3063V2.10811C5.35739 2.16216 5.23727 2.22222 5.12916 2.28228L2.28231 3.91592C1.92195 4.11411 1.75378 4.4024 1.75378 4.8048V13.1291C1.75378 13.5736 2.00604 13.8198 2.43847 13.8198ZM10.4084 13.988C10.4685 13.97 10.5346 13.9459 10.5886 13.9039L13.7177 12.1261C14.0781 11.9279 14.2463 11.6396 14.2463 11.2372V2.90691C14.2463 2.46246 13.994 2.21622 13.5616 2.21622C13.4054 2.21622 13.2553 2.26426 13.0571 2.37237L10.4084 3.84384V13.988Z" fill="#393939"/>
</svg>
