<svg width="16" height="16" viewBox="0 0 16 16" fill="none" xmlns="http://www.w3.org/2000/svg">
<path fill-rule="evenodd" clip-rule="evenodd" d="M6.56007 7.39279C7.1733 7.39279 7.52801 7.03206 7.52801 6.41884V3.08818C7.52801 2.77555 7.29354 2.52906 6.9749 2.52906C6.65627 2.52906 6.42781 2.76954 6.42781 3.08818V3.59319L6.55406 5.69138L4.96689 4.02605L3.1212 2.16232C3.01899 2.05411 2.88071 2 2.73643 2C2.39374 2 2.14124 2.22846 2.14124 2.56513C2.14124 2.72144 2.20136 2.87174 2.30957 2.97996L4.16128 4.83166L5.82661 6.41283L3.72841 6.29259H3.2234C2.90476 6.29259 2.65827 6.51503 2.65827 6.83968C2.65827 7.15832 2.89875 7.39279 3.2234 7.39279H6.56007ZM13.2695 14C13.6062 14 13.8587 13.7715 13.8587 13.4349C13.8587 13.2786 13.8046 13.1283 13.6963 13.02L11.8026 11.1263L10.1312 9.54509L12.2354 9.66533H12.8066C13.1252 9.66533 13.3717 9.44289 13.3717 9.12425C13.3717 8.7996 13.1312 8.57114 12.8066 8.57114H9.40376C8.79053 8.57114 8.43582 8.92585 8.43582 9.53908V12.9359C8.43582 13.2545 8.66428 13.495 8.98893 13.495C9.30757 13.495 9.53603 13.2605 9.53603 12.9359V12.3647L9.40977 10.2725L10.9969 11.9379L12.8847 13.8377C12.9869 13.9459 13.1192 14 13.2695 14Z" fill="#393939"/>
</svg>
