<svg width="16" height="16" viewBox="0 0 16 16" fill="none" xmlns="http://www.w3.org/2000/svg">
<path d="M7.79147 2.00348C4.60634 2.11295 2 4.79133 2 8C2 11.2824 4.72353 14 8 14H8.00228C7.72292 13.9996 7.49657 13.7731 7.49657 13.4936V12.9754C5.12665 12.742 3.26486 10.8765 3.03074 8.50638H2.50638C2.22671 8.50638 2 8.27967 2 8C2 7.72034 2.22671 7.49362 2.50638 7.49362H3.03077C3.27095 5.06466 5.22221 3.15902 7.68186 3.00946V2.31814C7.68186 2.19923 7.72285 2.08989 7.79147 2.00348Z" fill="#393939"/>
<path d="M8.50933 13.4936V12.9748C10.8777 12.7389 12.7455 10.8746 12.976 8.50638H13.4936C13.7733 8.50638 14 8.27967 14 8C14 11.281 11.2847 13.9977 8.00418 14C8.28328 13.9993 8.50933 13.7729 8.50933 13.4936Z" fill="#393939"/>
<path d="M12.974 7.49362C12.741 5.19386 10.9706 3.36322 8.69461 3.04804V2.31814C8.69461 2.21185 8.66186 2.1132 8.6059 2.03174C11.6081 2.34456 14 4.92947 14 8C14 7.72034 13.7733 7.49362 13.4936 7.49362H12.974Z" fill="#393939"/>
</svg>
