<svg width="16" height="16" viewBox="0 0 16 16" fill="none" xmlns="http://www.w3.org/2000/svg">
<path fill-rule="evenodd" clip-rule="evenodd" d="M13.2425 14C13.6528 14 13.9431 13.6844 13.9431 13.2804C13.9431 13.091 13.88 12.9143 13.7411 12.7754L10.768 9.7959C11.3929 8.97528 11.7653 7.95897 11.7653 6.85429C11.7653 4.18411 9.58122 2 6.91105 2C4.24088 2 2.05676 4.18411 2.05676 6.85429C2.05676 9.52446 4.24088 11.7086 6.91105 11.7086C7.96523 11.7086 8.93735 11.3677 9.73272 10.7996L12.7248 13.7917C12.8637 13.9306 13.0468 14 13.2425 14ZM6.91105 10.6607C4.82794 10.6607 3.10463 8.9374 3.10463 6.85429C3.10463 4.77117 4.82794 3.04787 6.91105 3.04787C8.99416 3.04787 10.7175 4.77117 10.7175 6.85429C10.7175 8.9374 8.99416 10.6607 6.91105 10.6607ZM6.91105 9.20884C7.17617 9.20884 7.42867 9.02578 7.42867 8.72278V7.32772H8.70379C8.95629 7.32772 9.17723 7.10679 9.17723 6.85429C9.17723 6.60179 8.95629 6.38085 8.70379 6.38085H7.42867V4.9858C7.42867 4.6828 7.17617 4.49974 6.91105 4.49974C6.64593 4.49974 6.39343 4.6828 6.39343 4.9858V6.38085H5.11831C4.8595 6.38085 4.64487 6.60179 4.64487 6.85429C4.64487 7.10679 4.8595 7.32772 5.11831 7.32772H6.39343V8.72278C6.39343 9.02578 6.64593 9.20884 6.91105 9.20884Z" fill="#393939"/>
</svg>
