<svg width="16" height="16" viewBox="0 0 16 16" fill="none" xmlns="http://www.w3.org/2000/svg">
<path fill-rule="evenodd" clip-rule="evenodd" d="M8 14C11.2824 14 14 11.2824 14 8C14 4.72353 11.2765 2 7.99412 2C4.71765 2 2 4.72353 2 8C2 11.2824 4.72353 14 8 14ZM8 9.00588C6.87059 8.99412 5.98235 8.05294 5.98235 6.78824C5.97647 5.6 6.87059 4.61176 8 4.61176C9.12941 4.61176 10.0176 5.6 10.0176 6.78824C10.0176 8.05294 9.12941 9.01765 8 9.00588ZM8 13.0765C6.64706 13.0765 5.30588 12.5235 4.40588 11.5588L4.42353 11.4824C4.92941 10.7765 6.19412 10.0059 8 10.0059C9.81176 10.0059 11.0706 10.7765 11.5765 11.4824L11.5941 11.5588C10.6941 12.5235 9.35294 13.0765 8 13.0765Z" fill="#393939"/>
</svg>
