<svg width="16" height="16" viewBox="0 0 16 16" fill="none" xmlns="http://www.w3.org/2000/svg">
<path fill-rule="evenodd" clip-rule="evenodd" d="M8 14C11.2824 14 14 11.2824 14 8C14 4.72353 11.2765 2 7.99412 2C4.71765 2 2 4.72353 2 8C2 11.2824 4.72353 14 8 14ZM11.7294 11.3471C11.1353 10.6412 9.77059 10.0059 8 10.0059C6.22941 10.0059 4.87059 10.6353 4.27059 11.3412C3.48235 10.4588 3.00588 9.28824 3.00588 8C3.00588 5.22941 5.21765 3 7.99412 3C10.7706 3 12.9941 5.22941 13 8C13.0059 9.29412 12.5235 10.4647 11.7294 11.3471ZM8 9.00588C9.12941 9.01765 10.0176 8.05294 10.0176 6.78824C10.0176 5.6 9.12941 4.61176 8 4.61176C6.87059 4.61176 5.97647 5.6 5.98235 6.78824C5.98824 8.05294 6.87059 8.99412 8 9.00588Z" fill="#393939"/>
</svg>
