<svg width="16" height="16" viewBox="0 0 16 16" fill="none" xmlns="http://www.w3.org/2000/svg">
<path fill-rule="evenodd" clip-rule="evenodd" d="M9.5059 13.7747C12.7253 13.7747 15.3933 11.1067 15.3933 7.88735C15.3933 4.67391 12.7193 2 9.49997 2C6.53554 2 4.02764 4.28261 3.67191 7.1581C5.51578 7.18775 7.06321 8.53953 7.38337 10.3063C8.01183 10.0395 8.74108 9.88538 9.5059 9.88538C10.9644 9.88538 12.251 10.4308 13.0336 11.2727C12.1442 12.1917 10.8933 12.7727 9.49997 12.7727C8.68179 12.7727 7.91104 12.5652 7.23515 12.2154C7.12843 12.5296 6.98614 12.8261 6.79048 13.1047C7.61459 13.5316 8.53357 13.7747 9.5059 13.7747ZM9.49997 8.88933C8.36756 8.88933 7.50788 7.89921 7.50788 6.66601C7.50788 5.49802 8.38535 4.48419 9.49997 4.48419C10.6205 4.48419 11.5039 5.49802 11.498 6.66601C11.498 7.89921 10.6383 8.88933 9.49997 8.88933ZM3.61855 14C5.25491 14 6.6304 12.6364 6.6304 10.9881C6.6304 9.33992 5.2727 7.97628 3.61855 7.97628C1.97033 7.97628 0.606689 9.33992 0.606689 10.9881C0.606689 12.6482 1.97033 14 3.61855 14ZM3.62448 12.9447C3.41697 12.9447 3.23317 12.8024 3.23317 12.5771V11.3498H2.10076C1.89918 11.3498 1.73317 11.1838 1.73317 10.9881C1.73317 10.7866 1.89918 10.6206 2.10076 10.6206H3.23317V9.39328C3.23317 9.17391 3.41697 9.03162 3.62448 9.03162C3.82606 9.03162 4.00985 9.17391 4.00985 9.39328V10.6206H5.14226C5.34384 10.6206 5.50392 10.7866 5.50392 10.9881C5.50392 11.1838 5.34384 11.3498 5.14226 11.3498H4.00985V12.5771C4.00985 12.8024 3.82606 12.9447 3.62448 12.9447Z" fill="#393939"/>
</svg>
