<svg width="16" height="16" viewBox="0 0 16 16" fill="none" xmlns="http://www.w3.org/2000/svg">
<path fill-rule="evenodd" clip-rule="evenodd" d="M9.50883 13.7747C12.7282 13.7747 15.3903 11.1067 15.3903 7.88735C15.3903 4.67391 12.7223 2 9.5029 2C6.52662 2 4.03057 4.28261 3.66891 7.1581C3.82306 7.1581 3.97128 7.16996 4.1195 7.19368C4.30329 7.21739 4.48709 7.25889 4.66496 7.31225C4.94361 4.88735 6.99499 3.00791 9.5029 3.00791C12.2124 3.00791 14.3823 5.18379 14.3883 7.88735C14.3883 9.1502 13.9199 10.2885 13.1491 11.1542C12.2539 10.4071 10.914 9.90909 9.5029 9.90909C8.83887 9.90909 8.0859 10.0514 7.3863 10.3004C7.4278 10.5257 7.45152 10.7569 7.45152 10.9881C7.45152 11.7648 7.20843 12.4941 6.79934 13.1047C7.6116 13.5257 8.5365 13.7747 9.50883 13.7747ZM9.5029 8.88933C10.6412 8.88933 11.5009 7.90514 11.5009 6.66601C11.5009 5.49802 10.6235 4.48419 9.5029 4.48419C8.38828 4.48419 7.50488 5.49802 7.50488 6.66601C7.50488 7.90514 8.37049 8.88933 9.5029 8.88933ZM3.62148 14C5.25784 14 6.63333 12.6364 6.63333 10.9881C6.63333 9.33992 5.27563 7.97628 3.62148 7.97628C1.97326 7.97628 0.609619 9.33992 0.609619 10.9881C0.609619 12.6482 1.97326 14 3.62148 14ZM3.62741 12.9447C3.4199 12.9447 3.2361 12.8024 3.2361 12.5771V11.3498H2.10369C1.90211 11.3498 1.7361 11.1838 1.7361 10.9881C1.7361 10.7866 1.90211 10.6206 2.10369 10.6206H3.2361V9.39328C3.2361 9.17391 3.4199 9.03162 3.62741 9.03162C3.82899 9.03162 4.01278 9.17391 4.01278 9.39328V10.6206H5.14519C5.34677 10.6206 5.50685 10.7866 5.50685 10.9881C5.50685 11.1838 5.34677 11.3498 5.14519 11.3498H4.01278V12.5771C4.01278 12.8024 3.82899 12.9447 3.62741 12.9447Z" fill="#393939"/>
</svg>
