<svg width="16" height="16" viewBox="0 0 16 16" fill="none" xmlns="http://www.w3.org/2000/svg">
<path fill-rule="evenodd" clip-rule="evenodd" d="M15.3933 7.88735C15.3933 11.1067 12.7253 13.7747 9.5059 13.7747C8.53357 13.7747 7.61459 13.5316 6.79048 13.1047C6.98614 12.8261 7.12843 12.5296 7.23515 12.2154C7.91104 12.5652 8.68179 12.7727 9.49997 12.7727C10.8933 12.7727 12.1442 12.1917 13.0336 11.2727C12.251 10.4308 10.9644 9.88538 9.5059 9.88538C8.74108 9.88538 8.01183 10.0395 7.38337 10.3063C7.06321 8.53953 5.51578 7.18775 3.67191 7.1581C4.02764 4.28261 6.53554 2 9.49997 2C12.7193 2 15.3933 4.67391 15.3933 7.88735ZM7.50788 6.66601C7.50788 7.89921 8.36756 8.88933 9.49997 8.88933C10.6383 8.88933 11.498 7.89921 11.498 6.66601C11.5039 5.49802 10.6205 4.48419 9.49997 4.48419C8.38535 4.48419 7.50788 5.49802 7.50788 6.66601ZM6.6304 10.9881C6.6304 12.6364 5.25491 14 3.61855 14C1.97033 14 0.606689 12.6482 0.606689 10.9881C0.606689 9.33992 1.97033 7.97628 3.61855 7.97628C5.2727 7.97628 6.6304 9.33992 6.6304 10.9881ZM5.29341 11.6633L5.79652 10.9524C5.87442 10.8388 5.8452 10.7025 5.69914 10.7025H5.38429C5.23174 9.82937 4.52414 9.22564 3.62504 9.22564C3.23229 9.22564 2.8363 9.36521 2.56364 9.59242C2.41433 9.70927 2.37538 9.87157 2.48899 9.98842C2.59935 10.1053 2.73892 10.089 2.86226 9.99491C3.08947 9.81314 3.31993 9.72226 3.62504 9.72226C4.25473 9.72226 4.77732 10.1475 4.91689 10.7025H4.56309C4.41703 10.7025 4.38132 10.8421 4.46247 10.9524L4.97532 11.6633C5.05646 11.7801 5.20253 11.7899 5.29341 11.6633ZM3.63153 12.7506C4.02428 12.7506 4.41703 12.6143 4.69293 12.3871C4.84224 12.2703 4.88119 12.1047 4.76758 11.9879C4.66047 11.871 4.51765 11.8905 4.39106 11.9814C4.16385 12.1599 3.93664 12.2573 3.63153 12.2573C3.00508 12.2573 2.47925 11.8321 2.33968 11.2738H2.67725C2.82007 11.2738 2.85577 11.1375 2.77462 11.0238L2.26503 10.3162C2.18063 10.1994 2.03457 10.1897 1.94369 10.3162L1.44058 11.0238C1.36268 11.1375 1.39189 11.2738 1.53795 11.2738H1.87228C2.02483 12.1469 2.73243 12.7506 3.63153 12.7506Z" fill="#393939"/>
</svg>
