<svg width="16" height="16" viewBox="0 0 16 16" fill="none" xmlns="http://www.w3.org/2000/svg">
<path fill-rule="evenodd" clip-rule="evenodd" d="M15.3903 7.88735C15.3903 11.1067 12.7282 13.7747 9.50883 13.7747C8.5365 13.7747 7.6116 13.5257 6.79934 13.1047C7.20843 12.4941 7.45152 11.7648 7.45152 10.9881C7.45152 10.7569 7.4278 10.5257 7.3863 10.3004C8.0859 10.0514 8.83887 9.90909 9.5029 9.90909C10.914 9.90909 12.2539 10.4071 13.1491 11.1542C13.9199 10.2885 14.3883 9.1502 14.3883 7.88735C14.3823 5.18379 12.2124 3.00791 9.5029 3.00791C6.99499 3.00791 4.94361 4.88735 4.66496 7.31225C4.48709 7.25889 4.30329 7.21739 4.1195 7.19368C3.97128 7.16996 3.82306 7.1581 3.66891 7.1581C4.03057 4.28261 6.52662 2 9.5029 2C12.7223 2 15.3903 4.67391 15.3903 7.88735ZM11.5009 6.66601C11.5009 7.90514 10.6412 8.88933 9.5029 8.88933C8.37049 8.88933 7.50488 7.90514 7.50488 6.66601C7.50488 5.49802 8.38828 4.48419 9.5029 4.48419C10.6235 4.48419 11.5009 5.49802 11.5009 6.66601ZM6.63333 10.9881C6.63333 12.6364 5.25784 14 3.62148 14C1.97326 14 0.609619 12.6482 0.609619 10.9881C0.609619 9.33992 1.97326 7.97628 3.62148 7.97628C5.27563 7.97628 6.63333 9.33992 6.63333 10.9881ZM5.29634 11.6633L5.79945 10.9524C5.87735 10.8388 5.84813 10.7025 5.70207 10.7025H5.38722C5.23467 9.82937 4.52707 9.22564 3.62797 9.22564C3.23522 9.22564 2.83923 9.36521 2.56657 9.59242C2.41726 9.70927 2.37831 9.87157 2.49192 9.98842C2.60228 10.1053 2.74185 10.089 2.86519 9.99491C3.0924 9.81314 3.32286 9.72226 3.62797 9.72226C4.25766 9.72226 4.78025 10.1475 4.91982 10.7025H4.56602C4.41996 10.7025 4.38425 10.8421 4.4654 10.9524L4.97824 11.6633C5.05939 11.7801 5.20545 11.7899 5.29634 11.6633ZM3.63446 12.7506C4.02721 12.7506 4.41996 12.6143 4.69586 12.3871C4.84516 12.2703 4.88411 12.1047 4.77051 11.9879C4.6634 11.871 4.52058 11.8905 4.39399 11.9814C4.16678 12.1599 3.93957 12.2573 3.63446 12.2573C3.00801 12.2573 2.48218 11.8321 2.34261 11.2738H2.68018C2.823 11.2738 2.8587 11.1375 2.77755 11.0238L2.26795 10.3162C2.18356 10.1994 2.0375 10.1897 1.94661 10.3162L1.44351 11.0238C1.36561 11.1375 1.39482 11.2738 1.54088 11.2738H1.87521C2.02776 12.1469 2.73536 12.7506 3.63446 12.7506Z" fill="#393939"/>
</svg>
