<svg width="16" height="16" viewBox="0 0 16 16" fill="none" xmlns="http://www.w3.org/2000/svg">
<path fill-rule="evenodd" clip-rule="evenodd" d="M15.3933 7.88735C15.3933 11.1067 12.7253 13.7747 9.5059 13.7747C8.53357 13.7747 7.61459 13.5316 6.79048 13.1047C6.98614 12.8261 7.12843 12.5296 7.23515 12.2154C7.91104 12.5652 8.68179 12.7727 9.49997 12.7727C10.8933 12.7727 12.1442 12.1917 13.0336 11.2727C12.251 10.4308 10.9644 9.88538 9.5059 9.88538C8.74108 9.88538 8.01183 10.0395 7.38337 10.3063C7.06321 8.53953 5.51578 7.18775 3.67191 7.1581C4.02764 4.28261 6.53554 2 9.49997 2C12.7193 2 15.3933 4.67391 15.3933 7.88735ZM7.50788 6.66601C7.50788 7.89921 8.36756 8.88933 9.49997 8.88933C10.6383 8.88933 11.498 7.89921 11.498 6.66601C11.5039 5.49802 10.6205 4.48419 9.49997 4.48419C8.38535 4.48419 7.50788 5.49802 7.50788 6.66601ZM6.6304 10.9881C6.6304 12.6364 5.25491 14 3.61855 14C1.97033 14 0.606689 12.6482 0.606689 10.9881C0.606689 9.33992 1.97033 7.97628 3.61855 7.97628C5.2727 7.97628 6.6304 9.33992 6.6304 10.9881ZM5.0689 11.1794C5.0767 11.1169 5.08256 11.0545 5.08256 10.9881C5.08256 10.9218 5.0767 10.8593 5.0689 10.7969L5.48065 10.4749C5.51773 10.4456 5.52749 10.393 5.50407 10.35L5.11378 9.67482C5.09036 9.63189 5.03768 9.61628 4.99474 9.63189L4.50883 9.82704C4.40736 9.74898 4.29808 9.68458 4.17904 9.63579L4.10489 9.11866C4.09903 9.07183 4.05805 9.0367 4.00927 9.0367H3.22869C3.1799 9.0367 3.13892 9.07183 3.13307 9.11866L3.05892 9.63579C2.93988 9.68458 2.8306 9.75093 2.72912 9.82704L2.24321 9.63189C2.19833 9.61433 2.14759 9.63189 2.12418 9.67482L1.73389 10.35C1.70852 10.393 1.72023 10.4456 1.7573 10.4749L2.16906 10.7969C2.16125 10.8593 2.1554 10.9237 2.1554 10.9881C2.1554 11.0525 2.16125 11.1169 2.16906 11.1794L1.7573 11.5014C1.72023 11.5306 1.71047 11.5833 1.73389 11.6263L2.12418 12.3015C2.14759 12.3444 2.20028 12.36 2.24321 12.3444L2.72912 12.1492C2.8306 12.2273 2.93988 12.2917 3.05892 12.3405L3.13307 12.8576C3.13892 12.9045 3.1799 12.9396 3.22869 12.9396H4.00927C4.05805 12.9396 4.09903 12.9045 4.10489 12.8576L4.17904 12.3405C4.29808 12.2917 4.40736 12.2254 4.50883 12.1492L4.99474 12.3444C5.03963 12.362 5.09036 12.3444 5.11378 12.3015L5.50407 11.6263C5.52749 11.5833 5.51773 11.5306 5.48065 11.5014L5.0689 11.1794ZM3.61898 11.6711C3.24235 11.6711 2.93597 11.3648 2.93597 10.9881C2.93597 10.6115 3.24235 10.3051 3.61898 10.3051C3.99561 10.3051 4.30198 10.6115 4.30198 10.9881C4.30198 11.3648 3.99561 11.6711 3.61898 11.6711Z" fill="#393939"/>
</svg>
