<svg width="16" height="16" viewBox="0 0 16 16" fill="none" xmlns="http://www.w3.org/2000/svg">
<path fill-rule="evenodd" clip-rule="evenodd" d="M15.3903 7.88735C15.3903 11.1067 12.7282 13.7747 9.50883 13.7747C8.5365 13.7747 7.6116 13.5257 6.79934 13.1047C7.20843 12.4941 7.45152 11.7648 7.45152 10.9881C7.45152 10.7569 7.4278 10.5257 7.3863 10.3004C8.0859 10.0514 8.83887 9.90909 9.5029 9.90909C10.914 9.90909 12.2539 10.4071 13.1491 11.1542C13.9199 10.2885 14.3883 9.1502 14.3883 7.88735C14.3823 5.18379 12.2124 3.00791 9.5029 3.00791C6.99499 3.00791 4.94361 4.88735 4.66496 7.31225C4.48709 7.25889 4.30329 7.21739 4.1195 7.19368C3.97128 7.16996 3.82306 7.1581 3.66891 7.1581C4.03057 4.28261 6.52662 2 9.5029 2C12.7223 2 15.3903 4.67391 15.3903 7.88735ZM11.5009 6.66601C11.5009 7.90514 10.6412 8.88933 9.5029 8.88933C8.37049 8.88933 7.50488 7.90514 7.50488 6.66601C7.50488 5.49802 8.38828 4.48419 9.5029 4.48419C10.6235 4.48419 11.5009 5.49802 11.5009 6.66601ZM6.63333 10.9881C6.63333 12.6364 5.25784 14 3.62148 14C1.97326 14 0.609619 12.6482 0.609619 10.9881C0.609619 9.33992 1.97326 7.97628 3.62148 7.97628C5.27563 7.97628 6.63333 9.33992 6.63333 10.9881ZM5.07183 11.1794C5.07963 11.1169 5.08549 11.0545 5.08549 10.9881C5.08549 10.9218 5.07963 10.8593 5.07183 10.7969L5.48358 10.4749C5.52066 10.4456 5.53042 10.393 5.507 10.35L5.11671 9.67482C5.09329 9.63189 5.04061 9.61628 4.99767 9.63189L4.51176 9.82704C4.41029 9.74898 4.30101 9.68458 4.18197 9.63579L4.10782 9.11866C4.10196 9.07183 4.06098 9.0367 4.0122 9.0367H3.23162C3.18283 9.0367 3.14185 9.07183 3.136 9.11866L3.06184 9.63579C2.94281 9.68458 2.83353 9.75093 2.73205 9.82704L2.24614 9.63189C2.20126 9.61433 2.15052 9.63189 2.1271 9.67482L1.73682 10.35C1.71145 10.393 1.72316 10.4456 1.76023 10.4749L2.17199 10.7969C2.16418 10.8593 2.15833 10.9237 2.15833 10.9881C2.15833 11.0525 2.16418 11.1169 2.17199 11.1794L1.76023 11.5014C1.72316 11.5306 1.7134 11.5833 1.73682 11.6263L2.1271 12.3015C2.15052 12.3444 2.20321 12.36 2.24614 12.3444L2.73205 12.1492C2.83353 12.2273 2.94281 12.2917 3.06184 12.3405L3.136 12.8576C3.14185 12.9045 3.18283 12.9396 3.23162 12.9396H4.0122C4.06098 12.9396 4.10196 12.9045 4.10782 12.8576L4.18197 12.3405C4.30101 12.2917 4.41029 12.2254 4.51176 12.1492L4.99767 12.3444C5.04256 12.362 5.09329 12.3444 5.11671 12.3015L5.507 11.6263C5.53042 11.5833 5.52066 11.5306 5.48358 11.5014L5.07183 11.1794ZM3.62191 11.6711C3.24528 11.6711 2.9389 11.3648 2.9389 10.9881C2.9389 10.6115 3.24528 10.3051 3.62191 10.3051C3.99854 10.3051 4.30491 10.6115 4.30491 10.9881C4.30491 11.3648 3.99854 11.6711 3.62191 11.6711Z" fill="#393939"/>
</svg>
