<svg width="16" height="16" viewBox="0 0 16 16" fill="none" xmlns="http://www.w3.org/2000/svg">
<path fill-rule="evenodd" clip-rule="evenodd" d="M4.0915 11.2965C4.0915 11.0967 3.86651 10.9971 3.71711 11.0967L2.0936 12.3207C1.9688 12.4203 1.9688 12.6201 2.0936 12.6951L3.71711 13.919C3.86651 14.0438 4.0915 13.919 4.0915 13.7192V13.1696H8.1371C8.88646 13.1696 9.48583 12.5703 9.48583 11.8209H4.0915V11.2965ZM13.9064 3.30493L12.2828 2.081C12.1329 1.95621 11.9085 2.081 11.9085 2.28079V2.83036H7.86227C7.1135 2.83036 6.51413 3.42973 6.51413 4.17909H11.9085V4.70346C11.9085 4.90325 12.1329 5.00286 12.2828 4.90325L13.9064 3.67932C14.0312 3.57972 14.0312 3.40454 13.9064 3.30493ZM9.1366 6.70137H9.83557V6.12719H9.1366V6.70137ZM10.21 6.027V6.77636C10.21 6.95096 10.0601 7.07575 9.91066 7.07575H9.06111C8.88651 7.07575 8.76172 6.95096 8.76172 6.77636V6.027C8.76172 5.85241 8.88651 5.72761 9.06111 5.72761H9.91066C10.0853 5.72761 10.21 5.85241 10.21 6.027ZM10.8094 5.30284C10.8094 5.17804 10.7098 5.10305 10.6096 5.10305H3.99191C3.91691 5.10305 3.84192 5.17804 3.81673 5.30284V7.9253H10.8094V5.30284ZM10.7847 8.79887H3.79207V9.29864C3.79207 9.42343 3.89168 9.49843 3.99186 9.49843H10.6347C10.7097 9.49843 10.8093 9.39824 10.7847 9.29864V8.79887ZM12.5325 6.65156V10.6474C12.5325 10.972 12.2829 11.2467 11.9332 11.2467H5.31549C4.9909 11.2467 4.71612 10.9971 4.71612 10.6474V9.87281H3.99195C3.66678 9.87281 3.41719 9.59861 3.41719 9.29864V5.30283C3.41719 4.97825 3.69198 4.72866 3.99195 4.72866H10.6096C10.9342 4.72866 11.1844 5.00286 11.1844 5.30283V6.027H11.9584C12.3081 6.027 12.5577 6.30178 12.5325 6.65156ZM6.63898 6.62637H6.51418C6.38939 6.62637 6.31439 6.70136 6.31439 6.82616C6.31439 6.95096 6.38939 7.02595 6.51418 7.02595H6.63898C6.73858 7.02595 6.83877 6.95096 6.83877 6.82616C6.83877 6.70136 6.76378 6.62637 6.63898 6.62637ZM5.73961 6.62637H4.74066C4.61586 6.62637 4.54087 6.70136 4.54087 6.82616C4.54087 6.95096 4.61586 7.02595 4.74066 7.02595H5.73961C5.8644 7.02595 5.9394 6.95096 5.9394 6.82616C5.9394 6.70136 5.8644 6.62637 5.73961 6.62637ZM6.83874 5.95201C6.83874 6.0768 6.73856 6.1518 6.63895 6.1518H4.74066C4.61586 6.1518 4.54087 6.0768 4.54087 5.95201C4.54087 5.82721 4.61586 5.75222 4.74066 5.75222H6.63895C6.76375 5.75222 6.83874 5.82721 6.83874 5.95201Z" fill="#393939"/>
</svg>
