<svg width="16" height="16" viewBox="0 0 16 16" fill="none" xmlns="http://www.w3.org/2000/svg">
<path fill-rule="evenodd" clip-rule="evenodd" d="M8.02642 10.7753C7.23347 10.7753 6.54625 10.141 6.54625 9.29516C6.54625 8.44934 7.18061 7.81498 8.02642 7.81498C8.87224 7.81498 9.5066 8.44934 9.5066 9.29516C9.5066 10.141 8.81938 10.7753 8.02642 10.7753ZM8.02646 8.60793C7.65641 8.60793 7.33923 8.92511 7.33923 9.29516C7.33923 9.6652 7.65641 9.98238 8.02646 9.98238C8.3965 9.98238 8.71368 9.6652 8.71368 9.29516C8.71368 8.87225 8.3965 8.60793 8.02646 8.60793Z" fill="#393939"/>
<path d="M3.48017 7.44493C3.32158 7.44493 3.16299 7.55066 3.16299 7.76212C3.185 8.0793 3.48017 8.0793 3.48017 8.0793H4.43171C4.5903 8.0793 4.74889 7.97357 4.74889 7.76212C4.74889 7.60352 4.64317 7.44493 4.43171 7.44493H3.48017Z" fill="#393939"/>
<path d="M3.16298 8.71366C3.16298 8.5022 3.32157 8.39648 3.48016 8.39648H3.95593C4.16739 8.39648 4.27311 8.55507 4.27311 8.71366C4.27311 8.92511 4.11452 9.03084 3.95593 9.03084H3.48016C3.36149 9.03084 3.17252 8.94505 3.16298 8.71366Z" fill="#393939"/>
<path fill-rule="evenodd" clip-rule="evenodd" d="M2.5 12.3084C2.22386 12.3084 2 12.0845 2 11.8084V6.44053C2 6.32375 2.09467 6.22908 2.21145 6.22908C2.32824 6.22908 2.42291 6.1344 2.42291 6.01762V5.17181C2.42291 5.05502 2.51758 4.96035 2.63436 4.96035C2.75114 4.96035 2.84582 4.86568 2.84582 4.7489V4.19163C2.84582 3.91549 3.06967 3.69163 3.34581 3.69163H12.6542C12.9303 3.69163 13.1542 3.91549 13.1542 4.19163V4.7489C13.1542 4.86568 13.2489 4.96035 13.3656 4.96035C13.4824 4.96035 13.5771 5.05502 13.5771 5.17181V6.01762C13.5771 6.1344 13.6718 6.22908 13.7885 6.22908C13.9053 6.22908 14 6.32375 14 6.44053V11.8084C14 12.0845 13.7761 12.3084 13.5 12.3084H2.5ZM12.76 11.5683C13.0361 11.5683 13.26 11.3444 13.26 11.0683V7.57489C13.26 7.29875 13.0361 7.07489 12.76 7.07489H3.293C3.01686 7.07489 2.793 7.29875 2.793 7.57489V11.0683C2.793 11.3444 3.01686 11.5683 3.293 11.5683H12.76ZM12.8898 6.04405C12.8898 6.17543 12.7833 6.28194 12.6519 6.28194H3.45371C3.32233 6.28194 3.21582 6.17543 3.21582 6.04405C3.21582 5.91267 3.32232 5.80617 3.45371 5.80617H12.6519C12.7833 5.80617 12.8898 5.91267 12.8898 6.04405ZM12.1762 5.01322C12.3076 5.01322 12.4141 4.90671 12.4141 4.77533C12.4141 4.64395 12.3076 4.53745 12.1762 4.53745H3.87663C3.74525 4.53745 3.63874 4.64395 3.63874 4.77533C3.63874 4.90671 3.74525 5.01322 3.87663 5.01322H12.1762Z" fill="#393939"/>
</svg>
