<svg width="16" height="16" viewBox="0 0 16 16" fill="none" xmlns="http://www.w3.org/2000/svg">
<path fill-rule="evenodd" clip-rule="evenodd" d="M4.75121 10.1366C4.5756 10.1366 4.45853 9.96098 4.45853 9.8439C4.45853 9.66829 4.63414 9.55122 4.75121 9.55122H7.03414V9.49268L7.56097 8.0878L11.6585 3.99024C11.7756 3.87317 11.9512 3.81463 12.1268 3.81463C12.3024 3.81463 12.478 3.87317 12.6537 4.04878L13.239 4.63415C13.3561 4.75122 13.4732 4.92683 13.4732 5.10244C13.5317 5.27805 13.4146 5.45366 13.2976 5.57073L9.25853 9.60976L7.73658 10.1366H4.75121ZM7.85365 9.31707L8.14634 8.38049L11.3659 5.33658L11.8927 5.86341L8.79024 8.96585L7.85365 9.31707ZM12.3025 5.39512L12.6537 5.0439L12.0683 4.45854L11.6586 4.80976L12.3025 5.39512Z" fill="#393939"/>
<path d="M2 11.6854C2 11.9615 2.22386 12.1854 2.5 12.1854H13.5C13.7761 12.1854 14 11.9615 14 11.6854V6.59756C14 6.32142 13.7761 6.09756 13.5 6.09756H13.239C13.0049 6.09756 12.8293 6.27317 12.8293 6.50732C12.8293 6.55868 12.8377 6.60724 12.8534 6.65173C12.8907 6.75772 12.9615 6.85845 13.0324 6.95926C13.1356 7.10619 13.239 7.25329 13.239 7.41707V10.8659C13.239 11.142 13.0152 11.3659 12.739 11.3659H3.31951C3.04337 11.3659 2.81951 11.142 2.81951 10.8659V7.41707C2.81951 7.14093 3.04337 6.91707 3.31951 6.91707H8.02927C8.20488 6.91707 8.43902 6.74146 8.43902 6.50732C8.43902 6.27317 8.26341 6.09756 8.02927 6.09756H2.5C2.22386 6.09756 2 6.32142 2 6.59756V11.6854Z" fill="#393939"/>
<path d="M3.17072 8.49756C3.17072 8.61463 3.2878 8.79024 3.46341 8.79024H4.80975C4.92682 8.79024 5.10243 8.67317 5.10243 8.49756C5.10243 8.38049 4.98536 8.20488 4.80975 8.20488H3.46341C3.34633 8.20488 3.17072 8.32195 3.17072 8.49756Z" fill="#393939"/>
<path d="M11.3073 10.9561C11.1317 10.9561 11.0146 10.7805 11.0146 10.6634C11.0146 10.4878 11.1903 10.3707 11.3073 10.3707H12.4781C12.6537 10.3707 12.7707 10.4878 12.7707 10.6634C12.7707 10.839 12.5951 10.9561 12.4781 10.9561H11.3073Z" fill="#393939"/>
<path d="M9.84392 9.72683C9.84392 9.8439 9.961 10.0195 10.1366 10.0195H12.5366C12.6537 10.0195 12.8293 9.90244 12.8293 9.72683C12.8293 9.60976 12.7122 9.43415 12.5366 9.43415H10.1366C10.0195 9.43415 9.84392 9.55122 9.84392 9.72683Z" fill="#393939"/>
<path d="M3.46341 10.1366C3.2878 10.1366 3.17072 9.96097 3.17072 9.8439C3.17072 9.66829 3.34633 9.55122 3.46341 9.55122H3.58048C3.75609 9.55122 3.87316 9.72683 3.87316 9.8439C3.87316 10.0195 3.69755 10.1366 3.58048 10.1366H3.46341Z" fill="#393939"/>
<path d="M9.84392 10.6634C9.84392 10.7805 9.961 10.9561 10.1366 10.9561H10.2537C10.3708 10.9561 10.5464 10.839 10.5464 10.6634C10.5464 10.5463 10.4293 10.3707 10.2537 10.3707H10.1366C10.0195 10.3707 9.84392 10.4878 9.84392 10.6634Z" fill="#393939"/>
<path d="M3.46341 7.79512C3.2878 7.79512 3.17072 7.67805 3.17072 7.50244C3.17072 7.32683 3.34633 7.20976 3.46341 7.20976H4.10731C4.28292 7.20976 4.39999 7.32683 4.39999 7.50244C4.39999 7.67805 4.22438 7.79512 4.10731 7.79512H3.46341Z" fill="#393939"/>
</svg>
