<svg width="16" height="16" viewBox="0 0 16 16" fill="none" xmlns="http://www.w3.org/2000/svg">
<path d="M11.029 4.18312C10.9583 4.0618 10.8272 3.99496 10.6932 4.01194C10.5593 4.02892 10.4469 4.12661 10.4054 4.26214C10.3639 4.39768 10.4009 4.5463 10.5002 4.6428L13.1025 7.98992L10.5291 11.2735H9.41735L11.8494 8.27115C11.8509 8.26931 11.8524 8.26745 11.8539 8.26558L11.8544 8.26578C11.9828 8.1172 11.9828 7.88983 11.8544 7.74125L11.8539 7.74138C11.8524 7.73953 11.8509 7.73768 11.8494 7.73587L8.94523 4.18891L8.94326 4.18643C8.8814 4.07534 8.76847 4.00709 8.64639 4.00702H6.60673C6.51494 4.00726 6.427 4.04599 6.36225 4.11468C6.29751 4.18337 6.26128 4.27639 6.26152 4.37328C6.25763 4.43295 6.27145 4.49242 6.30104 4.54342L9.00402 8.0171L6.7003 10.9494C6.56746 11.1379 6.36141 11.2534 6.13906 11.2641H3.37721C3.19538 11.2658 3.02051 11.1904 2.89183 11.0547C2.76315 10.9191 2.69143 10.7347 2.69275 10.5427V5.45969C2.70827 5.06361 3.01033 4.74707 3.38567 4.73353H5.10786C5.20014 4.73867 5.29019 4.70251 5.3559 4.63394C5.42161 4.56537 5.4569 4.47073 5.45309 4.37328C5.45737 4.27452 5.42266 4.17831 5.35723 4.10758C5.29179 4.03685 5.2015 3.99792 5.10786 4.00009L3.36889 4.00737C2.61311 4.00794 2.00056 4.65449 2 5.45224V10.5427C2.01768 11.3341 2.61926 11.9723 3.36889 11.995H6.12997C6.25845 11.9951 6.38632 11.9763 6.50985 11.9389C6.52615 11.934 6.54225 11.9288 6.55802 11.9234C6.80998 11.8357 7.0352 11.6786 7.21044 11.4683L9.80306 8.26262C9.93346 8.1164 9.93434 7.88859 9.80509 7.74125L9.80459 7.74138C9.80306 7.73953 9.80164 7.73768 9.80013 7.73587L7.34773 4.73353H8.47981L11.0427 8.00353L8.34574 11.455C8.34488 11.456 8.34653 11.459 8.35034 11.4636C8.29423 11.5769 8.29807 11.7128 8.3605 11.8224C8.42292 11.9319 8.53489 11.9992 8.65599 12H10.6956C10.8177 11.9999 10.9307 11.9316 10.9926 11.8205L10.9945 11.8181L13.8987 8.27115L13.9032 8.26558L13.9037 8.26578C14.0329 8.11841 14.032 7.8906 13.9016 7.74435L11.029 4.18312Z" fill="#393939"/>
</svg>
