<svg width="16" height="16" viewBox="0 0 16 16" fill="none" xmlns="http://www.w3.org/2000/svg">
<path d="M11.672 5.84H11.912V5.12H11.672V5.84Z" fill="#393939"/>
<path d="M5.55203 6.08C5.36002 6.08 5.24003 6.248 5.24003 6.416V8.624C5.24003 8.792 5.40803 8.936 5.55203 8.936C5.72003 8.936 5.86403 8.792 5.86403 8.624V6.416C5.86403 6.248 5.74402 6.08 5.55203 6.08Z" fill="#393939"/>
<path d="M6.46401 6.416C6.46401 6.248 6.60801 6.104 6.77601 6.104C6.94401 6.104 7.08801 6.248 7.08801 6.416V8.624C7.08801 8.792 6.94401 8.936 6.77601 8.936C6.60801 8.936 6.46401 8.792 6.46401 8.624V6.416Z" fill="#393939"/>
<path d="M8.91197 9.608C8.91197 9.488 9.05597 9.392 9.22397 9.392C9.36797 9.416 9.53597 9.488 9.53597 9.608V9.8C9.53597 9.92 9.39197 10.016 9.22397 10.016C9.07997 10.016 8.91197 9.92 8.91197 9.8V9.608Z" fill="#393939"/>
<path d="M7.99999 9.392C7.83199 9.392 7.68799 9.488 7.68799 9.608V9.8C7.68799 9.92 7.83199 10.016 7.99999 10.016C8.16799 10.016 8.31199 9.92 8.31199 9.8V9.608C8.31199 9.488 8.16799 9.392 7.99999 9.392Z" fill="#393939"/>
<path d="M7.68799 6.416C7.68799 6.248 7.83199 6.104 7.99999 6.104C8.16799 6.104 8.31199 6.248 8.31199 6.416V8.624C8.31199 8.792 8.16799 8.936 7.99999 8.936C7.83199 8.936 7.68799 8.792 7.68799 8.624V6.416Z" fill="#393939"/>
<path d="M5.55203 9.392C5.36002 9.392 5.24003 9.488 5.24003 9.608V9.8C5.24003 9.92 5.40803 10.016 5.55203 10.016C5.72003 10.016 5.86403 9.92 5.86403 9.8V9.608C5.86403 9.488 5.74402 9.392 5.55203 9.392Z" fill="#393939"/>
<path d="M6.46401 9.608C6.46401 9.488 6.60801 9.392 6.77601 9.392C6.94401 9.392 7.08801 9.488 7.08801 9.608V9.8C7.08801 9.92 6.94401 10.016 6.77601 10.016C6.60801 10.016 6.46401 9.92 6.46401 9.8V9.608Z" fill="#393939"/>
<path d="M11.912 7.04H11.672V6.32H11.912V7.04Z" fill="#393939"/>
<path d="M8.91197 6.416C8.91197 6.248 9.05597 6.104 9.22397 6.104C9.36797 6.128 9.53597 6.248 9.53597 6.416V8.624C9.53597 8.792 9.39197 8.936 9.22397 8.936C9.07997 8.936 8.91197 8.792 8.91197 8.624V6.416Z" fill="#393939"/>
<path d="M11.912 8.24H11.672V7.52H11.912V8.24Z" fill="#393939"/>
<path d="M11.672 9.44H11.912V8.72H11.672V9.44Z" fill="#393939"/>
<path d="M11.912 10.64H11.672V9.92H11.912V10.64Z" fill="#393939"/>
<path fill-rule="evenodd" clip-rule="evenodd" d="M13.904 9.104L13.16 8.024L13.904 6.944C13.976 6.872 14 6.776 14 6.68C14 6.6306 13.9774 6.5699 13.9477 6.49014C13.9341 6.45366 13.9191 6.4132 13.904 6.368L13.16 5.312L13.832 4.328C13.928 4.232 13.952 4.088 13.928 3.944C13.88 3.752 13.712 3.632 13.52 3.632H2.6C2.264 3.632 2 3.896 2 4.232V11.768C2 12.104 2.264 12.368 2.6 12.368H13.544C13.736 12.368 13.904 12.248 13.928 12.056C13.976 11.912 13.928 11.768 13.832 11.672L13.136 10.688L13.904 9.632C14.024 9.464 14.024 9.248 13.904 9.104ZM12.272 10.736L12.944 11.672H11.912V11.12H11.672V11.672H2.71997V4.4H11.672V4.64H11.912V4.4H12.944L12.272 5.36L13.208 6.68L12.272 8.024L13.208 9.368L12.272 10.736Z" fill="#393939"/>
</svg>
