<svg width="16" height="16" viewBox="0 0 16 16" fill="none" xmlns="http://www.w3.org/2000/svg">
<path fill-rule="evenodd" clip-rule="evenodd" d="M12.8 3.09091H3.2C2.534 3.09091 2.006 3.63705 2.006 4.31818L2 11.6818C2 12.363 2.534 12.9091 3.2 12.9091H12.8C13.466 12.9091 14 12.363 14 11.6818V4.31818C14 3.63705 13.466 3.09091 12.8 3.09091ZM13.1429 11.5286C13.1429 11.8047 12.919 12.0286 12.6429 12.0286H3.35714C3.081 12.0286 2.85714 11.8047 2.85714 11.5286V6.71429H13.1429V11.5286ZM13.1429 5H2.85714V4.64286C2.85714 4.36671 3.081 4.14286 3.35714 4.14286H12.6429C12.919 4.14286 13.1429 4.36671 13.1429 4.64286V5Z" fill="#393939"/>
</svg>
