<svg width="16" height="16" viewBox="0 0 16 16" fill="none" xmlns="http://www.w3.org/2000/svg">
<path d="M12.7781 8.80556C12.5559 8.80556 12.4448 8.63889 12.4448 8.47222V6.13889C12.4448 5.86275 12.221 5.63889 11.9448 5.63889H4.3337C4.11148 5.63889 4.00037 5.47222 4.00037 5.30556C4.00037 5.13889 4.16703 4.97222 4.3337 4.97222H12.667C12.9432 4.97222 13.167 5.19608 13.167 5.47222V8.39108C13.167 8.44482 13.1601 8.49915 13.1349 8.54663C13.0615 8.68512 12.9198 8.80556 12.7781 8.80556Z" fill="#393939"/>
<path d="M2.00012 6.47223V10.5241C2.00012 10.8017 2.22623 11.0261 2.5038 11.0241L9.55568 10.9722C9.72234 10.9722 9.88901 10.8056 9.88901 10.6389C9.88901 10.4722 9.72234 10.3056 9.55568 10.3056H3.22234C2.9462 10.3056 2.72234 10.0817 2.72234 9.80556V7.1389C2.72234 6.86275 2.9462 6.6389 3.22234 6.6389H10.8335C11.1096 6.6389 11.3335 6.86275 11.3335 7.1389V8.47223C11.3335 8.6389 11.5001 8.80556 11.6668 8.80556C11.8335 8.80556 12.0001 8.6389 12.0001 8.47223V6.47223C12.0001 6.19609 11.7763 5.97223 11.5001 5.97223H2.50012C2.22398 5.97223 2.00012 6.19609 2.00012 6.47223Z" fill="#393939"/>
<path fill-rule="evenodd" clip-rule="evenodd" d="M7.00018 9.69445C6.33351 9.69445 5.77795 9.1389 5.77795 8.47223C5.77795 7.80556 6.33351 7.25001 7.00018 7.25001C7.66684 7.25001 8.2224 7.80556 8.2224 8.47223C8.2224 9.1389 7.66684 9.69445 7.00018 9.69445ZM7.00001 7.91667C6.72224 7.91667 6.44446 8.19445 6.44446 8.47223C6.44446 8.75001 6.66668 9.02778 7.00001 9.02778C7.27779 9.02778 7.55557 8.75001 7.55557 8.47223C7.55557 8.1389 7.27779 7.91667 7.00001 7.91667Z" fill="#393939"/>
<path d="M10.8332 11.0278C10.6665 11.0278 10.4999 10.8611 10.4999 10.6944C10.4999 10.5278 10.6665 10.3611 10.8332 10.3611H13.6665C13.8888 10.3611 13.9999 10.5278 13.9999 10.6944C13.9999 10.8611 13.8332 11.0278 13.6665 11.0278H10.8332Z" fill="#393939"/>
<path d="M10.4999 9.52778C10.4999 9.69445 10.6665 9.86112 10.8332 9.86112H13.6665C13.8332 9.86112 13.9999 9.69445 13.9999 9.52778C13.9999 9.36112 13.8888 9.19445 13.6665 9.19445H10.8332C10.6665 9.19445 10.4999 9.36112 10.4999 9.52778Z" fill="#393939"/>
<path d="M3.33332 7.63889C3.16665 7.63889 3.05554 7.52778 3.05554 7.36111C3.05554 7.25 3.16665 7.08334 3.33332 7.08334H4.1111C4.22221 7.08334 4.38888 7.19445 4.38888 7.36111C4.38888 7.41667 4.38888 7.47223 4.33332 7.52778C4.27776 7.58334 4.22221 7.63889 4.1111 7.63889H3.33332Z" fill="#393939"/>
<path d="M3.11121 8.13888C3.11121 8.30554 3.27787 8.41666 3.38898 8.41666H3.77787C3.94454 8.41666 4.05565 8.30554 4.05565 8.13888C4.05565 7.97221 3.94454 7.8611 3.77787 7.8611H3.38898C3.22232 7.8611 3.11121 7.97221 3.11121 8.13888Z" fill="#393939"/>
</svg>
