<svg width="16" height="16" viewBox="0 0 16 16" fill="none" xmlns="http://www.w3.org/2000/svg">
<path fill-rule="evenodd" clip-rule="evenodd" d="M12.8 4.7H11.492C11.558 4.514 11.6 4.31 11.6 4.1C11.6 3.104 10.796 2.3 9.8 2.3C9.17 2.3 8.624 2.624 8.3 3.11L8 3.512L7.7 3.104C7.376 2.624 6.83 2.3 6.2 2.3C5.204 2.3 4.4 3.104 4.4 4.1C4.4 4.31 4.442 4.514 4.508 4.7H3.2C2.534 4.7 2.006 5.234 2.006 5.9L2 12.5C2 13.166 2.534 13.7 3.2 13.7H12.8C13.466 13.7 14 13.166 14 12.5V5.9C14 5.234 13.466 4.7 12.8 4.7ZM9.80503 3.155C10.3275 3.155 10.755 3.5825 10.755 4.105C10.755 4.6275 10.3275 5.055 9.80503 5.055C9.28253 5.055 8.85503 4.6275 8.85503 4.105C8.85503 3.5825 9.28253 3.155 9.80503 3.155ZM6.19498 3.155C6.71748 3.155 7.14498 3.5825 7.14498 4.105C7.14498 4.6275 6.71748 5.055 6.19498 5.055C5.67248 5.055 5.24498 4.6275 5.24498 4.105C5.24498 3.5825 5.67248 3.155 6.19498 3.155ZM13.035 12.25C13.035 12.5261 12.8111 12.75 12.535 12.75H3.46496C3.18882 12.75 2.96496 12.5261 2.96496 12.25V11.3H13.035V12.25ZM13.035 9.9H2.96508V6.315C2.96508 6.03886 3.18893 5.815 3.46508 5.815H6.24802L5.34266 7.10848C5.15261 7.38 5.21574 7.7538 5.48442 7.94784C5.75436 8.1428 6.13101 8.08363 6.32817 7.8153L8.00002 5.54L9.67188 7.8153C9.86904 8.08364 10.2457 8.1428 10.5156 7.94784C10.7843 7.7538 10.8474 7.38 10.6574 7.10848L9.75202 5.815H12.535C12.8111 5.815 13.035 6.03886 13.035 6.315V9.9Z" fill="#393939"/>
</svg>
