<svg width="16" height="16" viewBox="0 0 16 16" fill="none" xmlns="http://www.w3.org/2000/svg">
<path fill-rule="evenodd" clip-rule="evenodd" d="M10.2949 12.424C10.0184 12.424 9.74195 12.3134 9.57605 12.0922C9.41015 11.9263 9.29955 11.6498 9.29955 11.4286C9.29955 10.8756 9.74195 10.4332 10.2949 10.4332C10.8479 10.4332 11.2903 10.8756 11.2903 11.4286C11.2903 11.9816 10.8479 12.424 10.2949 12.424ZM10.295 11.1521C10.1844 11.1521 10.0185 11.2627 10.0185 11.4286C10.0185 11.5945 10.1844 11.7051 10.295 11.7051C10.4609 11.7051 10.5715 11.5392 10.5715 11.4286C10.5715 11.2627 10.4056 11.1521 10.295 11.1521Z" fill="#393939"/>
<path d="M8.02765 10.8756C7.86175 10.8756 7.69585 10.7097 7.69585 10.5438C7.69585 10.3779 7.86175 10.212 8.02765 10.212H8.80184C8.96774 10.212 9.13364 10.3779 9.13364 10.5438C9.13364 10.7097 8.96774 10.8756 8.80184 10.8756H8.02765Z" fill="#393939"/>
<path d="M7.69585 11.3733C7.69585 11.5945 7.86175 11.7051 8.02765 11.7051H8.35945C8.52535 11.7051 8.69124 11.5392 8.69124 11.3733C8.69124 11.2074 8.52535 11.0415 8.35945 11.0415H8.02765C7.86175 11.0415 7.69585 11.2074 7.69585 11.3733Z" fill="#393939"/>
<path fill-rule="evenodd" clip-rule="evenodd" d="M6.53456 13.0876C6.53456 13.4194 6.81106 13.6959 7.08756 13.6959H13.447C13.7788 13.6959 14 13.4194 14 13.1429V9.71429C14 9.54839 14 9.43779 13.8894 9.32719C13.7788 9.16129 13.6129 9.10599 13.447 9.10599H11.4562C11.7327 8.4977 11.8433 7.8341 11.8433 7.22581C11.8433 4.51613 9.63134 2.30415 6.92166 2.30415C4.21198 2.30415 2 4.51613 2 7.22581C2 9.76959 3.99078 11.9263 6.53456 12.0922V13.0876ZM13.2258 12.777C13.2258 12.8874 13.1362 12.977 13.0258 12.977H7.45341C7.34296 12.977 7.25341 12.8874 7.25341 12.777V10.0802C7.25341 9.96973 7.34296 9.88018 7.45341 9.88018H13.0258C13.1362 9.88018 13.2258 9.96973 13.2258 10.0802V12.777ZM5.76038 9.88018C5.98158 10.5438 6.25808 11.0415 6.53458 11.2627V9.88018H5.76038ZM5.53916 11.2074C4.82026 10.9309 4.15667 10.4885 3.65897 9.88018H4.98616C5.15206 10.3779 5.31796 10.8756 5.53916 11.2074ZM10.6268 9.16129C10.848 8.71889 11.0139 8.1659 11.0692 7.6682H9.13368C9.13368 8.2765 9.07838 8.71889 8.96778 9.16129H10.6268ZM8.4147 7.6682C8.4147 8.1659 8.3594 8.66359 8.2488 9.16129H5.53912C5.42852 8.71889 5.37322 8.1659 5.37322 7.6682H8.4147ZM4.82032 9.16129C4.76502 8.7189 4.70972 8.2765 4.65442 7.6682H2.71893C2.77423 8.1659 2.88483 8.60829 3.16133 9.16129H4.82032ZM10.6268 5.34562C10.9033 5.78802 11.0139 6.34101 11.0692 6.89401H9.13368C9.07838 6.23042 9.02308 5.78802 8.96778 5.34562H10.6268ZM8.41479 6.89401C8.41479 6.34101 8.35949 5.84332 8.24889 5.34562H5.59451C5.48391 5.84332 5.42861 6.34101 5.42861 6.89401H8.41479ZM4.82032 5.34562C4.70972 5.78802 4.65442 6.23042 4.65442 6.89401H2.71893C2.77423 6.34101 2.94013 5.84332 3.16133 5.34562H4.82032ZM10.1843 4.62673C9.68661 4.01843 9.02301 3.52074 8.30412 3.29954C8.52532 3.63133 8.69122 4.12903 8.85711 4.62673H10.1843ZM6.92167 3.07834C7.25347 3.07834 7.75117 3.52074 8.08296 4.62673H5.76038C6.09218 3.57604 6.58988 3.07834 6.92167 3.07834ZM4.98619 4.62673C5.15208 4.07373 5.31798 3.63133 5.53918 3.29954C4.82029 3.57604 4.15669 4.01843 3.6037 4.62673H4.98619Z" fill="#393939"/>
</svg>
