<svg width="16" height="16" viewBox="0 0 16 16" fill="none" xmlns="http://www.w3.org/2000/svg">
<path fill-rule="evenodd" clip-rule="evenodd" d="M10.2006 4.56112C10.3033 4.3813 10.2409 4.15223 10.0611 4.04947C9.88123 3.94672 9.65216 4.00919 9.54941 4.18901L8.48798 6.04651C8.22223 5.93604 7.93074 5.87506 7.625 5.87506C6.38236 5.87506 5.375 6.88242 5.375 8.12506C5.375 8.8601 5.72746 9.51282 6.2726 9.92342L5.79846 10.7532C5.7826 10.7511 5.76642 10.7501 5.75 10.7501H3.25C2.97386 10.7501 2.75 10.5262 2.75 10.2501V6.00006C2.75 5.72392 2.97386 5.50006 3.25 5.50006H7.625C7.83211 5.50006 8 5.33217 8 5.12506C8 4.91796 7.83211 4.75006 7.625 4.75006H2.375C2.16789 4.75006 2 4.91796 2 5.12506V11.1251C2 11.3322 2.16789 11.5001 2.375 11.5001H5.37166L5.04941 12.064C4.94666 12.2438 5.00913 12.4729 5.18895 12.5757C5.36877 12.6784 5.59784 12.6159 5.70059 12.4361L6.93916 10.2686C7.15539 10.3377 7.38584 10.3751 7.625 10.3751C8.86764 10.3751 9.875 9.3677 9.875 8.12506C9.875 7.45785 9.58459 6.85847 9.12327 6.44643L9.69143 5.45214C9.74569 5.48266 9.80831 5.50006 9.875 5.50006H12.75C13.0261 5.50006 13.25 5.72392 13.25 6.00006V10.2501C13.25 10.5262 13.0261 10.7501 12.75 10.7501H7.625C7.41789 10.7501 7.25 10.918 7.25 11.1251C7.25 11.3322 7.41789 11.5001 7.625 11.5001H13.625C13.8321 11.5001 14 11.3322 14 11.1251V5.12506C14 4.91796 13.8321 4.75006 13.625 4.75006H10.0926L10.2006 4.56112ZM8.03538 6.83857C7.90597 6.79732 7.76808 6.77506 7.625 6.77506C6.87942 6.77506 6.275 7.37948 6.275 8.12506C6.275 8.52496 6.44888 8.88425 6.72516 9.13145L8.03538 6.83857ZM7.403 9.4569L8.65963 7.25781C8.85646 7.49238 8.975 7.79488 8.975 8.12506C8.975 8.87065 8.37058 9.47506 7.625 9.47506C7.54939 9.47506 7.47523 9.46885 7.403 9.4569ZM3.125 6.25C3.125 6.04289 3.29289 5.875 3.5 5.875H5C5.20711 5.875 5.375 6.04289 5.375 6.25C5.375 6.45711 5.20711 6.625 5 6.625H3.5C3.29289 6.625 3.125 6.45711 3.125 6.25ZM3.5 7C3.29289 7 3.125 7.16789 3.125 7.375C3.125 7.58211 3.29289 7.75 3.5 7.75H4.25C4.45711 7.75 4.625 7.58211 4.625 7.375C4.625 7.16789 4.45711 7 4.25 7H3.5Z" fill="#393939"/>
</svg>
