<svg width="16" height="16" viewBox="0 0 16 16" fill="none" xmlns="http://www.w3.org/2000/svg">
<path d="M6.4682 2.76139C6.306 2.76139 6.1438 2.59472 6.1438 2.48659V2.3244C6.1438 2.1622 6.306 2 6.4682 2C6.6304 2 6.79259 2.1622 6.79259 2.3244V2.48659C6.79259 2.58216 6.67805 2.76139 6.4682 2.76139Z" fill="#393939"/>
<path d="M6.05366 4.53848C6.10772 4.70067 6.21586 4.80881 6.37805 4.80881C6.48618 4.80881 6.64838 4.64661 6.70245 4.53848V3.40309C6.70245 3.2409 6.54025 3.0787 6.37805 3.0787C6.21586 3.0787 6.05366 3.2409 6.05366 3.40309V4.53848Z" fill="#393939"/>
<path d="M5.35076 4.16002C5.18856 4.16002 5.08043 4.05188 5.02637 3.88969V3.67342C5.02637 3.51123 5.18856 3.34903 5.35076 3.34903C5.51296 3.34903 5.67516 3.51123 5.67516 3.67342V3.88969C5.67516 3.99782 5.51296 4.16002 5.35076 4.16002Z" fill="#393939"/>
<path d="M8.09189 6.75518C7.98143 6.75518 7.89189 6.84449 7.89189 6.95495V7.42504C7.89189 7.53549 7.98143 7.62023 8.09189 7.62023H8.55694C8.6674 7.62023 8.75694 7.53069 8.75694 7.42023V6.95518C8.75694 6.84472 8.6674 6.75518 8.55694 6.75518H8.09189Z" fill="#393939"/>
<path fill-rule="evenodd" clip-rule="evenodd" d="M8.27034 14C7.72968 14 7.29715 13.6215 7.24309 13.1349L7.13496 11.8914H5.72924V12.7024C5.72924 12.8646 5.56705 13.0268 5.40485 13.0268C5.24265 13.0268 5.08045 12.8646 5.08045 12.7024V5.02507C5.08045 4.86287 5.24265 4.70067 5.40485 4.70067C5.56705 4.70067 5.72924 4.86287 5.72924 5.02507V5.67386H9.18946C9.51385 5.67386 9.78418 5.94419 9.78418 6.26858V7.89056L10.5952 8.91781C10.8114 9.18814 10.9736 9.5666 10.9736 9.99913L10.6492 13.3512C10.5952 13.7297 10.2708 14 9.89231 14H8.27034ZM7.72963 10.1613C7.56743 10.1613 7.40524 10.2695 7.40524 10.4857L7.56743 11.0264L7.7837 13.0809C7.7837 13.2971 7.99996 13.5134 8.21622 13.5134H9.8382C9.89227 13.5134 9.94633 13.4593 10.0004 13.3512L10.2707 9.99913C10.2707 9.78287 10.2167 9.51254 10.0545 9.29627L9.676 8.80968V11.2426C9.676 11.6211 9.40567 11.8374 9.08128 11.8374H8.91908L8.86501 11.8914C8.81095 11.9455 8.75688 11.9996 8.64875 12.0536H8.59469C8.48655 12.0536 8.32436 11.9455 8.32436 11.8374L8.05403 10.5939C8.05403 10.4317 7.91361 10.1613 7.72963 10.1613ZM9.08339 11.1182C9.08228 11.2171 9.0018 11.2967 8.90291 11.2967C8.8178 11.2967 8.74425 11.2373 8.72642 11.154L8.5948 10.5398C8.51409 10.043 8.21634 9.51253 7.67568 9.51253C7.19654 9.51253 6.82225 9.87949 6.81089 10.4069C6.81054 10.4233 6.81263 10.4397 6.81659 10.4555L7.02689 11.2967H6.95656C6.8461 11.2967 6.75656 11.2072 6.75656 11.0967V6.46858C6.75656 6.35813 6.8461 6.26858 6.95656 6.26858H8.98096C9.13545 6.26858 9.13545 6.42432 9.13545 6.47839L9.08339 11.1182ZM5.8099 6.26858C5.76522 6.26858 5.72885 6.30455 5.72837 6.34924L5.67589 11.1772C5.67543 11.2197 5.68724 11.2629 5.71946 11.2906C5.73511 11.3041 5.75349 11.3163 5.77212 11.3207C5.78145 11.3229 5.79113 11.3213 5.80045 11.319C5.85387 11.3059 5.89144 11.258 5.89144 11.203V6.35012C5.89144 6.30509 5.85494 6.26858 5.8099 6.26858Z" fill="#393939"/>
<path d="M6.91869 5.24133C6.97275 5.40353 7.08088 5.51166 7.24308 5.51166C7.40528 5.51166 7.56748 5.34946 7.56748 5.18727V4.59254C7.56748 4.43035 7.40528 4.26815 7.24308 4.26815C7.08088 4.26815 6.91869 4.43035 6.91869 4.59254V5.24133Z" fill="#393939"/>
</svg>
