<svg width="16" height="16" viewBox="0 0 16 16" fill="none" xmlns="http://www.w3.org/2000/svg">
<path d="M6.20899 5.59473H3.70402C3.55361 5.59473 3.45333 5.49446 3.45333 5.34404C3.45333 5.19363 3.55361 5.09399 3.70402 5.09399H6.20899C6.35941 5.09399 6.45968 5.19363 6.45968 5.34404C6.45968 5.49446 6.35941 5.59473 6.20899 5.59473Z" fill="#393939"/>
<path d="M5.03165 6.72206H3.72871C3.57893 6.72206 3.47866 6.62179 3.47866 6.47137C3.47866 6.32096 3.57893 6.22132 3.72871 6.22132H5.0564C5.20681 6.22132 5.30709 6.32096 5.30709 6.47137C5.30709 6.62179 5.18206 6.72206 5.03165 6.72206Z" fill="#393939"/>
<path d="M6.03386 6.72206H6.20902C6.35943 6.72206 6.45971 6.62179 6.45971 6.47137C6.45971 6.32096 6.35943 6.22132 6.20902 6.22132H6.03386C5.88344 6.22132 5.78317 6.32096 5.78317 6.47137C5.78317 6.62179 5.88344 6.72206 6.03386 6.72206Z" fill="#393939"/>
<path fill-rule="evenodd" clip-rule="evenodd" d="M9.36538 6.79708H10.4932C10.7185 6.79708 10.8936 6.62192 10.8936 6.39661V5.41925C10.8936 5.19395 10.7185 5.01879 10.4932 5.01879H9.36538C9.14008 5.01879 8.96491 5.19395 8.96491 5.41925V6.39661C8.96491 6.62192 9.14008 6.79708 9.36538 6.79708ZM10.3928 6.29634H9.49095V5.54491H10.3928V6.29634Z" fill="#393939"/>
<path fill-rule="evenodd" clip-rule="evenodd" d="M13.1984 5.4195H12.1963V4.46753C12.1963 4.06643 11.8707 3.7161 11.4449 3.7161H2.75206C2.35096 3.7161 2 4.04167 2 4.46753V9.72816C2 10.1293 2.32621 10.4796 2.75206 10.4796H3.70404V11.4817C3.70404 11.9329 4.05437 12.2839 4.50561 12.2839H13.1984C13.6497 12.2839 14 11.9329 14 11.4817V6.22107C14 5.76983 13.6497 5.4195 13.1984 5.4195ZM11.4449 9.97884H2.75208C2.62642 9.97884 2.5014 9.87857 2.5014 9.72816V9.077H11.6702V9.72816C11.6956 9.85382 11.5699 9.97884 11.4449 9.97884ZM2.75202 4.21684H11.4449C11.5699 4.21684 11.6955 4.31711 11.6955 4.46753V7.89972H2.52609V4.46753C2.52609 4.31711 2.62636 4.21684 2.75202 4.21684Z" fill="#393939"/>
</svg>
