<svg width="16" height="16" viewBox="0 0 16 16" fill="none" xmlns="http://www.w3.org/2000/svg">
<path d="M10.5714 8.85714C11.0448 8.85714 11.4286 8.47339 11.4286 8C11.4286 7.52661 11.0448 7.14286 10.5714 7.14286C10.098 7.14286 9.71429 7.52661 9.71429 8C9.71429 8.47339 10.098 8.85714 10.5714 8.85714Z" fill="#393939"/>
<path fill-rule="evenodd" clip-rule="evenodd" d="M13.3684 3.33333V4.85333C13.7411 5.08667 14 5.50667 14 6V10C14 10.4933 13.7411 10.9133 13.3684 11.1467V12.6667C13.3684 13.4 12.8 14 12.1053 14H3.26316C2.56211 14 2 13.4 2 12.6667V3.33333C2 2.6 2.56211 2 3.26316 2H12.1053C12.8 2 13.3684 2.6 13.3684 3.33333ZM13.1 6C13.1 5.72386 12.8761 5.5 12.6 5.5H8.5C8.22386 5.5 8 5.72386 8 6V10C8 10.2761 8.22386 10.5 8.5 10.5H12.6C12.8761 10.5 13.1 10.2761 13.1 10V6ZM3.50007 13C3.22393 13 3.00007 12.7761 3.00007 12.5V3.5C3.00007 3.22386 3.22393 3 3.50007 3H12.0001C12.2762 3 12.5001 3.22386 12.5001 3.5V4.66666H8.31586C7.62112 4.66666 7.0527 5.26666 7.0527 6V10C7.0527 10.7333 7.62112 11.3333 8.31586 11.3333H12.5001V12.5C12.5001 12.7761 12.2762 13 12.0001 13H3.50007Z" fill="#393939"/>
</svg>
