<svg width="16" height="16" viewBox="0 0 16 16" fill="none" xmlns="http://www.w3.org/2000/svg">
<path d="M10.7615 9.8932C10.6626 9.8932 10.5659 9.86486 10.4837 9.81177C10.4014 9.75867 10.3374 9.68321 10.2995 9.59492C10.2617 9.50664 10.2518 9.40948 10.2711 9.31576C10.2904 9.22203 10.338 9.13594 10.4079 9.06836C10.4778 9.00079 10.5669 8.95477 10.6639 8.93613C10.7609 8.91749 10.8614 8.92705 10.9528 8.96362C11.0442 9.0002 11.1223 9.06213 11.1772 9.14158C11.2321 9.22104 11.2615 9.31446 11.2615 9.41002C11.2615 9.53817 11.2088 9.66106 11.115 9.75168C11.0212 9.84229 10.8941 9.8932 10.7615 9.8932ZM5.23854 9.8932C5.13965 9.8932 5.04298 9.86486 4.96076 9.81177C4.87853 9.75867 4.81445 9.68321 4.7766 9.59492C4.73876 9.50664 4.72886 9.40948 4.74815 9.31576C4.76744 9.22203 4.81506 9.13594 4.88499 9.06836C4.95491 9.00079 5.04401 8.95477 5.141 8.93613C5.23799 8.91749 5.33852 8.92705 5.42988 8.96362C5.52125 9.0002 5.59934 9.06213 5.65428 9.14158C5.70922 9.22104 5.73854 9.31446 5.73854 9.41002C5.73854 9.53817 5.68586 9.66106 5.5921 9.75168C5.49833 9.84229 5.37115 9.8932 5.23854 9.8932ZM10.9406 6.98448L11.9394 5.3135C11.9553 5.29061 11.9661 5.26482 11.9713 5.23772C11.9764 5.21061 11.9758 5.18277 11.9693 5.15592C11.9629 5.12907 11.9508 5.10379 11.9339 5.08163C11.9169 5.05947 11.8955 5.04091 11.8708 5.0271C11.8461 5.01329 11.8187 5.00452 11.7904 5.00134C11.7621 4.99816 11.7334 5.00064 11.7061 5.00862C11.6788 5.01659 11.6535 5.0299 11.6317 5.04771C11.61 5.06552 11.5922 5.08747 11.5796 5.11218L10.5683 6.8047C9.76057 6.4546 8.88529 6.27361 8 6.27361C7.11471 6.27361 6.23943 6.4546 5.43167 6.8047L4.42042 5.11218C4.40779 5.08747 4.39004 5.06552 4.36828 5.04771C4.34652 5.0299 4.32121 5.01659 4.29391 5.00862C4.26662 5.00064 4.23791 4.99816 4.20959 5.00134C4.18126 5.00452 4.15391 5.01329 4.12923 5.0271C4.10455 5.04091 4.08306 5.05947 4.06611 5.08163C4.04915 5.10379 4.03709 5.12907 4.03065 5.15592C4.02422 5.18277 4.02357 5.21061 4.02872 5.23772C4.03388 5.26482 4.04473 5.29061 4.06063 5.3135L5.05938 6.98448C3.34438 7.8858 2.17167 9.56343 2 11.5455H14C13.8283 9.56343 12.6554 7.8858 10.9406 6.98448Z" fill="#393939"/>
</svg>
