<svg width="16" height="16" viewBox="0 0 16 16" fill="none" xmlns="http://www.w3.org/2000/svg">
<path d="M11.2881 8.34133C11.2828 7.35812 11.72 6.61602 12.6049 6.06949C12.1098 5.34882 11.3618 4.95232 10.3742 4.87463C9.43926 4.79962 8.41741 5.4292 8.04343 5.4292C7.64839 5.4292 6.74241 4.90142 6.03133 4.90142C4.56175 4.92553 3 6.0936 3 8.46993C3 9.17184 3.12641 9.89697 3.37925 10.6453C3.71635 11.6285 4.9331 14.0397 6.20251 13.9995C6.86619 13.9834 7.33498 13.52 8.19882 13.52C9.03632 13.52 9.47087 13.9995 10.2109 13.9995C11.4909 13.9808 12.5917 11.7893 12.913 10.8034C11.1959 9.98092 11.2881 8.39223 11.2881 8.34133ZM9.79744 3.94232C10.5164 3.0743 10.4506 2.28398 10.4295 2C9.79481 2.03751 9.06002 2.43937 8.64127 2.93499C8.18038 3.46545 7.90912 4.12181 7.96706 4.86123C8.65444 4.91482 9.28125 4.55582 9.79744 3.94232Z" fill="#393939"/>
</svg>
