<svg width="16" height="16" viewBox="0 0 16 16" fill="none" xmlns="http://www.w3.org/2000/svg">
<path fill-rule="evenodd" clip-rule="evenodd" d="M10.97 2C11.09 2 11.15 2 11.27 2.06C11.39 2.12 11.45 2.18 11.51 2.24C11.57 2.3 11.63 2.36 11.69 2.48C11.75 2.6 11.75 2.66 11.75 2.78V13.22C11.75 13.34 11.75 13.4 11.69 13.52C11.63 13.64 11.57 13.7 11.51 13.76C11.45 13.82 11.39 13.88 11.27 13.94C11.21 13.94 11.165 13.955 11.12 13.97C11.075 13.985 11.03 14 10.97 14H5.03C4.91 14 4.85 14 4.73 13.94C4.63833 13.94 4.58167 13.87 4.53328 13.8102C4.51833 13.7917 4.50416 13.7742 4.49 13.76C4.43 13.7 4.37 13.64 4.31 13.52C4.31 13.46 4.295 13.415 4.28 13.37C4.265 13.325 4.25 13.28 4.25 13.22V2.84C4.25 2.72 4.25 2.66 4.31 2.54C4.37 2.42 4.43 2.36 4.49 2.3C4.55 2.24 4.61 2.18 4.73 2.12C4.85 2.06 4.91 2.06 5.03 2.06L10.97 2ZM10.97 6.5V2.78H5.03V6.5H10.97ZM6.53 7.22V8.72H5.03V7.22H6.53ZM6.53 10.94V9.44H5.03V10.94H6.53ZM6.53 11.66V13.16H5.03V11.66H6.53ZM8.69 8.72V7.22H7.19V8.72H8.69ZM8.69 9.44V10.94H7.19V9.44H8.69ZM8.69 13.16V11.66H7.19V13.16H8.69ZM10.97 7.22V8.72H9.47V7.22H10.97ZM10.97 10.94V9.44H9.47V10.94H10.97ZM10.97 11.66V13.16H9.47V11.66H10.97Z" fill="#393939"/>
</svg>
