<svg width="16" height="16" viewBox="0 0 16 16" fill="none" xmlns="http://www.w3.org/2000/svg">
<path fill-rule="evenodd" clip-rule="evenodd" d="M12.1154 13.5424C13.3738 13.5424 14 12.9162 14 11.6759V4.32413C14 3.08379 13.3738 2.4576 12.1154 2.4576H3.89062C2.63222 2.4576 2.00001 3.07777 2.00001 4.32413V11.6759C2.00001 12.9222 2.63222 13.5424 3.89062 13.5424H12.1154ZM12.1937 12.573H3.80032C3.26444 12.573 2.96941 12.29 2.96941 11.7301V6.05218C2.96941 5.49824 3.26444 5.20923 3.80032 5.20923H12.1937C12.7296 5.20923 13.0306 5.49824 13.0306 6.05218V11.7301C13.0306 12.29 12.7296 12.573 12.1937 12.573ZM7.17814 7.3708C7.38888 7.3708 7.46113 7.31059 7.46113 7.09985V6.74461C7.46113 6.53387 7.38888 6.46764 7.17814 6.46764H6.8229C6.61216 6.46764 6.53991 6.53387 6.53991 6.74461V7.09985C6.53991 7.31059 6.61216 7.3708 6.8229 7.3708H7.17814ZM9.17711 7.3708C9.38785 7.3708 9.46011 7.31059 9.46011 7.09985V6.74461C9.46011 6.53387 9.38785 6.46764 9.17711 6.46764H8.82789C8.61113 6.46764 8.5449 6.53387 8.5449 6.74461V7.09985C8.5449 7.31059 8.61113 7.3708 8.82789 7.3708H9.17711ZM11.1822 7.3708C11.3929 7.3708 11.4591 7.31059 11.4591 7.09985V6.74461C11.4591 6.53387 11.3929 6.46764 11.1822 6.46764H10.8269C10.6162 6.46764 10.5439 6.53387 10.5439 6.74461V7.09985C10.5439 7.31059 10.6162 7.3708 10.8269 7.3708H11.1822ZM5.17913 9.33969C5.38987 9.33969 5.4561 9.27948 5.4561 9.06874V8.7135C5.4561 8.50276 5.38987 8.44255 5.17913 8.44255H4.82388C4.61315 8.44255 4.54089 8.50276 4.54089 8.7135V9.06874C4.54089 9.27948 4.61315 9.33969 4.82388 9.33969H5.17913ZM7.17814 9.33969C7.38888 9.33969 7.46113 9.27948 7.46113 9.06874V8.7135C7.46113 8.50276 7.38888 8.44255 7.17814 8.44255H6.8229C6.61216 8.44255 6.53991 8.50276 6.53991 8.7135V9.06874C6.53991 9.27948 6.61216 9.33969 6.8229 9.33969H7.17814ZM9.17711 9.33969C9.38785 9.33969 9.46011 9.27948 9.46011 9.06874V8.7135C9.46011 8.50276 9.38785 8.44255 9.17711 8.44255H8.82789C8.61113 8.44255 8.5449 8.50276 8.5449 8.7135V9.06874C8.5449 9.27948 8.61113 9.33969 8.82789 9.33969H9.17711ZM11.1822 9.33969C11.3929 9.33969 11.4591 9.27948 11.4591 9.06874V8.7135C11.4591 8.50276 11.3929 8.44255 11.1822 8.44255H10.8269C10.6162 8.44255 10.5439 8.50276 10.5439 8.7135V9.06874C10.5439 9.27948 10.6162 9.33969 10.8269 9.33969H11.1822ZM5.17913 11.3146C5.38987 11.3146 5.4561 11.2484 5.4561 11.0376V10.6824C5.4561 10.4717 5.38987 10.4114 5.17913 10.4114H4.82388C4.61315 10.4114 4.54089 10.4717 4.54089 10.6824V11.0376C4.54089 11.2484 4.61315 11.3146 4.82388 11.3146H5.17913ZM7.17814 11.3146C7.38888 11.3146 7.46113 11.2484 7.46113 11.0376V10.6824C7.46113 10.4717 7.38888 10.4114 7.17814 10.4114H6.8229C6.61216 10.4114 6.53991 10.4717 6.53991 10.6824V11.0376C6.53991 11.2484 6.61216 11.3146 6.8229 11.3146H7.17814ZM9.17711 11.3146C9.38785 11.3146 9.46011 11.2484 9.46011 11.0376V10.6824C9.46011 10.4717 9.38785 10.4114 9.17711 10.4114H8.82789C8.61113 10.4114 8.5449 10.4717 8.5449 10.6824V11.0376C8.5449 11.2484 8.61113 11.3146 8.82789 11.3146H9.17711Z" fill="#393939"/>
</svg>
