<svg width="16" height="16" viewBox="0 0 16 16" fill="none" xmlns="http://www.w3.org/2000/svg">
<path fill-rule="evenodd" clip-rule="evenodd" d="M14 8C14 11.2824 11.2824 14 8 14C4.72353 14 2 11.2824 2 8C2 4.72353 4.71765 2 7.99412 2C11.2765 2 14 4.72353 14 8ZM5.85355 8.30796L7.06564 9.52005L10.4392 6.14645C10.6345 5.95118 10.9511 5.95118 11.1464 6.14645C11.3416 6.34171 11.3416 6.65829 11.1464 6.85355L7.43096 10.5689C7.42095 10.579 7.41062 10.5885 7.4 10.5974C7.20373 10.775 6.90055 10.7692 6.71131 10.5799L5.14645 9.01506C4.95118 8.8198 4.95118 8.50322 5.14645 8.30796C5.34171 8.11269 5.65829 8.11269 5.85355 8.30796Z" fill="#393939"/>
</svg>
