<svg width="16" height="16" viewBox="0 0 16 16" fill="none" xmlns="http://www.w3.org/2000/svg">
<path d="M5.85355 8.30796L7.06564 9.52005L10.4392 6.14645C10.6345 5.95118 10.9511 5.95118 11.1464 6.14645C11.3416 6.34171 11.3416 6.65829 11.1464 6.85355L7.43096 10.5689C7.42095 10.579 7.41062 10.5885 7.4 10.5974C7.20373 10.775 6.90054 10.7692 6.71131 10.5799L5.14645 9.01506C4.95118 8.8198 4.95118 8.50322 5.14645 8.30796C5.34171 8.1127 5.65829 8.11269 5.85355 8.30796Z" fill="#393939"/>
<path fill-rule="evenodd" clip-rule="evenodd" d="M8 14C11.2824 14 14 11.2824 14 8C14 4.72353 11.2765 2 7.99412 2C4.71765 2 2 4.72353 2 8C2 11.2824 4.72353 14 8 14ZM7.99998 13C5.22351 13 3.00586 10.7765 3.00586 8C3.00586 5.22941 5.21762 3 7.99409 3C10.7706 3 12.9941 5.22941 13 8C13.0059 10.7765 10.7764 13 7.99998 13Z" fill="#393939"/>
</svg>
