<svg width="16" height="16" viewBox="0 0 16 16" fill="none" xmlns="http://www.w3.org/2000/svg">
<path fill-rule="evenodd" clip-rule="evenodd" d="M13.8042 13.8032C14.0615 13.5384 14.0615 13.107 13.8042 12.8497L8.96106 7.99905L13.8042 3.15593C14.0615 2.89864 14.069 2.45973 13.8042 2.20244C13.5393 1.93758 13.1004 1.93758 12.8431 2.20244L8 7.04556L3.15687 2.20244C2.89958 1.93758 2.45311 1.93001 2.19582 2.20244C1.93853 2.4673 1.93853 2.89864 2.19582 3.15593L7.03894 7.99905L2.19582 12.8497C1.93853 13.107 1.93096 13.5459 2.19582 13.8032C2.46067 14.0605 2.89958 14.0605 3.15687 13.8032L8 8.96011L12.8431 13.8032C13.1004 14.0605 13.5469 14.0681 13.8042 13.8032Z" fill="#393939"/>
</svg>
