<svg width="16" height="16" viewBox="0 0 16 16" fill="none" xmlns="http://www.w3.org/2000/svg">
<path fill-rule="evenodd" clip-rule="evenodd" d="M8 14C11.2824 14 14 11.2824 14 8C14 4.72353 11.2765 2 7.99412 2C4.71765 2 2 4.72353 2 8C2 11.2824 4.72353 14 8 14ZM8 13C5.22353 13 3.00588 10.7765 3.00588 8C3.00588 5.22941 5.21765 3 7.99412 3C10.7706 3 12.9941 5.22941 13 8C13.0059 10.7765 10.7765 13 8 13ZM10.0059 10.4941C10.2647 10.4941 10.4765 10.2765 10.4765 10.0176C10.4765 9.88235 10.4294 9.77059 10.3353 9.68235L8.66471 8.01176L10.3412 6.32941C10.4412 6.22941 10.4824 6.12941 10.4824 6C10.4824 5.73529 10.2706 5.52941 10.0118 5.52941C9.88824 5.52941 9.78824 5.57059 9.68824 5.67059L7.99412 7.35294L6.31176 5.67647C6.22941 5.58235 6.11765 5.54118 5.98824 5.54118C5.72941 5.54118 5.51765 5.74118 5.51765 6.00588C5.51765 6.13529 5.56471 6.24706 5.65882 6.33529L7.32941 8.01176L5.65882 9.68824C5.56471 9.77059 5.51765 9.88824 5.51765 10.0176C5.51765 10.2765 5.72941 10.4941 5.98824 10.4941C6.11765 10.4941 6.24118 10.4412 6.32353 10.3471L7.99412 8.67059L9.67059 10.3471C9.75882 10.4353 9.87059 10.4941 10.0059 10.4941Z" fill="#393939"/>
</svg>
