<svg width="16" height="16" viewBox="0 0 16 16" fill="none" xmlns="http://www.w3.org/2000/svg">
<path fill-rule="evenodd" clip-rule="evenodd" d="M8 14C11.2824 14 14 11.2824 14 8C14 4.72353 11.2765 2 7.99412 2C4.71765 2 2 4.72353 2 8C2 11.2824 4.72353 14 8 14ZM10.1059 10.6118C9.96471 10.6118 9.84118 10.5529 9.75294 10.4647L7.99412 8.7L6.24118 10.4647C6.15294 10.5588 6.02941 10.6118 5.88824 10.6118C5.61765 10.6118 5.39412 10.3882 5.39412 10.1118C5.39412 9.97647 5.44706 9.85882 5.54118 9.77059L7.3 8.00588L5.54118 6.24118C5.44706 6.15882 5.39412 6.03529 5.39412 5.9C5.39412 5.62941 5.61765 5.41176 5.88824 5.41176C6.02941 5.41176 6.14118 5.46471 6.22941 5.55882L7.99412 7.31765L9.77059 5.55294C9.87059 5.44706 9.98235 5.4 10.1118 5.4C10.3882 5.4 10.6059 5.62353 10.6059 5.89412C10.6059 6.02941 10.5647 6.14118 10.4588 6.23529L8.69412 8.00588L10.4529 9.75882C10.5471 9.85294 10.6 9.97059 10.6 10.1118C10.6 10.3882 10.3824 10.6118 10.1059 10.6118Z" fill="#393939"/>
</svg>
