<svg width="16" height="16" viewBox="0 0 16 16" fill="none" xmlns="http://www.w3.org/2000/svg">
<path fill-rule="evenodd" clip-rule="evenodd" d="M3.45159 3C3.45159 2.44772 3.8993 2 4.45159 2H7C7.55229 2 8 2.44772 8 3V3.45159H13C13.5523 3.45159 14 3.8993 14 4.45159V7C14 7.55229 13.5523 8 13 8H8V13C8 13.5523 7.55228 14 7 14H4.45159C3.8993 14 3.45159 13.5523 3.45159 13V8H3C2.44772 8 2 7.55228 2 7V4.45159C2 3.8993 2.44772 3.45159 3 3.45159H3.45159V3ZM4.10816 3.23144C4.10816 2.9553 4.33202 2.73144 4.60816 2.73144H6.84343C7.11957 2.73144 7.34343 2.9553 7.34343 3.23144V4.88821H6.11765C5.90124 4.88821 5.72579 5.06365 5.72579 5.28006C5.72579 5.49648 5.90124 5.67192 6.11765 5.67192H7.34343V7.60814H5.20362C4.9872 7.60814 4.81176 7.78358 4.81176 8C4.81176 8.21642 4.9872 8.39186 5.20362 8.39186H7.34343V10.3281H6.11765C5.90124 10.3281 5.72579 10.5035 5.72579 10.7199C5.72579 10.9364 5.90124 11.1118 6.11765 11.1118H7.34343V12.7686C7.34343 13.0447 7.11957 13.2686 6.84343 13.2686H4.60816C4.33202 13.2686 4.10816 13.0447 4.10816 12.7686V3.23144ZM12.7686 4.10816C13.0447 4.10816 13.2686 4.33202 13.2686 4.60816V6.84343C13.2686 7.11957 13.0447 7.34343 12.7686 7.34343H11.7293V6.11765C11.7293 5.90124 11.5538 5.72579 11.3374 5.72579C11.121 5.72579 10.9455 5.90124 10.9455 6.11765V7.34343H9.76854V5.20362C9.76854 4.9872 9.5931 4.81176 9.37668 4.81176C9.16027 4.81176 8.98483 4.9872 8.98483 5.20362V7.34343H8V4.10816H12.7686ZM3.22267 4.10395C2.94653 4.10395 2.72267 4.32781 2.72267 4.60395V6.84764C2.72267 7.12378 2.94653 7.34764 3.22267 7.34764H3.45159V4.10395H3.22267Z" fill="#393939"/>
</svg>
