<svg width="16" height="16" viewBox="0 0 16 16" fill="none" xmlns="http://www.w3.org/2000/svg">
<path fill-rule="evenodd" clip-rule="evenodd" d="M9.11453 14C10.0921 14 10.5502 13.5041 10.5502 12.5171V11.6434H11.4711C12.4486 11.6434 12.9351 11.1476 12.9351 10.1606V6.20779C12.9351 5.62692 12.8217 5.25856 12.4675 4.89492L10.0827 2.46753C9.74263 2.12279 9.35066 2 8.84534 2H6.91382C5.94097 2 5.44983 2.49587 5.44983 3.48288V4.35655H4.52893C3.55609 4.35655 3.06494 4.85242 3.06494 5.83943V12.5171C3.06494 13.5089 3.55136 14 4.52893 14H9.11453ZM11.4333 10.8831H10.5502V8.71074C10.5502 8.10626 10.4841 7.84179 10.1063 7.45455L7.49942 4.80519C7.14522 4.43684 6.8477 4.35655 6.31406 4.35655H6.21016V3.49233C6.21016 3.02952 6.46045 2.76033 6.9516 2.76033H8.94452V5.23022C8.94452 5.77332 9.20898 6.03778 9.75207 6.03778H12.1747V10.1511C12.1747 10.6187 11.9244 10.8831 11.4333 10.8831ZM12.0236 5.35301H9.86069C9.6954 5.35301 9.62929 5.28217 9.62929 5.11688V2.91145L12.0236 5.35301ZM9.04841 13.2397H4.56199C4.07557 13.2397 3.82527 12.9752 3.82527 12.503V5.84888C3.82527 5.38607 4.07557 5.11688 4.56671 5.11688H6.21016V7.85596C6.21016 8.451 6.5124 8.7438 7.098 8.7438H9.78985V12.503C9.78985 12.9752 9.53956 13.2397 9.04841 13.2397ZM9.64345 8.0307H7.18773C6.99883 8.0307 6.92326 7.95514 6.92326 7.77096V5.26328L9.64345 8.0307Z" fill="#393939"/>
</svg>
