<svg width="16" height="16" viewBox="0 0 16 16" fill="none" xmlns="http://www.w3.org/2000/svg">
<path fill-rule="evenodd" clip-rule="evenodd" d="M11.4711 11.6434C12.4486 11.6434 12.9351 11.1476 12.9351 10.1606V5.60803H10.1346C9.64345 5.60803 9.36482 5.3294 9.36482 4.83825V2H6.91382C5.94097 2 5.44983 2.49587 5.44983 3.48288V3.71429H6.06376C6.72964 3.71429 7.25857 3.90319 7.78749 4.43211L10.4699 7.11924C10.9988 7.65289 11.1972 8.20071 11.1972 8.84298V11.6434H11.4711ZM12.7084 5.01771C12.6801 4.86659 12.5809 4.73436 12.4109 4.56907L10.4038 2.51948C10.2385 2.35419 10.1015 2.2503 9.95514 2.22668L9.95986 4.7438C9.95986 4.93743 10.0354 5.01771 10.229 5.01771H12.7084ZM9.09092 14C10.0638 14 10.5502 13.5041 10.5502 12.5171V8.71547H7.13578C6.52657 8.71547 6.24322 8.42739 6.24322 7.8229V4.35655H4.52893C3.55609 4.35655 3.06494 4.85242 3.06494 5.83943V12.5171C3.06494 13.5089 3.55136 14 4.52893 14H9.09092ZM10.3046 8.06848C10.2527 7.8843 10.1252 7.71429 9.91736 7.49705L7.45691 4.99882C7.25384 4.7863 7.06966 4.6588 6.88548 4.60685V7.82763C6.88548 7.98819 6.97049 8.06848 7.13106 8.06848H10.3046Z" fill="#393939"/>
</svg>
