<svg width="16" height="16" viewBox="0 0 16 16" fill="none" xmlns="http://www.w3.org/2000/svg">
<path fill-rule="evenodd" clip-rule="evenodd" d="M12.5842 14C12.9382 14 13.1832 13.7414 13.1832 13.3874C13.1832 13.0335 12.9382 12.7816 12.5842 12.7816H8.13952C8.25523 12.7476 8.36413 12.6863 8.45943 12.5842L12.9586 8.07828C13.0947 7.93534 13.1628 7.78559 13.1628 7.62223C13.1628 7.28191 12.9109 7.02326 12.5706 7.02326C12.4072 7.02326 12.2439 7.08452 12.135 7.19342L10.6103 8.69767L8.56153 10.937L8.60917 9.48043V2.60579C8.60917 2.25184 8.35733 2 8.00339 2C7.64264 2 7.39079 2.25184 7.39079 2.60579V9.48043L7.44525 10.9438L5.39647 8.69767L3.87179 7.19342C3.75608 7.08452 3.59953 7.02326 3.43617 7.02326C3.08904 7.02326 2.844 7.28191 2.844 7.62223C2.844 7.78559 2.91206 7.93534 3.04139 8.07828L7.54735 12.5842C7.63583 12.6863 7.74474 12.7476 7.86045 12.7816H3.40214C3.055 12.7816 2.81677 13.0335 2.81677 13.3874C2.81677 13.7414 3.055 14 3.40214 14H12.5842Z" fill="#393939"/>
</svg>
