<svg width="16" height="16" viewBox="0 0 16 16" fill="none" xmlns="http://www.w3.org/2000/svg">
<path d="M11.9126 4.83013H9.65854C9.5398 4.85675 9.34869 4.93356 9.34378 5.19397C9.33887 5.45438 9.53571 5.58148 9.65854 5.59172H11.9126C12.0272 5.5999 12.2579 5.4986 12.2579 5.19397C12.2579 4.88934 12.0272 4.83832 11.9126 4.83013Z" fill="#393939"/>
<path d="M11.8858 9.90607C12.0005 9.91426 12.2312 9.96527 12.2312 10.2699C12.2312 10.5745 12.0005 10.6758 11.8858 10.6677H9.63177C9.50894 10.6574 9.3121 10.5303 9.31702 10.2699C9.32193 10.0095 9.51304 9.93268 9.63177 9.90607H11.8858Z" fill="#393939"/>
<path d="M11.8858 10.9939H9.63177C9.51304 11.0205 9.32193 11.0973 9.31702 11.3577C9.3121 11.6181 9.50894 11.7452 9.63177 11.7555H11.8858C12.0005 11.7637 12.2312 11.6624 12.2312 11.3577C12.2312 11.0531 12.0005 11.0021 11.8858 10.9939Z" fill="#393939"/>
<path d="M4.8925 4.83013V4.17296C4.8925 3.89658 5.09757 3.73075 5.25488 3.73074C5.44527 3.73074 5.66024 3.83516 5.66024 4.17296V4.83013H6.4034C6.51804 4.83832 6.74873 4.88933 6.74873 5.19397C6.74873 5.4986 6.51804 5.5999 6.4034 5.59171H5.66024V6.32259C5.64591 6.43929 5.58188 6.67522 5.29198 6.67522C5.00207 6.67522 4.8925 6.43929 4.8925 6.32259V5.59171H4.14935C4.02651 5.58148 3.82967 5.45438 3.83459 5.19397C3.8395 4.93355 4.03061 4.85674 4.14935 4.83013H4.8925Z" fill="#393939"/>
<path d="M4.64061 10.8779L4.17592 10.4132C3.98049 10.2178 4.00824 9.95555 4.11947 9.84432C4.2541 9.70968 4.47993 9.63152 4.71879 9.87037L5.18348 10.3351L5.70898 9.80957C5.79584 9.73429 5.99503 9.60725 6.21044 9.82266C6.42585 10.0381 6.33436 10.2728 6.2475 10.3481L5.722 10.8736L6.23881 11.3904C6.3112 11.483 6.43275 11.6951 6.22776 11.9001C6.02277 12.1051 5.77845 12.0158 5.69594 11.9333L5.17913 11.4165L4.65364 11.9419C4.55955 12.0216 4.33049 12.0709 4.14983 11.8833C3.96916 11.6957 4.04998 11.5062 4.11512 11.4034L4.64061 10.8779Z" fill="#393939"/>
<path fill-rule="evenodd" clip-rule="evenodd" d="M2.552 2H13.448C13.76 2 14 2.24 14 2.552V13.448C14 13.76 13.76 14 13.448 14H2.552C2.24 14 2 13.76 2 13.448V2.552C2 2.24 2.24 2 2.552 2ZM13 3H8.5V7.5H13V3ZM8.5 8.5H13V13H8.5V8.5ZM7.5 3H3V7.5H7.5V3ZM3 8.5H7.5V13H3V8.5Z" fill="#393939"/>
</svg>
