<svg width="16" height="16" viewBox="0 0 16 16" fill="none" xmlns="http://www.w3.org/2000/svg">
<path fill-rule="evenodd" clip-rule="evenodd" d="M3.03364 14C3.29052 14 3.49847 13.7982 3.49847 13.5413V10.1407C3.65138 10.0734 4.2263 9.85321 5.12538 9.85321C7.38838 9.85321 8.80734 10.9602 10.9602 10.9602C11.9144 10.9602 12.2691 10.8563 12.7339 10.6483C13.156 10.4587 13.4312 10.1407 13.4312 9.57798V3.37003C13.4312 3.03976 13.1498 2.85015 12.7951 2.85015C12.4954 2.85015 11.9327 3.10703 10.8807 3.10703C8.72783 3.10703 7.31498 2 5.04587 2C4.09174 2 3.73089 2.10398 3.26606 2.31193C2.84404 2.50153 2.56881 2.81957 2.56881 3.37615V13.5413C2.56881 13.792 2.78287 14 3.03364 14ZM10.9602 10.0367C8.92355 10.0367 7.48012 8.92966 5.12538 8.92966C4.4526 8.92966 3.84098 9.00917 3.49847 9.14985V3.40673C3.5841 3.20489 4.09174 2.92355 5.04587 2.92355C7.19878 2.92355 8.63609 4.03058 10.8807 4.03058C11.5474 4.03058 12.0979 3.95107 12.5076 3.83486V9.55352C12.422 9.75535 11.9144 10.0367 10.9602 10.0367Z" fill="#393939"/>
</svg>
