<svg width="16" height="16" viewBox="0 0 16 16" fill="none" xmlns="http://www.w3.org/2000/svg">
<path fill-rule="evenodd" clip-rule="evenodd" d="M12.2318 5.11708V4.85879C12.2318 4.09984 11.845 3.72036 11.075 3.72036H7.49024C7.23971 3.72036 7.09235 3.65773 6.90814 3.503L6.6834 3.3151C6.44024 3.11247 6.24866 3.04247 5.88761 3.04247H4.78971C4.14498 3.04247 3.77287 3.41089 3.77287 4.1551V5.25842C2.71741 5.63028 1.99628 6.68912 2.11757 7.87207L2.40882 10.7125C2.53958 11.9878 3.6138 12.9575 4.89578 12.9575H11.0933C12.3717 12.9575 13.4441 11.9931 13.5793 10.7219L13.8814 7.88148C14.0385 6.40448 12.8808 5.11708 11.3955 5.11708H12.2318ZM4.60453 5.11708H3.77288L3.77287 5.25842C4.03239 5.16698 4.31214 5.11708 4.60453 5.11708ZM11.1143 5.113H4.81988V4.4105C4.81988 4.13453 4.98569 3.99514 5.2918 3.99514H6.00286C6.2165 3.99514 6.34405 4.03974 6.50667 4.1624L6.70118 4.30179C6.90844 4.45232 7.07744 4.50807 7.39312 4.50807H10.62C10.9357 4.50807 11.1143 4.65582 11.1143 4.94574V5.113ZM5.20141 8.19455C5.20141 7.99596 5.3624 7.83497 5.56099 7.83497H10.4438C10.6423 7.83497 10.8033 7.99596 10.8033 8.19455C10.8033 8.39314 10.6423 8.55413 10.4438 8.55413H5.56099C5.3624 8.55413 5.20141 8.39314 5.20141 8.19455ZM6.40217 9.52048C6.20358 9.52048 6.04259 9.68146 6.04259 9.88005C6.04259 10.0786 6.20358 10.2396 6.40217 10.2396H9.60252C9.80111 10.2396 9.9621 10.0786 9.9621 9.88005C9.9621 9.68146 9.80111 9.52048 9.60252 9.52048H6.40217Z" fill="#393939"/>
</svg>
