<svg width="16" height="16" viewBox="0 0 16 16" fill="none" xmlns="http://www.w3.org/2000/svg">
<path fill-rule="evenodd" clip-rule="evenodd" d="M6.02072 9.9013C6.02072 9.90141 6.02072 9.90119 6.02072 9.9013C6.02072 9.7005 6.1835 9.5374 6.3843 9.5374H9.62028C9.82108 9.5374 9.98386 9.7005 9.98386 9.9013C9.98386 9.90119 9.98386 9.90141 9.98386 9.9013C9.98369 10.102 9.82097 10.2646 9.62028 10.2646H6.3843C6.18361 10.2646 6.02089 10.102 6.02072 9.9013Z" fill="#393939"/>
<path d="M5.17017 8.19672C5.17017 7.99592 5.33295 7.83314 5.53376 7.83314H10.4709C10.6717 7.83314 10.8345 7.99592 10.8345 8.19672C10.8345 8.39752 10.6717 8.5603 10.4709 8.5603H5.53376C5.33295 8.5603 5.17017 8.39752 5.17017 8.19672Z" fill="#393939"/>
<path fill-rule="evenodd" clip-rule="evenodd" d="M12.2789 5.22041V4.82382C12.2789 4.05642 11.8877 3.67272 11.1092 3.67272H7.48452C7.23121 3.67272 7.0822 3.60939 6.89594 3.45293L6.6687 3.26295C6.42283 3.05806 6.22912 2.98728 5.86405 2.98728H4.75393C4.10202 2.98728 3.72577 3.3598 3.72577 4.1123V5.08498H4.53584C3.05428 5.08498 1.89776 6.36615 2.04888 7.83998L2.34907 10.7677C2.47983 12.043 3.55406 13.0127 4.83603 13.0127H11.1528C12.4311 13.0127 13.5035 12.0483 13.6387 10.7771L13.9501 7.84938C14.077 6.65686 13.3467 5.58794 12.2789 5.22041ZM12.2789 8.75709L12.2789 8.74648V5.92191C12.8753 6.1644 13.2756 6.77878 13.2065 7.46289L12.8556 10.9363C12.7782 11.7025 12.1333 12.2856 11.3632 12.2856H4.69682C3.93225 12.2856 3.29003 11.7105 3.20592 10.9506L2.8215 7.47715C2.72318 6.58882 3.41864 5.81215 4.3124 5.81215H11.7141C11.9145 5.81215 12.105 5.85124 12.2789 5.92191L12.2789 8.75709ZM12.2789 5.22041C12.0242 5.13274 11.7502 5.08498 11.4641 5.08498H12.2789L12.2789 5.22041ZM11.6791 5.08086H4.3255V4.1421C4.3255 3.7733 4.51921 3.58704 4.87683 3.58704H5.70756C5.95715 3.58704 6.10615 3.64664 6.29614 3.81055L6.52338 3.99682C6.76552 4.19798 6.96296 4.27248 7.33175 4.27248H11.1017C11.4705 4.27248 11.6791 4.46992 11.6791 4.85734V5.08086Z" fill="#393939"/>
</svg>
