<svg width="16" height="16" viewBox="0 0 16 16" fill="none" xmlns="http://www.w3.org/2000/svg">
<path fill-rule="evenodd" clip-rule="evenodd" d="M12.5157 12.8502C13.4564 12.8502 14 12.3066 14 11.23V5.72648C14 4.64982 13.4512 4.1115 12.3589 4.1115H7.27352C6.91812 4.1115 6.70906 4.02265 6.44774 3.80313L6.12892 3.53658C5.78397 3.24913 5.5122 3.14982 5 3.14982H3.44251C2.52787 3.14982 2 3.67247 2 4.72822V11.23C2 12.3118 2.54878 12.8502 3.64111 12.8502H12.5157ZM13.1585 6.08711H2.84145V4.77003C2.84145 4.25261 3.11323 3.99129 3.61497 3.99129H4.78047C5.13065 3.99129 5.33971 4.07491 5.60626 4.30488L5.92507 4.5662C6.26479 4.84843 6.5418 4.95296 7.05922 4.95296H12.3484C12.8658 4.95296 13.1585 5.22996 13.1585 5.77352V6.08711ZM12.3484 12.0087H3.65155C3.1289 12.0087 2.84145 11.7317 2.84145 11.1882V6.8763H13.1585V11.1934C13.1585 11.7317 12.8658 12.0087 12.3484 12.0087Z" fill="#393939"/>
</svg>
