<svg width="16" height="16" viewBox="0 0 16 16" fill="none" xmlns="http://www.w3.org/2000/svg">
<path fill-rule="evenodd" clip-rule="evenodd" d="M2.79668 6.9296H13.469C13.9862 6.9296 14.163 6.24025 13.7096 5.99131L8.37345 3.06171C8.22358 2.97943 8.04206 2.97943 7.8922 3.06171L2.55605 5.99131C2.10262 6.24025 2.27941 6.9296 2.79668 6.9296ZM3.88277 6.2296H12.3829L8.13283 3.9296L3.88277 6.2296Z" fill="#393939"/>
<path d="M7.5 8.4296C7.5 8.15346 7.72386 7.9296 8 7.9296C8.27614 7.9296 8.5 8.15346 8.5 8.4296V11.4296C8.5 11.7057 8.27614 11.9296 8 11.9296C7.72386 11.9296 7.5 11.7057 7.5 11.4296V8.4296Z" fill="#393939"/>
<path d="M2 13.4296C2 13.1535 2.22386 12.9296 2.5 12.9296H13.5C13.7761 12.9296 14 13.1535 14 13.4296C14 13.7057 13.7761 13.9296 13.5 13.9296H2.5C2.22386 13.9296 2 13.7057 2 13.4296Z" fill="#393939"/>
<path d="M11.5 7.9296C11.2239 7.9296 11 8.15346 11 8.4296V11.4296C11 11.7057 11.2239 11.9296 11.5 11.9296C11.7761 11.9296 12 11.7057 12 11.4296V8.4296C12 8.15346 11.7761 7.9296 11.5 7.9296Z" fill="#393939"/>
<path d="M4 8.4296C4 8.15346 4.22386 7.9296 4.5 7.9296C4.77614 7.9296 5 8.15346 5 8.4296V11.4296C5 11.7057 4.77614 11.9296 4.5 11.9296C4.22386 11.9296 4 11.7057 4 11.4296V8.4296Z" fill="#393939"/>
</svg>
