<svg width="16" height="16" viewBox="0 0 16 16" fill="none" xmlns="http://www.w3.org/2000/svg">
<path fill-rule="evenodd" clip-rule="evenodd" d="M8 14C11.2824 14 14 11.2824 14 8C14 4.72353 11.2765 2 7.99412 2C4.71765 2 2 4.72353 2 8C2 11.2824 4.72353 14 8 14ZM7.99412 8.63529H4.92353C4.68824 8.63529 4.51176 8.45882 4.51176 8.22353C4.51176 7.99412 4.68824 7.81765 4.92353 7.81765H7.58824V4.25882C7.58824 4.02941 7.76471 3.85294 7.99412 3.85294C8.22353 3.85294 8.40588 4.02941 8.40588 4.25882V8.22353C8.40588 8.45882 8.22353 8.63529 7.99412 8.63529Z" fill="#393939"/>
</svg>
