<svg width="16" height="16" viewBox="0 0 16 16" fill="none" xmlns="http://www.w3.org/2000/svg">
<path fill-rule="evenodd" clip-rule="evenodd" d="M8 14C11.2824 14 14 11.2824 14 8C14 4.72353 11.2765 2 7.99412 2C4.71765 2 2 4.72353 2 8C2 11.2824 4.72353 14 8 14ZM8 13C5.22353 13 3.00588 10.7765 3.00588 8C3.00588 5.22941 5.21765 3 7.99412 3C10.7706 3 12.9941 5.22941 13 8C13.0059 10.7765 10.7765 13 8 13ZM7.99412 8.63529C8.22353 8.63529 8.40588 8.45882 8.40588 8.22353V4.25882C8.40588 4.02941 8.22353 3.85294 7.99412 3.85294C7.76471 3.85294 7.58824 4.02941 7.58824 4.25882V7.81765H4.92353C4.68824 7.81765 4.51176 7.99412 4.51176 8.22353C4.51176 8.45882 4.68824 8.63529 4.92353 8.63529H7.99412Z" fill="#393939"/>
</svg>
