<svg width="16" height="16" viewBox="0 0 16 16" fill="none" xmlns="http://www.w3.org/2000/svg">
<path fill-rule="evenodd" clip-rule="evenodd" d="M11.375 13.4015C12.1045 13.4015 12.5308 12.9906 12.5308 12.2663V7.5762L13.1935 8.18236C13.2962 8.2851 13.4144 8.35702 13.5634 8.35702C13.8048 8.35702 14 8.20805 14 7.96147C14 7.80736 13.9384 7.70976 13.8459 7.62243L12.0634 5.99401V2.96832C12.0634 2.74229 11.9144 2.59846 11.6935 2.59846H11.0205C10.7945 2.59846 10.6455 2.74229 10.6455 2.96832V4.70462L8.61644 2.85531C8.43664 2.69092 8.22089 2.59846 8 2.59846C7.77911 2.59846 7.56336 2.69092 7.38356 2.85531L2.15411 7.62243C2.06164 7.70976 2 7.80736 2 7.96147C2 8.20805 2.19521 8.35702 2.43664 8.35702C2.58048 8.35702 2.70377 8.2851 2.80651 8.18236L3.46918 7.58134V12.2663C3.46918 12.9906 3.89555 13.4015 4.625 13.4015H11.375ZM6.51543 12.5745H4.80481C4.47604 12.5745 4.29625 12.3947 4.29625 12.0608V6.8262L7.82022 3.61558C7.87159 3.56421 7.93324 3.53339 8.00002 3.53339C8.0668 3.53339 8.12844 3.55908 8.18495 3.61558L11.7038 6.8262V12.0608C11.7038 12.3947 11.524 12.5745 11.1952 12.5745H9.47947V9.16353C9.47947 8.92723 9.32536 8.77825 9.08906 8.77825H6.91097C6.67467 8.77825 6.51543 8.92723 6.51543 9.16353V12.5745Z" fill="#393939"/>
</svg>
