<svg width="16" height="16" viewBox="0 0 16 16" fill="none" xmlns="http://www.w3.org/2000/svg">
<path fill-rule="evenodd" clip-rule="evenodd" d="M13.5634 8.35702C13.8048 8.35702 14 8.20805 14 7.96147C14 7.80736 13.9384 7.70976 13.8459 7.62243L12.0685 6.00428V2.96832C12.0685 2.74229 11.9195 2.59846 11.6986 2.59846H11.0257C10.7997 2.59846 10.6507 2.74229 10.6507 2.96832V4.7149L8.61644 2.85531C8.43151 2.68579 8.21575 2.6036 8 2.6036C7.78425 2.6036 7.56849 2.68579 7.38356 2.85531L2.15411 7.62243C2.06164 7.70976 2 7.80736 2 7.96147C2 8.20805 2.19521 8.35702 2.43664 8.35702C2.58048 8.35702 2.70377 8.2851 2.80651 8.18236L7.82021 3.61558C7.87671 3.55908 7.93836 3.53853 8 3.53853C8.06678 3.53853 8.12329 3.55908 8.18493 3.61558L13.1935 8.18236C13.2962 8.2851 13.4144 8.35702 13.5634 8.35702ZM6.70548 13.4015V9.74914C6.70548 9.51284 6.85959 9.35873 7.09589 9.35873H8.90925C9.15069 9.35873 9.29966 9.51284 9.29966 9.74914V13.4015H11.375C12.0993 13.4015 12.5308 12.9854 12.5308 12.2714V8.51113L8.16439 4.58134C8.11302 4.52997 8.04624 4.50428 7.98973 4.50428C7.93322 4.50428 7.87158 4.52997 7.81507 4.58647L3.46918 8.53682V12.2714C3.46918 12.9854 3.90069 13.4015 4.625 13.4015H6.70548Z" fill="#393939"/>
</svg>
