<svg width="16" height="16" viewBox="0 0 16 16" fill="none" xmlns="http://www.w3.org/2000/svg">
<path fill-rule="evenodd" clip-rule="evenodd" d="M9.87387 11.3512C10.0501 11.3512 10.1641 11.2423 10.1641 11.0661V10.2367C10.1641 8.98229 11.9836 8.17365 11.9836 5.93434C11.9836 3.57581 10.387 2 7.99741 2C5.60778 2 4.01641 3.57581 4.01641 5.93434C4.01641 8.17365 5.83585 8.98229 5.83585 10.2367V11.0661C5.83585 11.2423 5.94989 11.3512 6.12095 11.3512H9.87387ZM9.39179 10.5685H6.60821V10.2471C6.60821 8.72311 4.79914 7.90929 4.79914 5.93952C4.79914 4.04233 6.07948 2.78272 7.99741 2.78272C9.92052 2.78272 11.2009 4.04233 11.2009 5.93952C11.2009 7.90929 9.39179 8.72311 9.39179 10.2471V10.5685ZM9.68207 12.7508C9.94644 12.7508 10.1641 12.533 10.1641 12.2635C10.1641 11.994 9.94644 11.7762 9.68207 11.7762H6.31793C6.05356 11.7762 5.83585 11.994 5.83585 12.2635C5.83585 12.533 6.05356 12.7508 6.31793 12.7508H9.68207ZM7.99741 14C8.71274 14 9.22073 13.6734 9.27257 13.1706H6.72743C6.77408 13.6734 7.28207 14 7.99741 14Z" fill="#393939"/>
</svg>
