<svg width="16" height="16" viewBox="0 0 16 16" fill="none" xmlns="http://www.w3.org/2000/svg">
<path fill-rule="evenodd" clip-rule="evenodd" d="M10.1315 2.00834C8.00426 2.00834 6.27976 3.73284 6.27976 5.86012C6.27938 6.2387 6.33564 6.61521 6.44667 6.97714L2 11.4238V13.9917H4.56785L9.01452 9.54499C10.1298 9.88718 11.34 9.70551 12.3056 9.05095C13.2712 8.3964 13.8882 7.33949 13.9833 6.17682C14.0697 5.26333 13.8185 4.34983 13.2772 3.60897C12.5491 2.59816 11.3772 2.00184 10.1315 2.00834ZM10.1315 8.85595C9.84152 8.85481 9.55319 8.81156 9.2756 8.72756L8.78342 8.57777L7.05868 10.3025L6.45524 9.7119L5.85179 10.3153L6.4424 10.906L5.76192 11.5864L5.17131 10.9958L4.56786 11.5993L5.15847 12.1899L4.21265 13.1357H2.85596V11.779L7.05012 7.57203L7.4139 7.20825L7.28979 6.80167C6.84547 5.40446 7.45613 3.88859 8.74491 3.18956C9.65984 2.71126 10.7566 2.73777 11.6473 3.2597C12.5381 3.78163 13.0974 4.72544 13.1274 5.75741C13.1571 6.36304 12.9937 6.96247 12.6609 7.46931C12.1104 8.33371 11.1563 8.85677 10.1315 8.85595ZM10.5595 6.2881C11.0323 6.2881 11.4155 5.90488 11.4155 5.43215C11.4155 4.95942 11.0323 4.5762 10.5595 4.5762C10.0868 4.5762 9.70357 4.95942 9.70357 5.43215C9.70357 5.90488 10.0868 6.2881 10.5595 6.2881Z" fill="#393939"/>
</svg>
