<svg width="16" height="16" viewBox="0 0 16 16" fill="none" xmlns="http://www.w3.org/2000/svg">
<path d="M8.93606 7.60361C8.86092 7.677 8.77325 7.71369 8.67723 7.71369C8.47267 7.71369 8.29733 7.53022 8.29733 7.33859C8.29733 7.25297 8.33908 7.16327 8.41422 7.08989L12.1422 3.44082L12.8979 2.78847L10.9107 2.86186H9.67081C9.4746 2.86186 9.30344 2.69877 9.30344 2.50715C9.30344 2.31552 9.45373 2.14835 9.68751 2.14835L13.6076 2.1402C13.8497 2.1402 14 2.29513 14 2.52753V6.35599C14 6.57208 13.8288 6.73109 13.6326 6.73109C13.4281 6.73109 13.2611 6.55985 13.2611 6.3723V5.07169L13.3404 3.21657L12.6683 3.95454L8.93606 7.60361Z" fill="#393939"/>
<path d="M3.79685 3.57092H8.24008V4.47071H3.8083C3.23605 4.47071 2.92132 4.76691 2.92132 5.34814V12.0826C2.92132 12.6638 3.23605 12.96 3.8083 12.96H10.7268C11.2933 12.96 11.6137 12.6638 11.6137 12.0826V7.71369H12.5351V12.1273C12.5351 13.2786 11.9399 13.8598 10.7382 13.8598H3.79685C2.60086 13.8598 2 13.2842 2 12.1273V5.30343C2 4.14656 2.60086 3.57092 3.79685 3.57092Z" fill="#393939"/>
</svg>
