<svg width="16" height="16" viewBox="0 0 16 16" fill="none" xmlns="http://www.w3.org/2000/svg">
<path fill-rule="evenodd" clip-rule="evenodd" d="M8 2C11.3137 2 14 4.68629 14 8C14 11.3137 11.3137 14 8 14C7.2563 14 6.5442 13.8647 5.88698 13.6174L6.73594 12.32C7.13696 12.4372 7.56114 12.5 8 12.5C10.4853 12.5 12.5 10.4853 12.5 8C12.5 5.51472 10.4853 3.5 8 3.5C5.51472 3.5 3.5 5.51472 3.5 8C3.5 8.77708 3.69697 9.50815 4.0437 10.146L2.92352 11.1998C2.33854 10.2737 2 9.17637 2 8C2 4.68629 4.68629 2 8 2Z" fill="#393939"/>
</svg>
