<svg width="16" height="16" viewBox="0 0 16 16" fill="none" xmlns="http://www.w3.org/2000/svg">
<path fill-rule="evenodd" clip-rule="evenodd" d="M3.34623 11.4923C3.44126 11.4923 3.55213 11.4606 3.65772 11.3867V5.73779C3.65772 5.54773 3.69467 5.47382 3.85833 5.38407L8.75231 2.56489C8.77342 2.21645 8.54641 2 8.25077 2C8.1135 2 7.96568 2.03696 7.8073 2.13198L3.37791 4.67664C2.86053 4.97756 2.80246 5.07259 2.80246 5.67444V10.7268C2.80246 11.1808 3.01891 11.4923 3.34623 11.4923ZM5.4527 12.7118C5.55301 12.7118 5.6586 12.6802 5.76418 12.6062V6.95732C5.76418 6.75143 5.79586 6.69864 5.97008 6.60361L10.8641 3.77915C10.8799 3.43599 10.6634 3.21425 10.352 3.21425C10.22 3.21425 10.0721 3.25649 9.91377 3.34096L5.48438 5.89089C4.967 6.18654 4.90365 6.2974 4.90365 6.88869V11.9463C4.90365 12.4004 5.13594 12.7118 5.4527 12.7118ZM7.71755 14C7.90233 14 8.12406 13.9261 8.38803 13.7783L12.5271 11.4026C13.0128 11.1227 13.1975 10.8324 13.1975 10.2411L13.187 5.45798C13.187 4.82446 12.9652 4.50242 12.5693 4.50242C12.3898 4.50242 12.1733 4.57105 11.9252 4.71359L7.77562 7.10515C7.27936 7.39551 7.10514 7.69116 7.10514 8.26661V13.0497C7.10514 13.6621 7.31632 14 7.71755 14Z" fill="#393939"/>
</svg>
