<svg width="16" height="16" viewBox="0 0 16 16" fill="none" xmlns="http://www.w3.org/2000/svg">
<path fill-rule="evenodd" clip-rule="evenodd" d="M5.99545 2.15038C5.79494 2.35089 5.79494 2.67598 5.99545 2.87649L6.97876 3.8598C6.84029 3.92979 6.71041 4.02263 6.59472 4.13832L4.24314 6.48989C3.65736 7.07568 3.65736 8.02543 4.24315 8.61121L6.59472 10.9628C7.18051 11.5486 8.13026 11.5486 8.71604 10.9628L11.0676 8.61121C11.6534 8.02543 11.6534 7.07568 11.0676 6.48989L8.71604 4.13832C8.68781 4.11008 8.65873 4.08321 8.62888 4.0577L6.72157 2.15038C6.52106 1.94987 6.19596 1.94987 5.99545 2.15038ZM6.77339 5.42999C7.26155 4.94184 8.053 4.94184 8.54116 5.42999L10.6617 7.55055H4.65283L6.77339 5.42999Z" fill="#393939"/>
<path d="M11.7396 12.0234C12.3356 12.0234 12.8176 11.5415 12.8176 10.9455C12.8176 10.3034 12.1369 9.41795 11.8567 9.08072C11.7951 9.0068 11.6827 9.0068 11.6211 9.08072C11.3423 9.41795 10.6617 10.3034 10.6617 10.9455C10.6617 11.5415 11.1437 12.0234 11.7396 12.0234Z" fill="#393939"/>
<path d="M12.8176 13.4856C12.8176 13.2015 12.5872 12.9711 12.3031 12.9711H3.69689C3.41278 12.9711 3.18246 13.2015 3.18246 13.4856C3.18246 13.7697 3.41278 14 3.69689 14H12.3031C12.5872 14 12.8176 13.7697 12.8176 13.4856Z" fill="#393939"/>
</svg>
