<svg width="16" height="16" viewBox="0 0 16 16" fill="none" xmlns="http://www.w3.org/2000/svg">
<path fill-rule="evenodd" clip-rule="evenodd" d="M10.972 14C12.1306 14 12.7071 13.4123 12.7071 12.2481V7.16604H8.65485C7.93843 7.16604 7.59701 6.82463 7.59701 6.10821V2H5.02798C3.875 2 3.29291 2.59328 3.29291 3.75746V12.2481C3.29291 13.4179 3.8694 14 5.02798 14H10.972ZM12.6399 6.39925C12.6063 6.16978 12.444 5.9459 12.1754 5.67164L9.09142 2.53172C8.82836 2.26306 8.59888 2.10075 8.3638 2.06157V6.09701C8.3638 6.29851 8.46455 6.39925 8.67164 6.39925H12.6399ZM10.1604 9.58955H5.84515C5.61567 9.58955 5.44776 9.42724 5.44776 9.20896C5.44776 8.99067 5.61567 8.82836 5.84515 8.82836H10.1604C10.3843 8.82836 10.5578 8.99067 10.5578 9.20896C10.5578 9.42724 10.3843 9.58955 10.1604 9.58955ZM10.1604 11.722H5.84515C5.61567 11.722 5.44776 11.5597 5.44776 11.3414C5.44776 11.1231 5.61567 10.9608 5.84515 10.9608H10.1604C10.3843 10.9608 10.5578 11.1231 10.5578 11.3414C10.5578 11.5597 10.3843 11.722 10.1604 11.722Z" fill="#393939"/>
</svg>
