<svg width="16" height="16" viewBox="0 0 16 16" fill="none" xmlns="http://www.w3.org/2000/svg">
<path fill-rule="evenodd" clip-rule="evenodd" d="M10.972 14C12.1306 14 12.7071 13.4123 12.7071 12.2481V7.16604C12.7071 6.44403 12.6231 6.1306 12.1754 5.67164L9.09142 2.53172C8.66604 2.09515 8.31343 2 7.68656 2H5.02798C3.875 2 3.29291 2.59328 3.29291 3.75746V12.2481C3.29291 13.4179 3.8694 14 5.02798 14H10.972ZM10.9272 13.0989H5.06716C4.49067 13.0989 4.19403 12.791 4.19403 12.2313V3.77425C4.19403 3.22015 4.49067 2.90112 5.07276 2.90112H7.56343V6.15299C7.56343 6.85821 7.91604 7.20522 8.61567 7.20522H11.806V12.2313C11.806 12.791 11.5093 13.0989 10.9272 13.0989ZM11.6325 6.36007H8.71642C8.49253 6.36007 8.40858 6.27052 8.40858 6.04664V3.07463L11.6325 6.36007ZM10.0597 9.43284C10.2556 9.43284 10.4011 9.28172 10.4011 9.08582C10.4011 8.89552 10.2556 8.7444 10.0597 8.7444H5.81156C5.61007 8.7444 5.45895 8.89552 5.45895 9.08582C5.45895 9.28172 5.61007 9.43284 5.81156 9.43284H10.0597ZM10.0597 11.3862C10.2556 11.3862 10.4011 11.2407 10.4011 11.0504C10.4011 10.8545 10.2556 10.6978 10.0597 10.6978H5.81156C5.61007 10.6978 5.45895 10.8545 5.45895 11.0504C5.45895 11.2407 5.61007 11.3862 5.81156 11.3862H10.0597Z" fill="#393939"/>
</svg>
