<svg width="16" height="16" viewBox="0 0 16 16" fill="none" xmlns="http://www.w3.org/2000/svg">
<path fill-rule="evenodd" clip-rule="evenodd" d="M7.43054 14C9.4129 14 11.1894 13 12.2835 11.4882C12.4835 11.2294 12.4188 10.9059 12.1835 10.7588C11.9364 10.6118 11.6541 10.6882 11.4776 10.9235C10.5776 12.1765 9.10701 12.9941 7.43054 13C4.65407 13.0059 2.43054 10.7706 2.43054 8C2.43054 5.22353 4.65407 3.00588 7.43054 3.00588C9.81878 3.00588 11.7952 4.64118 12.307 6.86471H11.4541C11.0364 6.86471 10.9305 7.15294 11.1541 7.47059L12.4717 9.34706C12.66 9.61765 12.9423 9.62353 13.1364 9.34706L14.4482 7.47647C14.6835 7.15294 14.5717 6.86471 14.1541 6.86471H13.3247C12.7835 4.11176 10.3247 2 7.43054 2C4.15407 2 1.43054 4.71765 1.43054 8C1.43054 11.2765 4.15407 14 7.43054 14ZM8.95995 10.8353C9.36584 10.8353 9.55995 10.6353 9.55995 10.1941V7.84118C9.55995 7.45294 9.4129 7.25294 9.10113 7.20588V6.50588C9.10113 5.35882 8.40701 4.61765 7.43054 4.61765C6.45407 4.61765 5.75995 5.35882 5.75995 6.50588V7.21176C5.44819 7.25882 5.30113 7.45882 5.30113 7.84118V10.1941C5.30113 10.6353 5.49525 10.8353 5.90113 10.8353H8.95995ZM8.48937 7.2H6.37172V6.44118C6.37172 5.7 6.79525 5.21176 7.43054 5.21176C8.06584 5.21176 8.48937 5.7 8.48937 6.44118V7.2Z" fill="#393939"/>
</svg>
