<svg width="16" height="16" viewBox="0 0 16 16" fill="none" xmlns="http://www.w3.org/2000/svg">
<path fill-rule="evenodd" clip-rule="evenodd" d="M8.00001 14C8.34918 14 8.64135 13.7221 8.64135 13.38V8.64133H13.2447C13.5867 8.64133 13.8789 8.34917 13.8789 8C13.8789 7.65083 13.5867 7.3658 13.2447 7.3658H8.64135V2.61995C8.64135 2.27791 8.34918 2 8.00001 2C7.65085 2 7.36581 2.27791 7.36581 2.61995V7.3658H2.75536C2.41332 7.3658 2.12115 7.65083 2.12115 8C2.12115 8.34917 2.41332 8.64133 2.75536 8.64133H7.36581V13.38C7.36581 13.7221 7.65085 14 8.00001 14Z" fill="#393939"/>
</svg>
