<svg width="16" height="16" viewBox="0 0 16 16" fill="none" xmlns="http://www.w3.org/2000/svg">
<path fill-rule="evenodd" clip-rule="evenodd" d="M8 14C11.3137 14 14 11.3137 14 8C14 4.68629 11.3137 2 8 2C4.68629 2 2 4.68629 2 8C2 11.3137 4.68629 14 8 14ZM8.5 11.0263C8.5 11.2578 8.1964 11.375 7.99999 11.375C7.80359 11.375 7.5 11.2187 7.5 11.0263V8.5H5.04987C4.85748 8.5 4.69314 8.19641 4.69314 8C4.69314 7.80359 4.85748 7.5 5.04987 7.5H7.5V4.97372C7.5 4.78132 7.80359 4.625 7.99999 4.625C8.1964 4.625 8.5 4.78132 8.5 4.97372V7.5H10.9501C11.1425 7.5 11.3069 7.80359 11.3069 8C11.3069 8.19641 11.1425 8.5 10.9501 8.5H8.5V11.0263Z" fill="#393939"/>
</svg>
