<svg width="16" height="16" viewBox="0 0 16 16" fill="none" xmlns="http://www.w3.org/2000/svg">
<path fill-rule="evenodd" clip-rule="evenodd" d="M11.8852 3.50067V3.40988C11.8852 2.61949 11.271 2.26702 10.4059 2.26702H5.59412C4.76634 2.26702 4.11481 2.61949 4.11481 3.40988V3.50067H11.8852ZM11.02 13.733C11.6929 13.733 12.04 13.4286 12.04 12.7183V11.6929H12.4085C13.4499 11.6929 14 11.1696 14 10.1282V5.78104C14 4.73965 13.4499 4.21095 12.4085 4.21095H3.58611C2.60346 4.21095 1.99999 4.73965 1.99999 5.78104V10.1282C1.99999 11.1696 2.55006 11.6929 3.58611 11.6929H3.95994V12.7183C3.95994 13.4286 4.30173 13.733 4.97997 13.733H11.02ZM10.7583 12.9319H5.24697C4.95859 12.9319 4.81974 12.7931 4.81974 12.5047V8.3231C4.81974 8.04005 4.95859 7.9012 5.24697 7.9012H10.7583C11.0414 7.9012 11.1802 8.04005 11.1802 8.3231V12.5047C11.1802 12.7931 11.0414 12.9319 10.7583 12.9319ZM9.83442 9.82377C10.0213 9.82377 10.1602 9.67957 10.1602 9.49266C10.1602 9.31108 10.0213 9.16689 9.83442 9.16689H6.17621C5.98396 9.16689 5.83976 9.31108 5.83976 9.49266C5.83976 9.67957 5.98396 9.82377 6.17621 9.82377H9.83442ZM9.83442 11.6876C10.0213 11.6876 10.1602 11.5487 10.1602 11.3672C10.1602 11.1802 10.0213 11.0307 9.83442 11.0307H6.17621C5.98396 11.0307 5.83976 11.1802 5.83976 11.3672C5.83976 11.5487 5.98396 11.6876 6.17621 11.6876H9.83442Z" fill="#393939"/>
</svg>
