<svg width="16" height="16" viewBox="0 0 16 16" fill="none" xmlns="http://www.w3.org/2000/svg">
<path fill-rule="evenodd" clip-rule="evenodd" d="M10.8446 13.7344C11.5139 13.7344 11.8592 13.4263 11.8592 12.7198V12.1301H12.417C13.4528 12.1301 14 11.6096 14 10.5737V5.60159C14 4.57105 13.4528 4.04515 12.417 4.04515H11.8964V3.76361C11.8964 2.72776 11.3758 2.2656 10.3931 2.2656H5.60689C4.67196 2.2656 4.10357 2.72776 4.10357 3.76361V4.04515H3.57767C2.60025 4.04515 1.99998 4.57105 1.99998 5.60159V10.5737C1.99998 11.6096 2.54713 12.1301 3.57767 12.1301H4.14075V12.7198C4.14075 13.4263 4.48073 13.7344 5.15536 13.7344H10.8446ZM11.073 4.04515H4.92694V3.70518C4.92694 3.25896 5.15005 3.04117 5.59627 3.04117H10.4037C10.8446 3.04117 11.073 3.25896 11.073 3.70518V4.04515ZM4.14076 11.3333H3.56706C3.09959 11.3333 2.85524 11.0837 2.85524 10.6162V5.5591C2.85524 5.09163 3.09959 4.84197 3.56706 4.84197H12.4276C12.9004 4.84197 13.1447 5.09163 13.1447 5.5591V10.6162C13.1447 11.0837 12.9004 11.3333 12.4276 11.3333H11.8592V8.14608C11.8592 7.43958 11.5139 7.13148 10.8446 7.13148H5.15537C4.51261 7.13148 4.14076 7.43958 4.14076 8.14608V11.3333ZM10.5843 12.9376H5.42098C5.13413 12.9376 4.99601 12.7995 4.99601 12.5073V8.35325C4.99601 8.0664 5.13413 7.9336 5.42098 7.9336H10.5843C10.8659 7.9336 11.004 8.0664 11.004 8.35325V12.5073C11.004 12.7995 10.8659 12.9376 10.5843 12.9376ZM9.85125 9.84595C10.0372 9.84595 10.1806 9.70252 10.1806 9.51129C10.1806 9.33068 10.0372 9.19256 9.85125 9.19256H6.15936C5.96281 9.19256 5.82469 9.33068 5.82469 9.51129C5.82469 9.70252 5.96281 9.84595 6.15936 9.84595H9.85125ZM9.85125 11.6999C10.0372 11.6999 10.1806 11.5564 10.1806 11.3758C10.1806 11.1899 10.0372 11.0465 9.85125 11.0465H6.15936C5.96281 11.0465 5.82469 11.1899 5.82469 11.3758C5.82469 11.5564 5.96281 11.6999 6.15936 11.6999H9.85125Z" fill="#393939"/>
</svg>
