<svg width="16" height="16" viewBox="0 0 16 16" fill="none" xmlns="http://www.w3.org/2000/svg">
<path fill-rule="evenodd" clip-rule="evenodd" d="M8.00221 11.7624C11.5478 11.7624 14 8.89413 14 8C14 7.10144 11.5433 4.23755 8.00221 4.23755C4.50092 4.23755 2 7.10144 2 8C2 8.89413 4.50092 11.7624 8.00221 11.7624ZM8.00222 10.4655C6.62118 10.4655 5.52786 9.34563 5.52343 8C5.51901 6.61896 6.62118 5.53449 8.00222 5.53449C9.36998 5.53449 10.4766 6.61896 10.4766 8C10.4766 9.34563 9.36998 10.4655 8.00222 10.4655ZM8.00221 8.88971C8.49355 8.88971 8.90077 8.48691 8.90077 8C8.90077 7.50867 8.49355 7.10587 8.00221 7.10587C7.50646 7.10587 7.09923 7.50867 7.09923 8C7.09923 8.48691 7.50646 8.88971 8.00221 8.88971Z" fill="#393939"/>
</svg>
