<svg width="16" height="16" viewBox="0 0 16 16" fill="none" xmlns="http://www.w3.org/2000/svg">
<path fill-rule="evenodd" clip-rule="evenodd" d="M11.8924 11.9045C12.0329 11.7596 12.0242 11.562 11.8924 11.4259L4.55105 4.0889C4.41933 3.95718 4.19979 3.95718 4.06807 4.0889C3.94074 4.21623 3.94074 4.44016 4.06807 4.5675L11.4138 11.9045C11.5456 12.0406 11.7563 12.0494 11.8924 11.9045ZM11.787 10.7014C13.1745 9.80131 14 8.62019 14 8.10207C14 7.20196 11.5499 4.33918 8.00218 4.33918C7.23818 4.33918 6.54444 4.4709 5.899 4.68605L6.47858 5.26124C6.96156 5.11634 7.45772 5.03292 8.00218 5.03292C10.8913 5.03292 13.2316 7.57957 13.2316 8.10207C13.2316 8.45773 12.4632 9.41492 11.247 10.1613L11.787 10.7014ZM8.00219 11.865C8.81888 11.865 9.56531 11.7201 10.2459 11.4874L9.67069 10.9122C9.14819 11.0746 8.59495 11.1712 8.00219 11.1712C5.10867 11.1712 2.76839 8.72117 2.76839 8.10207C2.76839 7.79472 3.58068 6.77167 4.87596 5.9945L4.3315 5.45004C2.86937 6.35454 2 7.57079 2 8.10207C2 8.99779 4.49835 11.865 8.00219 11.865ZM10.2547 9.06365C10.3908 8.76947 10.4654 8.44016 10.4654 8.10207C10.4654 6.72776 9.36774 5.64324 8.00221 5.64324C7.65534 5.64324 7.33042 5.71788 7.03624 5.84521L10.2547 9.06365ZM8.00218 10.5609C8.38857 10.5609 8.753 10.4643 9.07792 10.3062L5.78483 7.01316C5.62238 7.33808 5.53017 7.7069 5.53017 8.10207C5.53456 9.44126 6.62786 10.5609 8.00218 10.5609Z" fill="#393939"/>
</svg>
