<svg width="16" height="16" viewBox="0 0 16 16" fill="none" xmlns="http://www.w3.org/2000/svg">
<path fill-rule="evenodd" clip-rule="evenodd" d="M11.924 11.9362C12.0657 11.7901 12.0568 11.5909 11.924 11.4537L4.52305 4.05716C4.39026 3.92437 4.16894 3.92437 4.03615 4.05716C3.90778 4.18553 3.90778 4.41127 4.03615 4.53964L11.4415 11.9362C11.5743 12.0734 11.7868 12.0822 11.924 11.9362ZM11.8621 10.6569C13.1546 9.80264 14 8.62964 14 8.1029C14 7.20434 11.5433 4.34045 8.00222 4.34045C7.24973 4.34045 6.54151 4.46882 5.89968 4.68129L7.05054 5.83215C7.34269 5.70821 7.66139 5.63739 8.00222 5.63739C9.36998 5.63739 10.4766 6.72186 10.4766 8.1029C10.4766 8.43931 10.4013 8.76244 10.2685 9.04573L11.8621 10.6569ZM8.00221 11.8654C8.8211 11.8654 9.58244 11.7149 10.2508 11.467L9.09111 10.3073C8.76356 10.4755 8.39174 10.5684 8.00221 10.5684C6.62117 10.5684 5.52785 9.44853 5.52342 8.1029C5.52342 7.70452 5.61638 7.32828 5.78015 6.9963L4.26632 5.47361C2.872 6.34562 2 7.57173 2 8.1029C2 8.99704 4.50092 11.8654 8.00221 11.8654ZM9.40095 8.18258C9.40538 8.12946 9.4098 8.06749 9.4098 8.00995C9.4098 7.23532 8.78568 6.60677 8.00221 6.60677C7.94466 6.60677 7.88712 6.6112 7.834 6.61563L9.40095 8.18258ZM8.00664 9.40869C8.06861 9.40869 8.12616 9.40427 8.18813 9.39984L6.59905 7.81076C6.59462 7.87273 6.59019 7.93912 6.59019 8.00109C6.59019 8.78014 7.23202 9.40869 8.00664 9.40869Z" fill="#393939"/>
</svg>
