<svg width="16" height="16" viewBox="0 0 16 16" fill="none" xmlns="http://www.w3.org/2000/svg">
<path fill-rule="evenodd" clip-rule="evenodd" d="M8.0022 11.7629C11.5499 11.7629 14 8.89572 14 8C14 7.09989 11.5456 4.2371 8.0022 4.2371C4.50274 4.2371 2 7.09989 2 8C2 8.89572 4.49835 11.7629 8.0022 11.7629ZM8.00212 11.0692C5.1086 11.0692 2.76831 8.6191 2.76831 8C2.76831 7.4775 5.1086 4.93084 8.00212 4.93084C10.8825 4.93084 13.2315 7.4775 13.2315 8C13.2315 8.6191 10.8825 11.0692 8.00212 11.0692ZM8.0023 10.4589C9.36783 10.4589 10.4655 9.3392 10.4655 8.00002C10.4655 6.6257 9.36783 5.54118 8.0023 5.54118C6.62798 5.54118 5.5259 6.6257 5.53029 8.00002C5.53907 9.3392 6.62798 10.4589 8.0023 10.4589ZM8.00222 8.81669C7.54558 8.81669 7.17676 8.44786 7.17676 8C7.17676 7.54775 7.54558 7.18332 8.00222 7.18332C8.45447 7.18332 8.8233 7.54775 8.8233 8C8.8233 8.44786 8.45447 8.81669 8.00222 8.81669Z" fill="#393939"/>
</svg>
