<svg width="16" height="16" viewBox="0 0 16 16" fill="none" xmlns="http://www.w3.org/2000/svg">
<path fill-rule="evenodd" clip-rule="evenodd" d="M13.855 4.64501L11.355 2.14502C11.2606 2.05142 11.1329 1.99925 11 2.00002H3C2.44771 2.00002 2 2.44773 2 3.00002V13C2 13.5523 2.44771 14 3 14H13C13.5523 14 14 13.5523 14 13V5.00001C14.0008 4.86711 13.9486 4.73937 13.855 4.64501ZM5.99999 3.00002H9.99999V5.00001H5.99999V3.00002ZM9.99999 13H5.99999V9.00001H9.99999V13ZM11 13V9.00001C11 8.44772 10.5523 8.00001 9.99999 8.00001H5.99999C5.44771 8.00001 5 8.44772 5 9.00001V13H3V3.00002H5V5.00001C5 5.5523 5.44771 6.00001 5.99999 6.00001H9.99999C10.5523 6.00001 11 5.5523 11 5.00001V3.20501L13 5.20501V13H11Z" fill="#393939"/>
</svg>
