<svg width="16" height="16" viewBox="0 0 16 16" fill="none" xmlns="http://www.w3.org/2000/svg">
<path d="M1.5 3.5H3.83333V4.5H2.5V5.83333H1.5V3.5Z" fill="#393939"/>
<path d="M4.81112 11.037V5.33333H4.11112V11.037H4.81112Z" fill="#393939"/>
<path d="M9.05001 11.037V5.33333H8.35001V11.037H9.05001Z" fill="#393939"/>
<path d="M6.25001 11.037V10.2337H5.55001V11.037H6.25001Z" fill="#393939"/>
<path d="M7.65001 11.037V10.2337H6.95001V11.037H7.65001Z" fill="#393939"/>
<path d="M10.45 11.037V10.2337H9.75001V11.037H10.45Z" fill="#393939"/>
<path d="M11.8889 11.037V5.33333H11.1889V11.037H11.8889Z" fill="#393939"/>
<path d="M6.25001 9.51069V5.33333H5.55001V9.51069H6.25001Z" fill="#393939"/>
<path d="M7.65001 9.51069V5.33333H6.95001V9.51069H7.65001Z" fill="#393939"/>
<path d="M10.45 9.51069V5.33333H9.75001V9.51069H10.45Z" fill="#393939"/>
<path d="M14.5 3.5V5.83333H13.5V4.5H12.1667V3.5H14.5Z" fill="#393939"/>
<path d="M13.5 11.8704H12.1667V12.8704H14.5V10.537H13.5V11.8704Z" fill="#393939"/>
<path d="M2.5 11.8704V10.537H1.5V12.8704H3.83333V11.8704H2.5Z" fill="#393939"/>
</svg>
