<svg width="16" height="16" viewBox="0 0 16 16" fill="none" xmlns="http://www.w3.org/2000/svg">
<path fill-rule="evenodd" clip-rule="evenodd" d="M13.2425 14C13.6528 14 13.9432 13.6844 13.9432 13.2804C13.9432 13.091 13.8801 12.9143 13.7412 12.7754L10.768 9.7959C11.393 8.97528 11.7654 7.95897 11.7654 6.85429C11.7654 4.18411 9.58128 2 6.91111 2C4.24094 2 2.05682 4.18411 2.05682 6.85429C2.05682 9.52446 4.24094 11.7086 6.91111 11.7086C7.96529 11.7086 8.93741 11.3677 9.73278 10.7996L12.7249 13.7917C12.8638 13.9306 13.0468 14 13.2425 14ZM6.91111 10.6607C4.828 10.6607 3.10469 8.9374 3.10469 6.85429C3.10469 4.77117 4.828 3.04787 6.91111 3.04787C8.99423 3.04787 10.7175 4.77117 10.7175 6.85429C10.7175 8.9374 8.99423 10.6607 6.91111 10.6607Z" fill="#393939"/>
</svg>
