<svg width="16" height="16" viewBox="0 0 16 16" fill="none" xmlns="http://www.w3.org/2000/svg">
<path fill-rule="evenodd" clip-rule="evenodd" d="M10.9277 14C11.7212 14 12.1087 13.6064 12.1087 12.7453V8.23065C12.1087 7.45566 11.7888 7.05587 11.1307 6.98821V5.43824C11.1307 3.11943 9.61147 2 7.99999 2C6.38851 2 4.86929 3.11943 4.86929 5.43824V7.01896C4.26652 7.11123 3.89133 7.50487 3.89133 8.23065V12.7453C3.89133 13.6064 4.27882 14 5.07226 14H10.9277ZM5.85955 6.98821V5.30907C5.85955 3.76525 6.84981 2.94721 7.99999 2.94721C9.15017 2.94721 10.1404 3.76525 10.1404 5.30907V6.98206L5.85955 6.98821Z" fill="#393939"/>
</svg>
