<svg width="16" height="16" viewBox="0 0 16 16" fill="none" xmlns="http://www.w3.org/2000/svg">
<path fill-rule="evenodd" clip-rule="evenodd" d="M10.8027 14C11.7206 14 12.1734 13.541 12.1734 12.5436V8.32738C12.1734 7.45844 11.8246 6.99949 11.1147 6.90158V5.4207C11.1147 3.11372 9.60327 2 8.00001 2C6.39675 2 4.88527 3.11372 4.88527 5.4207V6.90158C4.17543 6.99949 3.82663 7.45844 3.82663 8.32738V12.5436C3.82663 13.541 4.27946 14 5.19736 14H10.8027ZM10.1295 6.88322H5.87048V5.2922C5.87048 3.75625 6.8557 2.94238 8.00001 2.94238C9.14432 2.94238 10.1295 3.75625 10.1295 5.2922V6.88322ZM10.7721 13.0821H5.23407C4.95259 13.0821 4.81184 12.9536 4.81184 12.6109V8.26619C4.81184 7.92351 4.95259 7.80112 5.23407 7.80112H10.7721C11.0536 7.80112 11.1882 7.92351 11.1882 8.26619V12.6109C11.1882 12.9536 11.0536 13.0821 10.7721 13.0821Z" fill="#393939"/>
</svg>
