<svg width="16" height="16" viewBox="0 0 16 16" fill="none" xmlns="http://www.w3.org/2000/svg">
<path fill-rule="evenodd" clip-rule="evenodd" d="M12.4593 8.588C12.4833 8.396 12.5013 8.204 12.5013 8C12.5013 7.796 12.4833 7.604 12.4593 7.412L13.7253 6.422C13.8393 6.332 13.8693 6.17 13.7973 6.038L12.5973 3.962C12.5253 3.83 12.3633 3.782 12.2313 3.83L10.7373 4.43C10.4253 4.19 10.0893 3.992 9.72333 3.842L9.49533 2.252C9.47733 2.108 9.35133 2 9.20133 2H6.80133C6.65133 2 6.52533 2.108 6.50733 2.252L6.27933 3.842C5.91333 3.992 5.57733 4.196 5.26533 4.43L3.77133 3.83C3.63333 3.776 3.47733 3.83 3.40533 3.962L2.20533 6.038C2.12733 6.17 2.16333 6.332 2.27733 6.422L3.54333 7.412C3.51933 7.604 3.50133 7.802 3.50133 8C3.50133 8.198 3.51933 8.396 3.54333 8.588L2.27733 9.578C2.16333 9.668 2.13333 9.83 2.20533 9.962L3.40533 12.038C3.47733 12.17 3.63933 12.218 3.77133 12.17L5.26533 11.57C5.57733 11.81 5.91333 12.008 6.27933 12.158L6.50733 13.748C6.52533 13.892 6.65133 14 6.80133 14H9.20133C9.35133 14 9.47733 13.892 9.49533 13.748L9.72333 12.158C10.0893 12.008 10.4253 11.804 10.7373 11.57L12.2313 12.17C12.3693 12.224 12.5253 12.17 12.5973 12.038L13.7973 9.962C13.8693 9.83 13.8393 9.668 13.7253 9.578L12.4593 8.588ZM8.00133 10.1C6.84333 10.1 5.90133 9.158 5.90133 8C5.90133 6.842 6.84333 5.9 8.00133 5.9C9.15933 5.9 10.1013 6.842 10.1013 8C10.1013 9.158 9.15933 10.1 8.00133 10.1Z" fill="#393939"/>
</svg>
