<svg width="16" height="16" viewBox="0 0 16 16" fill="none" xmlns="http://www.w3.org/2000/svg">
<path fill-rule="evenodd" clip-rule="evenodd" d="M11.4299 9.71917C10.7809 9.72243 10.1684 10.02 9.76469 10.5282L6.6354 8.5719C6.74945 8.20382 6.74945 7.80985 6.6354 7.44176L9.76469 5.48542C10.4205 6.29748 11.5664 6.51807 12.4768 6.00752C13.3872 5.49698 13.7966 4.40419 13.4458 3.42114C13.0949 2.43808 12.0861 1.85146 11.0582 2.03273C10.0302 2.21401 9.28295 3.11031 9.28951 4.15408C9.29154 4.34551 9.32035 4.53572 9.37513 4.71915L6.24584 6.6755C5.6796 5.96266 4.72441 5.686 3.86485 5.98586C3.00529 6.28572 2.42944 7.09647 2.42944 8.00683C2.42944 8.9172 3.00529 9.72795 3.86485 10.0278C4.72441 10.3277 5.6796 10.051 6.24584 9.33817L9.37513 11.2945C9.32035 11.478 9.29154 11.6682 9.28951 11.8596C9.28951 13.0417 10.2478 14 11.4299 14C12.6121 14 13.5703 13.0417 13.5703 11.8596C13.5703 10.6775 12.6121 9.71917 11.4299 9.71917Z" fill="#393939"/>
</svg>
