<svg width="16" height="16" viewBox="0 0 16 16" fill="none" xmlns="http://www.w3.org/2000/svg">
<path fill-rule="evenodd" clip-rule="evenodd" d="M10.0134 13.4142L13.4132 10.0198C14.2027 9.23565 14.1866 8.44075 13.4186 7.67271L8.16582 2.43068C7.763 2.02786 7.53743 2.00101 6.97348 2.00101H4.92716C4.35784 2.00101 4.18597 2.14065 3.77778 2.54347L2.54246 3.77879C2.13427 4.18698 2 4.36422 2 4.93354V6.97449C2 7.53844 2.02685 7.76939 2.42967 8.1722L7.66633 13.4196C8.43437 14.1876 9.2239 14.1984 10.0134 13.4142ZM5.82947 6.29775C5.41054 6.29775 5.09365 5.97012 5.09365 5.56193C5.09365 5.14837 5.41054 4.82612 5.82947 4.82612C6.25377 4.82612 6.56529 5.14837 6.56529 5.56193C6.56529 5.97012 6.25377 6.29775 5.82947 6.29775Z" fill="#393939"/>
</svg>
