<svg width="16" height="16" viewBox="0 0 16 16" fill="none" xmlns="http://www.w3.org/2000/svg">
<path fill-rule="evenodd" clip-rule="evenodd" d="M10.0138 13.4151L13.4141 10.0201C14.2038 9.23586 14.1877 8.44082 13.4195 7.67265L8.16585 2.42975C7.76297 2.02686 7.53735 2 6.97331 2H4.92664C4.35723 2 4.18533 2.13967 3.77707 2.54255L2.54155 3.77808C2.13329 4.18634 1.99899 4.36361 1.99899 4.93302V6.97432C1.99899 7.53836 2.02585 7.76935 2.42874 8.17223L7.66627 13.4205C8.43445 14.1887 9.22411 14.1994 10.0138 13.4151ZM8.24643 12.7705L3.04113 7.55984C2.92832 7.45241 2.86386 7.3396 2.86386 7.16233V4.89542C2.86386 4.72889 2.92295 4.61608 3.04113 4.50327L4.50227 3.04214C4.61507 2.92933 4.72788 2.86486 4.89441 2.86486H7.15595C7.33859 2.86486 7.4514 2.9347 7.55884 3.04214L12.7749 8.24744C13.1563 8.62884 13.1617 9.04247 12.7695 9.43461L9.43361 12.7651C9.04146 13.1627 8.6332 13.1573 8.24643 12.7705ZM5.55514 6.29746C5.97952 6.29746 6.29109 5.96978 6.29109 5.56152C6.29109 5.14789 5.97952 4.82558 5.55514 4.82558C5.13614 4.82558 4.8192 5.14789 4.8192 5.56152C4.8192 5.96978 5.13614 6.29746 5.55514 6.29746Z" fill="#393939"/>
</svg>
