<svg width="16" height="16" viewBox="0 0 16 16" fill="none" xmlns="http://www.w3.org/2000/svg">
<path fill-rule="evenodd" clip-rule="evenodd" d="M10.607 14C11.2862 14 11.6969 13.6221 11.7243 12.9429L12.0748 4.94112H12.8964C13.1209 4.94112 13.3017 4.74943 13.3017 4.52487C13.3017 4.30032 13.1209 4.1141 12.8964 4.1141H10.3989V3.29256C10.3989 2.50388 9.86763 2 9.02418 2H6.9758C6.13235 2 5.60656 2.50388 5.60656 3.29256V4.1141H3.1036C2.88452 4.1141 2.6983 4.3058 2.6983 4.52487C2.6983 4.74943 2.88452 4.94112 3.1036 4.94112H3.93609L4.28662 12.9429C4.314 13.6221 4.7193 14 5.39844 14H10.607ZM9.52806 4.1141H6.48288V3.34733C6.48288 3.03514 6.70743 2.81607 7.04153 2.81607H8.96394C9.29803 2.81607 9.52806 3.03514 9.52806 3.34733V4.1141ZM6.06115 12.4938C5.86398 12.4938 5.72158 12.3295 5.7161 12.0885L5.46964 6.11867C5.45869 5.88864 5.623 5.71885 5.83112 5.71885C6.02281 5.71885 6.18712 5.89959 6.19807 6.11867L6.42263 12.0885C6.42811 12.3131 6.27475 12.4938 6.06115 12.4938ZM7.99999 12.4938C7.80282 12.4938 7.63304 12.3131 7.63304 12.0885L7.62756 6.11867C7.62756 5.89959 7.80282 5.71885 7.99999 5.71885C8.20264 5.71885 8.3779 5.89959 8.3779 6.11867V12.0885C8.3779 12.3131 8.19716 12.4938 7.99999 12.4938ZM9.93883 12.4938C9.73071 12.4938 9.58283 12.3131 9.58831 12.0885L9.81286 6.11867C9.81834 5.89959 9.98265 5.71885 10.1798 5.71885C10.3825 5.71885 10.5468 5.88864 10.5413 6.11867L10.2948 12.0885C10.2894 12.3295 10.1415 12.4938 9.93883 12.4938Z" fill="#393939"/>
</svg>
