<svg width="16" height="16" viewBox="0 0 16 16" fill="none" xmlns="http://www.w3.org/2000/svg">
<path fill-rule="evenodd" clip-rule="evenodd" d="M10.4733 14C11.2438 14 11.7611 13.4989 11.7988 12.7283L12.1706 4.89358H12.8172C13.0382 4.89358 13.216 4.70498 13.216 4.48406C13.216 4.26313 13.0382 4.07993 12.8172 4.07993H10.3547V3.27167C10.3547 2.49573 9.83204 2 9.00223 2H6.98696C6.15714 2 5.63986 2.49573 5.63986 3.27167V4.07993H3.18274C2.9672 4.07993 2.784 4.26852 2.784 4.48406C2.784 4.70498 2.9672 4.89358 3.18274 4.89358H3.83474L4.20654 12.7337C4.24426 13.5043 4.75077 14 5.53209 14H10.4733ZM9.49796 4.07993H6.502V3.32555C6.502 3.01841 6.72293 2.80287 7.05162 2.80287H8.94296C9.27165 2.80287 9.49796 3.01841 9.49796 3.32555V4.07993ZM10.3871 13.1863H5.60753C5.30039 13.1863 5.06868 12.9546 5.05252 12.6367L4.67533 4.89358H11.3085L10.9528 12.6367C10.9367 12.96 10.7104 13.1863 10.3871 13.1863ZM9.60034 12.2434C9.77816 12.2434 9.90748 12.0979 9.91287 11.8931L10.0745 6.24068C10.0799 6.04131 9.9452 5.89044 9.76199 5.89044C9.59495 5.89044 9.45485 6.0467 9.44947 6.24068L9.28781 11.8877C9.28242 12.0871 9.41714 12.2434 9.60034 12.2434ZM6.40501 12.2434C6.58822 12.2434 6.72293 12.0871 6.71754 11.8877L6.5505 6.24068C6.54511 6.0467 6.40501 5.89044 6.23797 5.89044C6.05476 5.89044 5.92005 6.04131 5.92544 6.24068L6.08709 11.8931C6.09248 12.0979 6.22181 12.2434 6.40501 12.2434ZM7.99998 12.2434C8.1778 12.2434 8.32868 12.0871 8.32868 11.8931V6.24068C8.32868 6.0467 8.1778 5.89044 7.99998 5.89044C7.82755 5.89044 7.67668 6.0467 7.67668 6.24068V11.8931C7.67668 12.0871 7.82755 12.2434 7.99998 12.2434Z" fill="#393939"/>
</svg>
