<svg width="16" height="16" viewBox="0 0 16 16" fill="none" xmlns="http://www.w3.org/2000/svg">
<path d="M10.6519 4.63731C10.4127 4.65264 10.3585 4.88769 10.5523 5.08146L11.6554 6.18457L8.99067 9.03886L7.4463 6.16858C7.41446 6.0884 7.36557 6.00995 7.30068 5.94136C7.09511 5.72408 6.80022 5.68102 6.65145 5.83827L2.08915 10.6605C1.94038 10.8177 1.98111 11.1294 2.18668 11.3467C2.39225 11.564 2.69133 11.6115 2.8401 11.4542L6.81883 7.24883L8.34729 10.0895C8.38326 10.1758 8.44006 10.2638 8.51545 10.3426C8.72215 10.5588 8.99685 10.6307 9.11597 10.5031L12.4271 6.95633L13.3727 7.90188C13.5664 8.09565 13.8059 8.02846 13.8168 7.80221L13.9994 4.88964C14.0132 4.67778 13.7778 4.43086 13.5645 4.45473L10.6519 4.63731Z" fill="#393939"/>
</svg>
