<svg width="16" height="16" viewBox="0 0 16 16" fill="none" xmlns="http://www.w3.org/2000/svg">
<path fill-rule="evenodd" clip-rule="evenodd" d="M2 6.12671C2 4.746 3.11929 3.62671 4.5 3.62671H10.7551V5.93199H12.1806L14 7.1659V10.7364L13.2269 10.7364C13.2269 11.6404 12.494 12.3733 11.59 12.3733C10.686 12.3733 9.95311 11.6404 9.95311 10.7364H6.06623C6.06623 11.6404 5.33338 12.3733 4.42936 12.3733C3.52534 12.3733 2.79248 11.6404 2.79248 10.7364L2 10.7364V6.12671ZM9.95307 9.93584H5.85743C5.57704 9.43675 5.04258 9.09954 4.42936 9.09954C3.81614 9.09954 3.28167 9.43675 3.00128 9.93584H2.80195V5.92728C2.80195 5.09885 3.47352 4.42728 4.30195 4.42728H9.95307V9.93584ZM12.1579 6.46512H10.7551V7.98669H13.5012V7.38132L12.1579 6.46512ZM4.42937 11.5727C4.89125 11.5727 5.26567 11.1983 5.26567 10.7364C5.26567 10.2745 4.89125 9.90012 4.42937 9.90012C3.96749 9.90012 3.59307 10.2745 3.59307 10.7364C3.59307 11.1983 3.96749 11.5727 4.42937 11.5727ZM11.5899 11.5727C12.0518 11.5727 12.4262 11.1983 12.4262 10.7364C12.4262 10.2745 12.0518 9.90012 11.5899 9.90012C11.1281 9.90012 10.7536 10.2745 10.7536 10.7364C10.7536 11.1983 11.1281 11.5727 11.5899 11.5727Z" fill="#393939"/>
</svg>
