<svg width="16" height="16" viewBox="0 0 16 16" fill="none" xmlns="http://www.w3.org/2000/svg">
<path fill-rule="evenodd" clip-rule="evenodd" d="M8.6762 14C9.5941 14 10.0469 13.541 10.0469 12.5436V8.32738C10.0469 7.48292 9.7226 7.03009 9.0556 6.91382V5.2922C9.0556 3.75625 10.0408 2.94238 11.1851 2.94238C12.3294 2.94238 13.3146 3.75625 13.3146 5.2922V6.65069C13.3146 7.02397 13.5288 7.20755 13.8103 7.20755C14.0796 7.20755 14.2999 7.04233 14.2999 6.65069V5.4207C14.2999 3.11372 12.7884 2 11.1851 2C9.58186 2 8.07038 3.11372 8.07038 5.4207V6.88322H3.07701C2.15911 6.88322 1.70016 7.33605 1.70016 8.32738V12.5436C1.70016 13.541 2.15911 14 3.07701 14H8.6762ZM8.6456 13.0821H3.10761C2.82612 13.0821 2.68538 12.9536 2.68538 12.6109V8.26619C2.68538 7.92351 2.82612 7.80112 3.10761 7.80112H8.6456C8.93321 7.80112 9.06172 7.92351 9.06172 8.26619V12.6109C9.06172 12.9536 8.93321 13.0821 8.6456 13.0821Z" fill="#393939"/>
</svg>
