<svg width="16" height="16" viewBox="0 0 16 16" fill="none" xmlns="http://www.w3.org/2000/svg">
<path fill-rule="evenodd" clip-rule="evenodd" d="M8.7473 14C9.54074 14 9.93438 13.6064 9.93438 12.7453V8.23065C9.93438 7.48027 9.633 7.08047 9.01793 6.99436V5.30907C9.01793 3.76525 10.0082 2.94721 11.1584 2.94721C12.3085 2.94721 13.2988 3.76525 13.2988 5.30907V6.67453C13.2988 7.04972 13.5141 7.23424 13.797 7.23424C14.0676 7.23424 14.2891 7.06817 14.2891 6.67453V5.43824C14.2891 3.11943 12.7699 2 11.1584 2C9.54689 2 8.02767 3.11943 8.02767 5.43824V6.98206L3.021 6.99436C2.22757 6.99436 1.71091 7.38186 1.71091 8.23065V12.7453C1.71091 13.6064 2.10455 14 2.89799 14H8.7473Z" fill="#393939"/>
</svg>
