<svg width="16" height="16" viewBox="0 0 16 16" fill="none" xmlns="http://www.w3.org/2000/svg">
<path fill-rule="evenodd" clip-rule="evenodd" d="M12.5842 2C12.9382 2 13.1832 2.25865 13.1832 2.61259C13.1832 2.96653 12.9382 3.21838 12.5842 3.21838H8.13952C8.25523 3.25241 8.36413 3.31367 8.45943 3.41577L12.9586 7.92172C13.0947 8.06466 13.1628 8.21441 13.1628 8.37777C13.1628 8.71809 12.9109 8.97674 12.5706 8.97674C12.4072 8.97674 12.2439 8.91548 12.135 8.80658L10.6103 7.30233L8.56153 5.06296L8.60917 6.51957V13.3942C8.60917 13.7482 8.35733 14 8.00339 14C7.64264 14 7.39079 13.7482 7.39079 13.3942V6.51957L7.44525 5.05615L5.39647 7.30233L3.87179 8.80658C3.75608 8.91548 3.59953 8.97674 3.43617 8.97674C3.08904 8.97674 2.844 8.71809 2.844 8.37777C2.844 8.21441 2.91206 8.06466 3.04139 7.92172L7.54735 3.41577C7.63583 3.31367 7.74474 3.25241 7.86045 3.21838H3.40214C3.055 3.21838 2.81677 2.96653 2.81677 2.61259C2.81677 2.25865 3.055 2 3.40214 2H12.5842Z" fill="#393939"/>
</svg>
