<svg width="16" height="16" viewBox="0 0 16 16" fill="none" xmlns="http://www.w3.org/2000/svg">
<path d="M2 4.14035C2 3.57269 2.2255 3.02829 2.62689 2.62689C3.02829 2.2255 3.57269 2 4.14035 2H5.44842C5.55079 2 5.64896 2.04066 5.72134 2.11305C5.79372 2.18543 5.83438 2.2836 5.83438 2.38596C5.83438 2.48833 5.79372 2.5865 5.72134 2.65888C5.64896 2.73127 5.55079 2.77193 5.44842 2.77193H4.14035C3.77742 2.77193 3.42936 2.91611 3.17273 3.17273C2.91611 3.42936 2.77193 3.77742 2.77193 4.14035V5.44842C2.77193 5.55079 2.73127 5.64896 2.65888 5.72134C2.5865 5.79372 2.48833 5.83438 2.38596 5.83438C2.2836 5.83438 2.18543 5.79372 2.11305 5.72134C2.04066 5.64896 2 5.55079 2 5.44842V4.14035ZM10.1656 2.38596C10.1656 2.2836 10.2063 2.18543 10.2787 2.11305C10.3511 2.04066 10.4492 2 10.5516 2H11.8596C12.4273 2 12.9717 2.2255 13.3731 2.62689C13.7745 3.02829 14 3.57269 14 4.14035V5.44842C14 5.55079 13.9593 5.64896 13.8869 5.72134C13.8146 5.79372 13.7164 5.83438 13.614 5.83438C13.5117 5.83438 13.4135 5.79372 13.3411 5.72134C13.2688 5.64896 13.2281 5.55079 13.2281 5.44842V4.14035C13.2281 3.77742 13.0839 3.42936 12.8273 3.17273C12.5706 2.91611 12.2225 2.77193 11.8596 2.77193H10.5516C10.4492 2.77193 10.3511 2.73127 10.2787 2.65888C10.2063 2.5865 10.1656 2.48833 10.1656 2.38596ZM2.38596 10.1656C2.48833 10.1656 2.5865 10.2063 2.65888 10.2787C2.73127 10.3511 2.77193 10.4492 2.77193 10.5516V11.8596C2.77193 12.2225 2.91611 12.5706 3.17273 12.8273C3.42936 13.0839 3.77742 13.2281 4.14035 13.2281H5.44842C5.55079 13.2281 5.64896 13.2688 5.72134 13.3411C5.79372 13.4135 5.83438 13.5117 5.83438 13.614C5.83438 13.7164 5.79372 13.8146 5.72134 13.8869C5.64896 13.9593 5.55079 14 5.44842 14H4.14035C3.57269 14 3.02829 13.7745 2.62689 13.3731C2.2255 12.9717 2 12.4273 2 11.8596V10.5516C2 10.4492 2.04066 10.3511 2.11305 10.2787C2.18543 10.2063 2.2836 10.1656 2.38596 10.1656ZM13.614 10.1656C13.7164 10.1656 13.8146 10.2063 13.8869 10.2787C13.9593 10.3511 14 10.4492 14 10.5516V11.8596C14 12.4273 13.7745 12.9717 13.3731 13.3731C12.9717 13.7745 12.4273 14 11.8596 14H10.5516C10.4492 14 10.3511 13.9593 10.2787 13.8869C10.2063 13.8146 10.1656 13.7164 10.1656 13.614C10.1656 13.5117 10.2063 13.4135 10.2787 13.3411C10.3511 13.2688 10.4492 13.2281 10.5516 13.2281H11.8596C12.2225 13.2281 12.5706 13.0839 12.8273 12.8273C13.0839 12.5706 13.2281 12.2225 13.2281 11.8596V10.5516C13.2281 10.4492 13.2688 10.3511 13.3411 10.2787C13.4135 10.2063 13.5117 10.1656 13.614 10.1656Z" fill="#393939"/>
<path d="M7.99998 9.54735C8.6511 9.54735 9.17893 9.01952 9.17893 8.3684C9.17893 7.71728 8.6511 7.18945 7.99998 7.18945C7.34887 7.18945 6.82103 7.71728 6.82103 8.3684C6.82103 9.01952 7.34887 9.54735 7.99998 9.54735Z" fill="#393939"/>
<path fill-rule="evenodd" clip-rule="evenodd" d="M6.22054 5.42105L6.89476 4.68421H9.10529L9.7795 5.42105H10.9474C11.3526 5.42105 11.6842 5.75263 11.6842 6.15789V10.5789C11.6842 10.9842 11.3526 11.3158 10.9474 11.3158H5.05264C4.64738 11.3158 4.3158 10.9842 4.3158 10.5789V6.15789C4.3158 5.75263 4.64738 5.42105 5.05264 5.42105H6.22054ZM6.1579 8.3684C6.1579 9.38524 6.98318 10.2105 8.00002 10.2105C9.01687 10.2105 9.84209 9.38524 9.84209 8.3684C9.84209 7.35156 9.01687 6.52632 8.00002 6.52632C6.98318 6.52632 6.1579 7.35156 6.1579 8.3684Z" fill="#393939"/>
</svg>
