<svg width="16" height="16" viewBox="0 0 16 16" fill="none" xmlns="http://www.w3.org/2000/svg">
<path fill-rule="evenodd" clip-rule="evenodd" d="M3.1339 7.30877C4.41877 5.948 6.11024 5.23238 8.00231 5.23238C9.90522 5.23238 11.5967 5.95342 12.8761 7.31419C12.9683 7.40636 13.1147 7.40636 13.2123 7.30335L13.9279 6.5823C14.0201 6.49014 14.0201 6.37087 13.9496 6.28413C12.7243 4.77698 10.4203 3.66559 8.00231 3.66559C5.58437 3.66559 3.27485 4.77698 2.05504 6.28413C1.97914 6.37087 1.97914 6.49014 2.0713 6.5823L2.78693 7.31419C2.88451 7.4172 3.03631 7.41178 3.1339 7.30877ZM11.0491 9.48275L11.8569 8.68581C11.9436 8.59906 11.949 8.48521 11.8731 8.39305C11.087 7.42262 9.62327 6.707 8.00227 6.707C6.37585 6.707 4.9175 7.42804 4.12597 8.39305C4.05007 8.48521 4.05549 8.59364 4.14766 8.68581L4.95545 9.48817C5.06387 9.60202 5.20483 9.59118 5.30784 9.47191C5.9313 8.77255 6.95594 8.26836 8.00227 8.2792C9.05402 8.26836 10.0732 8.78881 10.7075 9.48817C10.8106 9.5966 10.9407 9.5966 11.0491 9.48275ZM8.00226 12.3344C8.11611 12.3344 8.21369 12.2748 8.41429 12.0796L9.68289 10.8598C9.76964 10.7839 9.78048 10.6646 9.71542 10.5725C9.37387 10.1333 8.73415 9.75382 8.00226 9.75382C7.24869 9.75382 6.60354 10.1496 6.26741 10.605C6.2132 10.6809 6.23489 10.7839 6.31621 10.8598L7.58481 12.0796C7.7854 12.2748 7.88841 12.3344 8.00226 12.3344Z" fill="#393939"/>
</svg>
