<svg width="16" height="16" viewBox="0 0 16 16" fill="none" xmlns="http://www.w3.org/2000/svg">
<path fill-rule="evenodd" clip-rule="evenodd" d="M13.9253 4.1474C13.8596 4.01604 13.6625 3.95035 13.5312 4.08172L11.9548 5.65814C11.6263 5.98656 11.1665 5.98656 10.8381 5.65814L10.3783 5.19835C10.0499 4.86993 10.0499 4.41014 10.3783 4.08172L11.9548 2.50531C12.0861 2.37394 12.0204 2.17689 11.8891 2.1112C10.7724 1.78278 9.45876 2.17689 8.67055 3.3592C8.14508 4.21309 8.0794 5.26403 8.53919 6.18361L2.29921 12.4236C1.90511 12.8177 1.90511 13.4088 2.29921 13.7373C2.49626 13.9343 2.69331 14 2.95605 14C3.21879 14 3.41584 13.9343 3.61289 13.7373L9.85287 7.49729C10.9038 8.02276 12.2175 7.82571 13.1371 6.97182C13.9253 6.11792 14.1223 5.06698 13.9253 4.1474Z" fill="#393939"/>
</svg>
