<svg width="16" height="16" viewBox="0 0 16 16" fill="none" xmlns="http://www.w3.org/2000/svg">
<path fill-rule="evenodd" clip-rule="evenodd" d="M13.9744 11.1054C13.8736 10.7748 13.6925 10.4744 13.4471 10.231C13.0562 9.83799 12.5244 9.61768 11.9702 9.61919C11.6869 9.61934 11.4066 9.67681 11.1461 9.78814L9.09168 7.73344L11.8195 5.02582L12.4655 5.00756C12.5437 5.00519 12.6151 4.96295 12.655 4.89569L13.5795 3.34097C13.6332 3.25125 13.6191 3.13647 13.5452 3.06245L12.7463 2.2634C12.6723 2.18955 12.5575 2.17542 12.4678 2.22916L10.9133 3.15377C10.846 3.19361 10.8038 3.26509 10.8014 3.34326L10.7832 3.98706L8.06219 6.70382L6.19494 4.83633C6.39099 3.69943 5.6284 2.61884 4.49165 2.42275C3.96494 2.33189 3.42343 2.44644 2.97862 2.74283C2.87418 2.81346 2.84676 2.95538 2.91738 3.05982C2.93724 3.08919 2.96366 3.11353 2.99459 3.13094L4.03094 3.70853C4.25921 3.83866 4.30486 4.22677 4.11996 4.55552C3.93507 4.88427 3.58125 5.05322 3.3507 4.92537L2.38968 4.40485C2.27922 4.34406 2.14041 4.38436 2.07966 4.49482C2.05872 4.53286 2.04907 4.5761 2.05187 4.61945C2.12409 5.77087 3.11595 6.64571 4.26723 6.57349C4.50508 6.55856 4.73863 6.50303 4.95774 6.40931L6.65607 8.10785L5.92104 8.84298L5.75441 8.6786C5.56994 8.50204 5.27918 8.50204 5.09471 8.6786L4.86644 8.9069C4.69252 9.07624 4.68151 9.35206 4.84133 9.53472L2.14089 12.2309C1.95873 12.4053 1.95237 12.6943 2.12668 12.8765C2.13131 12.8814 2.13604 12.8861 2.14089 12.8907L2.91245 13.6624C3.08676 13.8446 3.37578 13.8509 3.55794 13.6766C3.56279 13.672 3.56752 13.6672 3.57215 13.6624L6.27486 10.9616C6.45751 11.1214 6.73328 11.1104 6.9026 10.9365L7.13087 10.7082C7.31303 10.5338 7.3194 10.2448 7.14508 10.0626C7.14046 10.0578 7.13572 10.053 7.13087 10.0484L6.96424 9.88174L7.6947 9.1352L9.90892 11.3497C9.71763 12.4874 10.4847 13.5648 11.6223 13.7561C12.2961 13.8694 12.9827 13.646 13.4608 13.1578C13.5446 13.0637 13.5363 12.9194 13.4421 12.8355C13.4178 12.8138 13.3891 12.7976 13.3581 12.788L12.0729 12.4433C11.947 12.4028 11.8473 12.3056 11.8036 12.1807C11.7368 12.0085 11.7288 11.8191 11.7807 11.6419C11.8766 11.2835 12.1802 11.0278 12.4359 11.0963L13.7073 11.4387C13.7278 11.4417 13.7485 11.4417 13.769 11.4387C13.895 11.4403 13.9985 11.3393 14 11.2132C14.0004 11.1757 13.9916 11.1387 13.9744 11.1054Z" fill="#393939"/>
</svg>
