<svg width="16" height="16" viewBox="0 0 16 16" fill="none" xmlns="http://www.w3.org/2000/svg">
<path fill-rule="evenodd" clip-rule="evenodd" d="M11.543 14C12.5939 14 13.2104 13.3894 13.2104 12.18V6.10372C13.2104 4.89432 12.588 4.28376 11.3669 4.28376H10.4276C10.3982 3.05088 9.32386 2 7.99705 2C6.67024 2 5.59587 3.05088 5.56652 4.28376H4.63306C3.40605 4.28376 2.78961 4.88845 2.78961 6.10372V12.18C2.78961 13.3953 3.40605 14 4.63306 14H11.543ZM9.48237 4.28376H6.51173C6.54108 3.51468 7.16926 2.89237 7.99705 2.89237C8.82484 2.89237 9.45302 3.51468 9.48237 4.28376ZM11.5254 13.0548H4.6448C4.05771 13.0548 3.73482 12.7436 3.73482 12.1331V6.15068C3.73482 5.54012 4.05771 5.22896 4.6448 5.22896H11.3493C11.9305 5.22896 12.2652 5.54012 12.2652 6.15068V12.1331C12.2652 12.7436 11.9305 13.0548 11.5254 13.0548Z" fill="#393939"/>
</svg>
