<svg width="16" height="16" viewBox="0 0 16 16" fill="none" xmlns="http://www.w3.org/2000/svg">
<path fill-rule="evenodd" clip-rule="evenodd" d="M13.3898 13.169C13.7094 13.169 14 13.0005 14 12.5588V4.44068C13.6804 3.66199 12.3729 2.83099 10.7632 2.83099C9.54286 2.83099 8.44455 3.32494 7.99709 3.88281C7.55545 3.32494 6.45714 2.83099 5.23099 2.83099C3.62131 2.83099 2.31961 3.66199 2 4.44068V12.5588C2 13.0005 2.28475 13.169 2.60436 13.169C2.85424 13.169 3.00533 13.0935 3.16223 12.9714C3.49346 12.6867 4.16174 12.3031 5.23099 12.3031C6.30605 12.3031 7.05569 12.6751 7.34625 12.9366C7.49734 13.0586 7.67748 13.169 7.99709 13.169C8.31671 13.169 8.49685 13.047 8.64794 12.9366C8.96174 12.6925 9.69395 12.3031 10.7632 12.3031C11.8383 12.3031 12.5065 12.6925 12.8378 12.9714C12.9947 13.0935 13.14 13.169 13.3898 13.169ZM2.93559 12.0939V4.71961C3.06925 4.35932 3.91186 3.70848 5.23099 3.70848C6.55593 3.70848 7.41598 4.36513 7.5322 4.71961V12.0707C6.98014 11.6581 6.13753 11.4257 5.23099 11.4257C4.33026 11.4257 3.48765 11.6581 2.93559 12.0939ZM13.0644 12.0939C12.5065 11.6581 11.6697 11.4257 10.7632 11.4257C9.85667 11.4257 9.01986 11.6581 8.46781 12.0707V4.71961C8.58403 4.36513 9.44408 3.70848 10.7632 3.70848C12.0881 3.70848 12.9308 4.35932 13.0644 4.71961V12.0939Z" fill="#393939"/>
</svg>
