<svg width="16" height="16" viewBox="0 0 16 16" fill="none" xmlns="http://www.w3.org/2000/svg">
<path fill-rule="evenodd" clip-rule="evenodd" d="M12.2946 10.5841C12.4974 10.5841 12.6742 10.4177 12.6742 10.1941C12.6742 9.97054 12.4974 9.80416 12.2946 9.80416H6.31542C6.01906 9.80416 5.83709 9.59619 5.79029 9.27903L5.70711 8.7331H12.305C13.0641 8.7331 13.4541 8.26516 13.5633 7.52166L13.9792 4.77123C13.9896 4.70364 14 4.62045 14 4.57366C14 4.32409 13.8128 4.15251 13.5269 4.15251H5.0364L4.93761 3.4922C4.88562 3.09185 4.74003 2.88908 4.20971 2.88908H2.38475C2.17678 2.88908 2 3.07106 2 3.27903C2 3.4922 2.17678 3.67418 2.38475 3.67418H4.14211L4.974 9.38302C5.08319 10.1213 5.47314 10.5841 6.22704 10.5841H12.2946ZM5.59272 7.9532L5.15077 4.93761H13.1161L12.747 7.42807C12.7054 7.75043 12.5338 7.948 12.227 7.948L5.59272 7.9532ZM6.63777 13.1109C7.10571 13.1109 7.48006 12.7418 7.48006 12.2686C7.48006 11.8007 7.10571 11.4263 6.63777 11.4263C6.16463 11.4263 5.79028 11.8007 5.79028 12.2686C5.79028 12.7418 6.16463 13.1109 6.63777 13.1109ZM11.4991 13.1109C11.9723 13.1109 12.3466 12.7418 12.3466 12.2686C12.3466 11.8007 11.9723 11.4263 11.4991 11.4263C11.0312 11.4263 10.6517 11.8007 10.6517 12.2686C10.6517 12.7418 11.0312 13.1109 11.4991 13.1109Z" fill="#393939"/>
</svg>
