<svg width="16" height="16" viewBox="0 0 16 16" fill="none" xmlns="http://www.w3.org/2000/svg">
<path fill-rule="evenodd" clip-rule="evenodd" d="M11.7319 7.79057C12.9617 7.79057 14 6.76569 14 5.52692C14 4.28816 12.9751 3.26328 11.7319 3.26328C10.4931 3.26328 9.46824 4.28816 9.46824 5.52692C9.46824 6.7746 10.4931 7.79057 11.7319 7.79057ZM10.8229 10.5711C10.9967 10.5711 11.1482 10.4285 11.1482 10.2369C11.1482 10.0453 10.9967 9.90271 10.8229 9.90271H5.69848C5.44449 9.90271 5.28853 9.72447 5.24842 9.45266L5.18158 8.98478H10.8318C11.2952 8.98478 11.5938 8.78871 11.7631 8.4055C11.3799 8.4055 11.0189 8.32975 10.6847 8.1827C10.6179 8.27182 10.5332 8.31192 10.4085 8.31192L5.07909 8.31638L4.70033 5.7319H8.87115C8.84887 5.52692 8.86223 5.25956 8.89343 5.05904H4.6023L4.52209 4.49313C4.47308 4.15002 4.35277 3.97624 3.89825 3.97624H2.32974C2.1515 3.97624 2 4.1322 2 4.31044C2 4.49313 2.1515 4.64909 2.32974 4.64909H3.83587L4.54883 9.54178C4.64241 10.1745 4.97661 10.5711 5.62273 10.5711H10.8229ZM11.7364 6.9974C11.5804 6.9974 11.4423 6.89046 11.4423 6.72559V5.79874H10.5912C10.4397 5.79874 10.3193 5.67397 10.3193 5.52692C10.3193 5.37987 10.4397 5.25511 10.5912 5.25511H11.4423V4.33272C11.4423 4.16339 11.5804 4.05644 11.7364 4.05644C11.8923 4.05644 12.026 4.16339 12.026 4.33272V5.25511H12.8771C13.0286 5.25511 13.1534 5.37987 13.1534 5.52692C13.1534 5.67397 13.0286 5.79874 12.8771 5.79874H12.026V6.72559C12.026 6.89046 11.8923 6.9974 11.7364 6.9974ZM5.97474 12.7367C6.37578 12.7367 6.69661 12.4204 6.69661 12.0149C6.69661 11.6138 6.37578 11.293 5.97474 11.293C5.56924 11.293 5.25287 11.6138 5.25287 12.0149C5.25287 12.4204 5.56924 12.7367 5.97474 12.7367ZM10.1456 12.7367C10.5466 12.7367 10.8674 12.4204 10.8674 12.0149C10.8674 11.6138 10.5466 11.293 10.1456 11.293C9.74007 11.293 9.41478 11.6138 9.41478 12.0149C9.41478 12.4204 9.74007 12.7367 10.1456 12.7367Z" fill="#393939"/>
</svg>
