<svg width="16" height="16" viewBox="0 0 16 16" fill="none" xmlns="http://www.w3.org/2000/svg">
<path d="M2.33727 12.497H2.24099C2.12019 12.497 2 12.5932 2 12.738C2 12.8581 2.09627 12.9789 2.24099 12.9789H2.33727C2.45746 12.9789 2.57826 12.8581 2.57826 12.738C2.57826 12.6171 2.48199 12.497 2.33727 12.497ZM13.1323 12.497H12.8674C12.7472 12.497 12.6264 12.5932 12.6264 12.738C12.6264 12.8581 12.7227 12.9789 12.8674 12.9789H13.1323C13.277 12.9789 13.3733 12.8581 13.3733 12.738C13.3733 12.6171 13.277 12.497 13.1323 12.497ZM9.20466 12.497H8.93975C8.81956 12.497 8.69876 12.5932 8.69876 12.738C8.69876 12.8581 8.79503 12.9789 8.93975 12.9789H9.20466C9.34938 12.9789 9.44565 12.8581 9.44565 12.738C9.44565 12.6171 9.34938 12.497 9.20466 12.497ZM3.49379 12.497H3.22888C3.10808 12.497 2.98789 12.5932 2.98789 12.738C2.98789 12.8581 3.08416 12.9789 3.22888 12.9789H3.49379C3.61459 12.9789 3.73478 12.8581 3.73478 12.738C3.73478 12.6171 3.63851 12.497 3.49379 12.497ZM4.67484 12.1112C4.81895 12.1112 4.93975 12.015 4.91584 11.8703C4.91584 11.7501 4.81895 11.6293 4.67484 11.6293H4.19286C4.07205 11.6293 3.95186 11.7261 3.95186 11.8703C3.95186 11.9911 4.04814 12.1112 4.19286 12.1112H4.67484ZM8.69876 6.76217L8.26522 6.73764C8.16894 6.73764 8.04814 6.81 8.04814 6.93081C8.04814 7.02708 8.1205 7.14727 8.24069 7.14727L8.67484 7.1718C8.77112 7.1718 8.86739 7.09944 8.86739 6.97864C8.86739 6.88236 8.79503 6.78609 8.69876 6.76217ZM7.59007 6.71373L6.48199 6.66528C6.36118 6.66528 6.26491 6.73764 6.26491 6.85845C6.26491 6.95472 6.33727 7.07491 6.45807 7.07491L7.56615 7.12336C7.66243 7.12336 7.75931 7.051 7.75931 6.93081C7.75931 6.83453 7.68695 6.71373 7.59007 6.71373ZM13.3733 5.58112L5.37329 5.24385L5.78292 9.34013H12.8913C13.0121 9.34013 13.1323 9.24385 13.1323 9.09913L13.3733 5.58112ZM6.81925 11.8703C6.81925 12.1597 7.06025 12.4007 7.34907 12.4007C7.63851 12.4007 7.8795 12.1597 7.8795 11.8703C7.8795 11.5814 7.63851 11.3404 7.34907 11.3404C7.06025 11.3404 6.81925 11.5814 6.81925 11.8703ZM10.9879 11.8703C10.9879 12.1597 11.2289 12.4007 11.5183 12.4007C11.8071 12.4007 12.0481 12.1597 12.0481 11.8703C12.0481 11.5814 11.8071 11.3404 11.5183 11.3404C11.2289 11.3404 11.0118 11.5814 10.9879 11.8703ZM14 5.55721L13.759 9.14758C13.759 9.58112 13.3733 9.96683 12.9158 9.96683H5.83137L5.97608 11.3404C5.97608 11.4367 6.04844 11.5569 6.19255 11.5569H6.24099C6.36118 11.0994 6.81925 10.7376 7.32516 10.7376C7.83106 10.7376 8.26522 11.0994 8.40932 11.5569H10.4335C10.5543 11.0994 11.0118 10.7376 11.5183 10.7376C12.1444 10.7376 12.6503 11.2442 12.6503 11.8703C12.6503 12.497 12.1444 13.0029 11.5183 13.0029C11.4447 13.0029 11.373 12.993 11.3037 12.9789H9.90373C9.75901 12.9789 9.66273 12.8581 9.66273 12.738C9.66273 12.5932 9.78292 12.497 9.90373 12.497H10.5881C10.5218 12.4007 10.4691 12.2952 10.4335 12.1836H8.40932C8.28913 12.6417 7.83106 13.0029 7.32516 13.0029C7.25157 13.0029 7.18044 12.993 7.11053 12.9789H4.38541C4.24069 12.9789 4.14441 12.8581 4.14441 12.738C4.14441 12.5932 4.26522 12.497 4.38541 12.497H6.39552C6.3293 12.4007 6.27595 12.2952 6.24099 12.1836H6.19255C5.73509 12.1836 5.34938 11.8224 5.34938 11.3643L5.20466 9.96683L5.18075 9.84603L4.72267 4.95442L4.6264 4.06341C4.6264 3.9187 4.57796 3.82242 4.45776 3.75006L3.18044 3.60534C3.0118 3.58143 2.89161 3.43671 2.91553 3.26807C2.93945 3.09944 3.08416 2.97864 3.2528 3.00317L4.65031 3.1718C5.01211 3.31591 5.2531 3.65379 5.2531 4.03889L5.32546 4.59323L13.4457 4.95442C13.759 4.97894 14 5.21994 14 5.55721ZM6.33727 6.18391L9.68665 6.32802C9.78292 6.32802 9.8792 6.25566 9.8792 6.13547C9.8792 6.03919 9.80745 5.91839 9.68665 5.91839L6.33727 5.77428C6.24099 5.77428 6.12019 5.84603 6.12019 5.96683C6.09627 6.08702 6.19255 6.15938 6.33727 6.18391ZM7.20497 7.72553C7.20497 7.84634 7.10869 7.9187 7.0118 7.9187L6.55435 7.89478C6.43354 7.89478 6.36118 7.77398 6.36118 7.6777C6.36118 7.5569 6.48199 7.48515 6.57826 7.48515L7.03633 7.50907C7.13261 7.50907 7.20497 7.60534 7.20497 7.72553Z" fill="#393939"/>
</svg>
