<svg width="16" height="16" viewBox="0 0 16 16" fill="none" xmlns="http://www.w3.org/2000/svg">
<path fill-rule="evenodd" clip-rule="evenodd" d="M7.06981 10.8587C7.08733 10.8613 7.10485 10.8639 7.12229 10.8669H7.26492C7.28275 10.864 7.30066 10.8614 7.31857 10.8588C7.35751 10.8531 7.39647 10.8474 7.4346 10.8379C7.87936 10.7265 8.17533 10.436 8.32294 9.97067C8.33533 9.93155 8.34908 9.91941 8.3875 9.9199C8.58515 9.92278 8.78281 9.92381 8.98045 9.92484C9.04632 9.92518 9.1122 9.92553 9.17807 9.92594C9.23598 9.92631 9.29389 9.92666 9.35181 9.92702C9.54495 9.92821 9.73811 9.92939 9.93124 9.93094C10.0685 9.932 10.2058 9.93344 10.3431 9.93488C10.4116 9.9356 10.4802 9.93631 10.5487 9.93698C10.5542 9.93705 10.5598 9.93759 10.5607 9.93766C10.5722 9.96583 10.5829 9.99409 10.5935 10.0221C10.6162 10.0822 10.6386 10.1413 10.6675 10.1963C10.8751 10.591 11.189 10.814 11.609 10.8604C11.6139 10.8609 11.6187 10.8627 11.6235 10.8645C11.6258 10.8654 11.6282 10.8662 11.6305 10.8669H11.7798C11.7966 10.8641 11.8135 10.8615 11.8304 10.8589C11.8678 10.8532 11.9053 10.8475 11.9421 10.8384C12.3786 10.7304 12.6727 10.4475 12.8256 9.99416C12.8361 9.96292 12.8472 9.9512 12.8793 9.95188L12.9025 9.95237C13.0393 9.95528 13.1763 9.95819 13.3131 9.95438C13.5276 9.94834 13.696 9.84215 13.8229 9.65926C13.9338 9.4995 13.9884 9.31734 13.9945 9.1181C13.9948 9.11106 13.9964 9.10407 13.998 9.09707C13.9987 9.09387 13.9994 9.09067 14 9.08746V9.0802C13.9993 9.0621 13.9985 9.044 13.9977 9.0259C13.9961 8.98975 13.9945 8.9536 13.9932 8.91745C13.9819 8.57333 13.9425 8.23458 13.8248 7.91127C13.699 7.56593 13.4932 7.29596 13.1842 7.12393C13.0014 7.02214 12.8056 6.96716 12.6032 6.93384C12.3832 6.89759 12.1637 6.8578 11.9445 6.81625C11.913 6.81026 11.88 6.79177 11.855 6.76944C11.6613 6.59624 11.4682 6.42214 11.2751 6.24805C11.161 6.14514 11.0469 6.04223 10.9326 5.9395C10.7265 5.75423 10.4898 5.63554 10.2306 5.56524C10.0652 5.52033 9.89605 5.50483 9.72693 5.49427C9.53745 5.48237 9.34735 5.4748 9.15753 5.47474C8.78756 5.47468 8.41839 5.49708 8.05091 5.54449C7.79014 5.57818 7.54436 5.65855 7.33293 5.83485C7.10469 6.02515 6.87681 6.216 6.64894 6.40684C6.56144 6.48012 6.47394 6.5534 6.38643 6.62664L6.36459 6.64434C6.3606 6.63366 6.35669 6.62335 6.35287 6.61326C6.34673 6.59705 6.34081 6.5814 6.33506 6.56568C6.30015 6.47015 6.26547 6.37453 6.2308 6.27891C6.15357 6.06593 6.07634 5.85298 5.9966 5.64109C5.8865 5.34866 5.6848 5.1795 5.39274 5.1391C5.38914 5.1386 5.38567 5.13693 5.3822 5.13526C5.38061 5.13449 5.37901 5.13372 5.37741 5.13306H5.27557C5.27348 5.13379 5.2714 5.13456 5.26932 5.13533C5.26524 5.13684 5.26115 5.13836 5.25695 5.13953C5.23607 5.14514 5.21489 5.14999 5.19372 5.15483C5.14739 5.16544 5.10106 5.17604 5.05768 5.19464C4.91323 5.25665 4.77078 5.32412 4.62838 5.39155C4.61355 5.39858 4.59873 5.4056 4.5839 5.41262C4.46135 5.47053 4.39362 5.61839 4.42344 5.75692C4.46429 5.94725 4.64709 6.04849 4.81445 5.97215C4.91459 5.92651 5.01442 5.88006 5.11426 5.83362C5.16271 5.81107 5.21117 5.78853 5.25967 5.76607C5.3421 5.72787 5.41832 5.75698 5.45928 5.84333C5.46786 5.86129 5.47472 5.88031 5.48155 5.89925C5.48291 5.90303 5.48427 5.90681 5.48564 5.91058C5.54473 6.07239 5.60377 6.23421 5.66282 6.39604C5.76009 6.66266 5.85736 6.92927 5.95485 7.19582C6.00232 7.3255 6.10275 7.39708 6.23146 7.39592C6.26619 7.39563 6.30096 7.39571 6.33572 7.39578C6.35176 7.39582 6.3678 7.39586 6.38383 7.39586C6.56076 7.39586 6.7377 7.39586 6.91464 7.39586C8.50397 7.39584 10.0933 7.39583 11.6826 7.39671C11.7251 7.39671 11.768 7.40523 11.8103 7.41361C11.8133 7.4142 11.8163 7.4148 11.8193 7.41539C11.8593 7.4233 11.8992 7.43213 11.9391 7.44096C11.9955 7.45343 12.0518 7.4659 12.1086 7.4758C12.1929 7.49045 12.2774 7.50377 12.3619 7.51708C12.4597 7.53249 12.5575 7.5479 12.6549 7.56538C12.803 7.59199 12.9403 7.64874 13.0564 7.75596C13.1925 7.88174 13.2724 8.04534 13.3259 8.22549C13.4108 8.51108 13.4291 8.80626 13.4274 9.10357C13.4272 9.1685 13.4089 9.23111 13.3738 9.28597C13.3491 9.32442 13.3172 9.34529 13.2712 9.34444C13.1468 9.34212 13.0223 9.34236 12.8979 9.34309C12.8735 9.34321 12.8635 9.33699 12.8578 9.30904C12.7255 8.66755 12.1488 8.23653 11.5458 8.32734C11.0722 8.39861 10.6871 8.7661 10.5636 9.26455C10.5602 9.27834 10.5565 9.292 10.5529 9.3057C10.5513 9.31146 10.5498 9.31723 10.5483 9.32302H10.5081C10.4236 9.3224 10.339 9.32179 10.2545 9.32117C10.0019 9.31933 9.74942 9.31749 9.49689 9.31575L9.43794 9.31535C9.08655 9.31292 8.73521 9.31049 8.38387 9.30904C8.35836 9.30892 8.34716 9.30276 8.34014 9.27407C8.18721 8.65187 7.6578 8.25356 7.06418 8.32654C6.6352 8.37927 6.32504 8.62734 6.13115 9.04206C6.10605 9.09579 6.0871 9.15289 6.06791 9.21076C6.05902 9.23754 6.05008 9.26449 6.04045 9.29134C6.02252 9.29134 6.00427 9.29137 5.9858 9.2914C5.94067 9.29146 5.89419 9.29153 5.84775 9.29122C5.82643 9.29108 5.80507 9.2903 5.78372 9.28952C5.73933 9.28789 5.69497 9.28627 5.65108 9.29043C5.59139 9.2961 5.55541 9.26706 5.52293 9.22074C5.46126 9.1325 5.42663 9.03101 5.39812 8.9266C5.35302 8.76147 5.19902 8.66816 5.04682 8.71448C4.89553 8.76043 4.80806 8.92825 4.85327 9.09417C4.87652 9.17924 4.9039 9.2637 4.93706 9.34474C5.00942 9.52147 5.11042 9.67586 5.26097 9.78656C5.34612 9.84923 5.4384 9.89653 5.54324 9.89946C5.69702 9.90391 5.85086 9.90428 6.00469 9.90287C6.04102 9.90257 6.05313 9.91496 6.06416 9.95157C6.20775 10.4265 6.5053 10.7232 6.95663 10.8378C6.99384 10.8472 7.03182 10.8529 7.06981 10.8587ZM8.46996 6.78085H7.12933L7.23406 6.6931C7.27802 6.65631 7.32207 6.61965 7.36612 6.583C7.46624 6.49968 7.56636 6.41637 7.66542 6.33153C7.78468 6.22931 7.92364 6.18202 8.07069 6.16053C8.16451 6.14682 8.25886 6.13744 8.35321 6.12806C8.3928 6.12412 8.43239 6.12018 8.47194 6.11593C8.47517 6.11556 8.47856 6.11684 8.47703 6.1166C8.46785 6.24751 8.46891 6.37814 8.46996 6.5086C8.47054 6.57997 8.47112 6.65129 8.47002 6.72257C8.46983 6.735 8.46987 6.74742 8.46992 6.76096C8.46994 6.76731 8.46996 6.7739 8.46996 6.78085ZM10.9797 6.78097H9.03693V6.44546C9.03693 6.42631 9.03711 6.40715 9.03729 6.38799C9.0377 6.34365 9.03812 6.29931 9.0363 6.25513C9.03475 6.21811 9.03071 6.18123 9.02654 6.14315C9.02461 6.12561 9.02266 6.10781 9.02091 6.08963C9.02351 6.08942 9.02662 6.08907 9.03012 6.08869C9.03873 6.08774 9.04962 6.08654 9.06058 6.08645C9.33328 6.08371 9.60548 6.09262 9.877 6.1216C10.112 6.14668 10.3321 6.21729 10.5225 6.37193C10.5965 6.43206 10.6673 6.49696 10.738 6.56187C10.769 6.59031 10.8 6.61875 10.8313 6.64678C10.8638 6.67604 10.8963 6.70545 10.9308 6.73665C10.9466 6.75099 10.9628 6.76571 10.9797 6.78097ZM7.19345 10.252C6.85811 10.252 6.58263 9.95444 6.58251 9.59213C6.58246 9.22611 6.85912 8.92709 7.19724 8.92764C7.53535 8.92819 7.80936 9.22672 7.80919 9.59439C7.80902 9.95828 7.53399 10.252 7.19345 10.252ZM11.7062 8.92764C12.0439 8.92813 12.3205 9.22806 12.3196 9.59281C12.3187 9.95956 12.0422 10.253 11.6985 10.2519C11.3585 10.2507 11.0844 9.93753 11.0917 9.57364C11.0988 9.22367 11.3757 8.92709 11.7062 8.92764Z" fill="#393939"/>
<path d="M2.16038 6.95129C2.08013 6.9508 2.02604 6.98054 2 7.07351V7.54195C2.02486 7.63322 2.07718 7.66445 2.1563 7.66395C2.52146 7.66189 2.88661 7.66215 3.25174 7.66242C3.37551 7.66251 3.49928 7.6626 3.62304 7.6626H3.66698C3.66575 7.66787 3.66476 7.67229 3.6639 7.67615C3.66238 7.6829 3.66124 7.68797 3.65989 7.69298C3.64479 7.74849 3.62971 7.80401 3.61462 7.85952C3.56823 8.03022 3.52185 8.2009 3.47507 8.37143C3.46544 8.40663 3.45741 8.44077 3.48504 8.46909C3.51268 8.49734 3.53972 8.48272 3.56701 8.46561C3.61941 8.43277 3.67216 8.40057 3.72492 8.36836C3.73316 8.36333 3.74141 8.35829 3.74965 8.35326C3.83698 8.30002 3.92431 8.24677 4.01165 8.19352C4.45112 7.92558 4.89063 7.65761 5.33017 7.38999C5.35362 7.37572 5.3721 7.35919 5.37305 7.32405C5.37411 7.28672 5.35498 7.26891 5.33029 7.25372C5.22956 7.19189 5.12899 7.12957 5.02841 7.06726C5.00742 7.05425 4.98642 7.04124 4.96542 7.02823C4.88735 6.97994 4.80928 6.93165 4.73121 6.88336C4.33543 6.63855 3.93968 6.39377 3.54398 6.14864C3.51729 6.13196 3.4913 6.12075 3.46526 6.14715C3.4391 6.17376 3.44448 6.20648 3.4541 6.24076C3.50251 6.41248 3.55039 6.58433 3.59826 6.75619C3.61071 6.80092 3.62305 6.84579 3.63575 6.89197C3.64125 6.91196 3.64682 6.93221 3.65251 6.95286H3.60586C3.48833 6.95286 3.37081 6.95294 3.25329 6.95302C2.88898 6.95329 2.5247 6.95355 2.16038 6.95129Z" fill="#393939"/>
</svg>
