<svg width="16" height="16" viewBox="0 0 16 16" fill="none" xmlns="http://www.w3.org/2000/svg">
<path fill-rule="evenodd" clip-rule="evenodd" d="M11.0716 14C12.1536 14 12.7433 13.4332 12.7433 12.3511V8.79008C13.2758 8.68702 13.5677 8.27481 13.5677 7.67366V6.23092C13.5677 5.53244 13.1842 5.0916 12.48 5.0916H11.2662C11.5868 4.77672 11.7758 4.3645 11.7758 3.90076C11.7758 2.79008 10.8941 2 9.78912 2C8.97042 2 8.29485 2.45229 7.99714 3.25954C7.69943 2.45229 7.02958 2 6.21088 2C5.10019 2 4.22424 2.79008 4.22424 3.90076C4.22424 4.3645 4.40744 4.77672 4.72805 5.0916H3.52004C2.85019 5.0916 2.43225 5.53244 2.43225 6.23092V7.67366C2.43225 8.27481 2.71851 8.68702 3.25095 8.79008V12.3511C3.25095 13.4332 3.84637 14 4.92843 14H11.0716ZM7.52767 5.0916H6.64027C5.69561 5.0916 5.19179 4.53626 5.19179 3.94084C5.19179 3.32252 5.65553 2.95611 6.26813 2.95611C6.97233 2.95611 7.52767 3.5 7.52767 4.41031V5.0916ZM9.35973 5.0916H8.4666V4.41031C8.4666 3.5 9.02767 2.95611 9.73187 2.95611C10.3445 2.95611 10.8025 3.32252 10.8025 3.94084C10.8025 4.53626 10.2872 5.0916 9.35973 5.0916ZM7.49332 7.94847H3.75477C3.46851 7.94847 3.35401 7.82824 3.35401 7.54198V6.35687C3.35401 6.07061 3.46851 5.95611 3.75477 5.95611H7.49332V7.94847ZM12.251 7.94847H8.50668V5.95611H12.251C12.5372 5.95611 12.646 6.07061 12.646 6.35687V7.54198C12.646 7.82824 12.5372 7.94847 12.251 7.94847ZM7.49332 13.1412H4.91698C4.44179 13.1412 4.17271 12.8721 4.17271 12.3969V8.81298H7.49332V13.1412ZM11.0773 13.1412H8.50668V8.81298H11.8216V12.3969C11.8216 12.8721 11.5525 13.1412 11.0773 13.1412Z" fill="#393939"/>
</svg>
