<svg width="16" height="16" viewBox="0 0 16 16" fill="none" xmlns="http://www.w3.org/2000/svg">
<path fill-rule="evenodd" clip-rule="evenodd" d="M13.9488 9.29069L10.826 3.65243C10.7735 3.55777 10.6856 3.48779 10.5815 3.45793C10.4775 3.42803 10.3658 3.44076 10.2711 3.49324L6.19198 5.75323L4.64737 2.9642C4.59489 2.86946 4.50697 2.79948 4.40293 2.76966C4.29898 2.73968 4.18718 2.75245 4.09256 2.80494L2.21046 3.84758C2.01325 3.95679 1.94198 4.20519 2.05119 4.40235C2.16044 4.59964 2.40892 4.67087 2.60592 4.56158L4.13106 3.71671L5.67511 6.50465L5.67567 6.50574L7.67126 10.1089C7.27309 10.7178 7.21572 11.5221 7.59199 12.2017C7.94887 12.846 8.62841 13.2462 9.36541 13.2462C9.70657 13.2462 10.0454 13.1584 10.3453 12.9923C11.0249 12.6158 11.4029 11.9035 11.3882 11.1759L13.7896 9.84543C13.9867 9.73622 14.058 9.48786 13.9488 9.29069ZM9.94974 12.2782C9.77055 12.3775 9.56853 12.43 9.36539 12.43C8.92507 12.43 8.5191 12.1909 8.30594 11.8063C7.98295 11.2229 8.19463 10.4853 8.77793 10.1621C8.95711 10.0628 9.15917 10.0103 9.36236 10.0103C9.80267 10.0103 10.2085 10.2493 10.4216 10.634C10.7448 11.2175 10.5331 11.955 9.94974 12.2782ZM11.193 10.3509C11.175 10.3131 11.1562 10.2756 11.1357 10.2385C10.7789 9.59428 10.0993 9.19405 9.36236 9.19405C9.02119 9.19405 8.68229 9.28188 8.3823 9.4481C8.34529 9.46863 8.30945 9.49049 8.27422 9.51295L6.58747 6.46732L8.31539 5.50993L8.91207 6.5872C8.98661 6.72174 9.12588 6.79766 9.26943 6.79766C9.33634 6.79766 9.40418 6.78125 9.46684 6.74651C9.66405 6.6373 9.73532 6.38886 9.62611 6.19169L9.02944 5.11426L10.3097 4.40498L13.0371 9.32916L11.193 10.3509Z" fill="#393939"/>
</svg>
