<svg width="16" height="16" viewBox="0 0 16 16" fill="none" xmlns="http://www.w3.org/2000/svg">
<path d="M5 7C5 6.4475 5.4475 6 6 6C6.5525 6 7 6.4475 7 7C7 7.5525 6.5525 8 6 8C5.4475 8 5 7.5525 5 7Z" fill="#393939"/>
<path d="M3.99998 9.25C3.99998 8.585 5.33248 8.25 5.99998 8.25C6.66748 8.25 7.99998 8.585 7.99998 9.25V10H3.99998V9.25Z" fill="#393939"/>
<path d="M12 6H8.89999V6.75H12V6Z" fill="#393939"/>
<path d="M8.89999 7.5H12V8.25H8.89999V7.5Z" fill="#393939"/>
<path d="M12 9H8.89999V9.75H12V9Z" fill="#393939"/>
<path fill-rule="evenodd" clip-rule="evenodd" d="M12.8 4H3.2C2.534 4 2.006 4.445 2.006 5L2 11C2 11.555 2.534 12 3.2 12H12.8C13.466 12 14 11.555 14 11V5C14 4.445 13.466 4 12.8 4ZM13.2687 10.0483C13.2687 10.7387 12.709 11.2983 12.0187 11.2983H3.98132C3.29097 11.2983 2.73132 10.7387 2.73132 10.0483V5.95168C2.73132 5.26132 3.29097 4.70168 3.98132 4.70168H12.0187C12.709 4.70168 13.2687 5.26132 13.2687 5.95168V10.0483Z" fill="#393939"/>
</svg>
