<svg width="16" height="16" viewBox="0 0 16 16" fill="none" xmlns="http://www.w3.org/2000/svg">
<path d="M8.07624 2C6.74111 3.55325 5.84903 4.72978 5.39999 5.52959L6.80494 6.18903C7.31768 5.37642 7.74145 4.76276 8.07624 4.34804C8.09145 4.34804 9.48697 6.15755 10.0647 7.39858C10.0649 7.40647 9.91151 7.48142 9.60452 7.62344L11.2311 8.2L11.8 6.51105L11.4634 6.69588C10.7583 5.33048 9.62921 3.76519 8.07624 2Z" fill="#393939"/>
<path d="M4.17127 6.58896L6.0008 6.2L6.54166 7.71738L6.06906 7.50046C4.88897 9.81202 5.06594 11.2601 6.59996 11.8447C6.60196 11.8488 6.50777 12.3006 6.31741 13.2C4.64124 12.6422 3.80316 11.5459 3.80316 9.91113C3.76612 9.22876 4.05364 8.2003 4.66571 6.82572L4.17127 6.58896Z" fill="#393939"/>
<path d="M12.2 9.89499C12.2 12.259 10.7561 13.4573 7.86827 13.4901L7.8392 14L6.79999 12.6239L7.97813 11.5213C7.95896 11.8676 7.95094 12.0407 7.95406 12.0405C10.4111 12.0405 11.2437 10.9 10.4519 8.61893L11.8509 8C12.0836 8.60166 12.2 9.23332 12.2 9.89499Z" fill="#393939"/>
</svg>
