<svg width="16" height="16" viewBox="0 0 16 16" fill="none" xmlns="http://www.w3.org/2000/svg">
<path d="M7.42597 6.7218L7.55065 5.5188C7.55065 5.2782 7.67532 5.2782 7.86234 5.45865L10.2935 8.70677C10.4182 8.88722 10.3558 9.00752 10.1065 9.00752L5.92987 8.76692C5.68052 8.76692 5.68052 8.64662 5.86753 8.46617L6.86493 7.74436L3.31169 5.81955C3.12468 5.69925 3 5.5188 3 5.2782C3 5.03759 3.12468 4.85714 3.31169 4.73684L8.17403 2.09023C8.36104 1.96992 8.61039 1.96992 8.7974 2.09023L13.5974 4.73684C13.7844 4.85714 13.9091 5.03759 13.9091 5.2782V10.7519C13.9091 10.9925 13.7844 11.1729 13.5974 11.2932L8.7974 13.9398C8.67273 14 8.61039 14 8.48571 14C8.36104 14 8.2987 14 8.17403 13.9398L3.31169 11.2932C3.12468 11.1729 3 10.9925 3 10.7519V7.68421C3 7.32331 3.31169 7.08271 3.62338 7.08271C3.9974 7.08271 4.24675 7.38346 4.24675 7.68421V10.391L7.86234 12.3759V10.391C7.86234 10.0902 8.11169 9.84962 8.42338 9.84962C8.73506 9.84962 8.98442 10.0902 8.98442 10.391V12.4361L12.6 10.4511V6.3609L10.9169 7.26316C10.8545 7.32331 10.7299 7.32331 10.6675 7.32331C10.4805 7.32331 10.2935 7.20301 10.1688 7.02256C10.0442 6.78195 10.1065 6.42105 10.4182 6.30075L12.039 5.3985L8.42338 3.41353L4.87013 5.33835L7.42597 6.7218Z" fill="#393939"/>
</svg>
