<svg width="16" height="16" viewBox="0 0 16 16" fill="none" xmlns="http://www.w3.org/2000/svg">
<path d="M6.85488 8.8317L5.52016 7.49107L5.07526 7.93795L6.85488 9.72545L10.6684 5.89509L10.2235 5.44822L6.85488 8.8317Z" fill="#393939"/>
<path fill-rule="evenodd" clip-rule="evenodd" d="M8.01005 14C7.53763 14 7.12426 13.8824 6.829 13.5882L2.81344 10.3529C2.22292 9.88235 1.8686 9 2.04576 8.23529L2.87249 3.76471C3.04965 3 3.75828 2.29412 4.58501 2.17647C4.64406 2.17647 5.88416 2 8.01005 2C10.1359 2 11.4351 2.17647 11.4351 2.17647C12.2618 2.29412 12.9704 3 13.1476 3.76471L13.9743 8.23529C14.0924 9 13.7972 9.88235 13.2067 10.3529L9.1911 13.5882C8.89583 13.8824 8.48247 14 8.01005 14ZM8.01005 2.70588C5.94322 2.70588 4.70312 2.88235 4.64406 2.88235C4.17165 2.94118 3.64017 3.41176 3.58112 3.88235L2.75439 8.35294C2.63628 8.82353 2.87249 9.47059 3.28586 9.76471L7.30142 13C7.47858 13.1765 7.71479 13.2353 8.01005 13.2353C8.30531 13.2353 8.54152 13.1765 8.71868 13L12.7342 9.76471C13.1476 9.47059 13.3838 8.82353 13.2657 8.35294L12.439 3.88235C12.3209 3.41176 11.8485 2.94118 11.376 2.88235C11.317 2.88235 10.0769 2.70588 8.01005 2.70588Z" fill="#393939"/>
</svg>
