<svg width="16" height="16" viewBox="0 0 16 16" fill="none" xmlns="http://www.w3.org/2000/svg">
<path d="M3.37947 3.02051C3.66046 3.02051 3.89036 2.79061 3.89036 2.51473C3.89036 2.22863 3.66046 2.00383 3.37947 2.00383H2.50584C2.22485 2.00383 2.00006 2.22863 2.00006 2.51473C2.00006 2.79061 2.22485 3.02051 2.50584 3.02051H3.37947Z" fill="#393939"/>
<path d="M11.8807 2.92344C12.1106 2.92344 12.2945 2.74463 12.2945 2.51472C12.2945 2.27971 12.1106 2.1009 11.8807 2.1009H5.4128C5.17779 2.1009 4.99897 2.27971 4.99897 2.51472C4.99897 2.74463 5.17779 2.92344 5.4128 2.92344H11.8807Z" fill="#393939"/>
<path d="M3.37947 5.17931C3.66046 5.17931 3.89036 4.94941 3.89036 4.66842C3.89036 4.38743 3.66046 4.16264 3.37947 4.16264H2.50584C2.22485 4.16264 2.00006 4.38743 2.00006 4.66842C2.00006 4.94941 2.22485 5.17931 2.50584 5.17931H3.37947Z" fill="#393939"/>
<path d="M11.8807 5.08224C12.1106 5.08224 12.2945 4.89832 12.2945 4.66842C12.2945 4.43852 12.1106 4.2597 11.8807 4.2597H5.41278C5.17777 4.2597 4.99896 4.43852 4.99896 4.66842C4.99896 4.89832 5.17777 5.08224 5.41278 5.08224H11.8807Z" fill="#393939"/>
<path d="M3.37947 7.33811C3.66046 7.33811 3.89036 7.10821 3.89036 6.83233C3.89036 6.54623 3.66046 6.32144 3.37947 6.32144H2.50584C2.22485 6.32144 2.00006 6.54623 2.00006 6.83233C2.00006 7.10821 2.22485 7.33811 2.50584 7.33811H3.37947Z" fill="#393939"/>
<path d="M10.3417 10.6974C10.3417 10.8318 10.4458 10.9326 10.5768 10.9326H12.3303C12.4647 10.9326 12.5655 10.8318 12.5655 10.6974C12.5655 10.5664 12.4647 10.4657 12.3303 10.4657H10.8086V8.43334C10.8086 8.30233 10.7078 8.20155 10.5768 8.20155C10.4458 8.20155 10.3417 8.30233 10.3417 8.43334V10.6974Z" fill="#393939"/>
<path fill-rule="evenodd" clip-rule="evenodd" d="M11.8807 7.24104C12.1106 7.24104 12.2945 7.06223 12.2945 6.83233C12.2945 6.59732 12.1106 6.41851 11.8807 6.41851H5.41278C5.17777 6.41851 4.99896 6.59732 4.99896 6.83233C4.99896 7.06223 5.17777 7.24104 5.41278 7.24104H9.77181C8.96959 7.43873 8.27236 7.92373 7.79855 8.57731H5.24941C5.10718 8.57731 4.99896 8.75612 4.99896 8.99113C4.99896 9.22103 5.10718 9.39984 5.24941 9.39984H7.3576C7.22161 9.76605 7.14714 10.1604 7.14714 10.5698C7.14714 12.4442 8.69908 13.9962 10.5735 13.9962C12.4446 13.9962 13.9999 12.4442 13.9999 10.5698C13.9999 8.97484 12.8722 7.60935 11.3805 7.24104H11.8807ZM13.4255 10.5698C13.4255 12.1553 12.1591 13.4251 10.5735 13.4251C8.988 13.4251 7.71487 12.1553 7.71823 10.5698C7.72159 8.9876 8.99136 7.71446 10.5769 7.71446C12.1624 7.71446 13.4255 8.9876 13.4255 10.5698Z" fill="#393939"/>
<path d="M3.37947 9.49691C3.66046 9.49691 3.89036 9.26701 3.89036 8.99113C3.89036 8.70503 3.66046 8.48024 3.37947 8.48024H2.50584C2.22485 8.48024 2.00006 8.70503 2.00006 8.99113C2.00006 9.26701 2.22485 9.49691 2.50584 9.49691H3.37947Z" fill="#393939"/>
</svg>
