<svg width="16" height="16" viewBox="0 0 16 16" fill="none" xmlns="http://www.w3.org/2000/svg">
<path fill-rule="evenodd" clip-rule="evenodd" d="M7.51032 3.00136L7.64251 3.07111L11.0024 4.97884C11.3648 5.19023 11.5468 5.46046 11.5769 5.87865L11.5814 6.00863V7.35138C11.3328 7.35138 11.0909 7.38347 10.8597 7.44367L10.86 6.16049L7.16321 8.27228V12.2111L8.84516 11.2547C8.93235 11.4929 9.04994 11.7167 9.19306 11.9215L7.18693 13.0606C6.95025 13.1935 6.72809 13.2101 6.49822 13.1104L6.39917 13.0606L2.66438 10.944C2.26575 10.7119 2.03695 10.4838 2.00411 9.91628L2 9.76714V6.00863C2 5.55996 2.14904 5.26816 2.47919 5.04411L2.58371 4.97884L5.93884 3.07111C6.46889 2.76885 6.98276 2.7456 7.51032 3.00136ZM11.5814 7.84428C12.9097 7.84428 14 8.93934 14 10.2629C14 11.5865 12.8954 12.6816 11.5814 12.6816C10.2578 12.6816 9.16271 11.596 9.16271 10.2629C9.16271 8.93934 10.2578 7.84428 11.5814 7.84428ZM2.72133 6.16049V9.74341C2.72133 9.97179 2.794 10.1202 2.99656 10.2587L3.09149 10.3176L6.41815 12.2111V8.27228L2.72133 6.16049ZM11.452 9.09969C11.3886 9.09969 11.3506 9.13138 11.2796 9.19097L10.2793 10.1266C10.2324 10.1735 10.2146 10.2205 10.2146 10.2636C10.2146 10.3054 10.2324 10.3523 10.2793 10.3992L11.2796 11.3438C11.343 11.3983 11.3912 11.4262 11.4546 11.4262C11.5395 11.4262 11.6029 11.3628 11.6029 11.2778V10.7935H11.6397C12.1303 10.7935 12.4409 10.9178 12.6616 11.3324C12.7059 11.4135 12.7642 11.4262 12.8175 11.4262C12.886 11.4262 12.9481 11.3653 12.9481 11.2563C12.9481 10.3193 12.5513 9.73487 11.6397 9.73487H11.6029V9.25563C11.6029 9.17069 11.5395 9.09969 11.452 9.09969ZM6.37763 3.6877L6.2568 3.74973L3.12945 5.53407L6.79305 7.6079L10.4566 5.53407L7.3293 3.74973C7.00027 3.5599 6.69749 3.54256 6.37763 3.6877Z" fill="#393939"/>
</svg>
