<svg width="16" height="16" viewBox="0 0 16 16" fill="none" xmlns="http://www.w3.org/2000/svg">
<path fill-rule="evenodd" clip-rule="evenodd" d="M8.45945 13.8679L12.7846 11.4137C13.2908 11.1221 13.5549 10.836 13.5549 10.0491V5.69093C13.5549 5.11865 13.3458 4.76648 12.8836 4.49685L8.98771 2.28476C8.32188 1.90508 7.67807 1.90508 7.01224 2.28476L3.12184 4.49685C2.65411 4.76648 2.44501 5.11865 2.44501 5.69093V10.0491C2.44501 10.836 2.71464 11.1221 3.21538 11.4137L7.546 13.8679C7.85416 14.044 8.1458 14.044 8.45945 13.8679ZM10.589 6.08162L6.32441 3.67144L7.38092 3.07165C7.80463 2.82953 8.19532 2.82403 8.62453 3.07165L12.2508 5.14066L10.589 6.08162ZM8.00273 7.54534L3.75465 5.14066L5.45498 4.16669L9.70306 6.58237L8.00273 7.54534ZM7.56802 12.883L3.71063 10.6874C3.39147 10.5058 3.28142 10.3242 3.28142 10.0216V5.86702L7.56802 8.31572V12.883ZM8.43194 12.883V8.31572L12.7185 5.86702V10.0216C12.7185 10.3242 12.6085 10.5058 12.2948 10.6874L8.43194 12.883ZM10.1126 7.31984V8.33987C10.1126 8.71087 10.5076 8.94837 10.8352 8.77436C10.96 8.70813 11.0379 8.57846 11.0379 8.43725V6.84185L10.1126 7.31984Z" fill="#393939"/>
</svg>
