<svg width="16" height="16" viewBox="0 0 16 16" fill="none" xmlns="http://www.w3.org/2000/svg">
<path d="M13.899 7.99019L12.8049 9.55047C12.643 9.78108 12.4074 9.77617 12.2504 9.55047L11.1514 7.98528C10.9649 7.71542 11.0532 7.47991 11.4016 7.47991H12.1327C11.8775 5.41425 10.1357 3.82944 8.00136 3.82944C6.74529 3.82944 5.61678 4.38388 4.85136 5.25724C4.68945 5.43878 4.45884 5.48294 4.26748 5.34556C4.07122 5.20818 4.04669 4.94813 4.23314 4.73715C5.15557 3.67243 6.50487 2.99533 8.00136 2.99533C10.5577 2.99533 12.7116 4.98248 12.9766 7.47991H13.6488C14.0021 7.47991 14.0953 7.71542 13.899 7.99019Z" fill="#393939"/>
<path d="M11.7745 11.2629C10.8521 12.3227 9.49786 13.0047 8.00136 13.0047C5.44015 13.0047 3.29108 11.0224 3.02613 8.525H2.34903C1.99576 8.525 1.90744 8.28458 2.09879 8.01472L3.19786 6.45444C3.35977 6.22383 3.59529 6.22874 3.7523 6.45444L4.85136 8.01963C5.03781 8.28458 4.94949 8.525 4.60113 8.525H3.86515C4.12029 10.5907 5.86211 12.1706 8.00136 12.1706C9.26725 12.1706 10.3958 11.621 11.1563 10.7428C11.3133 10.5612 11.5488 10.5121 11.7402 10.6495C11.9315 10.7869 11.956 11.0519 11.7745 11.2629Z" fill="#393939"/>
<path fill-rule="evenodd" clip-rule="evenodd" d="M10.2148 9.46305L8.21269 10.5149C8.0675 10.5903 7.9325 10.5903 7.78985 10.5149L5.78518 9.46305C5.55339 9.33806 5.42857 9.21542 5.42857 8.87819V7.01041C5.42857 6.76514 5.52537 6.61421 5.74188 6.49865L7.54277 5.55061C7.85099 5.38789 8.14901 5.38789 8.45723 5.55061L10.2607 6.49865C10.4746 6.61421 10.5714 6.76514 10.5714 7.01041V8.87819C10.5714 9.21542 10.4492 9.33806 10.2148 9.46305ZM7.22438 6.14491L9.19848 7.17784L9.96774 6.77457L8.28912 5.88785C8.09044 5.78173 7.90958 5.78408 7.71345 5.88785L7.22438 6.14491ZM6.03485 6.77457L8.00131 7.80515L8.7884 7.39245L6.82194 6.35715L6.03485 6.77457ZM6.01446 9.15175L7.80007 10.0927V8.13532L5.81577 7.08587V8.86639C5.81577 8.9961 5.86672 9.07392 6.01446 9.15175ZM8.19996 8.13532V10.0927L9.98812 9.15175C10.1333 9.07392 10.1843 8.9961 10.1843 8.86639V7.08587L9.28093 7.56362L8.97795 7.70851V7.72386L8.19996 8.13532ZM8.97795 7.72386V8.12941C8.97795 8.2986 9.15543 8.4091 9.30725 8.33446C9.3679 8.30464 9.40631 8.24294 9.40631 8.17537V7.50366L9.28093 7.56362L8.97795 7.72386Z" fill="#393939"/>
</svg>
