<svg width="16" height="16" viewBox="0 0 16 16" fill="none" xmlns="http://www.w3.org/2000/svg">
<path d="M4.77735 7.66201H8.29619V8.36513H4.77735V7.66201Z" fill="#393939"/>
<path d="M8.29619 9.07119H4.77735V9.77431H8.29619V9.07119Z" fill="#393939"/>
<path fill-rule="evenodd" clip-rule="evenodd" d="M12.5876 10.4803V12.5926H4.80473V10.4803H12.5876ZM11.8845 11.1835H5.50785V11.8895H11.8845V11.1835Z" fill="#393939"/>
<path d="M8.29619 6.25283H4.77735V6.95595H8.29619V6.25283Z" fill="#393939"/>
<path d="M9.10166 7.66201H12.6279V8.36513H9.10166V7.66201Z" fill="#393939"/>
<path d="M12.6279 6.25283H9.10166V6.95595H12.6279V6.25283Z" fill="#393939"/>
<path d="M9.10166 9.07119H12.6279V9.77431H9.10166V9.07119Z" fill="#393939"/>
<path fill-rule="evenodd" clip-rule="evenodd" d="M6.60727 5.54677H10.7851V3.85876H10.2838V3.68996H9.67797C9.61265 3.66063 9.50445 3.61348 9.3858 3.56176C9.16298 3.46464 8.9033 3.35146 8.82152 3.31016L8.69618 3.26796L8.57085 3.31016C8.48906 3.35146 8.22939 3.46464 8.00657 3.56176C7.88792 3.61347 7.77972 3.66063 7.71439 3.68996H7.10861V3.85876H6.60727V5.54677ZM10.4053 5.16697H6.98707V4.20966H7.48127V4.04317H7.81074L7.85192 4.02236C7.89997 4.00155 7.99149 3.95993 8.09826 3.91137C8.3118 3.81425 8.58636 3.68938 8.69618 3.64776C8.80601 3.68938 9.08056 3.81425 9.2941 3.91137C9.40087 3.95993 9.49239 4.00155 9.54044 4.02236L9.58163 4.04317H9.91109V4.20966H10.4053V5.16697Z" fill="#393939"/>
<path fill-rule="evenodd" clip-rule="evenodd" d="M3.40333 2V4.85654H1.99902V12.9463C1.99902 13.527 2.4712 13.9994 3.05177 14L12.9463 14C13.5279 14 14.001 13.5269 14.001 12.9453V2H3.40333ZM2.70215 12.9463V5.55966H3.40333V12.9453C3.40333 13.139 3.24588 13.2966 3.05226 13.2969C2.85916 13.2966 2.70215 13.1394 2.70215 12.9463ZM12.9463 13.2969C13.1401 13.2969 13.2978 13.1392 13.2978 12.9453L13.2979 2.70312H4.10645V12.9453L4.10631 12.9518C4.10591 13.0246 4.09804 13.0975 4.08264 13.1686L4.08123 13.1747C4.07198 13.2164 4.0603 13.2572 4.04624 13.2969H12.9463Z" fill="#393939"/>
</svg>
