<svg width="16" height="16" viewBox="0 0 16 16" fill="none" xmlns="http://www.w3.org/2000/svg">
<path d="M14 10.1428C14 11.0248 13.5504 11.4701 12.6555 11.4701H6.91509C7.01081 11.2527 7.07962 11.0215 7.11706 10.7808H12.6469C13.0708 10.7808 13.3106 10.5538 13.3106 10.1086V5.69845C13.3106 5.25316 13.0708 5.02623 12.6469 5.02623H11.4866C11.1012 5.02623 10.8914 4.95345 10.6816 4.71367L10.3434 4.33689C10.0993 4.06286 9.97517 3.99436 9.59411 3.99436H8.31389C7.93711 3.99436 7.81294 4.06286 7.5646 4.33689L7.23063 4.71367C7.01655 4.95345 6.81103 5.02623 6.42568 5.02623H5.29105C4.87144 5.02623 4.62739 5.25316 4.62739 5.69845V7.56037C4.53177 7.55036 4.43479 7.54523 4.33669 7.54523C4.20155 7.54523 4.06845 7.55504 3.93809 7.57399V5.65992C3.93809 4.7779 4.38767 4.33689 5.28253 4.33689H6.25447C6.58844 4.33689 6.69548 4.2641 6.88387 4.0543L7.2264 3.66895C7.44049 3.43346 7.65885 3.30501 8.09986 3.30501H9.80824C10.2493 3.30501 10.4676 3.43346 10.6817 3.66895L11.0285 4.0543C11.2169 4.26838 11.3239 4.33689 11.6579 4.33689H12.6555C13.5504 4.33689 14 4.7779 14 5.65992V10.1428Z" fill="#393939"/>
<path fill-rule="evenodd" clip-rule="evenodd" d="M8.96898 10.1C10.2663 10.1 11.3068 9.05955 11.3068 7.75793C11.3068 6.45631 10.2663 5.41587 8.96898 5.41587C7.67592 5.41587 6.63548 6.45631 6.63548 7.75793C6.63548 9.05955 7.67592 10.1 8.96898 10.1ZM8.96897 9.44918C8.03985 9.44918 7.282 8.69561 7.282 7.75793C7.282 6.82025 8.03557 6.06668 8.96897 6.06668C9.90237 6.06668 10.6602 6.82025 10.6602 7.75793C10.6602 8.69561 9.90237 9.44918 8.96897 9.44918Z" fill="#393939"/>
<path d="M12.5785 6.18656C12.5785 6.47771 12.3387 6.71321 12.0476 6.71321C11.7564 6.71321 11.5167 6.47771 11.5167 6.18656C11.5167 5.89113 11.7564 5.65564 12.0476 5.65564C12.3387 5.65564 12.5785 5.89113 12.5785 6.18656Z" fill="#393939"/>
<path fill-rule="evenodd" clip-rule="evenodd" d="M4.33677 12.695C5.60636 12.695 6.67355 11.637 6.67355 10.3582C6.67355 9.07943 5.62016 8.02144 4.33677 8.02144C3.05799 8.02144 2 9.07943 2 10.3582C2 11.6462 3.05799 12.695 4.33677 12.695ZM4.03778 11.5956C4.03778 11.7658 4.18037 11.8762 4.34137 11.8762C4.49777 11.8762 4.64037 11.7658 4.64037 11.5956V10.6388H5.51896C5.67536 10.6388 5.79956 10.51 5.79956 10.3582C5.79956 10.2064 5.67536 10.0776 5.51896 10.0776H4.64037V9.12543C4.64037 8.95063 4.49777 8.84023 4.34137 8.84023C4.18037 8.84023 4.03778 8.95063 4.03778 9.12543V10.0776H3.15919C3.00279 10.0776 2.87399 10.2064 2.87399 10.3582C2.87399 10.51 3.00279 10.6388 3.15919 10.6388H4.03778V11.5956Z" fill="#393939"/>
</svg>
