<svg width="16" height="16" viewBox="0 0 16 16" fill="none" xmlns="http://www.w3.org/2000/svg">
<path fill-rule="evenodd" clip-rule="evenodd" d="M9.70962 10.6982C10.5199 10.6982 11.006 10.2282 11.006 9.41796V5.40311C11.006 4.58879 10.5604 4.12289 9.75013 4.12289H5.3585C4.58065 4.12289 4.06208 4.58879 4.06208 5.40311V7.20594C5.49625 7.20594 6.67518 8.38488 6.67518 9.81904C6.67518 10.1269 6.61846 10.4267 6.51718 10.6982H9.70962ZM13.4815 10.0783C13.7934 10.0783 14 9.85145 14 9.51924V5.30182C14 4.96962 13.7934 4.74274 13.4815 4.74274C13.3356 4.74274 13.1736 4.81567 13.0318 4.94126L11.5611 6.21337V8.6077L13.0318 9.87981C13.1736 10.0014 13.3356 10.0783 13.4815 10.0783ZM4.05807 11.8771C5.17623 11.8771 6.11614 10.9453 6.11614 9.81904C6.11614 8.69278 5.18839 7.76097 4.05807 7.76097C2.9318 7.76097 2 8.69278 2 9.81904C2 10.9534 2.9318 11.8771 4.05807 11.8771ZM4.06215 11.156C3.92035 11.156 3.79476 11.0587 3.79476 10.9088V10.0662H3.02096C2.88321 10.0662 2.76978 9.95273 2.76978 9.81904C2.76978 9.68535 2.88321 9.57191 3.02096 9.57191H3.79476V8.73329C3.79476 8.57934 3.92035 8.48211 4.06215 8.48211C4.19989 8.48211 4.32548 8.57934 4.32548 8.73329V9.57191H5.09928C5.23703 9.57191 5.34641 9.68535 5.34641 9.81904C5.34641 9.95273 5.23703 10.0662 5.09928 10.0662H4.32548V10.9088C4.32548 11.0587 4.19989 11.156 4.06215 11.156Z" fill="#393939"/>
</svg>
