<svg width="16" height="16" viewBox="0 0 16 16" fill="none" xmlns="http://www.w3.org/2000/svg">
<path d="M10.6828 7.75777C10.6828 8.68914 9.93006 9.43764 9.00294 9.43764C8.08008 9.43764 7.32732 8.68914 7.32732 7.75777C7.32732 6.82639 8.07582 6.0779 9.00294 6.0779C9.93006 6.0779 10.6828 6.82639 10.6828 7.75777Z" fill="#393939"/>
<path fill-rule="evenodd" clip-rule="evenodd" d="M12.6646 11.445C13.5534 11.445 14 11.0027 14 10.1266V5.67388C14 4.79779 13.5534 4.35975 12.6646 4.35975H11.6737C11.3419 4.35975 11.2356 4.2917 11.0485 4.07906L10.704 3.69631C10.4914 3.4624 10.2745 3.33482 9.83643 3.33482H8.13955C7.7015 3.33482 7.48461 3.4624 7.27197 3.69631L6.93174 4.07906C6.74462 4.28745 6.6383 4.35975 6.30657 4.35975H5.34118C4.45234 4.35975 4.00579 4.79779 4.00579 5.67388V7.56331C4.10667 7.55206 4.20906 7.54628 4.31266 7.54628C5.85387 7.54628 7.11887 8.8168 7.11887 10.3525C7.11887 10.7388 7.03779 11.1083 6.89215 11.445H12.6646ZM9.00289 10.0841C7.71853 10.0841 6.68509 9.05063 6.68509 7.75777C6.68509 6.4649 7.71853 5.43146 9.00289 5.43146C10.2915 5.43146 11.3249 6.4649 11.3249 7.75777C11.3249 9.05063 10.2915 10.0841 9.00289 10.0841ZM11.5333 6.19697C11.5333 6.48617 11.7715 6.72007 12.0607 6.72007C12.3499 6.72007 12.588 6.48617 12.588 6.19697C12.588 5.90353 12.3499 5.66962 12.0607 5.66962C11.7715 5.66962 11.5333 5.90353 11.5333 6.19697Z" fill="#393939"/>
<path fill-rule="evenodd" clip-rule="evenodd" d="M6.6254 10.3525C6.6254 11.6181 5.56921 12.6652 4.3127 12.6652C3.04709 12.6652 2 11.6272 2 10.3525C2 9.08687 3.04709 8.03979 4.3127 8.03979C5.58286 8.03979 6.6254 9.08687 6.6254 10.3525ZM4.31726 11.8548C4.15792 11.8548 4.01679 11.7456 4.01679 11.5771V10.6302H3.14725C2.99246 10.6302 2.86499 10.5027 2.86499 10.3525C2.86499 10.2023 2.99246 10.0748 3.14725 10.0748H4.01679V9.1324C4.01679 8.9594 4.15792 8.85014 4.31726 8.85014C4.47204 8.85014 4.61317 8.9594 4.61317 9.1324V10.0748H5.48271C5.6375 10.0748 5.76042 10.2023 5.76042 10.3525C5.76042 10.5027 5.6375 10.6302 5.48271 10.6302H4.61317V11.5771C4.61317 11.7456 4.47204 11.8548 4.31726 11.8548Z" fill="#393939"/>
</svg>
