<svg width="16" height="16" viewBox="0 0 16 16" fill="none" xmlns="http://www.w3.org/2000/svg">
<path fill-rule="evenodd" clip-rule="evenodd" d="M9.70368 10.8098C10.7126 10.8098 11.3164 10.2226 11.3164 9.21778V8.65128L12.8794 9.97037C13.0407 10.1068 13.2268 10.2019 13.3963 10.2019C13.7602 10.2019 14 9.93729 14 9.55272V5.27292C14 4.88835 13.7602 4.62371 13.3963 4.62371C13.2268 4.62371 13.0407 4.71468 12.8794 4.85527L11.3164 6.17436V5.60786C11.3164 4.5989 10.7126 4.01585 9.70368 4.01585H5.38253C4.41905 4.01585 3.76985 4.5989 3.76985 5.60786V7.23708C3.88149 7.22467 3.99314 7.2164 4.10065 7.2164C4.2123 7.2164 4.32395 7.22467 4.43559 7.23708V5.7071C4.43559 4.9876 4.82016 4.63611 5.49831 4.63611H9.5879C10.2619 4.63611 10.6506 4.9876 10.6506 5.7071V9.11854C10.6506 9.83804 10.2619 10.1895 9.5879 10.1895H6.74297C6.72229 10.4045 6.67681 10.6154 6.59824 10.8098H9.70368ZM13.2887 9.45762C13.2515 9.45762 13.2267 9.43694 13.1895 9.408L11.3163 7.86148V6.96003L13.1895 5.41764C13.2267 5.38456 13.2515 5.36802 13.2887 5.36802C13.3384 5.36802 13.359 5.40524 13.359 5.46313V9.36251C13.359 9.41627 13.3384 9.45762 13.2887 9.45762ZM4.10062 11.9841C5.2419 11.9841 6.20124 11.0331 6.20124 9.88353C6.20124 8.73398 5.25431 7.78291 4.10062 7.78291C2.95107 7.78291 2 8.73398 2 9.88353C2 11.0414 2.95107 11.9841 4.10062 11.9841ZM4.10477 11.2481C3.96004 11.2481 3.83185 11.1489 3.83185 10.9959V10.1358H3.04205C2.90146 10.1358 2.78568 10.02 2.78568 9.88353C2.78568 9.74707 2.90146 9.63129 3.04205 9.63129H3.83185V8.77533C3.83185 8.6182 3.96004 8.51895 4.10477 8.51895C4.24536 8.51895 4.37355 8.6182 4.37355 8.77533V9.63129H5.16335C5.30394 9.63129 5.41559 9.74707 5.41559 9.88353C5.41559 10.02 5.30394 10.1358 5.16335 10.1358H4.37355V10.9959C4.37355 11.1489 4.24536 11.2481 4.10477 11.2481Z" fill="#393939"/>
</svg>
