<svg width="16" height="16" viewBox="0 0 16 16" fill="none" xmlns="http://www.w3.org/2000/svg">
<path fill-rule="evenodd" clip-rule="evenodd" d="M7.99993 9.09435C6.92259 9.09435 6.06208 8.23157 6.06208 7.15422C6.06208 6.07917 6.9203 5.2141 7.99765 5.2141C9.07499 5.2141 9.93777 6.07917 9.94006 7.15422C9.94234 8.23157 9.07727 9.09435 7.99993 9.09435ZM8.81938 7.27292L7.59824 7.99419C7.49781 8.05353 7.38368 8.00788 7.38368 7.90289V6.40785C7.38368 6.30513 7.50466 6.26177 7.59824 6.31655L8.81938 7.04238C8.90612 7.0926 8.9084 7.21814 8.81938 7.27292Z" fill="#393939"/>
<path fill-rule="evenodd" clip-rule="evenodd" d="M12.8314 10.9284C13.6089 10.9284 14 10.5555 14 9.75976V4.54869C14 3.75294 13.6089 3.38007 12.8314 3.38007H3.16862C2.39106 3.38007 2 3.75294 2 4.54869V9.75976C2 10.5555 2.39106 10.9284 3.16862 10.9284H7.23048L6.38684 11.9338C6.33223 11.9989 6.38608 12.1354 6.50845 12.2381C6.63081 12.3408 6.77461 12.3701 6.82922 12.305L7.71125 11.2538V12.4667C7.71125 12.5516 7.84027 12.6199 8 12.6199C8.15973 12.6199 8.28875 12.5516 8.28875 12.4667V11.2539L9.17179 12.3063C9.2264 12.3714 9.36913 12.3408 9.4915 12.2381C9.61386 12.1354 9.66879 12.0002 9.61418 11.9351L8.76946 10.9284H12.8314ZM7.99999 9.48238C9.27363 9.48238 10.3281 8.42786 10.3281 7.15423C10.3281 5.88287 9.27135 4.82607 7.99771 4.82607C6.72636 4.82607 5.67184 5.88287 5.67184 7.15423C5.67184 8.42786 6.72864 9.48238 7.99999 9.48238Z" fill="#393939"/>
</svg>
