<svg width="16" height="16" viewBox="0 0 16 16" fill="none" xmlns="http://www.w3.org/2000/svg">
<path fill-rule="evenodd" clip-rule="evenodd" d="M12.8314 10.9284C13.6089 10.9284 14 10.5555 14 9.75976V4.54869C14 3.75294 13.6089 3.38007 12.8314 3.38007H3.16862C2.39106 3.38007 2 3.75294 2 4.54869V9.75976C2 10.5555 2.39106 10.9284 3.16862 10.9284H12.8314ZM7.70445 12.4668C7.70445 12.5517 7.83347 12.6199 7.9932 12.6199C8.15293 12.6199 8.28194 12.5517 8.28194 12.4668V10.3511C8.28194 10.2662 8.15293 10.1963 7.9932 10.1963C7.83347 10.1963 7.70445 10.2662 7.70445 10.3511V12.4668ZM9.00766 12.1206C9.05639 12.1787 9.19439 12.1424 9.31675 12.0398C9.43912 11.9371 9.49877 11.8075 9.45005 11.7494L8.23568 10.3022C8.18696 10.2441 8.048 10.2792 7.92564 10.3819C7.80327 10.4846 7.74457 10.6153 7.7933 10.6734L9.00766 12.1206ZM8.19399 10.6722C8.24272 10.6142 8.18306 10.4846 8.0607 10.3819C7.93833 10.2792 7.80033 10.243 7.7516 10.301L6.53724 11.7483C6.48851 11.8063 6.54722 11.9371 6.66958 12.0398C6.79194 12.1424 6.9309 12.1775 6.97963 12.1195L8.19399 10.6722ZM12.8177 10.1963H3.18228C2.86852 10.1963 2.73211 10.069 2.73211 9.75066V4.56233C2.73211 4.23948 2.86852 4.11216 3.18228 4.11216H12.8177C13.1315 4.11216 13.2679 4.23948 13.2679 4.56233V9.75066C13.2679 10.069 13.1315 10.1963 12.8177 10.1963ZM10.3213 7.15422C10.3213 8.42786 9.26683 9.48238 7.99319 9.48238C6.72184 9.48238 5.66504 8.42786 5.66504 7.15422C5.66504 5.88287 6.71956 4.82607 7.99091 4.82607C9.26455 4.82607 10.3213 5.88287 10.3213 7.15422ZM7.35181 6.36904V7.93941C7.35181 8.04897 7.4705 8.09918 7.57777 8.03527L8.85826 7.27748C8.95412 7.22042 8.95184 7.09032 8.85826 7.03553L7.57777 6.27546C7.47734 6.2184 7.35181 6.26405 7.35181 6.36904Z" fill="#393939"/>
</svg>
