<svg width="16" height="16" viewBox="0 0 16 16" fill="none" xmlns="http://www.w3.org/2000/svg">
<path d="M7.875 2C6.83947 2 6 2.83947 6 3.875V8.375C6 9.41053 6.83947 10.25 7.875 10.25C8.91053 10.25 9.75 9.41053 9.75 8.375V3.875C9.75 2.83947 8.91053 2 7.875 2Z" fill="#393939"/>
<path d="M11.3083 7.50341C11.5826 7.53561 11.7788 7.78404 11.7466 8.0583C11.4708 10.4081 10.0857 11.8364 8.50002 12.1729V13H9.25002C9.52616 13 9.75002 13.2239 9.75002 13.5C9.75002 13.7761 9.52616 14 9.25002 14H6.50002C6.22387 14 6.00002 13.7761 6.00002 13.5C6.00002 13.2239 6.22387 13 6.50002 13H7.50002V12.2401C5.72067 12.1059 4.15292 10.6196 4.00087 8.0293C3.98469 7.75363 4.19505 7.51704 4.47072 7.50086C4.74639 7.48468 4.98298 7.69503 4.99916 7.9707C5.13309 10.2525 6.4961 11.25 7.76496 11.25C9.04665 11.25 10.4843 10.2341 10.7534 7.9417C10.7856 7.66745 11.0341 7.47121 11.3083 7.50341Z" fill="#393939"/>
</svg>
