<svg width="16" height="16" viewBox="0 0 16 16" fill="none" xmlns="http://www.w3.org/2000/svg">
<path fill-rule="evenodd" clip-rule="evenodd" d="M8 14C11.2824 14 14 11.2824 14 8C14 4.72353 11.2765 2 7.99412 2C4.71765 2 2 4.72353 2 8C2 11.2824 4.72353 14 8 14ZM8 13C5.22353 13 3.00588 10.7765 3.00588 8C3.00588 5.22941 5.21765 3 7.99412 3C10.7706 3 12.9941 5.22941 13 8C13.0059 10.7765 10.7765 13 8 13ZM6.94706 10.2294C7.22941 10.2294 7.35882 10.0765 7.35882 9.85294V6.15294C7.35882 5.92941 7.22941 5.77647 6.94706 5.77647H6.38824C6.10588 5.77647 5.97647 5.92941 5.97647 6.15294V9.85294C5.97647 10.0765 6.10588 10.2294 6.38824 10.2294H6.94706ZM9.61176 10.2294C9.88824 10.2294 10.0176 10.0765 10.0176 9.85294V6.15294C10.0176 5.92941 9.88824 5.77647 9.61176 5.77647H9.05294C8.77059 5.77647 8.64118 5.92941 8.64118 6.15294V9.85294C8.64118 10.0765 8.77059 10.2294 9.05294 10.2294H9.61176Z" fill="#393939"/>
</svg>
