<svg width="16" height="16" viewBox="0 0 16 16" fill="none" xmlns="http://www.w3.org/2000/svg">
<path fill-rule="evenodd" clip-rule="evenodd" d="M8 14C11.2824 14 14 11.2824 14 8C14 4.72353 11.2765 2 7.99412 2C4.71765 2 2 4.72353 2 8C2 11.2824 4.72353 14 8 14ZM7 10.1235H6.46471C6.19412 10.1235 6.07059 9.98235 6.07059 9.76471V6.24118C6.07059 6.02941 6.19412 5.88235 6.46471 5.88235H7C7.26471 5.88235 7.38824 6.02941 7.38824 6.24118V9.76471C7.38824 9.98235 7.26471 10.1235 7 10.1235ZM9.53529 10.1235H9C8.73529 10.1235 8.60588 9.98235 8.60588 9.76471V6.24118C8.60588 6.02941 8.73529 5.88235 9 5.88235H9.53529C9.8 5.88235 9.92353 6.02941 9.92353 6.24118V9.76471C9.92353 9.98235 9.8 10.1235 9.53529 10.1235Z" fill="#393939"/>
</svg>
