<svg width="16" height="16" viewBox="0 0 16 16" fill="none" xmlns="http://www.w3.org/2000/svg">
<path fill-rule="evenodd" clip-rule="evenodd" d="M12.402 12.6845C13.4707 12.6845 14 12.1552 14 11.1069V4.89313C14 3.84478 13.4707 3.31552 12.402 3.31552H3.59796C2.53435 3.31552 2 3.83969 2 4.89313V11.1069C2 12.1603 2.53435 12.6845 3.59796 12.6845H12.402ZM12.397 11.8651H3.60817C3.11454 11.8651 2.81937 11.57 2.81937 11.0712V10.7608L4.38171 9.39695C4.60563 9.19847 4.84991 9.09669 5.07382 9.09669C5.32319 9.09669 5.58273 9.19847 5.80665 9.40712L6.77866 10.2824L9.21123 8.12468C9.46059 7.90076 9.74049 7.79898 10.0306 7.79898C10.3105 7.79898 10.6005 7.90585 10.8397 8.12977L13.1807 10.2977V11.0814C13.1807 11.57 12.8804 11.8651 12.397 11.8651Z" fill="#393939"/>
</svg>
