<svg width="16" height="16" viewBox="0 0 16 16" fill="none" xmlns="http://www.w3.org/2000/svg">
<path fill-rule="evenodd" clip-rule="evenodd" d="M12.402 12.6845C13.4707 12.6845 14 12.1552 14 11.1069V4.89313C14 3.84478 13.4707 3.31552 12.402 3.31552H3.59796C2.53435 3.31552 2 3.83969 2 4.89313V11.1069C2 12.1603 2.53435 12.6845 3.59796 12.6845H12.402ZM13.1807 10.5522L10.453 7.98728C10.224 7.78371 9.95932 7.67684 9.68451 7.67684C9.40461 7.67684 9.15525 7.77354 8.92115 7.98219L6.6209 10.0382L5.67942 9.18321C5.46568 8.99491 5.23158 8.89313 4.9924 8.89313C4.76339 8.89313 4.54965 8.98982 4.33591 9.17812L2.81937 10.5471V4.93384C2.81937 4.40458 3.09927 4.13486 3.60817 4.13486H12.3919C12.8957 4.13486 13.1807 4.40458 13.1807 4.93384V10.5522Z" fill="#393939"/>
</svg>
