<svg width="16" height="16" viewBox="0 0 16 16" fill="none" xmlns="http://www.w3.org/2000/svg">
<path fill-rule="evenodd" clip-rule="evenodd" d="M8 14C11.2824 14 14 11.2824 14 8C14 4.72353 11.2765 2 7.99412 2C4.71765 2 2 4.72353 2 8C2 11.2824 4.72353 14 8 14ZM8 13C5.22353 13 3.00588 10.7765 3.00588 8C3.00588 5.22941 5.21765 3 7.99412 3C10.7706 3 12.9941 5.22941 13 8C13.0059 10.7765 10.7765 13 8 13ZM6.96471 10.1647L10.1118 8.30588C10.3412 8.16471 10.3353 7.84118 10.1118 7.71176L6.96471 5.84118C6.72353 5.7 6.41176 5.81176 6.41176 6.07647V9.92941C6.41176 10.2 6.70588 10.3176 6.96471 10.1647Z" fill="#393939"/>
</svg>
