<svg width="16" height="16" viewBox="0 0 16 16" fill="none" xmlns="http://www.w3.org/2000/svg">
<path fill-rule="evenodd" clip-rule="evenodd" d="M8.00276 14C10.7338 14 12.9243 11.804 12.9243 9.06735C12.9243 8.79981 12.7348 8.60474 12.4617 8.60474C12.1997 8.60474 12.0269 8.79981 12.0269 9.06735C12.0269 11.3079 10.2378 13.1026 8.00276 13.1026C5.76774 13.1026 3.97304 11.3079 3.97304 9.06735C3.97304 6.83233 5.76774 5.0432 8.00276 5.0432C8.42636 5.0432 8.81651 5.07664 9.15093 5.14909L7.48442 6.80446C7.40081 6.89364 7.35622 7.00511 7.35622 7.12216C7.35622 7.37854 7.54573 7.56804 7.79654 7.56804C7.93588 7.56804 8.04178 7.52346 8.11981 7.43985L10.4161 5.13237C10.5165 5.03762 10.5555 4.92615 10.5555 4.79796C10.5555 4.67534 10.5053 4.55272 10.4161 4.46354L8.11981 2.13377C8.04178 2.04459 7.93031 2 7.79654 2C7.54573 2 7.35622 2.20065 7.35622 2.45704C7.35622 2.57408 7.40081 2.68556 7.47884 2.77473L8.967 4.23502C8.6493 4.17928 8.32603 4.14584 8.00276 4.14584C5.27169 4.14584 3.07568 6.33628 3.07568 9.06735C3.07568 11.804 5.27169 14 8.00276 14Z" fill="#393939"/>
</svg>
