<svg width="16" height="16" viewBox="0 0 16 16" fill="none" xmlns="http://www.w3.org/2000/svg">
<path fill-rule="evenodd" clip-rule="evenodd" d="M8.00276 14C10.7338 14 12.9243 11.804 12.9243 9.06735C12.9243 6.33628 10.7338 4.14584 8.00276 4.14584C7.67392 4.14584 7.35065 4.17928 7.03295 4.23502L8.52111 2.77473C8.60471 2.68556 8.64373 2.57408 8.64373 2.45704C8.64373 2.20065 8.45423 2 8.20899 2C8.06965 2 7.95817 2.04459 7.88014 2.13377L5.58381 4.46354C5.49463 4.55272 5.44447 4.67534 5.44447 4.79796C5.44447 4.92615 5.48906 5.03762 5.58381 5.13237L7.88014 7.43985C7.96375 7.52346 8.06965 7.56804 8.20341 7.56804C8.45423 7.56804 8.64373 7.37854 8.64373 7.12216C8.64373 7.00511 8.60471 6.89364 8.51553 6.80446L6.84902 5.14909C7.18901 5.07664 7.57359 5.0432 8.00276 5.0432C10.2378 5.0432 12.0269 6.83233 12.0269 9.06735C12.0269 11.3079 10.2378 13.1026 8.00276 13.1026C5.76774 13.1026 3.97304 11.3079 3.97304 9.06735C3.97304 8.79981 3.80583 8.60474 3.53829 8.60474C3.26519 8.60474 3.07568 8.79981 3.07568 9.06735C3.07568 11.804 5.27169 14 8.00276 14Z" fill="#393939"/>
</svg>
