<svg width="16" height="16" viewBox="0 0 16 16" fill="none" xmlns="http://www.w3.org/2000/svg">
<path fill-rule="evenodd" clip-rule="evenodd" d="M9.17596 6.35156C9.17596 7.00551 8.67535 7.47906 7.98757 7.47906C7.48922 7.47906 7.09459 7.22199 6.88036 6.7507C6.76536 6.49814 6.70898 6.19597 6.70898 5.83291C6.70898 4.74374 7.19156 4.09881 8.00561 4.09881C8.46789 4.09881 8.83771 4.30627 9.01134 4.61972C9.04742 4.68511 9.06546 4.74374 9.06546 4.80688C9.06546 4.9264 8.97752 5.01434 8.84447 5.01434C8.743 5.01434 8.6776 4.96699 8.59642 4.85198C8.44308 4.62648 8.25817 4.52275 8.0011 4.52275C7.49147 4.52275 7.20734 4.98277 7.19381 5.77654V5.80585H7.20283C7.33362 5.51044 7.66285 5.28043 8.10483 5.28043C8.72721 5.28043 9.17596 5.73594 9.17596 6.35156ZM7.98081 7.05287C7.59521 7.05287 7.29304 6.74619 7.29304 6.35833C7.29304 5.97272 7.58844 5.69084 7.98758 5.69084C8.38671 5.69084 8.6731 5.97497 8.6731 6.3696C8.6731 6.7507 8.36867 7.05287 7.98081 7.05287Z" fill="black"/>
<path d="M6.5512 6.5143C6.5512 7.08707 6.05059 7.47718 5.37184 7.47718C4.8374 7.47718 4.47435 7.26972 4.29395 6.94049C4.24885 6.85706 4.22855 6.77813 4.22855 6.69695C4.22855 6.56165 4.31424 6.47371 4.45631 6.47371C4.56455 6.47371 4.62769 6.52332 4.67955 6.64058C4.79005 6.8999 5.00202 7.0555 5.37409 7.0555C5.76872 7.0555 6.03481 6.83 6.03706 6.5143C6.03932 6.14222 5.77097 5.93476 5.33576 5.93476H5.11928C4.99074 5.93476 4.90956 5.85584 4.90956 5.73858C4.90956 5.62132 4.99074 5.54239 5.11928 5.54239H5.32223C5.6943 5.54239 5.94686 5.3214 5.94686 5.01923C5.94686 4.71706 5.75293 4.51636 5.36733 4.51636C5.0381 4.51636 4.85319 4.65392 4.74044 4.92452C4.68632 5.05531 4.6322 5.10266 4.51268 5.10266C4.37062 5.10266 4.29395 5.02148 4.29395 4.88618C4.29395 4.79824 4.31199 4.72382 4.35483 4.64039C4.51719 4.31792 4.87123 4.10144 5.36733 4.10144C6.0303 4.10144 6.43845 4.4645 6.43845 4.94932C6.43845 5.35523 6.15207 5.63034 5.75293 5.71377V5.72505C6.23099 5.76789 6.5512 6.05879 6.5512 6.5143Z" fill="black"/>
<path fill-rule="evenodd" clip-rule="evenodd" d="M11.7714 5.7833C11.7714 6.8206 11.3114 7.47681 10.5289 7.47681C9.74415 7.47681 9.28188 6.82286 9.28188 5.78556C9.28188 4.75502 9.75092 4.10107 10.5289 4.10107C11.3069 4.10107 11.7714 4.75276 11.7714 5.7833ZM10.529 7.05287C10.0577 7.05287 9.79384 6.57255 9.79384 5.78555C9.79384 5.00983 10.0644 4.52501 10.529 4.52501C10.9935 4.52501 11.2618 5.00758 11.2618 5.78555C11.2618 6.57481 10.998 7.05287 10.529 7.05287Z" fill="black"/>
<path d="M2 7.8876C2 7.07077 2.654 6.32984 3.71429 5.78868V6.59697C3.14905 6.99108 2.86291 7.45179 2.86291 7.8876C2.86291 8.87123 4.31 9.35542 6.2 9.69142V8.72217C6.2 8.45217 6.524 8.32017 6.71 8.50617L8.10434 10.0716C8.22434 10.1916 8.22434 10.3776 8.10434 10.4976L6.71 11.8103C6.524 12.0023 6.2 11.8703 6.2 11.6003V10.4976C3.764 10.1136 2 9.2316 2 7.8876Z" fill="black"/>
<path d="M13.1497 7.8876C13.1497 7.39478 12.8588 6.92149 12.2857 6.53331V5.78868C13.346 6.32984 14 7.07077 14 7.8876C14 8.9616 13.0895 9.6437 11.3915 10.1717C11.3198 10.1945 11.2533 10.2203 11.1915 10.2444C10.9276 10.3471 10.7486 10.4168 10.6069 10.0716C10.5042 9.82143 10.6917 9.55442 10.9377 9.47642L10.9985 9.45749C12.2395 9.07137 13.1497 8.78819 13.1497 7.8876Z" fill="black"/>
</svg>
