<svg width="16" height="16" viewBox="0 0 16 16" fill="none" xmlns="http://www.w3.org/2000/svg">
<path fill-rule="evenodd" clip-rule="evenodd" d="M12.8048 9.55047L13.899 7.99019C14.0953 7.71542 14.002 7.47991 13.6488 7.47991H12.9766C12.7116 4.98248 10.5576 2.99533 8.00134 2.99533C6.50484 2.99533 5.15554 3.67243 4.23311 4.73715C4.04666 4.94813 4.0712 5.20818 4.26746 5.34556C4.45881 5.48294 4.68942 5.43879 4.85134 5.25724C5.61676 4.38388 6.74526 3.82944 8.00134 3.82944C10.1357 3.82944 11.8775 5.41425 12.1326 7.47991H11.4016C11.0532 7.47991 10.9649 7.71542 11.1513 7.98528L12.2504 9.55047C12.4074 9.77617 12.6429 9.78108 12.8048 9.55047ZM8.00136 13.0047C9.49786 13.0047 10.8521 12.3227 11.7745 11.2629C11.956 11.0519 11.9315 10.7869 11.7402 10.6495C11.5488 10.5122 11.3133 10.5612 11.1563 10.7428C10.3958 11.621 9.26725 12.1706 8.00136 12.1706C5.86211 12.1706 4.12029 10.5907 3.86515 8.525H4.60113C4.94949 8.525 5.03781 8.28458 4.85136 8.01963L3.7523 6.45444C3.59529 6.22874 3.35977 6.22383 3.19786 6.45444L2.09879 8.01472C1.90744 8.28458 1.99576 8.525 2.34903 8.525H3.02613C3.29108 11.0224 5.44015 13.0047 8.00136 13.0047Z" fill="#393939"/>
</svg>
