<svg width="16" height="16" viewBox="0 0 16 16" fill="none" xmlns="http://www.w3.org/2000/svg">
<path fill-rule="evenodd" clip-rule="evenodd" d="M7.99319 9.48238C9.26683 9.48238 10.3213 8.42786 10.3213 7.15422C10.3213 5.88287 9.26455 4.82607 7.99091 4.82607C6.71956 4.82607 5.66504 5.88287 5.66504 7.15422C5.66504 8.42786 6.72184 9.48238 7.99319 9.48238ZM7.35181 7.93941V6.36904C7.35181 6.26405 7.47734 6.2184 7.57777 6.27546L8.85826 7.03553C8.95184 7.09032 8.95412 7.22042 8.85826 7.27748L7.57777 8.03527C7.4705 8.09918 7.35181 8.04897 7.35181 7.93941Z" fill="#393939"/>
<path fill-rule="evenodd" clip-rule="evenodd" d="M14 9.75976C14 10.5555 13.6089 10.9284 12.8314 10.9284H3.16862C2.39106 10.9284 2 10.5555 2 9.75976V4.54869C2 3.75294 2.39106 3.38007 3.16862 3.38007H12.8314C13.6089 3.38007 14 3.75294 14 4.54869V9.75976ZM3.18228 10.1963H12.8177C13.1315 10.1963 13.2679 10.069 13.2679 9.75066V4.56233C13.2679 4.23948 13.1315 4.11216 12.8177 4.11216H3.18228C2.86852 4.11216 2.73211 4.23948 2.73211 4.56233V9.75066C2.73211 10.069 2.86852 10.1963 3.18228 10.1963Z" fill="#393939"/>
<path d="M11.3036 12.1925C11.3036 12.4289 11.1171 12.6199 10.8852 12.6199H5.10575C4.87384 12.6199 4.68286 12.4289 4.68286 12.1925C4.68286 11.956 4.87384 11.7651 5.10575 11.7651H10.8852C11.1171 11.7651 11.3036 11.956 11.3036 12.1925Z" fill="#393939"/>
</svg>
