<svg width="16" height="16" viewBox="0 0 16 16" fill="none" xmlns="http://www.w3.org/2000/svg">
<path fill-rule="evenodd" clip-rule="evenodd" d="M6.06208 7.15422C6.06208 8.23157 6.92259 9.09435 7.99993 9.09435C9.07727 9.09435 9.94234 8.23157 9.94006 7.15422C9.93777 6.07917 9.07499 5.2141 7.99765 5.2141C6.9203 5.2141 6.06208 6.07917 6.06208 7.15422ZM7.59824 7.99419L8.81938 7.27292C8.9084 7.21814 8.90612 7.0926 8.81938 7.04238L7.59824 6.31655C7.50466 6.26177 7.38368 6.30513 7.38368 6.40785V7.90289C7.38368 8.00788 7.49781 8.05353 7.59824 7.99419Z" fill="#393939"/>
<path fill-rule="evenodd" clip-rule="evenodd" d="M14 9.75976C14 10.5555 13.6089 10.9284 12.8314 10.9284H3.16862C2.39106 10.9284 2 10.5555 2 9.75976V4.54869C2 3.75294 2.39106 3.38007 3.16862 3.38007H12.8314C13.6089 3.38007 14 3.75294 14 4.54869V9.75976ZM10.3281 7.15423C10.3281 8.42786 9.27363 9.48238 7.99999 9.48238C6.72864 9.48238 5.67184 8.42786 5.67184 7.15423C5.67184 5.88287 6.72636 4.82607 7.99771 4.82607C9.27135 4.82607 10.3281 5.88287 10.3281 7.15423Z" fill="#393939"/>
<path d="M11.3036 12.1925C11.3036 12.429 11.1171 12.6199 10.8852 12.6199H5.10575C4.87384 12.6199 4.68286 12.429 4.68286 12.1925C4.68286 11.956 4.87384 11.7651 5.10575 11.7651H10.8852C11.1171 11.7651 11.3036 11.956 11.3036 12.1925Z" fill="#393939"/>
</svg>
