<svg width="16" height="16" viewBox="0 0 16 16" fill="none" xmlns="http://www.w3.org/2000/svg">
<path fill-rule="evenodd" clip-rule="evenodd" d="M10.6514 14C10.9569 14 11.1983 13.8128 11.1983 13.3644V4.96389C11.1983 3.93907 10.6908 3.42173 9.67094 3.42173H4.91146C3.89158 3.42173 3.38409 3.93907 3.38409 4.96389V13.3644C3.38409 13.8128 3.62552 14 3.93099 14C4.18227 14 4.32022 13.8571 4.8277 13.3743L7.04978 11.2458C7.15817 11.1423 7.22223 11.1128 7.2912 11.1128C7.36018 11.1128 7.42423 11.1473 7.53263 11.2458L10.0454 13.6699C10.2425 13.8571 10.4001 14 10.6514 14ZM12.6159 11.9427C12.6159 12.391 12.3745 12.5783 12.069 12.5783C11.8391 12.5783 11.6875 12.4587 11.5125 12.2949V3.95584C11.5125 3.40355 11.0648 2.95584 10.5125 2.95584H4.87096C5.04142 2.32021 5.52665 2 6.32904 2H11.0885C12.1084 2 12.6159 2.51733 12.6159 3.54215V11.9427Z" fill="#393939"/>
</svg>
