<svg width="16" height="16" viewBox="0 0 16 16" fill="none" xmlns="http://www.w3.org/2000/svg">
<path fill-rule="evenodd" clip-rule="evenodd" d="M10.5515 14C10.8552 14 11.0953 13.8138 11.0953 13.368V5.01534C11.0953 3.99636 10.5907 3.48197 9.57661 3.48197H4.84423C3.83015 3.48197 3.32556 3.99636 3.32556 5.01534V13.368C3.32556 13.8138 3.56561 14 3.86934 14C4.11919 14 4.27106 13.8726 4.76095 13.3778L7.14184 11.0067C7.16633 10.9872 7.18593 10.9676 7.21042 10.9676C7.23002 10.9676 7.25451 10.9872 7.27901 11.0067L9.65989 13.3778C10.14 13.8628 10.3017 14 10.5515 14ZM4.11429 12.7655V5.03004C4.11429 4.54014 4.37393 4.2707 4.88342 4.2707H9.53742C10.042 4.2707 10.3066 4.54014 10.3066 5.03004V12.7655C10.3066 12.8585 10.2527 12.8732 10.1841 12.8096L7.45537 10.1102C7.36719 10.0221 7.27901 9.99757 7.21042 9.99757C7.13694 9.99757 7.05366 10.0221 6.96547 10.1102L4.23676 12.8096C4.16818 12.8781 4.11429 12.8585 4.11429 12.7655ZM12.1307 12.518C12.4344 12.518 12.6745 12.3319 12.6745 11.8861V3.53337C12.6745 2.51439 12.1699 2 11.1558 2H6.42341C5.69677 2 5.23173 2.26411 5.02647 2.78873H10.8857C11.438 2.78873 11.8857 3.23644 11.8857 3.78873V12.4598C11.9681 12.5015 12.0441 12.518 12.1307 12.518Z" fill="#393939"/>
</svg>
