<svg width="16" height="16" viewBox="0 0 16 16" fill="none" xmlns="http://www.w3.org/2000/svg">
<path fill-rule="evenodd" clip-rule="evenodd" d="M11.8118 14C12.1583 14 12.4322 13.7876 12.4322 13.279V3.74942C12.4322 2.58687 11.8565 2 10.6996 2H5.3004C4.14344 2 3.56775 2.58687 3.56775 3.74942V13.279C3.56775 13.7876 3.84162 14 4.18815 14C4.4732 14 4.64646 13.8547 5.20538 13.2902L7.92173 10.585C7.94968 10.5626 7.97203 10.5403 7.99998 10.5403C8.02234 10.5403 8.05028 10.5626 8.07823 10.585L10.7946 13.2902C11.3423 13.8435 11.5268 14 11.8118 14ZM4.46761 12.5915V3.76619C4.46761 3.20727 4.76384 2.89986 5.34511 2.89986H10.6548C11.2305 2.89986 11.5324 3.20727 11.5324 3.76619V12.5915C11.5324 12.6977 11.4709 12.7145 11.3926 12.6418L8.27944 9.56218C8.17883 9.46157 8.07823 9.43363 7.99998 9.43363C7.91614 9.43363 7.82113 9.46157 7.72052 9.56218L4.60734 12.6418C4.52909 12.7201 4.46761 12.6977 4.46761 12.5915Z" fill="#393939"/>
</svg>
