<svg width="16" height="16" viewBox="0 0 16 16" fill="none" xmlns="http://www.w3.org/2000/svg">
<path fill-rule="evenodd" clip-rule="evenodd" d="M5.23418 13.6488C5.44652 13.6488 5.60442 13.5399 5.86032 13.3004L7.82583 11.5036L11.5064 11.5091C13.1289 11.5145 14.0001 10.6107 14.0001 9.01543V4.84483C14.0001 3.24955 13.1289 2.35118 11.5064 2.35118H4.49371C2.8712 2.35118 2.00006 3.2441 2.00006 4.84483V9.01543C2.00006 10.6162 2.8712 11.5091 4.49371 11.5036H4.74961V13.088C4.74961 13.4256 4.92384 13.6488 5.23418 13.6488ZM11.049 5.40018H4.95101C4.76044 5.40018 4.60255 5.24773 4.60255 5.04628C4.60255 4.86661 4.76044 4.70871 4.95101 4.70871H11.049C11.2396 4.70871 11.3975 4.86661 11.3975 5.04628C11.3975 5.24773 11.2396 5.40018 11.049 5.40018ZM11.049 7.34936H4.95101C4.76044 7.34936 4.60255 7.19691 4.60255 7.00091C4.60255 6.81579 4.76044 6.65789 4.95101 6.65789H11.049C11.2396 6.65789 11.3975 6.81579 11.3975 7.00091C11.3975 7.19691 11.2396 7.34936 11.049 7.34936ZM8.92015 9.30399H4.95101C4.76044 9.30399 4.60255 9.1461 4.60255 8.95553C4.60255 8.75408 4.76044 8.60708 4.95101 8.60708H8.92015C9.10527 8.60708 9.26317 8.75408 9.26317 8.95553C9.26317 9.1461 9.10527 9.30399 8.92015 9.30399Z" fill="#393939"/>
</svg>
