<svg width="16" height="16" viewBox="0 0 16 16" fill="none" xmlns="http://www.w3.org/2000/svg">
<path fill-rule="evenodd" clip-rule="evenodd" d="M5.34846 13.6325C5.61525 13.6325 5.80036 13.4909 6.13249 13.1969L8.01089 11.5254H11.5064C13.1289 11.5254 14 10.627 14 9.03176V4.86116C14 3.26588 13.1289 2.36751 11.5064 2.36751H4.49365C2.87114 2.36751 2 3.26044 2 4.86116V9.03176C2 10.6325 2.87114 11.5254 4.49365 11.5254H4.75499V12.941C4.75499 13.3603 4.96733 13.6325 5.34846 13.6325ZM5.57174 12.6361V11.0572C5.57174 10.7632 5.4574 10.6488 5.16339 10.6488H4.4937C3.39388 10.6488 2.87664 10.088 2.87664 9.02632V4.86116C2.87664 3.79946 3.39388 3.2441 4.4937 3.2441H11.5064C12.6008 3.2441 13.1235 3.79946 13.1235 4.86116V9.02632C13.1235 10.088 12.6008 10.6488 11.5064 10.6488H7.97827C7.67337 10.6488 7.52092 10.6924 7.31402 10.9047L5.57174 12.6361ZM10.7713 5.56352C10.9455 5.56352 11.0871 5.42741 11.0871 5.24773C11.0871 5.0735 10.9455 4.93739 10.7713 4.93739H5.22863C5.05441 4.93739 4.91285 5.0735 4.91285 5.24773C4.91285 5.42741 5.05441 5.56352 5.22863 5.56352H10.7713ZM10.7713 7.33303C10.9455 7.33303 11.0871 7.19692 11.0871 7.01724C11.0871 6.84846 10.9455 6.70145 10.7713 6.70145H5.22863C5.05441 6.70145 4.91285 6.84846 4.91285 7.01724C4.91285 7.19692 5.05441 7.33303 5.22863 7.33303H10.7713ZM8.83299 9.10799C9.00722 9.10799 9.14334 8.97187 9.14334 8.79764C9.14334 8.61797 9.00722 8.47641 8.83299 8.47641H5.22863C5.05441 8.47641 4.91285 8.61797 4.91285 8.79764C4.91285 8.97187 5.05441 9.10799 5.22863 9.10799H8.83299Z" fill="#393939"/>
</svg>
