<svg width="16" height="16" viewBox="0 0 16 16" fill="none" xmlns="http://www.w3.org/2000/svg">
<path fill-rule="evenodd" clip-rule="evenodd" d="M5.86032 13.3004C5.60442 13.5399 5.44652 13.6488 5.23418 13.6488C4.92384 13.6488 4.74961 13.4256 4.74961 13.088V11.5036H4.49371C2.8712 11.5091 2.00006 10.6162 2.00006 9.01543V4.84483C2.00006 3.2441 2.8712 2.35118 4.49371 2.35118H11.5064C13.1289 2.35118 14.0001 3.24955 14.0001 4.84483V9.01543C14.0001 10.6107 13.1289 11.5145 11.5064 11.5091L7.82583 11.5036L5.86032 13.3004ZM7.87417 7.92653C8.05579 7.92653 8.13882 7.80199 8.13882 7.63593V7.54772C8.14401 7.20523 8.26596 7.06253 8.68109 6.77712C9.12736 6.47615 9.41018 6.12847 9.41018 5.62771C9.41018 4.84933 8.77709 4.40306 7.98833 4.40306C7.40195 4.40306 6.88822 4.68068 6.66768 5.18144C6.61319 5.30339 6.58984 5.42274 6.58984 5.52133C6.58984 5.66922 6.67546 5.77301 6.83373 5.77301C6.96606 5.77301 7.05428 5.69517 7.09319 5.56804C7.22552 5.07506 7.55244 4.88825 7.97017 4.88825C8.47612 4.88825 8.87309 5.17366 8.87309 5.62512C8.87309 5.99614 8.64217 6.20371 8.31006 6.43723C7.90271 6.72004 7.60433 7.02361 7.60433 7.48026V7.64372C7.60433 7.80977 7.69514 7.92653 7.87417 7.92653ZM7.87418 9.34578C8.08175 9.34578 8.24521 9.17972 8.24521 8.97734C8.24521 8.77237 8.08175 8.60891 7.87418 8.60891C7.6718 8.60891 7.50574 8.77237 7.50574 8.97734C7.50574 9.17972 7.6718 9.34578 7.87418 9.34578Z" fill="#393939"/>
</svg>
