<svg width="16" height="16" viewBox="0 0 16 16" fill="none" xmlns="http://www.w3.org/2000/svg">
<path fill-rule="evenodd" clip-rule="evenodd" d="M8 13.5468C8.12689 13.5468 8.30816 13.4622 8.44109 13.3837C11.8429 11.2085 14 8.67674 14 6.10272C14 3.96375 12.5317 2.45317 10.574 2.45317C9.45619 2.45317 8.54985 2.98489 8 3.8006C7.46224 2.99094 6.54381 2.45317 5.42598 2.45317C3.46828 2.45317 2 3.96375 2 6.10272C2 8.67674 4.1571 11.2085 7.56495 13.3837C7.69184 13.4622 7.87311 13.5468 8 13.5468ZM7.99996 12.5257C7.97579 12.5257 7.9335 12.4955 7.87912 12.4532C5.34739 10.7734 2.97277 8.35045 2.97277 6.10272C2.97277 4.49547 4.01205 3.42598 5.41386 3.42598C6.54981 3.42598 7.20238 4.13293 7.58909 4.73716C7.75223 4.97885 7.85495 5.04532 7.99996 5.04532C8.14498 5.04532 8.23561 4.97281 8.41084 4.73716C8.82776 4.14502 9.45615 3.42598 10.5861 3.42598C11.9879 3.42598 13.0272 4.49547 13.0272 6.10272C13.0272 8.35045 10.6525 10.7734 8.12685 12.4532C8.06643 12.4955 8.02413 12.5257 7.99996 12.5257Z" fill="#393939"/>
</svg>
