<svg width="16" height="16" viewBox="0 0 16 16" fill="none" xmlns="http://www.w3.org/2000/svg">
<path fill-rule="evenodd" clip-rule="evenodd" d="M11.8713 13.8962C12.1032 13.721 12.154 13.4326 12.0127 13.0255L10.831 9.50299L13.8503 7.33747C14.2008 7.08869 14.3422 6.82295 14.2517 6.5459C14.1612 6.26885 13.8955 6.13315 13.4601 6.1388L9.7567 6.16707L8.63153 2.62761C8.49584 2.21486 8.29229 2 7.99827 2C7.70992 2 7.50637 2.21486 7.37067 2.62761L6.2455 6.16707L2.54207 6.1388C2.1067 6.13315 1.84096 6.26885 1.75049 6.5459C1.65437 6.82295 1.80138 7.08869 2.15193 7.33747L5.17122 9.50299L3.98952 13.0255C3.84817 13.4326 3.89905 13.721 4.13087 13.8962C4.36269 14.0772 4.6567 14.015 5.00726 13.7605L7.99827 11.5611L10.9949 13.7605C11.3455 14.015 11.6339 14.0772 11.8713 13.8962Z" fill="#393939"/>
</svg>
