<svg width="16" height="16" viewBox="0 0 16 16" fill="none" xmlns="http://www.w3.org/2000/svg">
<path fill-rule="evenodd" clip-rule="evenodd" d="M11.8713 13.8962C12.1032 13.721 12.154 13.4326 12.0127 13.0255L10.831 9.50299L13.8503 7.33747C14.2008 7.08869 14.3422 6.82295 14.2517 6.5459C14.1612 6.26885 13.8955 6.13315 13.4601 6.1388L9.7567 6.16707L8.63153 2.62761C8.49584 2.21486 8.29229 2 7.99827 2C7.70992 2 7.50637 2.21486 7.37067 2.62761L6.2455 6.16707L2.54207 6.1388C2.1067 6.13315 1.84096 6.26885 1.75049 6.5459C1.65437 6.82295 1.80138 7.08869 2.15193 7.33747L5.17122 9.50299L3.98952 13.0255C3.84817 13.4326 3.89905 13.721 4.13087 13.8962C4.36269 14.0772 4.6567 14.015 5.00726 13.7605L7.99827 11.5611L10.9949 13.7605C11.3455 14.015 11.6339 14.0772 11.8713 13.8962ZM11.0063 12.7711L8.28663 10.696C8.1057 10.5547 7.8965 10.5547 7.71557 10.696L4.99595 12.7711C4.97333 12.788 4.95637 12.7937 4.94506 12.7824C4.93375 12.7654 4.93941 12.7598 4.94506 12.7258L6.07023 9.49734C6.14938 9.27683 6.10415 9.0959 5.90626 8.9602L3.09052 7.01519C3.06224 6.99822 3.05659 6.98692 3.06224 6.97561C3.0679 6.95865 3.07921 6.95865 3.11313 6.95865L6.53386 7.01519C6.76568 7.02084 6.91269 6.93038 6.98619 6.69856L7.97 3.42483C7.97566 3.39091 7.98697 3.3796 7.99827 3.3796C8.01524 3.3796 8.02655 3.39091 8.0322 3.42483L9.01601 6.69856C9.08952 6.93038 9.23652 7.02084 9.46834 7.01519L12.8891 6.95865C12.923 6.95865 12.9343 6.95865 12.94 6.97561C12.9456 6.98692 12.9343 6.99822 12.9117 7.01519L10.0959 8.9602C9.89805 9.0959 9.85282 9.27683 9.93198 9.49734L11.0571 12.7258C11.0628 12.7598 11.0685 12.7654 11.0571 12.7824C11.0458 12.7937 11.0289 12.788 11.0063 12.7711Z" fill="#393939"/>
</svg>
