<svg width="16" height="16" viewBox="0 0 16 16" fill="none" xmlns="http://www.w3.org/2000/svg">
<path fill-rule="evenodd" clip-rule="evenodd" d="M13.9992 11.972C13.8966 9.43859 12.8203 7.00032 10.9239 5.10389C9.02743 3.20745 6.58916 2.11646 4.05571 2.02859C3.45529 1.9993 3.04525 2.40934 3.08918 2.92189C3.11847 3.4198 3.53583 3.69071 4.09964 3.72733C6.17912 3.81519 8.14878 4.71581 9.73035 6.29739C11.3046 7.87165 12.1906 9.85595 12.3004 11.9281C12.337 12.4919 12.6006 12.902 13.1059 12.9386C13.6111 12.9752 14.0211 12.5651 13.9992 11.972ZM9.85483 11.9135C9.70107 10.4856 9.07136 9.10909 7.99501 8.03274C6.91866 6.95638 5.53478 6.31936 4.11428 6.17292C3.52119 6.09237 3.08918 6.53902 3.12579 7.05889C3.15508 7.5568 3.57977 7.77646 4.12893 7.87165C5.11009 7.9888 6.04 8.46474 6.8015 9.22624C7.563 9.98775 8.04626 10.9103 8.1561 11.8988C8.24396 12.4407 8.47095 12.8727 8.96885 12.902C9.4814 12.9312 9.92805 12.4992 9.85483 11.9135ZM4.56825 13.539C5.15402 12.9532 5.1467 11.9794 4.56825 11.4009C3.97516 10.8078 3.02328 10.8078 2.43019 11.4009C1.85174 11.9794 1.85907 12.9825 2.43751 13.5609C2.994 14.1174 3.99713 14.1101 4.56825 13.539Z" fill="#393939"/>
</svg>
