<svg width="16" height="16" viewBox="0 0 16 16" fill="none" xmlns="http://www.w3.org/2000/svg">
<path fill-rule="evenodd" clip-rule="evenodd" d="M4.69639 12.2505C4.86624 12.2505 4.98514 12.1699 5.18471 11.983L6.42038 10.8323C6.18259 10.6412 5.98726 10.3397 5.98726 9.64756V6.83227C5.98726 5.52866 6.77707 4.75584 8.08068 4.75584H11.0531L11.0488 4.59448C10.9851 3.72399 10.4119 3.15924 9.43949 3.15924H3.61359C2.64119 3.15924 2 3.74098 2 4.75159V8.92144C2 9.93206 2.64119 10.5817 3.61359 10.5817H4.31847V11.8174C4.31847 12.0807 4.4586 12.2505 4.69639 12.2505ZM11.5583 12.8408C11.8004 12.8408 11.9363 12.6667 11.9363 12.4076V11.1677H12.3864C13.3588 11.1677 14 10.518 14 9.51168V6.92994C14 5.91507 13.3588 5.33758 12.3864 5.33758H8.17829C7.16343 5.33758 6.56895 5.91507 6.56895 6.92994V9.51168C6.56895 10.518 7.16343 11.1677 8.17829 11.1677H9.53711L11.07 12.569C11.2696 12.7558 11.3885 12.8408 11.5583 12.8408Z" fill="#393939"/>
</svg>
