<svg width="16" height="16" viewBox="0 0 16 16" fill="none" xmlns="http://www.w3.org/2000/svg">
<path fill-rule="evenodd" clip-rule="evenodd" d="M11.6267 12.7779C11.915 12.7779 12.078 12.5731 12.078 12.2556V11.2528H12.2535C13.3022 11.2528 14 10.6219 14 9.52716V7.0578C14 5.96309 13.3022 5.33217 12.2535 5.33217H11.5975V5.01462C11.5975 3.87813 10.9248 3.22215 9.7883 3.22215H3.80919C2.71866 3.22215 2 3.87813 2 5.01462V8.86281C2 9.9993 2.71866 10.6553 3.80919 10.6553H4.36072V11.796C4.36072 12.1177 4.52368 12.3099 4.82033 12.3099C5.04178 12.3099 5.1922 12.2347 5.45961 12.0007L6.85933 10.7472C7.16017 11.0773 7.6156 11.2528 8.19638 11.2528H9.63788L11.0334 12.4478C11.2883 12.665 11.4262 12.7779 11.6267 12.7779ZM4.99162 11.5662V10.3753C4.99162 10.1372 4.84956 10.0244 4.66571 10.0244H3.85095C3.1114 10.0244 2.67268 9.62326 2.67268 8.84192V5.03552C2.67268 4.25836 3.1114 3.84889 3.85095 3.84889H9.74649C10.486 3.84889 10.9248 4.25836 10.9248 5.03552V5.33217H8.19635C7.10165 5.33217 6.45401 5.96309 6.45401 7.0578V9.52716C6.45401 9.75279 6.47908 9.95752 6.5334 10.1455L4.99162 11.5662ZM11.4512 12.0216L10.11 10.8182C9.94289 10.672 9.84261 10.626 9.61281 10.626H8.23816C7.54039 10.626 7.12256 10.2458 7.12256 9.50627L7.12674 7.07869C7.12674 6.34332 7.54039 5.95891 8.23816 5.95891H12.2159C12.9095 5.95891 13.3273 6.34332 13.3273 7.07869V9.50627C13.3273 10.2458 12.9095 10.626 12.2159 10.626H11.773C11.5933 10.626 11.4512 10.7305 11.4512 10.9687V12.0216Z" fill="#393939"/>
</svg>
