<svg width="16" height="16" viewBox="0 0 16 16" fill="none" xmlns="http://www.w3.org/2000/svg">
<path fill-rule="evenodd" clip-rule="evenodd" d="M6.01064 14C6.42701 14 6.64098 13.7109 6.86651 13.2713C7.72239 11.5712 8.89054 10.2064 9.78111 9.02667C10.5329 8.02622 10.903 7.17613 10.9204 5.79401C10.9493 3.65432 9.22017 2.02931 6.50219 2.01196L5.69836 2.0004C4.94079 1.99462 4.38563 2.05244 4.06178 2.13341C3.61071 2.24328 3.15965 2.53243 3.15965 3.08759C3.15965 3.31313 3.21747 3.47505 3.29844 3.60227C3.3447 3.67745 3.33892 3.73528 3.26952 3.7642C2.9052 3.92612 2.5987 4.25574 2.5987 4.71838C2.5987 4.9844 2.67388 5.21571 2.8011 5.38342C2.8705 5.47016 2.85315 5.54534 2.75484 5.60317C2.48304 5.75353 2.30955 6.08894 2.30955 6.47061C2.30955 6.74241 2.3963 7.03156 2.55822 7.17613C2.64496 7.25709 2.62761 7.31492 2.5293 7.39588C2.33847 7.54046 2.23438 7.81804 2.23438 8.14766C2.23438 8.71439 2.67388 9.17703 3.24639 9.17703H5.3109C5.83715 9.17703 6.18412 9.44304 6.18412 9.87676C6.18412 10.669 5.20102 12.1032 5.20102 13.1441C5.20102 13.6819 5.55378 14 6.01064 14ZM11.4524 8.95728C12.7593 8.95728 13.7656 7.55202 13.7656 5.74774C13.7656 4.01286 12.6841 2.56134 11.2384 2.56134H10.2033C11.25 3.33047 11.73 4.48706 11.7068 5.80557C11.6837 7.27444 11.117 8.32115 10.6023 8.95728H11.4524Z" fill="#393939"/>
</svg>
