<svg width="16" height="16" viewBox="0 0 16 16" fill="none" xmlns="http://www.w3.org/2000/svg">
<path fill-rule="evenodd" clip-rule="evenodd" d="M6.33625 14C6.85799 14 7.20404 13.7285 7.55009 13.0683C8.1996 11.8225 8.96624 10.7205 10.2333 9.17658H11.2502C12.5599 9.17658 13.6193 7.69122 13.6193 5.87045C13.6193 4.08163 12.4587 2.59095 11.0479 2.59095H9.28567C8.58292 2.2236 7.7311 2 6.78345 2H6.04876C5.38328 2 4.8083 2.03727 4.4303 2.1331C3.69029 2.31411 3.23243 2.8252 3.23243 3.47471C3.23243 3.61313 3.25373 3.73558 3.291 3.85803C2.92897 4.12955 2.71602 4.53416 2.71602 4.98137C2.71602 5.19432 2.75861 5.40728 2.83847 5.58829C2.59357 5.83851 2.44983 6.20586 2.44983 6.58917C2.44983 6.84472 2.51371 7.10559 2.62551 7.30257C2.47112 7.51553 2.38062 7.81366 2.38062 8.1331C2.38062 8.93168 3.00351 9.55989 3.79144 9.55989H5.80919C5.93696 9.55989 6.01682 9.61313 6.01682 9.72493C6.01682 10.3052 5.11176 11.6522 5.11176 12.7329C5.11176 13.4676 5.62285 14 6.33625 14ZM6.33625 13.1961C6.07006 13.1961 5.91566 13.0311 5.91566 12.7329C5.91566 11.8651 6.82072 10.5608 6.82072 9.72493C6.82072 9.12334 6.3256 8.75599 5.69206 8.75599H3.79144C3.44539 8.75599 3.18452 8.4898 3.18452 8.1331C3.18452 7.88287 3.26438 7.71783 3.47733 7.51553C3.53057 7.46229 3.55719 7.40905 3.55719 7.35049C3.55719 7.30257 3.53589 7.25998 3.50395 7.21207C3.32826 6.96185 3.25373 6.79681 3.25373 6.58917C3.25373 6.33895 3.37085 6.12067 3.61575 5.93966C3.71691 5.86513 3.77014 5.77995 3.77014 5.68944C3.77014 5.6575 3.7595 5.62023 3.7382 5.58296C3.58913 5.29015 3.51992 5.17303 3.51992 4.98137C3.51992 4.69388 3.70626 4.4756 4.08958 4.27862C4.16411 4.23602 4.21203 4.17214 4.21203 4.09228C4.21203 4.06034 4.20138 4.02839 4.18541 3.99113C4.05231 3.66637 4.03634 3.61313 4.03634 3.47471C4.03634 3.21384 4.228 3.01154 4.61664 2.91571C4.93607 2.83052 5.43119 2.79858 6.04344 2.8039L6.77813 2.80923C9.00883 2.83052 10.5261 4.09228 10.5261 5.9024C10.5261 7.05235 10.2653 7.78705 9.54122 8.75599C8.74264 9.82609 7.62995 11.1091 6.83137 12.701C6.61841 13.1216 6.50661 13.1961 6.33625 13.1961ZM11.2502 8.37267H10.7551C11.1544 7.622 11.33 6.84472 11.33 5.91837C11.33 4.91748 10.968 4.04969 10.3238 3.39485H11.0479C11.9849 3.39485 12.8154 4.52351 12.8154 5.87045C12.8154 7.24933 12.0701 8.37267 11.2502 8.37267Z" fill="#393939"/>
</svg>
