<svg width="16" height="16" viewBox="0 0 16 16" fill="none" xmlns="http://www.w3.org/2000/svg">
<path fill-rule="evenodd" clip-rule="evenodd" d="M11.9381 13.8666C12.3892 13.7625 12.8403 13.4676 12.8403 12.9124C12.8403 12.6869 12.7825 12.5307 12.7015 12.3977C12.6552 12.3225 12.6668 12.2647 12.7304 12.2358C13.0947 12.0739 13.4012 11.75 13.4012 11.2816C13.4012 11.0214 13.3261 10.7843 13.1988 10.6166C13.1294 10.5298 13.1468 10.4604 13.2509 10.3968C13.5169 10.2465 13.6904 9.91106 13.6904 9.52939C13.6904 9.26337 13.6036 8.96844 13.4417 8.82387C13.355 8.74291 13.3723 8.68508 13.4764 8.60412C13.6615 8.45954 13.7656 8.18196 13.7656 7.85234C13.7656 7.28561 13.3261 6.82876 12.7535 6.82876H10.689C10.1628 6.82876 9.81581 6.55696 9.81581 6.12902C9.81581 5.33097 10.7989 3.8968 10.7989 2.86166C10.7989 2.32384 10.4462 2 9.9893 2C9.57293 2 9.35896 2.28915 9.13342 2.72865C8.27755 4.42884 7.10939 5.79939 6.21882 6.97333C5.46704 7.97956 5.09693 8.82387 5.07958 10.2118C5.05067 12.3457 6.77977 13.9707 9.49775 13.9938L10.3016 13.9996C11.0591 14.0054 11.6143 13.9476 11.9381 13.8666ZM5.79667 13.4387C4.74995 12.6753 4.26997 11.5187 4.2931 10.1944C4.31623 8.72556 4.88296 7.67885 5.39764 7.04272H4.54755C3.24061 7.04272 2.23438 8.45376 2.23438 10.2523C2.23438 11.9871 3.31578 13.4387 4.76152 13.4387H5.79667Z" fill="#393939"/>
</svg>
