<svg width="16" height="16" viewBox="0 0 16 16" fill="none" xmlns="http://www.w3.org/2000/svg">
<path fill-rule="evenodd" clip-rule="evenodd" d="M9.95116 14C10.6166 14 11.1916 13.9574 11.5696 13.8669C12.3096 13.6859 12.7675 13.1748 12.7675 12.52C12.7675 12.3869 12.7462 12.2591 12.7036 12.1366C13.0709 11.8705 13.2786 11.4605 13.2786 11.0186C13.2786 10.8004 13.2413 10.5874 13.1561 10.4117C13.4063 10.1615 13.5501 9.79414 13.5501 9.4055C13.5501 9.15528 13.4862 8.88909 13.3744 8.69743C13.5288 8.47915 13.6193 8.18634 13.6193 7.86158C13.6193 7.06832 12.9964 6.44011 12.2085 6.44011H10.1907C10.063 6.44011 9.97778 6.38154 9.97778 6.27507C9.97778 5.69476 10.8882 4.34783 10.8882 3.26708C10.8882 2.53239 10.3717 2 9.66367 2C9.14193 2 8.79588 2.27152 8.44983 2.93168C7.80031 4.17746 7.02835 5.2795 5.7666 6.82342H4.74974C3.44007 6.82342 2.38062 8.30878 2.38062 10.1242C2.38062 11.9184 3.54122 13.4091 4.95204 13.4091H6.71424C7.41167 13.7764 8.26349 14 9.21646 14H9.95116ZM9.95648 13.1961L9.22179 13.1854C6.99109 13.1695 5.47378 11.9077 5.47378 10.0976C5.47378 8.94765 5.73465 8.21295 6.4587 7.24401C7.25728 6.17391 8.36464 4.89086 9.16855 3.29902C9.37618 2.87311 9.4933 2.8039 9.66367 2.8039C9.92454 2.8039 10.0843 2.96894 10.0843 3.26708C10.0843 4.12955 9.17387 5.43922 9.17387 6.27507C9.17387 6.87666 9.67432 7.24401 10.3079 7.24401H12.2085C12.5545 7.24401 12.8154 7.5102 12.8154 7.86158C12.8154 8.11713 12.7355 8.28217 12.5226 8.48447C12.4693 8.53771 12.4427 8.59095 12.4427 8.64951C12.4427 8.6921 12.4587 8.74002 12.496 8.78261C12.6717 9.03815 12.7462 9.19787 12.7462 9.4055C12.7462 9.66105 12.6291 9.874 12.3842 10.0603C12.283 10.1349 12.2298 10.2201 12.2298 10.3106C12.2298 10.3425 12.2404 10.3798 12.2564 10.417C12.4108 10.7098 12.4747 10.827 12.4747 11.0186C12.4747 11.3061 12.2937 11.5244 11.9103 11.7214C11.8305 11.764 11.7826 11.8279 11.7826 11.9077C11.7826 11.9397 11.7932 11.9716 11.8092 12.0089C11.9423 12.3336 11.9636 12.3869 11.9636 12.52C11.9636 12.7808 11.7719 12.9885 11.378 13.0843C11.0638 13.1642 10.5634 13.2014 9.95648 13.1961ZM5.67609 12.6051H4.95204C4.00972 12.6051 3.18452 11.4712 3.18452 10.1242C3.18452 8.75067 3.92986 7.62733 4.74974 7.62733H5.24486C4.84557 8.37267 4.66988 9.15528 4.66988 10.0816C4.66988 11.0825 5.0319 11.945 5.67609 12.6051Z" fill="#393939"/>
</svg>
