<svg width="16" height="16" viewBox="0 0 16 16" fill="none" xmlns="http://www.w3.org/2000/svg">
<path d="M12.1436 11.7655V12.7741C12.1436 13.4332 11.6093 13.9676 10.9503 13.9676H4.98342C4.32434 13.9676 3.79005 13.4332 3.79005 12.7741V10.3572C3.51558 10.2498 3.16353 10.1782 2.59668 10.1782C2.26714 10.1782 2 10.0132 2 9.68367C2 9.35409 2.26714 9.19352 2.59668 9.19352C3.08596 9.19352 3.47381 9.24126 3.79005 9.31884V7.97016C3.51558 7.86275 3.16353 7.79113 2.59668 7.79113C2.26714 7.79113 2 7.61885 2 7.28927C2 6.95969 2.26714 6.80648 2.59668 6.80648C3.08596 6.80648 3.47381 6.85423 3.79005 6.9318V5.61297C3.51558 5.50555 3.16353 5.43394 2.59668 5.43394C2.26714 5.43394 2 5.22445 2 4.89487C2 4.56529 2.26714 4.41945 2.59668 4.41945C3.08596 4.41945 3.47381 4.46719 3.79005 4.54477V3.22594C3.79005 2.56678 4.32434 2.03242 4.98342 2.03242H10.9503C11.6093 2.03242 12.1436 2.56678 12.1436 3.22594V4.51493C13.2057 4.69993 13.6592 5.09379 13.7606 5.18927C13.9933 5.42201 14.104 5.77779 13.8713 6.01052C13.6386 6.24326 13.2176 6.00608 12.9133 5.77931C12.9133 5.77931 12.2928 5.35562 10.9503 5.35562C10.1984 5.35562 9.70318 5.60029 9.13037 5.8927C8.50982 6.19704 7.8117 6.54913 6.77347 6.54913C6.55866 6.54913 6.36176 6.54913 6.17678 6.52526V5.58313C6.35579 5.61297 6.55269 5.61297 6.77347 5.61297C7.52529 5.61297 8.02054 5.3683 8.59335 5.08185C9.2139 4.77154 10.0925 4.41945 11.1248 4.41945V2.99344H4.77256V12.9936H11.1248V11.5805C12.0198 11.5805 12.1257 11.7536 12.1436 11.7655ZM10.9503 6.80648C9.91799 6.80648 9.2139 7.15857 8.59335 7.46889C8.02054 7.75533 7.52529 8 6.77347 8C6.55269 8 6.35579 8 6.17678 7.97016V8.91135C6.36176 8.93522 6.55866 8.93522 6.77347 8.93522C7.8117 8.93522 8.50982 8.58313 9.13037 8.27878C9.70318 7.99234 10.1984 7.7417 10.9503 7.7417C12.2928 7.7417 12.9133 8.1654 12.9133 8.1654C13.2176 8.39813 13.6386 8.61085 13.8713 8.37811C14.104 8.14538 13.9933 7.81501 13.7606 7.5763C13.6353 7.45098 12.8895 6.80648 10.9503 6.80648ZM10.9503 9.19352C9.91799 9.19352 9.2139 9.5456 8.59335 9.85592C8.02054 10.1424 7.52529 10.387 6.77347 10.387C6.55269 10.387 6.35579 10.387 6.17678 10.3572V11.3478C6.36176 11.3717 6.55866 11.3717 6.77347 11.3717C7.8117 11.3717 8.50982 11.0196 9.13037 10.7152C9.70318 10.4288 10.1984 10.1782 10.9503 10.1782C12.2928 10.1782 12.9133 10.6019 12.9133 10.6019C13.2176 10.8346 13.6386 10.948 13.8713 10.7152C14.104 10.4825 13.9933 10.202 13.7606 9.96333C13.6353 9.83801 12.8895 9.19352 10.9503 9.19352Z" fill="#393939"/>
</svg>
