<svg width="16" height="16" viewBox="0 0 16 16" fill="none" xmlns="http://www.w3.org/2000/svg">
<path d="M8.91713 2.02539C8.52254 1.9228 8.3256 2.14637 8.16435 2.42135L4.81958 8.40664L4.78813 8.45534L4.75846 8.50995C4.71382 8.59682 4.68021 8.68628 4.66296 8.78381L4.65427 8.84748C4.61434 9.2666 4.93052 9.57492 5.41652 9.57492L6.87602 9.5747L6.37851 13.1279C6.33811 13.4161 6.4641 13.9386 7.03988 13.9961C7.54862 14.047 7.76065 13.5798 7.84539 13.4285L11.2464 7.37518L11.2757 7.30689C11.5071 6.72033 11.1672 6.27482 10.5991 6.27482L9.13329 6.27455L9.3467 2.85438C9.3467 2.42135 9.29394 2.12337 8.91713 2.02539ZM8.79229 2.77105L8.58688 6.56134L8.58235 6.61496C8.57471 6.88071 8.68888 6.94323 8.96171 6.94323H10.6878L6.98152 13.4285L7.59117 9.27355L7.5957 9.21993C7.60334 8.95418 7.65674 8.84748 7.38391 8.84748H5.32959L8.79229 2.77105Z" fill="#393939"/>
</svg>
