<svg width="16" height="16" viewBox="0 0 16 16" fill="none" xmlns="http://www.w3.org/2000/svg">
<path d="M8.04067 2.20215C6.52732 3.14988 5.66564 5.93687 5.48329 7.62123L5.47327 7.72438L5.44676 7.67851C5.16851 7.2368 4.77825 6.23329 4.01889 6.4752C3.63 6.57421 3.29968 8.12814 3.29968 9.40875C3.48155 12.1334 5.3228 13.6935 7.25873 13.9465C8.818 14.1474 10.2999 13.785 11.3495 12.8148C12.5892 11.6532 13.0302 9.84505 12.4437 8.2624L12.3875 8.11917C12.1128 7.39758 11.7116 6.9213 10.9111 6.23329L10.4645 5.85555L10.2498 5.66617C9.30005 4.80335 8.87539 4.15965 9.15042 2.93964C9.30587 2.24892 8.76732 1.75804 8.16648 2.12528L8.04067 2.20215ZM8.45591 2.66421L8.44179 2.79979C8.21281 4.44701 8.86217 5.28483 10.0134 6.35542L10.3234 6.61736C11.0528 7.23088 11.4518 7.75143 11.6684 8.2624L11.7076 8.35992C12.2091 9.57236 11.8725 11.4184 11.0768 12.1538C10.2812 12.8893 9.29158 13.4667 7.37582 13.2939C5.71687 13.1443 4.01889 11.1936 4.01889 9.52524V8.73745C4.03242 8.29584 4.214 7.68193 4.31035 7.32171C4.31061 7.32076 4.31085 7.31991 4.31114 7.31897C4.31581 7.30417 4.35968 7.17213 4.43549 7.1795C4.51579 7.18731 4.56427 7.32031 4.56427 7.32031C4.56427 7.32031 5.01245 8.41586 5.48329 8.3798C5.90262 8.32314 6.09403 8.11917 6.09403 7.72438C6.1765 5.94471 6.79052 3.97068 8.36335 2.73506L8.45591 2.66421ZM8.32928 7.40465C8.2837 7.31386 8.12965 7.31044 8.10737 7.40955C7.88126 8.41522 8.417 9.08804 8.26029 9.77382C8.16397 10.2212 7.83027 10.7219 7.19498 10.9477C7.11757 10.9752 7.09528 11.0784 7.16179 11.1267C8.63212 12.193 9.97882 11.0702 9.93806 9.76849C9.93806 8.81152 8.73561 8.21388 8.32928 7.40465Z" fill="#393939"/>
</svg>
