<svg width="16" height="16" viewBox="0 0 16 16" fill="none" xmlns="http://www.w3.org/2000/svg">
<path d="M11.7464 4.14645C11.6527 4.05268 11.5255 4 11.3929 4H4.60711C4.4745 4 4.34732 4.05268 4.25355 4.14645L2.14645 6.25355C2.05268 6.34732 2 6.4745 2 6.60711V11.3C2 11.5761 2.22386 11.8 2.5 11.8H13.5C13.7761 11.8 14 11.5761 14 11.3V6.60711C14 6.4745 13.9473 6.34732 13.8536 6.25355L11.7464 4.14645ZM2.6 11.8H3.8V12.5C3.8 12.7761 3.57614 13 3.3 13H3.1C2.82386 13 2.6 12.7761 2.6 12.5V11.8ZM5 11.8H6.2V12.5C6.2 12.7761 5.97614 13 5.7 13H5.5C5.22386 13 5 12.7761 5 12.5V11.8ZM7.4 11.8H8.6V12.5C8.6 12.7761 8.37614 13 8.1 13H7.9C7.62386 13 7.4 12.7761 7.4 12.5V11.8ZM9.8 11.8H11V12.5C11 12.7761 10.7761 13 10.5 13H10.3C10.0239 13 9.8 12.7761 9.8 12.5V11.8ZM12.2 11.8H13.4V12.5C13.4 12.7761 13.1761 13 12.9 13H12.7C12.4239 13 12.2 12.7761 12.2 12.5V11.8ZM2.6 7.398C2.6 7.12186 2.82386 6.898 3.1 6.898H8.7C8.97614 6.898 9.2 7.12186 9.2 7.398V10.6586C9.2 10.9347 8.97614 11.1586 8.7 11.1586H3.1C2.82386 11.1586 2.6 10.9347 2.6 10.6586V7.398ZM13.4 10.6586C13.4 10.9347 13.1761 11.1586 12.9 11.1586H10.3C10.0239 11.1586 9.8 10.9347 9.8 10.6586V7.08918C9.8 6.96607 9.84542 6.84729 9.92755 6.75559L11.1477 5.3933C11.3391 5.17964 11.6706 5.17043 11.8735 5.37315L13.2534 6.75152C13.3472 6.8453 13.4 6.97256 13.4 7.10526V10.6586Z" fill="#393939"/>
</svg>
