<svg width="16" height="16" viewBox="0 0 16 16" fill="none" xmlns="http://www.w3.org/2000/svg">
<path d="M12.05 6.76108C12.1605 6.76108 12.25 6.85063 12.25 6.96108V11.3607C12.25 11.4712 12.1605 11.5607 12.05 11.5607H11.2357C11.1253 11.5607 11.0357 11.4712 11.0357 11.3607V10.3608H7.39286V13.8C7.39286 13.9105 7.30331 14 7.19286 14H5.16429C5.05383 14 4.96429 13.9105 4.96429 13.8V9.16091C4.96429 8.49796 5.50829 7.961 6.17857 7.961H11.0357V6.96108C11.0357 6.85063 11.1253 6.76108 11.2357 6.76108H12.05ZM8.40714 2C8.5176 2 8.60714 2.08954 8.60714 2.2V2.99992C8.60714 3.11037 8.5176 3.19992 8.40714 3.19992H7.39286V6.76126H6.17857C5.73414 6.76126 5.32311 6.88845 4.96429 7.09484V3.19992H3.95C3.83954 3.19992 3.75 3.11037 3.75 2.99992V2.2C3.75 2.08954 3.83954 2 3.95 2H8.40714Z" fill="#393939"/>
</svg>
