<svg width="16" height="16" viewBox="0 0 16 16" fill="none" xmlns="http://www.w3.org/2000/svg">
<path d="M10.8307 5.31694C11.1069 5.31694 11.3307 5.54079 11.3307 5.81694V8.89612C11.3307 9.16941 11.2189 9.43079 11.0212 9.61948L9.19984 11.358C9.14054 11.4146 9.10698 11.4931 9.10698 11.575V13.1104C9.10698 13.276 8.97267 13.4104 8.80698 13.4104H7.16943C7.00374 13.4104 6.86943 13.276 6.86943 13.1104V11.574C6.86943 11.4926 6.83636 11.4147 6.77781 11.3582L4.9765 9.6189C4.78134 9.43046 4.67112 9.17081 4.67112 8.89952V5.81694C4.67112 5.54079 4.89498 5.31694 5.17112 5.31694H10.8307ZM10.6667 2.5C10.6667 2.22386 10.4428 2 10.1667 2H9.83333C9.55719 2 9.33333 2.22386 9.33333 2.5V4.66667H6.66667V2.5C6.66667 2.22386 6.44281 2 6.16667 2H5.83333C5.55719 2 5.33333 2.22386 5.33333 2.5V4.66667H5.32667C4.6 4.66 4 5.26 4 5.98667V9.25245C4 9.51767 4.10536 9.77202 4.29289 9.95956L6.24547 11.9121C6.30173 11.9684 6.33333 12.0447 6.33333 12.1243V13.5C6.33333 13.7761 6.55719 14 6.83333 14H9.16667C9.44281 14 9.66667 13.7761 9.66667 13.5V12.124C9.66667 12.0446 9.69816 11.9684 9.75423 11.9122L11.7081 9.95272C11.895 9.76527 12 9.51134 12 9.24662V6C12 5.26667 11.4 4.66667 10.6667 4.66667V2.5Z" fill="#393939"/>
</svg>
