<svg width="16" height="16" viewBox="0 0 16 16" fill="none" xmlns="http://www.w3.org/2000/svg">
<path d="M10.375 4.4V3.2C10.375 2.54 9.84656 2 9.1875 2H6.8125C6.15937 2 5.625 2.54 5.625 3.2V4.4C4.31281 4.4 3.25 5.474 3.25 6.8V11C3.25 12.116 4.01 13.046 5.03125 13.316V13.8C5.03125 13.9105 5.12079 14 5.23125 14H10.7688C10.8792 14 10.9688 13.9105 10.9688 13.8V13.316C11.99 13.052 12.75 12.116 12.75 11V6.8C12.75 5.474 11.6872 4.4 10.375 4.4ZM6.2933 2.89936C6.2933 2.73367 6.42761 2.59936 6.5933 2.59936H9.421C9.58668 2.59936 9.721 2.73367 9.721 2.89936V4.1C9.721 4.26569 9.58668 4.4 9.421 4.4H6.5933C6.42761 4.4 6.2933 4.26569 6.2933 4.1V2.89936ZM12.1355 11C12.1355 12.0926 11.0281 12.8393 10.375 12.8393H5.625C4.97187 12.8393 3.90038 12.2889 3.90038 11V6.8C3.90038 6.14 4.52376 5.03539 5.625 5.03539H10.375C11.5369 5.03539 12.1355 6.14 12.1355 6.8V11Z" fill="#393939"/>
</svg>
