<svg width="16" height="16" viewBox="0 0 16 16" fill="none" xmlns="http://www.w3.org/2000/svg">
<path d="M7.99101 7.4C7.66014 7.4 7.39191 7.66863 7.39191 8C7.39191 8.33137 7.66014 8.6 7.99101 8.6C8.32189 8.6 8.59011 8.33137 8.59011 8C8.59011 7.66863 8.32189 7.4 7.99101 7.4ZM8.29056 2C10.9865 2 11.0524 4.142 9.63854 4.85C9.04543 5.144 8.78183 5.774 8.668 6.332C8.95557 6.452 9.20719 6.638 9.3989 6.878C11.6156 5.678 14 6.152 14 8.3C14 11 11.8612 11.06 11.1543 9.638C10.8547 9.044 10.2197 8.78 9.66251 8.666C9.54269 8.954 9.35696 9.2 9.11732 9.404C10.3095 11.618 9.83625 14 7.69146 14C4.99551 14 4.94159 11.852 6.35547 11.144C6.94259 10.85 7.20619 10.226 7.32601 9.674C7.03245 9.554 6.77484 9.362 6.58313 9.122C4.37244 10.31 2 9.842 2 7.7C2 5 4.1328 4.934 4.83974 6.356C5.13929 6.95 5.76835 7.208 6.32551 7.322C6.43934 7.034 6.63105 6.782 6.87669 6.59C5.68447 4.376 6.15776 2 8.29056 2Z" fill="#393939"/>
</svg>
