<svg width="16" height="16" viewBox="0 0 16 16" fill="none" xmlns="http://www.w3.org/2000/svg">
<path d="M10.625 2C10.9874 2 11.2812 2.29848 11.2812 2.66667H11.9375C12.6624 2.66667 13.25 3.26362 13.25 4V10.6667L13.2493 10.6887L13.25 12.6667C13.25 13.403 12.6624 14 11.9375 14L9.9972 13.9999C9.98773 14 9.97824 14 9.96875 14H6.03125L6.00303 13.9993L4.0625 14C3.33763 14 2.75 13.403 2.75 12.6667V4C2.75 3.26362 3.33763 2.66667 4.0625 2.66667H4.71875C4.71875 2.29848 5.01256 2 5.375 2C5.73744 2 6.03125 2.29848 6.03125 2.66667H9.96875C9.96875 2.29848 10.2626 2 10.625 2ZM12.509 11.3004C12.5142 11.1348 12.3791 11.0005 12.2134 11.0005H3.76945C3.60377 11.0005 3.46877 11.1352 3.47041 11.3009C3.48263 12.5306 3.65005 13.2205 5.94402 13.2205L6.0597 13.2238H9.9972C12.0395 13.2207 12.4639 12.7338 12.509 11.3004ZM7.01562 3.40038H3.96945C3.69331 3.40038 3.46945 3.62424 3.46945 3.90038V9.66667H12.5134V3.90038C12.5134 3.62424 12.2895 3.40038 12.0134 3.40038H8.98438V5.33333C8.98438 5.70152 8.69056 6 8.32812 6H7.67188C7.30944 6 7.01562 5.70152 7.01562 5.33333V3.40038ZM8 6.66667C8.54366 6.66667 8.98438 7.11438 8.98438 7.66667C8.98438 8.21895 8.54366 8.66667 8 8.66667C7.45634 8.66667 7.01562 8.21895 7.01562 7.66667C7.01562 7.11438 7.45634 6.66667 8 6.66667Z" fill="#393939"/>
</svg>
