<svg width="16" height="16" viewBox="0 0 16 16" fill="none" xmlns="http://www.w3.org/2000/svg">
<path d="M9.92003 2C10.1851 2 10.4 2.2149 10.4 2.48H10.88C11.4102 2.48 11.84 2.90981 11.84 3.44V11.6L11.8396 11.6173L11.84 13.04C11.84 13.5702 11.4102 14 10.88 14H5.12003C4.58984 14 4.16003 13.5702 4.16003 13.04V3.44C4.16003 2.90981 4.58984 2.48 5.12003 2.48H5.60003C5.60003 2.2149 5.81494 2 6.08003 2C6.34513 2 6.56003 2.2149 6.56003 2.48H9.44003C9.44003 2.2149 9.65494 2 9.92003 2ZM11.0261 11.9567C11.0375 11.8959 10.9903 11.8403 10.9285 11.8403H5.08003C5.01819 11.8403 4.97103 11.8959 4.98385 11.9564C5.1175 12.5875 5.50507 13.3179 6.47542 13.3156L6.56003 13.318H9.44003C10.6351 13.318 10.9035 12.6087 11.0261 11.9567ZM7.26007 3.22809H5.12242C5.01176 3.22809 4.92213 3.31795 4.92242 3.42861L4.94134 10.6805C4.94163 10.7908 5.03109 10.88 5.14134 10.88H10.8661C10.9768 10.88 11.0664 10.7901 11.0661 10.6795L11.0472 3.42757C11.0469 3.31731 10.9575 3.22809 10.8472 3.22809H8.70007L8.72003 4.4C8.72003 4.6651 8.50513 4.88 8.24003 4.88H7.76003C7.49494 4.88 7.28003 4.6651 7.28003 4.4L7.26007 3.22809ZM8.00003 5.84C8.39768 5.84 8.72003 6.16235 8.72003 6.56C8.72003 6.95764 8.39768 7.28 8.00003 7.28C7.60239 7.28 7.28003 6.95764 7.28003 6.56C7.28003 6.16235 7.60239 5.84 8.00003 5.84Z" fill="#393939"/>
</svg>
