<svg width="16" height="16" viewBox="0 0 16 16" fill="none" xmlns="http://www.w3.org/2000/svg">
<path fill-rule="evenodd" clip-rule="evenodd" d="M4.33365 8.2485C5.61532 8.2485 6.66731 9.30507 6.66731 10.5821C6.66731 11.8592 5.60154 12.9158 4.33365 12.9158C3.05658 12.9158 2 11.8684 2 10.5821C2 9.30507 3.05658 8.2485 4.33365 8.2485ZM11.0639 3.0842C12.4606 3.0842 13.6064 3.77386 13.9572 4.45198L14 4.54432V11.9082C14 12.3088 13.7364 12.4616 13.4465 12.4616C13.2199 12.4616 13.0881 12.3931 12.9458 12.2824C12.6453 12.0294 12.0391 11.6762 11.0639 11.6762C10.0941 11.6762 9.42988 12.0294 9.14524 12.2508C9.00819 12.3509 8.84478 12.4616 8.55487 12.4616C8.26495 12.4616 8.10154 12.3615 7.96449 12.2508C7.78408 12.0884 7.40855 11.8791 6.87678 11.7632C6.9883 11.5271 7.06838 11.2725 7.11 11.0061C7.44084 11.0886 7.74095 11.2106 7.99022 11.3674L8.13317 11.4654V4.79733C8.02775 4.47579 7.24761 3.88015 6.04578 3.88015C4.9157 3.88015 4.17116 4.40674 3.98979 4.74057L3.96366 4.79733L3.96281 7.79783C3.66316 7.83834 3.37762 7.92714 3.11443 8.056L3.115 4.54432C3.40492 3.83798 4.58566 3.0842 6.04578 3.0842C7.158 3.0842 8.15425 3.53225 8.55487 4.03828C8.96075 3.53225 9.957 3.0842 11.0639 3.0842ZM4.1461 9.39975C3.6051 9.39975 3.16147 9.84458 3.16147 10.3844C3.16147 10.9254 3.6051 11.369 4.1461 11.369C4.32163 11.369 4.48634 11.3221 4.63061 11.2404L5.08385 11.6948C5.13074 11.7417 5.19566 11.7645 5.26058 11.7645C5.40124 11.7645 5.50583 11.6563 5.50583 11.5181C5.50583 11.4544 5.48419 11.3919 5.4361 11.3438L4.98647 10.8941C5.07784 10.7451 5.13074 10.5707 5.13074 10.3844C5.13074 9.84458 4.68711 9.39975 4.1461 9.39975ZM11.0639 3.88015C9.93037 3.88015 9.17053 4.41474 9.00405 4.74441L8.98183 4.79733V11.4654C9.48259 11.0911 10.2416 10.8803 11.0639 10.8803C11.8115 10.8803 12.5068 11.0545 13.0072 11.3832L13.1513 11.4865V4.79733C13.0301 4.47052 12.2658 3.88015 11.0639 3.88015ZM4.1461 9.74599C4.49836 9.74599 4.78449 10.0333 4.78449 10.3844C4.78449 10.7366 4.49836 11.0228 4.1461 11.0228C3.79385 11.0228 3.50772 10.7366 3.50772 10.3844C3.50772 10.0333 3.79385 9.74599 4.1461 9.74599Z" fill="#393939"/>
</svg>
