<svg width="16" height="16" viewBox="0 0 16 16" fill="none" xmlns="http://www.w3.org/2000/svg">
<path d="M2.64595 3.57484C2.64595 3.42421 2.76805 3.30211 2.91868 3.30211H4.00959C4.16021 3.30211 4.28232 3.42421 4.28232 3.57484C4.28232 3.72546 4.16021 3.84756 4.00959 3.84756H3.1914V4.66575C3.1914 4.81637 3.0693 4.93847 2.91868 4.93847C2.76805 4.93847 2.64595 4.81637 2.64595 4.66575V3.57484Z" fill="#393939"/>
<path d="M5.69644 4.39302V10.208C5.5961 9.94952 5.44563 9.71497 5.25716 9.51671V4.39302H5.69644Z" fill="#393939"/>
<path d="M4.51086 4.39302V9.00956C4.27213 8.91395 4.01227 8.86122 3.74094 8.86122L3.74094 4.39302H4.51086Z" fill="#393939"/>
<path d="M7.68972 4.39302V11.6482H6.43329V4.39302H7.68972Z" fill="#393939"/>
<path d="M8.95087 11.6482V4.39302H8.14789V11.6482H8.95087Z" fill="#393939"/>
<path d="M10.6749 4.39302V11.6482H9.42794V4.39302H10.6749Z" fill="#393939"/>
<path d="M12.0353 11.6482V4.39302H11.0575V11.6482H12.0353Z" fill="#393939"/>
<path d="M12.9091 4.39302V11.6482H12.2762V4.39302H12.9091Z" fill="#393939"/>
<path d="M3.12479 10.8094C3.12479 11.0722 3.33825 11.2857 3.60104 11.2857C3.86383 11.2857 4.07729 11.0722 4.07729 10.8094C4.07729 10.5475 3.86383 10.3332 3.60104 10.3332C3.33825 10.3332 3.12479 10.5475 3.12479 10.8094Z" fill="#393939"/>
<path fill-rule="evenodd" clip-rule="evenodd" d="M5.48188 10.9569C5.48188 11.9097 4.6868 12.6979 3.74094 12.6979C2.78822 12.6979 2 11.9165 2 10.9569C2 10.0042 2.78822 9.21601 3.74094 9.21601C4.69709 9.21601 5.48188 10.0042 5.48188 10.9569ZM4.61541 11.6552C4.61541 11.7583 4.53738 11.839 4.43244 11.839C4.38401 11.839 4.33558 11.822 4.3006 11.787L3.96248 11.448C3.85485 11.509 3.73198 11.544 3.60103 11.544C3.19743 11.544 2.86648 11.213 2.86648 10.8094C2.86648 10.4067 3.19743 10.0749 3.60103 10.0749C4.00463 10.0749 4.33558 10.4067 4.33558 10.8094C4.33558 10.9484 4.29612 11.0785 4.22795 11.1897L4.56339 11.5251C4.59926 11.561 4.61541 11.6076 4.61541 11.6552Z" fill="#393939"/>
<path d="M13.7273 4.93847C13.8779 4.93847 14 4.81637 14 4.66575V3.57484C14 3.42421 13.8779 3.30211 13.7273 3.30211H12.6364C12.4857 3.30211 12.3636 3.42421 12.3636 3.57484C12.3636 3.72546 12.4857 3.84756 12.6364 3.84756H13.4545V4.66575C13.4545 4.81637 13.5766 4.93847 13.7273 4.93847Z" fill="#393939"/>
<path d="M12.6364 12.6979C12.4857 12.6979 12.3636 12.5758 12.3636 12.4252C12.3636 12.2745 12.4857 12.1524 12.6364 12.1524H13.4545V11.3343C13.4545 11.1836 13.5766 11.0615 13.7273 11.0615C13.8779 11.0615 14 11.1836 14 11.3343V12.424L14 12.4252C14 12.5758 13.8779 12.6979 13.7273 12.6979H12.6364Z" fill="#393939"/>
</svg>
