<svg width="16" height="16" viewBox="0 0 16 16" fill="none" xmlns="http://www.w3.org/2000/svg">
<path fill-rule="evenodd" clip-rule="evenodd" d="M9.86462 2.92234L9.9989 2.9932L13.4119 4.93108C13.78 5.14582 13.9649 5.42031 13.9954 5.84511L14 5.97715V9.79507C14 10.4314 13.8028 10.6939 13.4237 10.9315L13.3251 10.9906L9.53612 13.1406C9.29569 13.2755 9.07003 13.2924 8.83652 13.1912L8.7359 13.1406L6.59958 11.9297C6.73257 11.7118 6.836 11.4745 6.90389 11.2237L8.75518 12.2777V8.27658L4.99993 6.13141L4.99979 7.89904C4.76637 7.83312 4.52062 7.7978 4.2672 7.7978V5.97715C4.2672 5.52139 4.41859 5.22498 4.75397 4.99739L4.86013 4.93108L8.2683 2.9932C8.80672 2.68616 9.32872 2.66255 9.86462 2.92234ZM4.2672 8.25984C5.51237 8.25984 6.5344 9.28632 6.5344 10.527C6.5344 11.7677 5.49898 12.7942 4.2672 12.7942C3.02649 12.7942 2 11.7767 2 10.527C2 9.28632 3.02649 8.25984 4.2672 8.25984ZM13.2673 6.13141L9.51202 8.27658V12.2777L12.8961 10.3543C13.1365 10.2151 13.2404 10.0759 13.2626 9.86563L13.2673 9.77097V6.13141ZM4.08499 9.37831C3.55939 9.37831 3.1284 9.81047 3.1284 10.3349C3.1284 10.8605 3.55939 11.2915 4.08499 11.2915C4.25552 11.2915 4.41553 11.2459 4.55569 11.1665L4.99603 11.608C5.04158 11.6536 5.10465 11.6758 5.16773 11.6758C5.30438 11.6758 5.406 11.5706 5.406 11.4363C5.406 11.3744 5.38497 11.3137 5.33825 11.267L4.90142 10.8301C4.99019 10.6853 5.04158 10.5159 5.04158 10.3349C5.04158 9.81047 4.61059 9.37831 4.08499 9.37831ZM4.08499 9.71469C4.42721 9.71469 4.7052 9.99384 4.7052 10.3349C4.7052 10.6771 4.42721 10.9551 4.08499 10.9551C3.74277 10.9551 3.46478 10.6771 3.46478 10.3349C3.46478 9.99384 3.74277 9.71469 4.08499 9.71469ZM6.90407 4.64185L5.4145 5.49509L9.13601 7.6017L10.6256 6.75809L6.90407 4.64185ZM8.71402 3.61954L8.59128 3.68255L7.66572 4.20799L11.4017 6.31942L12.8575 5.49509L9.68074 3.68255C9.34651 3.48972 9.03894 3.4721 8.71402 3.61954Z" fill="#393939"/>
</svg>
