<svg width="16" height="16" viewBox="0 0 16 16" fill="none" xmlns="http://www.w3.org/2000/svg">
<path d="M6.06608 9.82878V3.43232H5.58287V9.06837C5.79019 9.28645 5.95571 9.54445 6.06608 9.82878Z" fill="#393939"/>
<path d="M4.76194 8.51052V3.43232H3.91503L3.91504 8.34734C4.21349 8.34734 4.49934 8.40534 4.76194 8.51052Z" fill="#393939"/>
<path d="M8.25869 11.413V3.43232H6.87662V11.413H8.25869Z" fill="#393939"/>
<path d="M9.64595 3.43232V11.413H8.76267V3.43232H9.64595Z" fill="#393939"/>
<path d="M11.5424 11.413V3.43232H10.1707V11.413H11.5424Z" fill="#393939"/>
<path d="M13.0388 3.43232V11.413H11.9633V3.43232H13.0388Z" fill="#393939"/>
<path d="M14 11.413V3.43232H13.3038V11.413H14Z" fill="#393939"/>
<path d="M3.76113 11.0142C3.47207 11.0142 3.23726 10.7794 3.23726 10.4904C3.23726 10.2023 3.47207 9.96648 3.76113 9.96648C4.0502 9.96648 4.285 10.2023 4.285 10.4904C4.285 10.7794 4.0502 11.0142 3.76113 11.0142Z" fill="#393939"/>
<path fill-rule="evenodd" clip-rule="evenodd" d="M3.91503 12.5677C4.95548 12.5677 5.83007 11.7006 5.83007 10.6526C5.83007 9.60465 4.96679 8.73761 3.91503 8.73761C2.86704 8.73761 2 9.60465 2 10.6526C2 11.7082 2.86704 12.5677 3.91503 12.5677ZM4.67569 11.6229C4.79112 11.6229 4.87695 11.5341 4.87695 11.4207C4.87695 11.3684 4.85919 11.3171 4.81973 11.2776L4.45075 10.9087C4.52573 10.7863 4.56914 10.6433 4.56914 10.4904C4.56914 10.0474 4.20509 9.68235 3.76113 9.68235C3.31718 9.68235 2.95313 10.0474 2.95313 10.4904C2.95313 10.9343 3.31718 11.2984 3.76113 11.2984C3.90517 11.2984 4.04033 11.2599 4.15872 11.1928L4.53066 11.5657C4.56914 11.6042 4.62241 11.6229 4.67569 11.6229Z" fill="#393939"/>
</svg>
