<svg width="16" height="16" viewBox="0 0 16 16" fill="none" xmlns="http://www.w3.org/2000/svg">
<path d="M13.1627 11.7466C13.1627 12.8591 12.6145 13.4127 11.5126 13.4127H6.84196C7.0307 13.1591 7.17216 12.8688 7.25212 12.5557H11.4753C12.0236 12.5557 12.3057 12.2629 12.3057 11.7306V3.68742C12.3057 3.15511 12.0236 2.85702 11.47 2.85702H5.90204C5.34844 2.85702 5.06631 3.16043 5.06631 3.68742V9.51823C5.00293 9.51322 4.9389 9.51067 4.87431 9.51067C4.64436 9.51067 4.42122 9.54327 4.2093 9.60404V3.67145C4.2093 2.56425 4.7629 2 5.85946 2H11.5126C12.6145 2 13.1627 2.56425 13.1627 3.67145V11.7466Z" fill="#393939"/>
<path d="M10.7088 5.08207C10.8951 5.08207 11.0335 4.93302 11.0335 4.74672C11.0335 4.56573 10.8951 4.42733 10.7088 4.42733H6.66857C6.47693 4.42733 6.33853 4.56573 6.33853 4.74672C6.33853 4.93302 6.47693 5.08207 6.66857 5.08207H10.7088Z" fill="#393939"/>
<path d="M11.0335 6.60448C11.0335 6.79078 10.8951 6.93983 10.7088 6.93983H6.66857C6.47693 6.93983 6.33853 6.79078 6.33853 6.60448C6.33853 6.42349 6.47693 6.28509 6.66857 6.28509H10.7088C10.8951 6.28509 11.0335 6.42349 11.0335 6.60448Z" fill="#393939"/>
<path d="M8.57956 8.79759C8.77119 8.79759 8.90959 8.65387 8.90959 8.47288C8.90959 8.28657 8.77119 8.14285 8.57956 8.14285H6.66857C6.47693 8.14285 6.33853 8.28657 6.33853 8.47288C6.33853 8.65387 6.47693 8.79759 6.66857 8.79759H8.57956Z" fill="#393939"/>
<path d="M4.7106 12.3475C4.40311 12.3475 4.15334 12.0978 4.15334 11.7903C4.15334 11.4838 4.40311 11.233 4.7106 11.233C5.01809 11.233 5.26786 11.4838 5.26786 11.7903C5.26786 12.0978 5.01809 12.3475 4.7106 12.3475Z" fill="#393939"/>
<path fill-rule="evenodd" clip-rule="evenodd" d="M4.87431 14C5.98108 14 6.91141 13.0777 6.91141 11.9629C6.91141 10.8481 5.99311 9.92581 4.87431 9.92581C3.75953 9.92581 2.83722 10.8481 2.83722 11.9629C2.83722 13.0857 3.75953 14 4.87431 14ZM5.68345 12.995C5.80623 12.995 5.89753 12.9006 5.89753 12.7799C5.89753 12.7243 5.87864 12.6697 5.83667 12.6277L5.44417 12.2352C5.52393 12.1051 5.5701 11.9529 5.5701 11.7903C5.5701 11.3191 5.18285 10.9308 4.7106 10.9308C4.23834 10.9308 3.85109 11.3191 3.85109 11.7903C3.85109 12.2625 4.23834 12.6498 4.7106 12.6498C4.86382 12.6498 5.0076 12.6088 5.13353 12.5375L5.52918 12.9342C5.5701 12.9751 5.62677 12.995 5.68345 12.995Z" fill="#393939"/>
</svg>
