<svg width="16" height="16" viewBox="0 0 16 16" fill="none" xmlns="http://www.w3.org/2000/svg">
<path fill-rule="evenodd" clip-rule="evenodd" d="M12.4884 5.34083L12.4884 5.10258C12.4884 4.40254 12.1315 4.05252 11.4213 4.05252H8.11479C7.88371 4.05252 7.74778 3.99475 7.57787 3.85202L7.37057 3.67871C7.14629 3.4918 6.96957 3.42724 6.63654 3.42724H5.62386C5.02916 3.42724 4.68594 3.76706 4.68594 4.45351V5.54073C3.71323 5.9565 3.06558 6.96995 3.18102 8.09583L3.19912 8.27236C3.39729 8.2126 3.60675 8.18043 3.82292 8.18043C3.86021 8.18043 3.89729 8.18138 3.93414 8.18326L3.87724 7.66917C3.80606 7.02602 4.15095 6.4414 4.68594 6.16768C4.88988 6.06334 5.12146 6.00417 5.36814 6.00417H11.8275C12.7156 6.00417 13.4092 6.77138 13.3199 7.65492L13.0265 10.5602C12.9491 11.3263 12.3041 11.9094 11.5341 11.9094H5.68968C5.59413 11.9094 5.50049 11.9004 5.40961 11.8832C5.2389 12.0626 5.03884 12.2137 4.81801 12.3284C5.1456 12.4853 5.51185 12.5728 5.89684 12.5728H11.2638C12.5421 12.5728 13.6145 11.6084 13.7497 10.3372L13.9871 8.10524C14.1442 6.62823 12.9865 5.34083 11.5011 5.34083H12.4884ZM4.68594 5.34083L4.68594 5.54073C4.98655 5.41224 5.31821 5.34083 5.66798 5.34083H4.68594ZM5.23307 5.33707H11.9413V5.13317C11.9413 4.77975 11.7509 4.59964 11.4145 4.59964H7.97547C7.63904 4.59964 7.45893 4.53167 7.23805 4.34817L7.03075 4.17825C6.85744 4.02873 6.72151 3.97436 6.49382 3.97436H5.73601C5.40978 3.97436 5.23307 4.14427 5.23307 4.4807V5.33707Z" fill="#393939"/>
<path d="M11.1707 7.84778H6.00358V8.51112H11.1707V7.84778Z" fill="#393939"/>
<path d="M6.7795 9.40247H10.3948V10.0658H6.7795V9.40247Z" fill="#393939"/>
<path d="M3.67631 10.7211C3.40092 10.7211 3.17724 10.4974 3.17724 10.222C3.17724 9.94755 3.40092 9.72292 3.67631 9.72292C3.95169 9.72292 4.17538 9.94755 4.17538 10.222C4.17538 10.4974 3.95169 10.7211 3.67631 10.7211Z" fill="#393939"/>
<path fill-rule="evenodd" clip-rule="evenodd" d="M3.82291 12.201C4.8141 12.201 5.64728 11.375 5.64728 10.3766C5.64728 9.37822 4.82488 8.55222 3.82291 8.55222C2.82453 8.55222 1.99854 9.37822 1.99854 10.3766C1.99854 11.3822 2.82453 12.201 3.82291 12.201ZM4.54754 11.301C4.65751 11.301 4.73928 11.2164 4.73928 11.1083C4.73928 11.0585 4.72236 11.0096 4.68476 10.972L4.33325 10.6205C4.40468 10.5039 4.44604 10.3677 4.44604 10.222C4.44604 9.79999 4.09923 9.45224 3.67628 9.45224C3.25334 9.45224 2.90653 9.79999 2.90653 10.222C2.90653 10.6449 3.25334 10.9917 3.67628 10.9917C3.81351 10.9917 3.94227 10.9551 4.05505 10.8912L4.40938 11.2464C4.44604 11.2831 4.49679 11.301 4.54754 11.301Z" fill="#393939"/>
</svg>
