<svg width="16" height="16" viewBox="0 0 16 16" fill="none" xmlns="http://www.w3.org/2000/svg">
<path d="M4.2184 9.46509C5.43677 9.46509 6.43679 10.4695 6.43679 11.6835C6.43679 12.8975 5.42367 13.9019 4.2184 13.9019C3.00439 13.9019 2 12.9062 2 11.6835C2 10.4695 3.00439 9.46509 4.2184 9.46509ZM13.3595 2.09811C13.6771 2.09811 13.9466 2.33871 13.993 2.64492L14 2.73857V12.5784C14 12.896 13.7594 13.1655 13.4532 13.2118L13.3595 13.2189L6.39263 13.2192C6.54437 13.0067 6.66607 12.7717 6.75097 12.5208L13.1849 12.5202V2.7968H4.85886L4.85882 9.09172C4.65342 9.04033 4.43888 9.013 4.2184 9.013V2.73857C4.2184 2.42417 4.40704 2.20408 4.74189 2.12076L4.85886 2.09811H13.3595ZM4.04011 10.5595C3.52582 10.5595 3.10411 10.9823 3.10411 11.4955C3.10411 12.0098 3.52582 12.4315 4.04011 12.4315C4.20697 12.4315 4.36354 12.3869 4.50068 12.3092L4.93154 12.7412C4.97611 12.7858 5.03783 12.8075 5.09954 12.8075C5.23326 12.8075 5.33268 12.7046 5.33268 12.5732C5.33268 12.5126 5.31211 12.4532 5.2664 12.4075L4.83897 11.9801C4.92583 11.8383 4.97611 11.6726 4.97611 11.4955C4.97611 10.9823 4.5544 10.5595 4.04011 10.5595ZM4.04011 10.8886C4.37497 10.8886 4.64697 11.1618 4.64697 11.4955C4.64697 11.8303 4.37497 12.1023 4.04011 12.1023C3.70525 12.1023 3.43325 11.8303 3.43325 11.4955C3.43325 11.1618 3.70525 10.8886 4.04011 10.8886ZM12.4862 11.181V11.8797L6.88148 11.8803C6.88639 11.8153 6.88888 11.7496 6.88888 11.6835C6.88888 11.5117 6.87226 11.3435 6.84053 11.1803L12.4862 11.181ZM9.05098 9.78366V10.4823L6.59978 10.4826C6.4671 10.2225 6.29296 9.98627 6.08628 9.783L9.05098 9.78366ZM11.8457 6.98891V10.133L11.147 9.43431L10.4483 10.133V6.98891H11.8457ZM9.05098 8.38629V9.08497H5.55755V8.38629H9.05098ZM9.05098 6.98891V7.6876H5.55755V6.98891H9.05098ZM9.05098 5.59154V6.29023H5.55755V5.59154H9.05098ZM10.7395 3.49548L11.147 3.90305L11.5546 3.49548H11.8457V4.19417H12.5444V4.48529L12.1368 4.89286L12.5444 5.30042V5.59154H11.8457V6.29023H11.5546L11.147 5.88266L10.7395 6.29023H10.4483V5.59154H9.74966V5.30042L10.1572 4.89286L9.74966 4.48529V4.19417H10.4483V3.49548H10.7395ZM9.05098 4.19417V4.89286H5.55755V4.19417H9.05098Z" fill="#393939"/>
</svg>
