<svg width="16" height="16" viewBox="0 0 16 16" fill="none" xmlns="http://www.w3.org/2000/svg">
<path d="M14 7.90855C14 10.5223 11.8387 12.6883 9.22502 12.6883C8.43561 12.6883 7.68471 12.4862 7.02526 12.1444C7.35739 11.6486 7.55475 11.0566 7.55475 10.426C7.55475 10.2383 7.53549 10.0505 7.5018 9.86763C8.06979 9.66546 8.6811 9.54994 9.22021 9.54994C10.3658 9.54994 11.4537 9.95427 12.1805 10.5608C12.8063 9.858 13.1865 8.93382 13.1865 7.90855C13.1817 5.7136 11.42 3.94705 9.22021 3.94705C7.18411 3.94705 5.51865 5.47292 5.29241 7.44164C5.14801 7.39832 4.99879 7.36462 4.84957 7.34537C4.72923 7.32611 4.6089 7.31649 4.48375 7.31649C4.77737 4.98195 6.80384 3.12876 9.22021 3.12876C11.8339 3.12876 14 5.29964 14 7.90855Z" fill="#393939"/>
<path d="M10.8424 6.91697C10.8424 7.92299 10.1444 8.72202 9.22023 8.72202C8.30085 8.72202 7.59808 7.92299 7.59808 6.91697C7.59808 5.96871 8.31529 5.14561 9.22023 5.14561C10.13 5.14561 10.8424 5.96871 10.8424 6.91697Z" fill="#393939"/>
<path d="M4.21949 10.9777C3.78758 10.9777 3.43028 10.6204 3.43028 10.1884C3.43028 9.75653 3.78758 9.39923 4.21949 9.39923C4.6514 9.39923 5.00871 9.75653 5.00871 10.1884C5.00871 10.6204 4.6514 10.9777 4.21949 10.9777Z" fill="#393939"/>
<path fill-rule="evenodd" clip-rule="evenodd" d="M6.89049 10.426C6.89049 11.7641 5.77377 12.8712 4.44525 12.8712C3.1071 12.8712 2 11.7738 2 10.426C2 9.08785 3.1071 7.98075 4.44525 7.98075C5.78821 7.98075 6.89049 9.08785 6.89049 10.426ZM5.53222 11.67C5.61729 11.67 5.6775 11.6046 5.6775 11.5208C5.6775 11.4816 5.66441 11.4449 5.63561 11.4161L5.01916 10.7984C5.14873 10.6282 5.22595 10.4175 5.22595 10.1884C5.22595 9.63481 4.7731 9.18196 4.21947 9.18196C3.66585 9.18196 3.213 9.63481 3.213 10.1884C3.213 10.7421 3.66585 11.1949 4.21947 11.1949C4.43805 11.1949 4.6396 11.1242 4.80452 11.0065L5.42489 11.6268C5.45369 11.6556 5.49164 11.67 5.53222 11.67Z" fill="#393939"/>
</svg>
