<svg width="16" height="16" viewBox="0 0 16 16" fill="none" xmlns="http://www.w3.org/2000/svg">
<path d="M6.93169 5.32867H6.22716V5.68093H6.93169V5.32867Z" fill="#393939"/>
<path d="M9.48015 6.15363L10.1068 5.83167L9.94577 5.51836L9.31916 5.84033L9.48015 6.15363Z" fill="#393939"/>
<path fill-rule="evenodd" clip-rule="evenodd" d="M13.977 10.9649L10.2782 3.74348C10.2195 3.68477 10.1608 3.62606 10.1021 3.62606H9.98465L8.0472 4.62414V3.91961C8.0472 3.80219 7.92978 3.68477 7.81236 3.68477H5.40522C5.2878 3.68477 5.17038 3.80219 5.17038 3.91961V12.0217C5.17038 12.1391 5.2878 12.2565 5.40522 12.2565H7.81236C7.92978 12.2565 8.0472 12.1391 8.0472 12.0217V5.68093L11.4524 12.2565C11.5111 12.3152 11.5698 12.3739 11.6285 12.3739H11.746L13.8596 11.2584C13.977 11.1997 14.0357 11.0823 13.977 10.9649ZM7.28396 11.552H5.93362V4.50672H7.28396V11.552ZM8.6343 5.21125L11.8634 11.4346L13.0376 10.8475L9.80852 4.62414L8.6343 5.21125Z" fill="#393939"/>
<path d="M3.05679 5.32867H3.76132V5.68093H3.05679V5.32867Z" fill="#393939"/>
<path fill-rule="evenodd" clip-rule="evenodd" d="M2.23484 3.74348H4.64198C4.7594 3.74348 4.81811 3.8609 4.87682 3.97832V12.0804C4.87682 12.1978 4.7594 12.3152 4.64198 12.3152H2.23484C2.11742 12.3152 2 12.1978 2 12.0804V3.97832C2 3.8609 2.11742 3.74348 2.23484 3.74348ZM2.70452 11.552H4.05487V4.50672H2.70452V11.552Z" fill="#393939"/>
</svg>
