<svg width="16" height="16" viewBox="0 0 16 16" fill="none" xmlns="http://www.w3.org/2000/svg">
<path fill-rule="evenodd" clip-rule="evenodd" d="M11.625 10.6455H13.6514C13.8765 10.6455 14.0454 10.8706 13.9891 11.0395C13.9891 11.2646 13.8202 11.4335 13.5951 11.4335H2.39401C2.16886 11.4335 2 11.2083 2 11.0395C2 10.8143 2.16886 10.6455 2.39401 10.6455H4.42033V10.2515H3.06945C2.90059 10.2515 2.73173 10.0826 2.73173 9.91375C2.73173 9.74489 2.90059 9.57603 3.06945 9.57603H4.42033V9.2946H3.74489C3.51974 9.2946 3.40717 9.12574 3.40717 8.95688C3.40717 8.73173 3.57603 8.61915 3.74489 8.61915H4.42033V6.25511L5.26464 4.67908C5.31138 4.59152 5.37721 4.5665 5.4335 4.5665H10.6119C10.6682 4.5665 10.7355 4.60491 10.7807 4.67908L11.625 6.19882V8.61915H12.2442C12.4693 8.61915 12.5819 8.78802 12.5819 8.95688C12.5819 9.18202 12.4131 9.2946 12.2442 9.2946H11.625V9.57603H12.9759C13.1448 9.57603 13.3136 9.74489 13.3136 9.91375C13.3136 10.0826 13.1448 10.2515 12.9759 10.2515H11.625V10.6455ZM10.7807 5.97368L10.3304 5.24195H8.58556V5.97368H10.7807ZM5.88379 5.24195H7.57239V5.97368H5.4335L5.88379 5.24195ZM10.7496 10.6455C10.8601 10.6455 10.9496 10.5559 10.9496 10.4455V6.96169C10.9496 6.85123 10.8601 6.76169 10.7496 6.76169H8.72927C8.61881 6.76169 8.52927 6.85123 8.52927 6.96169V7.85629C8.52927 7.96674 8.43973 8.05629 8.32927 8.05629H7.7724C7.66194 8.05629 7.5724 7.96674 7.5724 7.85629V6.96169C7.5724 6.85123 7.48285 6.76169 7.3724 6.76169H5.46464C5.35418 6.76169 5.26464 6.85123 5.26464 6.96169V10.4455C5.26464 10.5559 5.35418 10.6455 5.46464 10.6455H10.7496Z" fill="#393939"/>
</svg>
