<svg width="16" height="16" viewBox="0 0 16 16" fill="none" xmlns="http://www.w3.org/2000/svg">
<path d="M6.25909 7.33905C6.07499 7.33905 5.92576 7.48829 5.92576 7.67238C5.92576 7.85648 6.07499 8.00572 6.25909 8.00572H9.74092C9.92502 8.00572 10.0743 7.85648 10.0743 7.67238C10.0743 7.48829 9.92502 7.33905 9.74092 7.33905H6.25909Z" fill="#393939"/>
<path d="M5.92576 9.22794C5.92576 9.04384 6.07499 8.89461 6.25909 8.89461H9.74092C9.92502 8.89461 10.0743 9.04384 10.0743 9.22794C10.0743 9.41203 9.92502 9.56127 9.74092 9.56127H6.25909C6.07499 9.56127 5.92576 9.41203 5.92576 9.22794Z" fill="#393939"/>
<path d="M6.25909 10.4502C6.07499 10.4502 5.92576 10.5994 5.92576 10.7835C5.92576 10.9676 6.07499 11.1168 6.25909 11.1168H9.74092C9.92502 11.1168 10.0743 10.9676 10.0743 10.7835C10.0743 10.5994 9.92502 10.4502 9.74092 10.4502H6.25909Z" fill="#393939"/>
<path fill-rule="evenodd" clip-rule="evenodd" d="M9.33333 3.33333C9.33333 2.59695 8.73638 2 8 2C7.26362 2 6.66667 2.59695 6.66667 3.33333H4.55556C4.00327 3.33333 3.55556 3.78105 3.55556 4.33333V13C3.55556 13.5523 4.00327 14 4.55556 14H11.4444C11.9967 14 12.4444 13.5523 12.4444 13V4.33333C12.4444 3.78105 11.9967 3.33333 11.4444 3.33333H9.33333ZM4.44445 12.8976L4.44444 4.40868C4.44444 4.29822 4.53399 4.20868 4.64444 4.20868L6.02222 4.20868C6.13268 4.20868 6.22222 4.29822 6.22222 4.40868V4.89757C6.22222 5.00803 6.31177 5.09757 6.42222 5.09757L9.57778 5.09757C9.68824 5.09757 9.77778 5.00803 9.77778 4.89757V4.40868C9.77778 4.29822 9.86732 4.20868 9.97778 4.20868L11.3556 4.20868C11.466 4.20868 11.5556 4.29822 11.5556 4.40868L11.5556 12.8976C11.5556 13.008 11.466 13.0976 11.3556 13.0976H4.64445C4.53399 13.0976 4.44445 13.008 4.44445 12.8976ZM8.66667 3.32102C8.66667 3.68921 8.36819 3.98768 8 3.98768C7.63181 3.98768 7.33333 3.68921 7.33333 3.32102C7.33333 2.95283 7.63181 2.65435 8 2.65435C8.36819 2.65435 8.66667 2.95283 8.66667 3.32102Z" fill="#393939"/>
</svg>
