<svg width="16" height="16" viewBox="0 0 16 16" fill="none" xmlns="http://www.w3.org/2000/svg">
<path d="M3.83158 3.875H4.90526V4.9375H3.83158V3.875Z" fill="#393939"/>
<path d="M4.90526 11.0625H3.83158V12.125H4.90526V11.0625Z" fill="#393939"/>
<path d="M12.1053 3.875H11.0316V4.9375H12.1053V3.875Z" fill="#393939"/>
<path fill-rule="evenodd" clip-rule="evenodd" d="M7.87368 2V4.0625H6.86316V2H2.31579C2.12632 2 2 2.125 2 2.3125V6.8125H5.6V8H6.8V9.1875H4.46316V8H2.06316V13.6875C2.06316 13.875 2.18947 14 2.37895 14H6.92632V10.3125H8.06316V11.8125H9.32632V12.9375H12.8632V14H13.6842C13.8737 14 14 13.875 14 13.6875V12.9375H13.0526V11.8125H14V2.25C14 2.125 13.8737 2 13.6842 2H7.87368ZM11.7263 9.1875H10.5263V11.75H9.2V9.1875H7.93684V8H9.13684V6.8125H10.4632V8H11.7263V9.1875ZM11.7263 8V6.8125H12.8632V8H11.7263ZM7.93684 6.8125V4.0625H9.13684V6.8125H7.93684ZM7.87368 6.8125H6.86316V8H7.87368V6.8125ZM12.8632 9.1875V11.8125H11.9158V9.1875H12.8632ZM2.94737 5.8125V3H5.85263V5.875C5.78947 5.8125 2.94737 5.8125 2.94737 5.8125ZM2.88421 13H5.78947V10.125H2.88421V13ZM10.1474 5.8125V3H13.0526V5.875C13.0526 5.8125 10.1474 5.8125 10.1474 5.8125Z" fill="#393939"/>
<path d="M9.13684 12.9375H7.87368V14H9.13684V12.9375Z" fill="#393939"/>
</svg>
