<svg width="16" height="16" viewBox="0 0 16 16" fill="none" xmlns="http://www.w3.org/2000/svg">
<path d="M7.65411 5.11306C7.36587 5.11306 7.19292 4.94011 7.19292 4.65186C7.19292 4.36362 7.36587 4.19067 7.65411 4.19067H10.6519C10.9401 4.19067 11.1131 4.36362 11.1131 4.65186C11.1131 4.94011 10.9401 5.11306 10.6519 5.11306H7.65411Z" fill="#393939"/>
<path d="M5.0599 4.65186C5.0599 4.94011 5.23284 5.11306 5.52109 5.11306H5.92464C6.21288 5.11306 6.38583 4.94011 6.38583 4.65186C6.38583 4.36362 6.21288 4.19067 5.92464 4.19067H5.52109C5.23284 4.19067 5.0599 4.36362 5.0599 4.65186Z" fill="#393939"/>
<path d="M7.65411 6.78489C7.36587 6.78489 7.19292 6.61194 7.19292 6.32369C7.19292 6.03545 7.36587 5.8625 7.65411 5.8625H10.6519C10.9401 5.8625 11.1131 6.03545 11.1131 6.32369C11.1131 6.61194 10.9401 6.78489 10.6519 6.78489H7.65411Z" fill="#393939"/>
<path d="M5.0599 6.32369C5.0599 6.61194 5.23284 6.78489 5.52109 6.78489H5.92464C6.21288 6.78489 6.38583 6.61194 6.38583 6.32369C6.38583 6.03545 6.21288 5.8625 5.92464 5.8625H5.52109C5.23284 5.8625 5.0599 6.03545 5.0599 6.32369Z" fill="#393939"/>
<path d="M7.65411 8.45671C7.36587 8.45671 7.19292 8.28377 7.19292 7.99552C7.19292 7.70727 7.36587 7.53433 7.65411 7.53433H10.6519C10.9401 7.53433 11.1131 7.70727 11.1131 7.99552C11.1131 8.28377 10.9401 8.45671 10.6519 8.45671H7.65411Z" fill="#393939"/>
<path d="M5.0599 7.99552C5.0599 8.28377 5.23284 8.45671 5.52109 8.45671H5.92464C6.21288 8.45671 6.38583 8.28377 6.38583 7.99552C6.38583 7.70727 6.21288 7.53433 5.92464 7.53433H5.52109C5.23284 7.53433 5.0599 7.70727 5.0599 7.99552Z" fill="#393939"/>
<path d="M7.65411 10.0709C7.36587 10.0709 7.19292 9.89794 7.19292 9.6097C7.19292 9.32145 7.36587 9.1485 7.65411 9.1485H10.6519C10.9401 9.1485 11.1131 9.32145 11.1131 9.6097C11.1131 9.89794 10.9401 10.0709 10.6519 10.0709H7.65411Z" fill="#393939"/>
<path d="M5.0599 9.6097C5.0599 9.89794 5.23284 10.0709 5.52109 10.0709H5.92464C6.21288 10.0709 6.38583 9.89794 6.38583 9.6097C6.38583 9.32145 6.21288 9.1485 5.92464 9.1485H5.52109C5.23284 9.1485 5.0599 9.32145 5.0599 9.6097Z" fill="#393939"/>
<path d="M7.65411 11.8004C7.36587 11.8004 7.19292 11.6274 7.19292 11.3392C7.19292 11.0509 7.36587 10.878 7.65411 10.878H10.6519C10.9401 10.878 11.1131 11.0509 11.1131 11.3392C11.1131 11.6274 10.9401 11.8004 10.6519 11.8004H7.65411Z" fill="#393939"/>
<path d="M5.0599 11.3392C5.0599 11.6274 5.23284 11.8004 5.52109 11.8004H5.92464C6.21288 11.8004 6.38583 11.6274 6.38583 11.3392C6.38583 11.0509 6.21288 10.878 5.92464 10.878H5.52109C5.23284 10.878 5.0599 11.0509 5.0599 11.3392Z" fill="#393939"/>
<path fill-rule="evenodd" clip-rule="evenodd" d="M3.09982 2.40354V13.5875C3.09982 13.8181 3.33042 14.0487 3.50337 13.991H12.4966C12.7272 13.991 12.9002 13.8181 12.9002 13.5875V2.40354C12.9002 2.17295 12.7272 2 12.4966 2H3.50337C3.27277 2 3.09982 2.17295 3.09982 2.40354ZM11.9778 3.03769V13.011H4.19516V3.03769H11.9778Z" fill="#393939"/>
</svg>
