<svg width="16" height="16" viewBox="0 0 16 16" fill="none" xmlns="http://www.w3.org/2000/svg">
<path fill-rule="evenodd" clip-rule="evenodd" d="M13.1581 13.0622C13.3207 12.8942 13.3261 12.6339 13.1581 12.4713L3.4375 2.74531C3.27486 2.58267 3.00379 2.58267 2.84114 2.74531C2.68392 2.90253 2.68392 3.17902 2.84114 3.33624L12.5671 13.0622C12.7352 13.2249 13.0008 13.2249 13.1581 13.0622ZM13.2177 8.34561L13.9279 7.62457C14.0201 7.5324 14.0201 7.41313 13.9496 7.32639C12.6972 5.84093 10.4202 4.70786 8.00231 4.70786C7.47643 4.70786 6.95598 4.76207 6.45179 4.86508L7.87761 6.2909C9.79679 6.25296 11.5371 6.99026 12.8761 8.35646C12.9683 8.44862 13.1147 8.44862 13.2177 8.34561ZM3.1339 8.34019C3.78989 7.64625 4.54888 7.1258 5.3892 6.77883L4.23986 5.62949C3.3616 6.07947 2.60802 6.6704 2.05504 7.32639C1.97914 7.41313 1.97914 7.5324 2.0713 7.62457L2.78693 8.34561C2.88451 8.44862 3.03631 8.4432 3.1339 8.34019ZM5.30788 10.5088C5.93134 9.82023 6.92345 9.33773 7.93725 9.32689L6.56564 7.95527C5.55184 8.22634 4.68441 8.77933 4.12601 9.43531C4.05011 9.52748 4.05553 9.64133 4.1477 9.72807L4.95548 10.525C5.06391 10.6334 5.20487 10.628 5.30788 10.5088ZM11.5804 9.99372L11.8569 9.72807C11.9437 9.64133 11.9491 9.52748 11.8732 9.43532C11.3527 8.81185 10.5449 8.2914 9.60162 8.01491L11.5804 9.99372ZM8.00773 13.3767C8.12158 13.3767 8.21916 13.317 8.41976 13.1219L9.68836 11.9021C9.77511 11.8262 9.78595 11.7069 9.72089 11.6147C9.37934 11.1756 8.73962 10.7961 8.00773 10.7961C7.25416 10.7961 6.60901 11.1918 6.27288 11.6472C6.21867 11.7231 6.24036 11.8262 6.32168 11.9021L7.59028 13.1219C7.79087 13.317 7.89388 13.3767 8.00773 13.3767Z" fill="#393939"/>
</svg>
