<svg width="16" height="16" viewBox="0 0 16 16" fill="none" xmlns="http://www.w3.org/2000/svg">
<path fill-rule="evenodd" clip-rule="evenodd" d="M12.8241 4.0637V10.9757L10.16 14H5.24014C5.09584 14 4.97599 13.8796 4.97599 13.7359C4.97599 13.5916 5.09584 13.4717 5.24014 13.4717H9.92029L12.2964 10.7599V4.0637C12.2964 3.9194 12.4163 3.79955 12.56 3.79955C12.7043 3.79955 12.8241 3.9194 12.8241 4.0637ZM6.77614 9.65555C6.77614 9.776 6.68014 9.89585 6.53584 9.89585H4.80784C4.68799 9.89585 4.56814 9.79985 4.56814 9.65555C4.56814 9.51185 4.66414 9.41585 4.80784 9.41585H6.53584C6.65629 9.41585 6.77614 9.51185 6.77614 9.65555ZM8.07244 8.50355C8.07244 8.624 7.97584 8.74385 7.83214 8.74385H4.80844C4.68799 8.74385 4.56814 8.64785 4.56814 8.50355C4.56814 8.35985 4.66414 8.26385 4.80844 8.26385H7.83214C7.95199 8.26385 8.07244 8.35985 8.07244 8.50355ZM4.56814 7.2317C4.56814 7.11185 4.66414 6.992 4.80844 6.992H9.70444C9.82429 6.992 9.94414 7.088 9.94414 7.2317C9.94414 7.376 9.84814 7.4714 9.70444 7.4714H4.80844C4.68799 7.4714 4.56814 7.35155 4.56814 7.2317ZM3.72799 5.95985H11.2404V10.1117H9.41644C9.19999 10.1117 9.00799 10.3037 9.00799 10.5196V12.464H3.72799V5.95985ZM4.85614 4.56755C4.73629 4.496 4.68799 4.37555 4.68799 4.18355V4.112H5.26399V4.208C5.26399 4.32785 5.26399 4.37555 5.28784 4.42385C5.28784 4.4477 5.33614 4.47155 5.38384 4.47155C5.43214 4.47155 5.45599 4.47155 5.47984 4.4477C5.50429 4.42385 5.50429 4.4 5.50429 4.37555C5.50429 4.27955 5.50429 4.208 5.47984 4.18355C5.45599 4.13585 5.40829 4.112 5.28784 4.0637C5.12029 3.99155 4.99984 3.92 4.92829 3.89555C4.85614 3.84785 4.80784 3.79955 4.76014 3.728C4.71184 3.65585 4.68799 3.5837 4.68799 3.51155C4.68799 3.3917 4.73629 3.2957 4.83229 3.22355C4.92829 3.152 5.07199 3.1037 5.26399 3.1037V2.98385H5.52814V3.1037C5.69629 3.12755 5.83999 3.152 5.93599 3.22355C6.03199 3.2957 6.08029 3.3917 6.08029 3.51155V3.5837H5.50429V3.51155C5.50429 3.44 5.50429 3.3917 5.47984 3.36785C5.45599 3.344 5.43214 3.344 5.38384 3.344C5.35999 3.344 5.31229 3.344 5.31229 3.36785C5.28784 3.3917 5.28784 3.41555 5.28784 3.46385C5.28784 3.536 5.31229 3.5837 5.33614 3.60755C5.35999 3.632 5.48044 3.6797 5.64799 3.75185C5.79229 3.824 5.88829 3.8717 5.95984 3.89555C6.00814 3.92 6.05584 3.9677 6.10414 4.03985C6.15244 4.112 6.15244 4.18355 6.15244 4.27955C6.15244 4.42385 6.10414 4.5437 6.00814 4.61585C5.91214 4.688 5.76844 4.75955 5.55199 4.75955V4.90385H5.28784V4.7357C5.12029 4.688 4.97599 4.6397 4.85614 4.56755ZM10.736 4.4C10.736 4.51985 10.64 4.6397 10.4963 4.6397L9.51184 4.61585C9.39199 4.61585 9.27214 4.496 9.27214 4.37555C9.27214 4.2557 9.36814 4.13585 9.51184 4.13585L10.4963 4.1597C10.64 4.1597 10.736 4.27955 10.736 4.4ZM10.4963 3.5837H8.57629C8.45584 3.5837 8.33599 3.4877 8.33599 3.344C8.33599 3.1997 8.43199 3.1037 8.57629 3.1037H10.4963C10.6161 3.1037 10.736 3.1997 10.736 3.344C10.736 3.4877 10.6161 3.5837 10.4963 3.5837ZM9.53629 12.2237V10.64H10.9518L9.53629 12.2237ZM11.7681 10.5679V2.3357C11.7681 2.1437 11.6238 2 11.4318 2H3.51214C3.32014 2 3.17584 2.1437 3.17584 2.3357V12.656C3.17584 12.848 3.32014 12.9917 3.51214 12.9917H9.56014L11.7681 10.5679Z" fill="#393939"/>
</svg>
