<svg width="16" height="16" viewBox="0 0 16 16" fill="none" xmlns="http://www.w3.org/2000/svg">
<path fill-rule="evenodd" clip-rule="evenodd" d="M10.2162 3.81081H2.27027C2.10811 3.81081 2 3.91892 2 4.08108V8.45946C2 8.62162 2.10811 8.72973 2.27027 8.72973H6V10.1351H2.32432C2.27027 10.1351 2.16216 10.1892 2.16216 10.2973V12.027C2.16216 12.0811 2.21622 12.1892 2.32432 12.1892H10.1081C10.1622 12.1892 10.2703 12.1351 10.2703 12.027V10.2973C10.2703 10.2432 10.2162 10.1351 10.1081 10.1351H6.43243V8.72973H10.1622C10.3243 8.72973 10.4324 8.62162 10.4324 8.45946V4.08108C10.4324 3.90047 10.3784 3.81081 10.2162 3.81081ZM2.43243 6.82432C2.43243 7.10047 2.65598 7.32432 2.93212 7.32432H9.55528C9.83142 7.32432 10.0541 7.10046 10.0541 6.82432V4.68919C10.0541 4.41305 9.83019 4.18919 9.55405 4.18919H2.93243C2.65629 4.18919 2.43243 4.41305 2.43243 4.68919V6.82432ZM6.05406 8.02703C6.05406 8.13513 6.16216 8.24324 6.27027 8.24324C6.37838 8.24324 6.48649 8.13513 6.48649 8.02703C6.48649 7.91892 6.37838 7.81081 6.27027 7.81081C6.16216 7.81081 6.05406 7.91892 6.05406 8.02703ZM6.16216 11.3243H3.2973C3.24324 11.3243 3.13514 11.2703 3.13514 11.1622C3.13514 11.1081 3.18919 11 3.2973 11H6.16216C6.21622 11 6.32433 11.0541 6.32433 11.1622C6.32433 11.2703 6.21622 11.3243 6.16216 11.3243ZM9.40541 11.1622C9.40541 11 9.2973 10.8919 9.13514 10.8919C8.97297 10.8919 8.86487 11 8.86487 11.1622C8.86487 11.3243 8.97297 11.4324 9.13514 11.4324C9.2973 11.4324 9.40541 11.3243 9.40541 11.1622Z" fill="#393939"/>
<path d="M12.3243 9.48649H12.1081C12.0541 9.48649 12 9.43243 12 9.37838C12 9.32432 12.0541 9.27027 12.1081 9.27027H12.3243C12.3784 9.27027 12.4324 9.32432 12.4324 9.37838C12.4324 9.43243 12.3784 9.48649 12.3243 9.48649Z" fill="#393939"/>
<path d="M12.7568 9.10811H12.1081C12.0541 9.10811 12 9.05405 12 9C12 8.94595 12.0541 8.89189 12.1081 8.89189H12.7568C12.8108 8.89189 12.8649 8.94595 12.8649 9C12.8649 9.05405 12.8108 9.10811 12.7568 9.10811Z" fill="#393939"/>
<path fill-rule="evenodd" clip-rule="evenodd" d="M13.3514 10.1892H13.8378C13.8919 10.1892 14 10.2363 14 10.3513V12.027C14 12.1351 13.8919 12.1892 13.8378 12.1892H11.027C10.9189 12.1892 10.8649 12.0811 10.8649 12.027V10.3513C10.8649 10.2432 10.973 10.1892 11.027 10.1892H11.5135V8.62162C11.5135 8.51351 11.6216 8.4054 11.7297 8.4054H13.1351C13.2432 8.4054 13.3514 8.51351 13.3514 8.62162V10.1892ZM11.9838 10.6216C11.8733 10.6216 11.7838 10.5321 11.7838 10.4216V8.87567C11.7838 8.76522 11.8733 8.67567 11.9838 8.67567H12.827C12.9375 8.67567 13.027 8.76522 13.027 8.87567V10.4216C13.027 10.5321 12.9375 10.6216 12.827 10.6216H11.9838ZM12.7568 11.4324H12.0541C12 11.4324 11.8919 11.3784 11.8919 11.2703C11.8919 11.2162 11.9459 11.1081 12.0541 11.1081H12.7568C12.8108 11.1081 12.9189 11.1622 12.9189 11.2703C12.9189 11.3784 12.8649 11.4324 12.7568 11.4324Z" fill="#393939"/>
</svg>
