<svg width="16" height="16" viewBox="0 0 16 16" fill="none" xmlns="http://www.w3.org/2000/svg">
<path d="M6.20587 4.62353C5.97058 4.62353 5.79411 4.39496 5.79411 4.22353C5.79411 3.99496 5.97058 3.82353 6.20587 3.82353H6.44117C6.67646 3.82353 6.85293 3.99496 6.85293 4.22353C6.85293 4.4521 6.67646 4.62353 6.44117 4.62353H6.20587Z" fill="#393939"/>
<path d="M7.67646 4.62353C7.44117 4.62353 7.2647 4.39496 7.2647 4.22353C7.2647 3.99496 7.44117 3.82353 7.67646 3.82353H9.79411C10.0294 3.82353 10.2059 3.99496 10.2059 4.22353C10.2059 4.4521 10.0294 4.62353 9.79411 4.62353H7.67646Z" fill="#393939"/>
<path d="M7.2647 5.69412C7.2647 5.86555 7.44117 6.09412 7.67646 6.09412H9.79411C10.0294 6.09412 10.2059 5.86555 10.2059 5.69412C10.2059 5.52269 10.0294 5.29412 9.79411 5.29412H7.67646C7.44117 5.29412 7.2647 5.46555 7.2647 5.69412Z" fill="#393939"/>
<path d="M6.20587 6.09412C5.97058 6.09412 5.79411 5.86555 5.79411 5.69412C5.79411 5.46555 5.97058 5.29412 6.20587 5.29412H6.44117C6.67646 5.29412 6.85293 5.52269 6.85293 5.69412C6.85293 5.86555 6.67646 6.09412 6.44117 6.09412H6.20587Z" fill="#393939"/>
<path d="M7.2647 7.28235C7.2647 7.45378 7.44117 7.68235 7.67646 7.68235H9.79411C10.0294 7.68235 10.2059 7.45378 10.2059 7.28235C10.2059 7.11092 10.0294 6.88235 9.79411 6.88235H7.67646C7.44117 6.88235 7.2647 7.05378 7.2647 7.28235Z" fill="#393939"/>
<path d="M6.20587 7.68235C5.97058 7.68235 5.79411 7.45378 5.79411 7.28235C5.79411 7.05378 5.97058 6.88235 6.20587 6.88235H6.44117C6.67646 6.88235 6.85293 7.11092 6.85293 7.28235C6.85293 7.45378 6.67646 7.68235 6.44117 7.68235H6.20587Z" fill="#393939"/>
<path d="M7.2647 8.81176C7.2647 8.98319 7.44117 9.21176 7.67646 9.21176H9.79411C10.0294 9.21176 10.2059 8.98319 10.2059 8.81176C10.2059 8.64034 10.0294 8.41176 9.79411 8.41176H7.67646C7.44117 8.41176 7.2647 8.58319 7.2647 8.81176Z" fill="#393939"/>
<path d="M6.20587 9.21176C5.97058 9.21176 5.79411 8.98319 5.79411 8.81176C5.79411 8.58319 5.97058 8.41176 6.20587 8.41176H6.44117C6.67646 8.41176 6.85293 8.64034 6.85293 8.81176C6.85293 8.98319 6.67646 9.21176 6.44117 9.21176H6.20587Z" fill="#393939"/>
<path d="M10.3529 11.2353H10.5882C10.7059 11.2353 10.8235 11.1176 10.8235 11C10.8235 10.8824 10.7059 10.7647 10.5882 10.7647H10.3529C10.2353 10.7647 10.1176 10.8824 10.1176 11C10.1176 11.1176 10.2353 11.2353 10.3529 11.2353Z" fill="#393939"/>
<path d="M5.5294 11.5647H5.7647C5.88234 11.5647 5.99999 11.3647 5.99999 11.1647C5.99999 10.9647 5.88234 10.7647 5.7647 10.7647H5.5294C5.41176 10.7647 5.29411 10.9647 5.29411 11.1647C5.29411 11.3647 5.41176 11.5647 5.5294 11.5647Z" fill="#393939"/>
<path d="M6.94117 11.5647H6.70587C6.58823 11.5647 6.47058 11.3647 6.47058 11.1647C6.47058 10.9647 6.58823 10.7647 6.70587 10.7647H6.94117C7.05881 10.7647 7.17646 10.9647 7.17646 11.1647C7.17646 11.3647 7.05881 11.5647 6.94117 11.5647Z" fill="#393939"/>
<path d="M7.94117 11.5647H8.17646C8.29411 11.5647 8.41176 11.3647 8.41176 11.1647C8.41176 10.9647 8.29411 10.7647 8.17646 10.7647H7.94117C7.82352 10.7647 7.70587 10.9647 7.70587 11.1647C7.70587 11.3647 7.82352 11.5647 7.94117 11.5647Z" fill="#393939"/>
<path d="M9.11764 11.5647H9.35293C9.5294 11.5647 9.58823 11.3647 9.58823 11.1647C9.58823 10.9647 9.47058 10.7647 9.35293 10.7647H9.11764C8.99999 10.7647 8.88234 10.9647 8.88234 11.1647C8.88234 11.3647 8.99999 11.5647 9.11764 11.5647Z" fill="#393939"/>
<path fill-rule="evenodd" clip-rule="evenodd" d="M9.41176 14C9.29411 14 9.17646 13.9412 9.05881 13.8824L8.05881 13.1765L7.05881 13.8824C6.99999 13.9412 6.88234 14 6.7647 14C6.64705 14 6.5294 13.9412 6.41176 13.8824L5.41176 13.1765L4.5294 13.8235C4.47058 13.8824 4.29411 13.9412 4.17646 13.9412H3.99999C3.7647 13.9412 3.58823 13.7059 3.58823 13.4706V2.70588C3.58823 2.29412 3.88234 2 4.29411 2H11.7059C12.1176 2 12.4118 2.29412 12.4118 2.70588V13.4118C12.4118 13.6471 12.2353 13.8824 12 13.9412H11.8823C11.7647 13.9412 11.5882 13.8824 11.5294 13.8235L10.647 13.2353L9.64705 13.9412C9.64705 13.9412 9.5294 14 9.41176 14ZM6.65464 13.4115L8.07373 12.4068L9.49283 13.4115L10.9119 12.4068L11.815 13.0348V11.216C11.7851 11.2283 11.749 11.2353 11.7059 11.2353H11.5882C11.4706 11.2353 11.3529 11.1176 11.3529 11C11.3529 10.8824 11.4706 10.7647 11.5882 10.7647H11.7059C11.7435 10.7647 11.7812 10.7768 11.815 10.797V2.67409H4.26799V10.8217C4.30947 10.7869 4.36061 10.7647 4.41176 10.7647H4.5294C4.64705 10.7647 4.7647 10.8824 4.7647 11C4.7647 11.1176 4.64705 11.2353 4.5294 11.2353H4.41176C4.36061 11.2353 4.30947 11.2131 4.26799 11.1783V13.0348L5.17105 12.4068L6.65464 13.4115Z" fill="#393939"/>
</svg>
