<svg width="16" height="16" viewBox="0 0 16 16" fill="none" xmlns="http://www.w3.org/2000/svg">
<path fill-rule="evenodd" clip-rule="evenodd" d="M2.72252 2.6911V13.3089C2.72252 13.6859 3.03666 14 3.41362 14H12.5864C12.9634 14 13.2775 13.6859 13.2775 13.3089V2.6911C13.2775 2.31414 12.9634 2 12.5864 2H3.41362C2.97383 2.06283 2.72252 2.31414 2.72252 2.6911ZM12.3979 12.8461C12.3979 13.067 12.2188 13.2461 11.9979 13.2461H3.81362C3.5927 13.2461 3.41362 13.067 3.41362 12.8461V3.15393C3.41362 2.93301 3.5927 2.75393 3.81362 2.75393H11.9979C12.2188 2.75393 12.3979 2.93301 12.3979 3.15393V12.8461ZM4.16755 4.63874C4.16755 4.43055 4.33632 4.26178 4.54451 4.26178H7.56021C7.76841 4.26178 7.93718 4.43055 7.93718 4.63874C7.93718 4.84693 7.76841 5.01571 7.56022 5.01571H4.54451C4.33632 5.01571 4.16755 4.84693 4.16755 4.63874ZM4.16755 6.1466C4.16755 5.93841 4.33632 5.76963 4.54451 5.76963H7.56021C7.76841 5.76963 7.93718 5.93841 7.93718 6.1466C7.93718 6.35479 7.76841 6.52356 7.56022 6.52356H4.54451C4.33632 6.52356 4.16755 6.35479 4.16755 6.1466ZM4.16755 7.65445C4.16755 7.44626 4.33632 7.27749 4.54451 7.27749H7.56021C7.76841 7.27749 7.93718 7.44626 7.93718 7.65445C7.93718 7.86264 7.76841 8.03141 7.56022 8.03141H4.54451C4.33632 8.03141 4.16755 7.86264 4.16755 7.65445ZM4.16755 9.1623C4.16755 8.95411 4.33632 8.78534 4.54451 8.78534H7.56021C7.76841 8.78534 7.93718 8.95411 7.93718 9.1623C7.93718 9.37049 7.76841 9.53927 7.56022 9.53927H4.54451C4.33632 9.53927 4.16755 9.37049 4.16755 9.1623ZM4.16755 10.6702C4.16755 10.462 4.33632 10.2932 4.54451 10.2932H7.56021C7.76841 10.2932 7.93718 10.462 7.93718 10.6702C7.93718 10.8783 7.76841 11.0471 7.56022 11.0471H4.54451C4.33632 11.0471 4.16755 10.8783 4.16755 10.6702ZM4.16755 12.178C4.16755 11.9698 4.33632 11.801 4.54451 11.801H11.267C11.4752 11.801 11.644 11.9698 11.644 12.178C11.644 12.3862 11.4752 12.555 11.267 12.555H4.54451C4.33632 12.555 4.16755 12.3862 4.16755 12.178ZM11.7068 4.57592L11.267 5.01571L11.7068 5.4555V5.76963H10.9529V6.52356H10.6387L10.199 6.08377L9.75917 6.52356H9.44503V5.76963H8.69111V5.4555L9.1309 5.01571L8.69111 4.57592V4.26178H9.44503V3.50785H9.75917L10.199 3.94764L10.6387 3.50785H10.9529V4.26178H11.7068V4.57592ZM10.7529 7.27749C10.8633 7.27749 10.9529 7.36703 10.9529 7.47749V10.6702L10.199 9.91623L9.44503 10.6702V7.47749C9.44503 7.36703 9.53457 7.27749 9.64503 7.27749H10.7529Z" fill="#393939"/>
</svg>
