<svg width="16" height="16" viewBox="0 0 16 16" fill="none" xmlns="http://www.w3.org/2000/svg">
<path d="M5.39622 7.54717V7.20755C4.94339 7.15094 4.66037 6.86793 4.49056 6.58491V6.4717L5.0566 6.24528V6.35849C5.11321 6.5283 5.39622 6.69811 5.62264 6.69811C5.73585 6.69811 6.13207 6.69811 6.13207 6.41509C6.13207 6.30189 5.96226 6.24528 5.62264 6.13208L5.58264 6.12711C5.13405 6.07165 4.54717 5.99908 4.54717 5.33962C4.54717 4.9434 4.88679 4.60377 5.33962 4.54717V4.20755H6.01887V4.54717C6.24528 4.60377 6.5849 4.71698 6.75471 5.0566V5.16981L6.18868 5.45283V5.39623C6.13207 5.28302 5.84905 5.16981 5.67924 5.16981C5.56604 5.16981 5.22641 5.16981 5.22641 5.39623C5.22641 5.50943 5.39622 5.56604 5.73585 5.56604C6.18868 5.62264 6.86792 5.73585 6.86792 6.41509C6.86792 6.92453 6.4717 7.20755 6.07547 7.26415V7.66038C6.07547 7.54717 5.39622 7.54717 5.39622 7.54717Z" fill="#393939"/>
<path fill-rule="evenodd" clip-rule="evenodd" d="M2 5.93396C2 7.9717 3.69811 9.61321 5.67925 9.61321C7.66038 9.61321 9.30189 7.9717 9.35849 5.93396C9.35849 3.89623 7.71698 2.25472 5.67925 2.25472C3.64151 2.25472 2 3.89623 2 5.93396ZM2.79245 5.93396C2.79245 4.34906 4.03773 3.04717 5.67924 3.04717C7.26415 3.04717 8.56603 4.34906 8.56603 5.93396C8.56603 7.51887 7.26415 8.82076 5.67924 8.82076C4.09434 8.82076 2.79245 7.57547 2.79245 5.93396Z" fill="#393939"/>
<path d="M12.7547 11.4245H13.5472C13.7736 11.4245 14 11.1981 14 10.9717C14 10.7453 13.7736 10.5189 13.5472 10.5189H12.7547C12.5283 10.5189 12.3019 10.7453 12.3019 10.9717C12.3019 11.1981 12.5283 11.4245 12.7547 11.4245Z" fill="#393939"/>
<path d="M13.5472 9.5H9.75472C9.5283 9.5 9.30189 9.27358 9.30189 9.04717C9.30189 8.82075 9.5283 8.59434 9.75472 8.59434H13.5472C13.7736 8.59434 14 8.82075 14 9.04717C14 9.33019 13.7736 9.5 13.5472 9.5Z" fill="#393939"/>
<path d="M3.86792 13.7453H13.5472C13.7736 13.7453 14 13.5189 14 13.2925C14 13.066 13.7736 12.8396 13.5472 12.8396H3.86792C3.64151 12.8396 3.41509 13.066 3.41509 13.2925C3.41509 13.5189 3.64151 13.7453 3.86792 13.7453Z" fill="#393939"/>
<path d="M13.5472 7.57547H11.3962C11.1698 7.57547 10.9434 7.34906 10.9434 7.12264C10.9434 6.89623 11.1698 6.66981 11.3962 6.66981H13.5472C13.7736 6.66981 14 6.89623 14 7.12264C14 7.34906 13.7736 7.57547 13.5472 7.57547Z" fill="#393939"/>
<path d="M6.35849 11.4245H11.1698C11.3962 11.4245 11.6226 11.1981 11.6226 10.9717C11.6226 10.7453 11.3962 10.5189 11.1698 10.5189H6.35849C6.13208 10.5189 5.90566 10.7453 5.90566 10.9717C5.90566 11.1981 6.13208 11.4245 6.35849 11.4245Z" fill="#393939"/>
</svg>
